<?xml version="1.0" encoding="utf-8"?>
<!-- Generator: Adobe Illustrator 19.0.0, SVG Export Plug-In . SVG Version: 6.00 Build 0)  -->
<svg version="1.1" id="Layer_1" xmlns="http://www.w3.org/2000/svg" xmlns:xlink="http://www.w3.org/1999/xlink" x="0px" y="0px"
	 width="105.8px" height="59.6px" viewBox="-392.8 515.9 105.8 59.6" style="enable-background:new -392.8 515.9 105.8 59.6;"
	 xml:space="preserve">
<style type="text/css">
	.st0{fill:#EBB637;}
</style>
<g>
	<path class="st0" d="M-349.4,558.3h-0.2c0,0.7-0.2,1.3-0.3,2v0.3c-0.2,0.3-0.1,2,0,1.7c-0.1,0.3,0.2,0.6,0,1.1
		c-0.2,0.3-0.9,0.6-1,1c-0.1,0.2,0.6,1.3-0.4,1.3c0.6,0.1,0.2,0.7-0.6,1.1c0,2.2-2.8,3.4-4.9,5.8c-1.8,0.4-3.8,1.3-6.1,1.8
		c-1.5,0.3-3,0.4-4,1c-1.1,0-3.2-0.2-4.6-0.2c-0.2,0-0.2,0.3-0.2,0.5v0.1c-1.1,0-5.3-0.5-5.6-0.6c-0.2,0.1-4.4-1.1-5.3-1.5
		c-0.1,0-0.1,0-0.2-0.1c-0.4-0.2-0.7-0.2-1.1-0.4c-0.1,0-0.1,0.1-0.1,0.2c-0.2-0.4-0.8-0.6-0.8-0.5c-0.1-0.1-0.1-0.1-0.1-0.2
		c-0.2-0.2-0.5-0.2-0.6-0.3c-0.2-0.1-0.2-0.1-0.2-0.2c-0.6-0.3-1.1-0.6-1.5-1c-1.2-0.5-2.6-2.3-2.6-2.3c0-0.1-0.6-0.6-0.4-0.5
		l-1-1.4c0,0-0.6-1.1-0.6-1.2c-0.2,0-0.2-0.3-0.2-0.3c-0.3-0.9-0.6-1.8-0.7-2.7c-0.2-1.1,0-3.6,0-3.6c0.7-3.5,3.6-5.3,7-5.7
		c0.6-1,1.9,0,2.8-0.3c0.5-0.1-0.4-0.7,0.8-0.5c-0.1-2.8-0.2-10.2,0.2-16.3c0.2-3.2-0.1-7.2,1.3-8.3c-0.2-0.2-0.6-0.2-0.6-0.8
		c0.4,0,0.5,0.2,0.8,0.3c-0.6-1.3-0.6-3.4,0.7-3.6c-0.5-0.9,0.2-0.9,0.5-1.5c0.4,0.1-0.1,0.3,0,0.7c0.6-1.2,0.8,0.2,1.8-0.7
		c0.5,0.6,0.9,0.1,2.3,0.5c1.3,0.4,1,0.8,2.3,1.1c-0.2,2.8-0.2,4.1-1.1,6.1c0.1,0,0.2,0,0.2-0.1c-0.4,1.5-0.4,4.9-0.7,6.6
		c0,0.1-0.5,0-0.5,0c-0.1,0.5,0.6,1.4-0.2,0.8c0.7,1.5-0.2,3.6-0.6,5.6c-0.2,1.3,0.4,3.5-0.5,3.1c0.3,0.5-0.1,1.3,0.2,0.7
		c0.3,1.8-0.6,4.3-0.5,6.3c0,0.9,0.4,0.9-0.2,1.5c0.1,0.2,0.2,0.5,0.5,0.5c-0.2,0.5-0.6,0.2-0.5-0.2c-1.1,2,1.2,3.9-0.2,5.1
		c0.8,0.8,0.4,0.6,0.2,1.5c0,0.2,0.2,0.2,0.2,0c0,1.1,0.7,3.5,0.7,5.1c1.1-0.6-0.2,0.3,0.8,0.2c-3.7,0.6-7-3.6-7.1-8.9l-0.1,0.2
		c0,0-1.1-0.4-2.3-0.4c-1.7,0.1-2.9,0.8-3.7,2.3c-0.5,0.8-0.3,1.9,0.3,3c1.1,1.9,3.6,3.9,6.8,5.2c0.1,0,0.2,0,0.2-0.1
		c-0.1,0-0.2,0.1-0.2,0.1c0.8,0.3,1.7,0.6,2.6,0.9c1.1,0.1,1.9-0.1,2.6,0.5c0.2,0,0.5,0.1,0.7,0.1c7.3-0.5,3.1,0,6.1-0.5
		c0.2-0.1,0.6-0.1,0.8-0.2c1-0.2,1.9-0.5,2.6-0.9c0.1,0,0.1,0.1,0.2,0.2l2.1-1.1c0.1,0,0.1,0,0.2,0c0.6-0.4,1.2-0.8,1.9-1.3
		c2.1-1.7,3.6-3.9,4.4-6.5c0.6-3.1,0.5-2,0.6-3.9c0-0.5,0-1-0.1-1.5c-0.2-0.2-0.4-0.8-0.2-1.2c-0.2-0.6-0.5-1.2-0.8-1.8
		c0,0-0.1,0-0.1-0.1c-0.2-0.4-0.6-0.7-0.9-1.1c-0.9-0.9-2.4-2.1-5.1-3c0,0-0.2,0-0.2-0.1c-0.5-0.2-1.1-0.3-1.6-0.4
		c0,0-0.1,0-0.2-0.1c-0.2,0-0.3-0.1-0.6-0.1c-0.1-0.1-0.2-0.1-0.2-0.1c-1.4-0.1-2.3-0.3-3.9-0.5c-0.3,0-0.5,0-0.5-0.1v-0.1l-0.1-0.5
		c0.2-1.7,1.1-3.4,2.8-4.4v-0.1l0.4-0.2c0.2-0.1,0.6-0.2,0.8-0.2c0.3-0.1,2.6-1.1,3.2-1.3c0.2-0.2,0.3-0.2,0.5-0.3
		c1.3-0.8,2.2-1.6,2.7-2.3c0.1-0.3,0.2-0.6,0.5-0.8c0.2-0.5,0.5-4.5,0.2-5.7c-0.2-0.6-2.3-4.2-2.8-5.1c-1.1-1.5-3.2-2.3-4.4-3.4
		c0.6-0.6-1.4-0.6-0.6-0.2c-0.4,0.3-1.9-0.5-2.3-1.1c-1.9,1.1-3.2-0.9-4.3,0.3c-0.4-0.2,0.1-0.3,0-0.8c-1.6,1.1-2.3,0.8-4.5,1.1
		c-0.1,0.2,0.1,0.2,0.2,0.2c-1.9,0.1-3.4,1.5-5.6,2c-2.1-6.1,5.6-6.1,8.6-6.6c-0.1,0.4,0.2,0.5,0.3,0.8c0.2-0.2-0.1-0.2,0-0.6h-0.3
		v-0.3c2.4,0.1,4.7,0.4,6.7,1h0.1c1,0.3,1.9,0.6,2.8,1c0.1,0,0.2,0.1,0.3,0.2c2,0.9,3.8,2.1,5.3,3.6l0.9,0.9c0.5,0.6,1,1.2,1.4,1.8
		c0.2,0.2,0.5,0.6,0.5,0.7l0.3,0.6c0.1,0,0.1,0,0.1-0.1l0.1,0.3c0.9,1.6,1.7,3.5,2.2,5.5c0.2,1-0.2,6.7-1,8.5
		c-0.7,1.9-1.7,3.3-2,3.9c0.1,0,0.2,0.1,0.2,0.2c0.1,0.1,0.2,0.2,0.4,0.2c0-0.1,0-0.2,0.1-0.3c0.3,0.1,0.2,0.6,0.6,0.6
		c0,0.1,0,0.1-0.1,0.2c0.4,0.2,0.8,0.6,1.3,0.9v-0.1c0.2,0.2,0.2,0.2,0.2,0.3c0.6,0.5,1.2,1.1,1.9,1.7c1.3,1.5,2.3,3,3,4.6
		C-349.4,554-349.1,556.1-349.4,558.3z M-390.5,558c-0.2,0-0.3,0-0.2-0.2c0.2-0.1,0.5,0,0.5-0.2c-0.4-0.5-0.7,0.2-1.2-0.2v1
		C-391.2,558.3-390.6,558.3-390.5,558z M-388.3,559.5c0.1,0,0.2,0.1,0.2,0.1c0.2-0.3,0.5-0.6,0.7-0.9h-0.3c0-0.2,0.3-0.2,0.5-0.2
		c-0.2-0.6-1,0.3-1.4-0.1c0.6,0.9-0.2,2.2-1.1,1.9c0.6,0.3-0.4,1.5-1,2.3c0.6-0.6,1.9-1.7,1.9-1.8c0.1,0.1,0.2-0.3,0.4-0.6
		C-388.6,560-388.3,559.9-388.3,559.5z M-387.7,557.8c0.1,0.2,1,0.9,0.7,0c0.2,0.1,0.2,0.2,0.2,0.5c0.2-0.2,0.4-0.3,0.6-0.4
		c-0.2-0.1-0.4-0.1-0.4-0.1c-0.1-0.3,0.8-0.4,0.9-0.1c0.5-0.2,1-0.2,1.4-0.2h0.2c-0.2-0.1-0.3-0.2-0.4-0.5c-1.9,0.2-1.9,0.2-3.2,0.3
		C-387.6,557.4-387.5,557.7-387.7,557.8z M-387.2,566.9c0,0.2-0.1,0.3-0.2,0.2v0.5C-386.8,568-386.7,566.8-387.2,566.9z
		 M-385.9,571.7c-0.1-0.1-0.1-0.2-0.1-0.2c-0.2,0-0.3,0-0.5-0.1C-386.3,571.5-386.1,571.6-385.9,571.7z M-384.5,568.1
		c-0.8,0.3-0.2-0.8-1-0.5c0.4,0.9-0.5,1.2-0.8,2c0.2,0.2,1.2,0.6,1.3,0C-386.1,568.8-384.6,569-384.5,568.1z M-384.9,572.2
		c0-0.2-0.1-0.2-0.1-0.2s-0.1,0.1-0.2,0.1L-384.9,572.2z M-385,556.5c0.3,0,0.6,0.2,0.8,0.2c0.2-1.4,1.9-0.8,1.8-1
		c-0.6-0.1,0.3-0.7-0.6-0.8c-1.2,0.3-1.2,0.9-2,1.1C-384.6,556.1-384.8,556.2-385,556.5z M-383.7,569.2c-0.3-0.1-0.6-0.3-0.2,0
		c-0.6,0.2-1.1,1.5-0.2,0.5c0,0.2,0,0.3,0.2,0.2C-383.9,569.6-383.8,569.4-383.7,569.2z M-383.3,573c0-0.1-0.1-0.2-0.1-0.2
		c-0.1,0-0.2,0.1-0.2,0.1C-383.6,572.9-383.4,573-383.3,573z M-382.1,557.5v-0.8C-383.1,556.6-383.1,557.6-382.1,557.5z
		 M-382.4,569.9c-0.2,0-0.3,0-0.3-0.2c0.2,0,0.6,0,0.6-0.2C-383.3,569.2-382.8,570.6-382.4,569.9z M-381,573.9
		c-0.4-0.3-0.4-1-0.6-1.4c0.4-0.1,0.3-0.5,1.3-0.5c-0.2-0.6-1.9-0.4-1.5,0.5c-0.5-0.1-0.2-0.9-0.8-0.8c0.3,0.6,0.6,1.2,1.3,1.5
		c-0.1,0.2-0.2,0.3-0.4,0.3C-381.6,573.7-381.2,573.8-381,573.9z M-382.4,571.4c0.3,0,0.3,0.3,0.7,0.2
		C-381.2,571.1-382.5,571-382.4,571.4z M-381.4,555.7c0.1,0.3-0.1,0.9,0.2,1C-380.8,556.4-381,556-381.4,555.7z M-381,568.4
		c0,0.4,1,0.8,1.3,0.5L-381,568.4z M-380.4,572.5v0.5c1,0,1.1-1.1,0.7-1.3c-0.2,0.4-0.8,0.4-1.3,0.6c0.1,0.2,0,0.7,0.3,0.7
		C-380.6,572.8-380.6,572.5-380.4,572.5z M-379.6,573.7c-0.1,0-0.5,0.2-0.8,0.3l1,0.2C-379.5,574.1-379.4,573.9-379.6,573.7z
		 M-380.4,555.5c0.3-0.1,0.9,0.8,1,0.2c-0.9-0.6,1.2-0.3,1.3-0.8C-378.9,554.7-379.8,554.7-380.4,555.5z M-379.5,569
		c-0.2,0.2-0.6,0.6-0.3,1.2c0.4-0.2,0.6-0.6,0.7-1.1C-379.3,569.1-379.5,569-379.5,569z M-378.9,574.3l-0.2-1.8v0.5
		c-0.3-0.1-0.4-0.3-0.7,0c-0.2,1.1,0.6,0.3,0.7,0.7C-379.5,573.8-379.1,574.2-378.9,574.3z M-378.6,551.9c-0.6,0-0.3-0.7-1.1-0.6
		C-379.8,551.9-378.7,552.4-378.6,551.9z M-378.9,551.7c0.6,0.1,0.6,0.3,0.3,0.7c0.5,0.1,0.8-0.2,0.7-0.7
		C-378.3,551.9-378.7,550.9-378.9,551.7z M-377.8,574.7c0-0.1,0-0.2,0-0.4c-0.3-0.1-0.6,0.1-1,0.2L-377.8,574.7z M-378.3,554.7
		c0.2,0.1,1,0.6,1,0c-0.2,0-0.4-0.2-0.5-0.5c0.3,0.1,0.5,0.4,0.5-0.2C-378,553.9-378.2,554.4-378.3,554.7z M-377.7,574.7
		c0.2,0,0.2,0.1,0.3,0.1C-377.3,574.4-377.5,574.6-377.7,574.7z M-375.8,526.1c0-1.1-0.2-1.8-1.3-1.8
		C-377.2,525.4-375.9,525.1-375.8,526.1z M-375.8,570.5v-0.6c-0.2-0.1-0.3-0.1-0.5-0.1v0.9C-376.2,570.5-376.1,570.4-375.8,570.5z
		 M-372.3,575.3c-1.3-0.2-2.5-0.4-3.9-0.4C-375,575.2-373.7,575.2-372.3,575.3z M-375.8,517.6c-0.2-0.5,0.8-0.8,0-1
		c-0.3,0.3-0.4,1.2,0.2,1.2C-375.2,517.2-375.3,517-375.8,517.6z M-376.1,569.5c0,0,0.1,0,0.2,0C-375.9,569.5-376,569.4-376.1,569.5
		L-376.1,569.5z M-375.3,569.9l0.2,0.6c0.2-0.2,0-0.2,0-0.5C-375.1,570-375.2,570-375.3,569.9z M-374.5,573.2c0.1-0.4,0.4,0,0.5,0.2
		c-0.2,0-0.2,0.2,0,0.2c0-0.3,0.3-0.3,0.2-0.7C-374.3,572.7-375.1,572.9-374.5,573.2z M-369.8,516.9c-0.2,0-0.4-0.1-0.6-0.1
		c0.2,0.2,0.4,0.5,0.5,0.8C-369.4,517.5-370.2,517.2-369.8,516.9z M-369,517.2c0.1,0,0.1,0.1,0.2,0H-369z M-367.7,517.6
		c-0.3-0.2-0.6-0.2-1-0.3c-0.2,0.1-0.2,0.2-0.3,0.2C-368.7,517.6-368.1,517.6-367.7,517.6z M-366.4,518c-0.1-0.1-0.2-0.1-0.3-0.2
		v0.6C-366.6,518.3-366.4,518.1-366.4,518z M-365.1,543.8c-1.1-0.2-0.6,1.2-0.2,0.6c-0.2-0.1-0.3-0.1-0.2-0.3
		C-365.5,544-365.1,544-365.1,543.8z M-364.2,544c-0.2,0-0.5,0-0.5-0.2c0.4,0,0.4-0.4,0.8-0.5c0.6,0.7,1.3-0.1,1.8,0.2
		c-0.1-0.1-0.1-0.2-0.1-0.5c0.1-0.6,0.1-1.2-0.5-1.5c-0.2,0.9,0.3,1.1,0.5,1.5c-0.3,0.4-1.3,0-0.7-0.5h-0.7c-0.2,0.4,0.3,0.6,0,0.7
		c-0.5,0-0.6-1.6-1.1-0.7c0.6,0.4-0.2-0.2-0.5,0.2c0.3,0.9,0.3,0.8,0.5,1.5c-0.2,0-0.5,0-0.5,0.2
		C-364.7,544.5-364.3,544.4-364.2,544z M-364.7,545.3v-0.6C-364.9,544.9-365,545.1-364.7,545.3z M-357.5,544.3c0-0.1,0-0.1-0.1-0.2
		l-0.5-0.2l-0.2-0.1l0.1-0.2c0.1-0.1-1.1-2.3-1.9-1.9c0.9-0.9-0.1-0.2-0.8,0c0.2,0.2,0.6,0.2,0.5,0.8c0.4-0.8,0.5,0.2,0.3,0.5
		c-0.5,0-0.2-0.8-0.8-0.8c-0.3,1.1-1.6,1.1-0.7,2.8c-0.6-0.2-0.6-0.9-1.1-1.3c-0.5,0.2-0.2,0.8-0.7,0.2c0.2,0.6,0.7,0.6,1,1.1
		c0.1,0-0.6,0-1.5,0.2c-0.1-0.1-0.2-1.5,0.5-0.2c0.2-0.6-1-1.9-0.5-1.3c0.2,0.6-0.4,0.8-0.7,1c0.2,0,0.4,0.6,0.6,0.6l-0.7,0.2
		c0.2,0.2,0.9,0.7,1.1,0.6c-0.2-0.1,4.9-0.4,3.8-0.6c-0.3-0.7-0.3-1.7-1.3-1.8c0.1-0.9,0.7,0.1,0.7-0.5c0.2,0.2,0.2,1.4,0.6,0
		c0.6-0.1,0.2,1,1,0.7v1.3C-357.7,544.6-357.5,545-357.5,544.3z M-363.6,519.9c0,0.4-0.5,0.2-0.6,0.6
		C-363.8,521-363,520.1-363.6,519.9z M-364.2,542c0.3,0.1,0.6,0.5,0.8,0C-363.7,542-363.9,541.6-364.2,542z M-360.1,522.2l-0.2-0.3
		c-0.6-0.6-1.2-1.1-1.9-1.5C-361.5,521-360.9,521.7-360.1,522.2z M-361.6,541.7c-0.1-0.3,1.3-0.5,0.5-0.7c0,0.2,0,0.3-0.2,0.2
		c0-0.3,0.3-0.3,0.2-0.7C-361.7,540.4-362.1,541.7-361.6,541.7z M-359.3,523.5c0.2,0.1,0.3,0,0.4,0l-0.4-0.5V523.5z M-356.2,545.1
		c-0.4-0.3-0.7-0.6-1.1-0.7C-357.1,544.8-356.8,545.2-356.2,545.1z M-356.2,560c0,0.3,0.6,0.7,0.2,1.3
		C-354.9,561.2-355.8,559.5-356.2,560z M-354.5,561.6c-0.3,0-0.7-0.1-0.8,0.2c0.6,0.1-0.2,0.6-0.2,1.1
		C-354.5,563.1-354.7,562.1-354.5,561.6z M-353.6,547.4c-0.5-0.6-1.1-1.1-1.6-1.5C-355.4,546-354.2,547-353.6,547.4z M-354.2,555.2
		c-0.6-0.2-0.9,1.2-0.6,1.1C-354.6,555.8-354.4,555.6-354.2,555.2z M-353.3,555.2c0,0.3-0.2,0.2-0.5,0c0.1,0.5-0.4,0.7,0,0.8
		C-353.7,555.7-352.4,555.5-353.3,555.2z M-352.4,556.2c-0.1-0.7,0.5-0.9,0.7-1.3c-0.4,0.1-0.9-0.1-1,0.2
		C-352,555.1-353.3,556.1-352.4,556.2z M-352,556.2c0.8,0.9-0.2,0.5-0.4,0.4c0.1,0,0.1,0.1,0.2,0.1c0.2,0.6,0.1,0.6,0.2,1.5
		C-350.7,558.5-351.1,555.5-352,556.2z M-349.9,560.6C-349.9,560.5-349.9,560.5-349.9,560.6L-349.9,560.6z"/>
	<path class="st0" d="M-316,561.3c-0.5,1.1-1.2,1-0.9,2c-0.9-0.6,0.2,0.4-0.6,0.2c0.6,0.4,0.3,0.4,0,0.9c-0.3-0.1,0-0.2,0-0.4
		c-0.5,1-1.5,2.5-1.9,2.9c-1.7,1-3.1,4.3-6.1,5.1c0.1,0.7-0.5,0.7-1.6,1.3c-0.4,0.2-0.2,0.2-0.9,0.5c-0.6,0.2-0.1,0.2-0.7,0.2
		c-0.6,0.1-1.4,0.8-1.8,0.9c-0.5,0.1-2-0.5-1.6,0.2c-0.2,0.2-1.1,0-1.9,0.2c0.7-0.9,0.1-0.2-0.4-0.9c-0.3,0-0.3,0.6,0,0.6
		c0,0.4-1-0.1-0.6-0.4c0.1,0,0.1,0,0.1-0.1c0,0.1-0.1,0.1-0.1,0.1c-0.8,0.5-3.5,0.4-3.1-0.5c-2.1,0.8-6.1-3.5-5.7-6
		c-0.5-0.8-1.1-2.8-0.6-3.9c0,0.1,0.4,0.2,0.4,0.2c0-0.2-0.3-0.4-0.4-0.6c-0.3-1.4,0.4-3.6,0.6-4.6c0.4-1.7,0.5-3.2,1.1-4.8
		c1.1-2.7,3.4-6.3,4.8-7.8c0.8-0.7,2.2-1.4,3-2c2.4-1.9,8.1-2.7,10.4,0.4c0.3,0.3,0.6,0.6,0.8,1c0,0,0.2,0.2,0.2,0.3
		c0.1,0.2,0.9,1.9,1,2.7c0.1,0.7,0,2.3,0,2.3c0,0.2-0.4,2-0.6,2c-0.6,1.6-1.7,3.2-3.2,4.4c-2.7,2.4-6.1,4.2-10,5.6
		c-0.5,3.2,0.1,4.9,0.7,6.4c0.3,0.9,1.6,1,2,1.9c1.4-0.1,2.2-0.2,3.9-0.2c2.8-1.5,6.5-2.1,8-4.8c0.7,0.2,0.7-0.4,1.1-0.5
		c0.1-1.9,2.9-2.4,2.5-4.1c0.6,0,1-1.2,1.1-2.3c0.2,0.2,0.8-1,0.9-1.2C-315.1,559.3-316.8,561.4-316,561.3z M-341.3,561.8
		c-0.3,0.5-1-0.3-1.1,0.2c0.3,0,0.2,0.4,0.5,0.5c-0.1-0.4,0.2-0.6,0.2,0h0.4C-341.2,562.2-340.9,562-341.3,561.8z M-338.3,567.7
		c-0.8,0.1-1.2,0-1.4,0.2C-339.3,568-338.6,568.4-338.3,567.7z M-339.4,565.9c0.1,0.1,0.9,0.6,0.9,0c-0.4-0.1,0.1-0.2,0.2-0.4
		c-0.3,0-0.5-0.2-0.7-0.2c0,0.2,0.1,0.6-0.2,0.6C-339.2,565.8-339.4,565.6-339.4,565.9z M-339.2,562.7c0.4,0,1.7-0.4,0.9-0.9
		C-338.5,562.2-339.2,562.1-339.2,562.7z M-338.5,569.5c-0.3,0.2-0.6-0.9-0.6-0.2C-339,569.3-338.8,570.3-338.5,569.5z
		 M-338.8,553.6c0.6,0.3,0.6-1.1,0-0.7V553.6z M-336.9,570.7c0-0.7-0.8-0.6-1.1-1c-0.1,0.3-0.3,0.5-0.2,1
		C-337.5,570.5-337.3,571.1-336.9,570.7z M-336,561.1c1.4-0.2,1.4-0.6,2.3-1.4c0.3-0.2,0.9-0.4,1.1-0.6c1.1-1,1.8-1.9,2.3-2.8
		c0.6-1,1.9-2,2.3-3c0,0.1,0.3-0.4,0.4-0.6c0.7-2-0.4-2,1.2-3.6c-1.1,0.6-0.6-2-1.4-2.8c-0.6-0.3-1.1,0.5-1.1,0
		c-0.1,0.1-0.9,0.6-1.9,0.9c-0.2,1.1-1.3,1.5-1.9,2.5c0.1-0.1-3,4.9-3.2,9.4C-335.8,558.6-335.9,559.9-336,561.1z M-326.5,556.7
		c-0.2,0-0.6,0.6-0.5,0.8c0.2-0.2,0.4-0.3,0.5-0.5V556.7z M-326.4,552.4c-0.8,0.6,1,1.2,0.2,1.8c0.8-0.1,0.9,0.8,1.9,1
		c-0.2-0.1-1.2-1.1-0.2-1.1c-0.2-0.7-0.7,0.1-1.1,0c0.5-0.5-0.6-0.6-0.2-1.6c-0.2,0-0.2,0.2-0.2,0.4
		C-326.4,552.8-326.4,552.6-326.4,552.4z M-325.7,555.4c-0.2,0.2-0.6,1.1,0.2,0.9c0.1-0.4-0.3-0.6,0-0.7
		C-325.3,556.4-325.2,555.4-325.7,555.4z M-325.9,550.6c0,0.3,0.9-0.2,1.5,0c0.2,0.6-0.4,0.2-0.4,0.2c0,0.6,0.6,1.2,0.9,1.6
		c0.2-0.2,0.2-0.6,0.3-0.8c-0.3-0.1-0.6-0.3-0.6-0.8c0.2-0.2,0.4-0.2,0.6-0.2c0.1-0.2-0.3-1-0.3-1.3c-0.2,0.6-0.4,1-1.1,0.6
		c0.3-0.3,0.6-1.1-0.3-1C-325.2,549.8-326.1,549-325.9,550.6z"/>
	<path class="st0" d="M-287.3,561.3c-0.5,1.1-1.2,1-0.9,2c-0.9-0.6,0.2,0.4-0.6,0.2c0.6,0.4,0.3,0.4,0,0.9c-0.3-0.1,0-0.2,0-0.4
		c-0.5,1-1.5,2.5-1.9,2.9c-1.7,1-3.1,4.3-6.1,5.1c0.1,0.7-0.5,0.7-1.6,1.3c-0.4,0.2-0.2,0.2-0.9,0.5c-0.6,0.2-0.1,0.2-0.7,0.2
		c-0.6,0.1-1.4,0.8-1.8,0.9c-0.5,0.1-2-0.5-1.6,0.2c-0.2,0.2-1.1,0-1.9,0.2c0.7-0.9,0.1-0.2-0.4-0.9c-0.3,0-0.3,0.6,0,0.6
		c0,0.4-1-0.1-0.6-0.4c0.1,0,0.1,0,0.1-0.1c0,0.1-0.1,0.1-0.1,0.1c-0.8,0.5-3.5,0.4-3.1-0.5c-2.1,0.8-6.1-3.5-5.7-6
		c-0.5-0.8-1.1-2.8-0.6-3.9c0,0.1,0.4,0.2,0.4,0.2c0-0.2-0.3-0.4-0.4-0.6c-0.3-1.4,0.4-3.6,0.6-4.6c0.4-1.7,0.5-3.2,1.1-4.8
		c1.1-2.7,3.4-6.3,4.8-7.8c0.8-0.7,2.2-1.4,3-2c2.4-1.9,8.1-2.7,10.4,0.4c0.3,0.3,0.6,0.6,0.8,1c0,0,0.2,0.2,0.2,0.3
		c0.1,0.2,0.9,1.9,1,2.7c0.1,0.7,0,2.3,0,2.3c0,0.2-0.4,2-0.6,2c-0.6,1.6-1.7,3.2-3.2,4.4c-2.7,2.4-6.1,4.2-10,5.6
		c-0.5,3.2,0.1,4.9,0.7,6.4c0.3,0.9,1.6,1,2,1.9c1.4-0.1,2.2-0.2,3.9-0.2c2.8-1.5,6.5-2.1,8-4.8c0.7,0.2,0.7-0.4,1.1-0.5
		c0.1-1.9,2.9-2.4,2.5-4.1c0.6,0,1-1.2,1.1-2.3c0.2,0.2,0.8-1,0.9-1.2C-286.4,559.3-288.1,561.4-287.3,561.3z M-312.6,561.8
		c-0.3,0.5-1-0.3-1.1,0.2c0.3,0,0.2,0.4,0.5,0.5c-0.1-0.4,0.2-0.6,0.2,0h0.4C-312.6,562.2-312.2,562-312.6,561.8z M-309.6,567.7
		c-0.8,0.1-1.2,0-1.4,0.2C-310.6,568-310,568.4-309.6,567.7z M-310.8,565.9c0.1,0.1,0.9,0.6,0.9,0c-0.4-0.1,0.1-0.2,0.2-0.4
		c-0.3,0-0.5-0.2-0.7-0.2c0,0.2,0.1,0.6-0.2,0.6C-310.5,565.8-310.8,565.6-310.8,565.9z M-310.5,562.7c0.4,0,1.7-0.4,0.9-0.9
		C-309.9,562.2-310.5,562.1-310.5,562.7z M-309.9,569.5c-0.3,0.2-0.6-0.9-0.6-0.2C-310.4,569.3-310.1,570.3-309.9,569.5z
		 M-310.1,553.6c0.6,0.3,0.6-1.1,0-0.7V553.6z M-308.3,570.7c0-0.7-0.8-0.6-1.1-1c-0.1,0.3-0.3,0.5-0.2,1
		C-308.8,570.5-308.7,571.1-308.3,570.7z M-307.4,561.1c1.4-0.2,1.4-0.6,2.3-1.4c0.3-0.2,0.9-0.4,1.1-0.6c1.1-1,1.8-1.9,2.3-2.8
		c0.6-1,1.9-2,2.3-3c0,0.1,0.3-0.4,0.4-0.6c0.7-2-0.4-2,1.2-3.6c-1.1,0.6-0.6-2-1.4-2.8c-0.6-0.3-1.1,0.5-1.1,0
		c-0.1,0.1-0.9,0.6-1.9,0.9c-0.2,1.1-1.3,1.5-1.9,2.5c0.1-0.1-3,4.9-3.2,9.4C-307.1,558.6-307.3,559.9-307.4,561.1z M-297.9,556.7
		c-0.2,0-0.6,0.6-0.5,0.8c0.2-0.2,0.4-0.3,0.5-0.5V556.7z M-297.7,552.4c-0.8,0.6,1,1.2,0.2,1.8c0.8-0.1,0.9,0.8,1.9,1
		c-0.2-0.1-1.2-1.1-0.2-1.1c-0.2-0.7-0.7,0.1-1.1,0c0.5-0.5-0.6-0.6-0.2-1.6c-0.2,0-0.2,0.2-0.2,0.4
		C-297.7,552.8-297.7,552.6-297.7,552.4z M-297.1,555.4c-0.2,0.2-0.6,1.1,0.2,0.9c0.1-0.4-0.3-0.6,0-0.7
		C-296.7,556.4-296.5,555.4-297.1,555.4z M-297.3,550.6c0,0.3,0.9-0.2,1.5,0c0.2,0.6-0.4,0.2-0.4,0.2c0,0.6,0.6,1.2,0.9,1.6
		c0.2-0.2,0.2-0.6,0.3-0.8c-0.3-0.1-0.6-0.3-0.6-0.8c0.2-0.2,0.4-0.2,0.6-0.2c0.1-0.2-0.3-1-0.3-1.3c-0.2,0.6-0.4,1-1.1,0.6
		c0.3-0.3,0.6-1.1-0.3-1C-296.5,549.8-297.5,549-297.3,550.6z"/>
</g>
</svg>
