<?xml version="1.0" encoding="utf-8"?>
<!-- Generator: Adobe Illustrator 19.0.0, SVG Export Plug-In . SVG Version: 6.00 Build 0)  -->
<svg version="1.1" id="Layer_1" xmlns="http://www.w3.org/2000/svg" xmlns:xlink="http://www.w3.org/1999/xlink" x="0px" y="0px"
	 width="7.5px" height="8.7px" viewBox="0 0 7.5 8.7" style="enable-background:new 0 0 7.5 8.7;" xml:space="preserve">
<style type="text/css">
	.st0{fill:#FFFFFF;}
</style>
<path class="st0" d="M5.6,3c1.1-0.3,1.7-1.5,1.9-2.5c0-0.2-0.1-0.3-0.2-0.4C6.2-0.2,4.7,0.1,3.6,1.5C2.5,0.3,1.1,0.3,0.2,0.8
	C0,0.8,0,1,0,1.2C0.4,2,1.1,2.9,2.1,3c0.1,0,0.1,0,0.2,0C2.4,3,2.6,3,2.8,3L2.4,3.6C2.3,3.8,2.4,3.9,2.5,4c0.1,0.1,0.3,0,0.4-0.1
	l0.6-1.2l0.9,1.9C4.1,4.7,3.8,4.9,3.5,5.1C3.1,4.8,2.7,4.6,2.1,4.6C1,4.6,0.1,5.5,0.1,6.7c0,1.2,0.9,2.1,2.1,2.1
	c0.5,0,1-0.2,1.4-0.5c0.4,0.3,0.9,0.5,1.4,0.5C6,8.7,7,7.8,7,6.7c0-1.1-0.8-2-1.9-2.1L4.3,2.9C4.6,3,4.8,3.1,5,3.1
	C5.2,3.1,5.4,3,5.6,3 M6.9,0.6C6.6,1.5,6,2.2,5.4,2.4C5,2.6,4.5,2.4,4,2.1C4.9,0.6,6.2,0.5,6.9,0.6 M2.1,2.4
	C1.6,2.4,1.1,1.9,0.7,1.2C1.2,1,2.3,0.9,3.2,2C2.9,2.3,2.5,2.5,2.1,2.4 M2.1,8.2c-0.8,0-1.5-0.7-1.5-1.5c0-0.8,0.7-1.5,1.5-1.5
	c0.8,0,1.5,0.7,1.5,1.5C3.6,7.5,3,8.2,2.1,8.2 M6.4,6.7c0,0.8-0.7,1.5-1.5,1.5c-0.4,0-0.7-0.1-1-0.4c0.2-0.3,0.3-0.7,0.3-1.1
	c0-0.4-0.1-0.8-0.3-1.1c0.3-0.2,0.6-0.4,1-0.4C5.7,5.2,6.4,5.8,6.4,6.7"/>
</svg>
