<?xml version="1.0" encoding="utf-8"?>
<!-- Generator: Adobe Illustrator 19.0.0, SVG Export Plug-In . SVG Version: 6.00 Build 0)  -->
<svg version="1.1" id="Layer_1" xmlns="http://www.w3.org/2000/svg" xmlns:xlink="http://www.w3.org/1999/xlink" x="0px" y="0px"
	 width="385.2px" height="112.1px" viewBox="0 0 385.2 112.1" style="enable-background:new 0 0 385.2 112.1;" xml:space="preserve"
	>
<style type="text/css">
	.st0{fill:#EF3940;}
</style>
<g id="XMLID_5_">
	<path id="XMLID_354_" class="st0" d="M53.9,49.3l0.2,0.9l1.5-0.2l-0.2-0.4C54.9,50.2,54.5,49.1,53.9,49.3z"/>
	<path id="XMLID_519_" class="st0" d="M44.7,38.9c0.8,0.4,1.9-0.5,2.6,0.5c-0.1-0.4-0.2-0.7,0.1-0.9l1.3,1.2c0.9,0.5,1.8-0.4,2.4,0
		l0.1,0.3c-0.1,0.2-0.3,0.3-0.5,0.4c0.3,0,0.7,0,0.9,0.4c0.2,0.4-0.3,0.8-0.5,1l0.6,2c-0.8,1.7,0.2,3,0.1,4.4c2,1.3,4.1-2.7,5.6-0.5
		c-0.2-0.9,0.8-2.5-0.9-2.5c0.1-0.5,0.4-0.4,0.8-0.5c-0.1-0.5,0.1-1.2-0.5-1.4c0.1-2.2-2.3-0.9-3.4-2.2l0.1,0c0,0-0.1-0.1-0.1-0.1
		c-0.2-0.3-0.3-0.6-0.4-1.1c0.4-0.4,0.4-0.9,0.8-1.3l0.8,1.6l-0.2-1.8l-0.2,0.1l-0.6-2c-3-2-7.8-2.5-10.5-1.1
		C44.4,36,44.6,37.9,44.7,38.9z M52.6,41l0.7,0.1c-0.4,0.1-1,0.7-0.5,1.3c-0.2-0.1-0.5-0.4-0.6-0.2L52.6,41z M45.6,35.5
		c0.3,1,1.8-0.2,2,0.9c-0.9-0.6-1.6-0.4-2.1,0.5L45.6,35.5z"/>
	<polygon id="XMLID_521_" class="st0" points="50.6,41.9 51.2,41.8 50.6,41.3 	"/>
	<path id="XMLID_524_" class="st0" d="M57.9,55.8l-0.4,0.7l-1.1-0.7c-1.1,0.5-3.1-0.3-3.7-0.4l-0.5,0.7L52,56
		c1.1,1.8,0.7,5.2,0.6,7.7c-1.1,3.5-4.4,3-7.3,3.3c-0.8,0.2-0.8-1.1-1.7-0.6c-5.8-3.8-3.5-13.1-5-18.5c0.8-0.5,0.4-1.5,0.3-1.9
		c-2-0.7-0.9,1.9-2.1,1.5c2.3,1.2,1.3,4.3,2,5.4c-0.2,0.8-0.9,0.4-1.5,0.6c-0.1,1.3-0.1,2.2-1.1,2.6c0.6,0.2,1.6,0.1,1.4,1.3
		c0.2,0.5,0.2,1.5-0.7,1.3c0.2-0.7-0.8-2.6-1.6-1.9l1.1,0.8c-0.6,0.1-1,1.2-1.7,0.5c-0.9-0.8-0.1-1.8-0.1-2.7
		c0.3,0.2,0.6,0.8,0.9,0.5c0.3-0.8-0.6-0.9-1.1-1.3c-0.7,0.6,0.8,1.4-0.7,1.3c-0.4-1.1-0.2-2.6,0.6-3.7c0.2,0.2,0.4,0.4,0.6,0.3
		c0.4-1.9-1.4-2-0.2-3.6l1.6,0.9l0.4-0.9c-0.4-0.6-1.1-0.6-1.5-0.1c-0.5-0.6-1.6,0.5-1.7-0.7c0.2-0.4,0.6-0.3,0.9-0.4
		c-0.8-0.6-1.1-1.3-0.7-2.3c1.1,0.2,0.6-0.9,1.1-1.3c0.2-0.2,0.4,0,0.6,0.2l0.5-0.7l1.4,1c0.2-1.4-0.1-1.9,0.4-3.1l0.4,0.2
		c1.1,0.7-0.5,1.6,0.9,2c-0.1,0.2-0.3,0.4-0.5,0.3l0.9,0.2c-0.4-1.6,2-2.9,1.5-4.2c0.4-0.1,0.6,0.4,1,0.5l-0.1-0.6
		c2.2-0.4,0.4-2.3,0.6-3.1l-0.4,0.9c-1.1-0.7,0.1-1.5-0.2-2.4c-0.9,1.1-1.8,0.4-2.7,1.4l1.3,0.7c-0.6-0.6,0.6-1.3,1-1.1
		c-0.1,1-0.2,1.9-0.5,2.8c-0.2-0.1-1.1-2.2-2-1.2c0.2-0.5-0.4-0.7-0.4-1.2c-1.8,0.8-2.9,2.3-3.9,3.9c-0.3,2-2.5,4.4-0.9,5.9l-1,1.1
		c0.6,2-1.3,4.2,0.6,5.6l-0.3,0.4c-0.3,2.1-0.6,4.2,0.2,6.3c0.5,1.2,0.8,3,1.7,3.7c-0.4,2.1,1.6,3.7,2.1,5.7c0.6-0.2,1.1,0,1.6,0.1
		c0.1-0.4,0.6-0.6,0.5-1c-0.3,0.1-0.5-0.1-0.6-0.2l0.2-0.4c0.8-0.3,1.5-1.2,2.4-0.1c0.4,1.3-1.5,1.1-1.8,2.4l0.7,0.5l-0.2-0.9
		c0.5-0.2,0.8-1.2,1.5-0.5c-0.7,0.8,0.7,0.9-0.1,1.5c-0.2,0.2-0.4,0-0.6-0.1c0.4,0.7,0.6,0.6,1.3,1l0.5-1.1l1.9,1
		c0.8-0.2,2.7-0.3,2-1.2c0.8-0.5,1.3,0.2,1.9,0.5l-0.5,0.8c0.4-0.2,0.7-0.1,0.9-0.5l1,0.7l0.5-0.7c1.2,0.5,2-0.6,2.9-1.3
		c1.3-0.2,0.9-1.6,2-2.5l0.8,1.4c0.5-0.4,0.5-0.9,0.7-1.3l0.4,0.2c1.2-1.5,1.2-3.2,1.6-4.8c-0.6-0.4-1.6-1.1-1.6-2.2
		c2.7,0.1,1.4-2.7,1.8-4.2L57.9,55.8z M39,41.1c1.1-0.2,0.2-1.6,0.3-1.9l0.3-0.5c-0.2,0.6,0.7,1.9-0.1,2.2v0.2L39,41.3V41.1z
		 M38.3,40.5c-0.5,0.1-0.5,0.5-0.8,0.8C37.1,40.8,37.9,39.9,38.3,40.5z M36.4,41.5c-0.1,0.2,0.2,0.4,0.4,0.5l-0.2,0.4h-0.3l-0.1-0.9
		H36.4z M33.6,48.8l0.5,1.1L33.8,50l-0.5-1.1L33.6,48.8z M33.2,51.6l0.1-0.9l1,0.8c-0.1,0.1-0.4,0.4-0.2,0.6
		C33.7,52.3,33.5,51.8,33.2,51.6z M34,59l0.2-0.9c0.4,0.1,0.6,0.6,1,0.4C35.3,59.1,34.4,58.9,34,59z M38.6,55.4l-0.2-1.5h0.3
		l0.2,1.3L38.6,55.4z M42.8,69.1l0.6-0.1l0.2,1.2L42.8,69.1z M45.7,69.9l0.1,0.2l-0.8,0.2c1.8-0.5-0.5-1.8,1.4-2.3
		C46.8,68.2,46.2,69.3,45.7,69.9z M49.2,69c0.4-0.1,1.1-0.8,0.6-1.3l0.8,0.8C50.7,69.1,49.7,68.9,49.2,69z M53.1,65.4h0.3l-0.1,1.3
		l-0.4-0.1L53.1,65.4z M52.8,68.8l0.4-0.9l0.5,0.8L52.8,68.8z M54.5,60.3c0.6,0.3,0.7-0.2,0.8,0.8L55,61.4c0.6,0.6,1.5,0.8,0.8,1.7
		L55,63.3L54.5,60.3z M57.5,63.7c-0.2,0.7-0.4,1.5-0.7,2.3c-0.4-0.2-0.8-0.6-1.2-0.3l-0.1-1.5C56.3,64.5,57.1,64.2,57.5,63.7z"/>
	<path id="XMLID_538_" class="st0" d="M36.8,47.4c-0.1-0.1-0.3-0.1-0.4-0.2C36.6,47.3,36.7,47.4,36.8,47.4z"/>
	<path id="XMLID_539_" class="st0" d="M35.5,52.7c-0.2,0.4-0.8,1.1-0.2,1.3l0.4-0.7l0.8,0.5l-0.2-0.6C36.1,53.5,35.8,53,35.5,52.7z"
		/>
	<path id="XMLID_540_" class="st0" d="M50.4,40.5c-0.2,0-0.4,0-0.6,0.1C50,40.6,50.2,40.5,50.4,40.5z"/>
	<path id="XMLID_541_" class="st0" d="M50.8,40.4c-0.1,0-0.3,0-0.4,0.1C50.5,40.5,50.7,40.5,50.8,40.4z"/>
	<path id="XMLID_542_" class="st0" d="M81.9,38.2c-0.2,0.5-0.8,0.1-1.1,0.2v1.5c0.8,0.2,1.5,0.6,2,1.1c-0.6-1,0.3-2.7-1.1-3.1
		c-0.3-0.8,0.6-0.9,0.9-1.3c0.2-0.1,0.4,0.1,0.5,0.3c0.6,0.5-0.2,1.7,1.1,1.6c0.1,0.3-0.2,0.4-0.2,0.6c0.2,0.4,0.7,0.5,1.1,0.6
		c0.1-0.6,0.2-1.3,0.6-2c-1.7-0.9-4.3-2.8-6-1.2l0.3,0.3C82.4,35.4,80.1,38.1,81.9,38.2z"/>
	<path id="XMLID_543_" class="st0" d="M79.4,39.9l0.9-0.9c-0.3-0.2-0.5-0.7-0.9-0.6C79.3,38.9,78.8,39.5,79.4,39.9z"/>
	<path id="XMLID_544_" class="st0" d="M88.7,42.6l0.6-0.6c0-0.4,0.1-0.7-0.2-0.9c-0.2,0.4-0.6,0.3-0.9,0.2l0.3,0.4
		c-0.4,0.6-0.8-0.1-1.2-0.1c-0.7,0.8,0.2,1.5,0.2,2.3c0.5-0.1,1.5,0.3,1.5-0.2l-0.3-0.3l0.6-0.6C89.1,42.9,88.9,42.8,88.7,42.6z"/>
	<path id="XMLID_545_" class="st0" d="M78.9,35.9c-0.4-0.6-0.8-0.7-1.4-0.6l0.6,1.2L78.9,35.9z"/>
	<path id="XMLID_546_" class="st0" d="M84.1,67.2c-0.4-0.4-0.4-1.3,0-1.6C82.4,65.2,83.6,67.1,84.1,67.2z"/>
	<path id="XMLID_547_" class="st0" d="M82.8,41C82.8,41,82.8,41,82.8,41C82.8,41,82.8,41,82.8,41L82.8,41z"/>
	<path id="XMLID_550_" class="st0" d="M89.7,42.6l-0.4,0.2c1.9,1.9-1.3,3.4-0.1,5.4c-1.5,0.6,0.4,1.8,0.6,2.3l0.2-0.3
		c0.8,0.6,0.6,1.9,0.5,2.5c-0.8,0.5-0.7-0.8-1.1-0.9l-0.2,0.2c-0.6-0.9-1.9,1.5-2.3-0.5l-0.3,0.2c-1.6-0.1-0.3-1.8-1.1-2.5
		c0.4-0.9,1.3-0.3,1.7-0.8c-1,0.1-0.2-1.1-0.8-1.5l-0.5,0.6c-1.2,0.1-0.2-1.3-0.9-1.5c-0.2,2.6,0.1,5.3-0.4,7.7l0.3,0.3
		c-1.1,4.2-1.2,8.8-4.5,12.2c-1.8,2-5.1,0.9-7.4,0.7c-1.8-0.6-2.5-2.6-3.3-4c-1.2-7.6-0.2-14.5,2.9-20.9c0.8-3.3,5.1-1.5,5.8-4.2
		l-1.5,0.5c-0.1-0.6-1.1-1.2,0.1-1.6l-0.3-0.3c0.1-0.3-0.1-0.7,0.3-0.9c-0.4-0.5-1.2-0.2-1.7-0.4c-1.3-0.1-2.5,1.2-3.4,1.1
		c-4.7,2.4-6.8,7.4-7.9,12.1c-0.2,3.2-0.9,6.6-0.8,9.6c-0.2,1.5,0.3,3.3,0.2,5.1c1.2,3.6,3.7,7.3,7.5,8.7c1.6,0.1,3.2,1.1,4.8,0.4
		c1.8,0.5,3,0.2,4.6,0.4c1.8-0.9,3.8-2,5.5-2.7c4.2-5.4,5.1-12.5,5.4-19.5C90,47.8,91.8,44.8,89.7,42.6z M75.2,37v0.5L74.1,37
		C74,36.1,75,36.4,75.2,37z M70.3,38.5c0.2,0.4,0.6,0.3,0.9,0.3c0.2-0.3,0.9-0.8,0.4-1.1h0.6c-0.5,0.5-0.4,1.1,0.2,1.5
		c0.9-0.4,0.3-1.3,0.9-1.8c0.2,0.2,0.4,0.8,0.8,0.6l-0.9,1.7l-0.3-0.3c-0.4,2.6-2.9-1.5-2.3,1.3h0.9c-0.7,0.4-1.9,0.3-1.8,1.5
		c0.1-0.3-0.1-0.4-0.3-0.6c-0.1,0-0.2,0-0.2,0c0-0.1,0-0.2-0.1-0.3C69.6,40.4,70.8,39.9,70.3,38.5z M68,42.5l0.4-1.5L68,43V42.5z
		 M69.1,42.7c0.1,0.1,0.3,0.3,0.4,0.4l-1.5,1.3c0.7,0.5-1,1.9,0.2,2c-0.3,0-0.6,0.1-0.8-0.2C66.9,44.4,68.5,43.9,69.1,42.7z
		 M65.9,51.9c1.5-0.5,1.1,1.3,1.6,2c-0.2-0.1-0.5-0.8-1-0.9c0.1,0,0.2-0.1,0.2-0.3c-0.1-0.3,0-0.6-0.4-0.8c-0.2-0.1-0.4,0.1-0.5,0.3
		V51.9z M65.9,53.3c-0.2-0.2-0.4-0.4-0.3-0.6c0.2,0,0.4,0.2,0.6,0.3c0,0-0.1,0-0.1,0L65.9,53.3z M66.5,65.5c0.2-0.4,0.5-0.3,0.8-0.3
		c-0.2,0.1-0.4,0.3-0.3,0.5l0.3,0.3C66.9,66,66.4,66.1,66.5,65.5z M69,65l-0.3-0.3l-1.2,1.3l0.1,0.1c-0.1-0.1-0.3-0.1-0.4-0.1
		c0.8-0.8,0.9-1.5,1.8-1.6V65z M71.8,69.5l-1.1-1.4c0.4,0.3,0.6,0.8,1.1,0.8V69.5z M86.2,54.7v0.6l-0.5-0.9
		C86,54.4,86.1,54.6,86.2,54.7z M84.9,65.8l-0.6,0.6l0.6,0.6c-0.2,0.1-0.4,0.3-0.3,0.5l0.2,0.4c-0.2,0.1-0.4,0.2-0.3,0.5l-0.8-0.9
		c-0.4,0.6-1.1,0.2-1.5,0c0.5-0.7,0.5-1,0-1.7l0.3,0.2c0.5-0.6,0.2-2.2,1.5-1.9l0.2,0.3c1.1-0.2,0.2-1.8,1.5-1.4
		C85.7,64.1,85.4,64.8,84.9,65.8z M86.7,65.8l-0.3,0.2l0.3-1.1V65.8z M87,61c-0.2-0.6-2-2.2,0.1-2.5c0.5,0.9-1,1.5,0.2,1.9
		c0.3-0.2,0.5-0.6,0.9-0.5C88.3,61,86.9,59.9,87,61z M89.7,57.1c-0.2,0-0.4-0.1-0.6-0.3l-0.3,0.3c0.5-1-0.8-1.1-0.5-1.8
		c1.1-0.4,1,0.7,1.4,1.2V57.1z M89.5,52.8c-0.1-0.3-0.1-0.5-0.2-0.6l0.3,0.3l0.2-0.2C89.8,52.5,89.6,52.7,89.5,52.8z"/>
	<path id="XMLID_565_" class="st0" d="M86.3,49.6l0.4,1.2c0.3-0.2,0.2-0.6,0.2-0.9C86.8,49.8,86.6,49.6,86.3,49.6z"/>
	<path id="XMLID_566_" class="st0" d="M86.9,41.1l0.5-0.9c0.2,0.5,0.8,0.2,1.2,0.4c-0.4-1.3-1.8-1.2-2.6-2c-0.1,0.4,0.4,0.6,0.5,0.9
		c-1.2,0.1-0.6,1.3-1.5,1.9l0.9-0.8C86.4,40.5,86.5,40.9,86.9,41.1z"/>
	<path id="XMLID_567_" class="st0" d="M84.5,43.3c0.2-0.4,0.6-0.3,0.9-0.2c0.1-0.4-0.2-0.9,0.3-1.1L85,41.3
		c-0.6,0.7-1.5,0.1-1.9-0.6L82.8,41c1.1,1.2,1.5,3.1,2.1,4.3C84.9,44.6,84.8,43.9,84.5,43.3z"/>
	<path id="XMLID_568_" class="st0" d="M108.8,70.8c0.2-1.2-0.2-3-0.8-4.3C108,67.7,108.6,69.6,108.8,70.8z"/>
	<path id="XMLID_569_" class="st0" d="M108,62.6v1.2c0.9-0.5,0.8,0.9,0.8,0.8C109.7,63.7,108.3,63.2,108,62.6z"/>
	<polygon id="XMLID_570_" class="st0" points="109.9,69.6 111.6,70.2 110.8,69.4 	"/>
	<path id="XMLID_573_" class="st0" d="M128.4,71.4c0.4-7.1-0.5-15.7-1.4-22.4v0.3c-1-0.5-1.6,1.5-2,2.3c-0.5-0.3-1.1-0.6-1.6-0.9
		c0.1-0.4-0.2-0.9,0.2-1.1c-0.2-0.5,0.3-0.8,0.6-1.1l0.6,0.5l0.2-0.3c-0.2-0.5-1.2,0-1.1-0.8c-1,0.4-0.5-0.6-0.8-0.8
		c0.5-0.4,1.5-0.5,1.1-1.5c-0.6,1.1-1.6,1.2-2,2.3V62c-0.3,0.8-0.6,2.3,0,2.8l-0.8,1.1l0.8,0.9l-0.2,6c0.5,1.1,1.2,0.2,1.9,0.3
		c1.1,0.3,2.6-0.6,3.4,0.3c0.6-0.1,1.3,0.1,1.7-0.6C128.1,72.4,128.7,71.7,128.4,71.4z M124.1,51.8l-0.6,0.6
		C123.5,52,123.7,51.7,124.1,51.8z M123.3,52.9h0.8C124.6,53.5,123.3,53.1,123.3,52.9z M126,63l-0.2-0.2l0.6-0.8l0.2,0.1L126,63z
		 M126.7,52.7c-0.6-0.4-1.5-1.7-0.3-2.3l0.3,0.3l-0.6,0.6C126.6,51.6,126.7,52,126.7,52.7z"/>
	<path id="XMLID_577_" class="st0" d="M110.2,62c0.9,0.9,0.9-0.8,1.5-1.2c-2-7.4-4-14.8-6-22.1l-0.8-1.4c-1.9-0.5-5.4-0.5-7.4,0
		c-0.3,1.1-1.3-0.4-0.9,0.5c-0.4,3.2-0.4,7.2,0,11c0.5,1.2,1.8,1.1,1.8,2.6c0.2,1.3,3,0.9,1.9,2.6l-0.5-0.6l-0.6,0.8
		c-1.1,0.4-0.6-0.9-1.4-1.1l0.6-0.5c0.1-0.3-0.2-0.5-0.3-0.6l-0.3,0.3c-0.1,0.2,0.1,0.4,0.3,0.5c-0.5,0.5-0.9,0.9-1.1,1.4l1.1,0.3
		l-0.9,1.7c0.2-0.1,0.4,0.1,0.6,0.4c1.1-1.4,2.5-2.1,3.6-3.2c0.5-0.8,0.5-2-0.2-2.6c-0.1-1.8,0.5-3.9,0.2-5.7
		c-0.7-0.3-0.8-1.3-1.4-2c-0.1,0.2-0.2,0.4-0.5,0.3c0.3-1.1-1.9-1.1-0.3-2L98.6,41c-0.4,1.3,0.7,3,0.3,4.3h-0.3
		c-0.1-0.1-0.4-0.3-0.2-0.6c-0.3-0.3-0.1-1.2-0.9-0.8c0.4-0.8-0.6-2-0.3-2.9c0.2-0.1,0.4,0.1,0.6,0.3c-0.8-1.6,1.2-0.3,1.4-1.4
		c0.5-0.2,0.8,0.3,1.1,0.5c0.1,0.3-0.1,0.5-0.3,0.6c-0.1-0.1-0.2-0.4-0.5-0.3c1.3,1,1.9,2.6,2.9,3.4l-0.9,0.5h0.9
		c0.1,0.2,0.4,0.4,0.3,0.6c-0.5,0.6,0.5,1.8,1.4,1.8c0.1,0.2-0.2,0.4-0.3,0.5c0.5,0.6,1.2,1,1.4,1.7l-1.1,0.6c0.3,0,0.6,0.1,0.8-0.3
		l0.8,0.8c0.7-0.1-0.4-1.2,0.9-0.8c0.5,0.7,0.5,1.1-0.4,1.7c0.1,0.5,1.1,1,0.4,1.5h1.1c-0.5,0.2-0.5,0.8-0.9,1.1
		c0.4,0.1,0.9-0.2,1.2,0.3c-0.1,0.6-0.7,0.8-1.2,1.1l2,2c-0.5,0.5-1.5,1.4-1.1,1.7l0.5-0.6l0.6,0.6c-0.9,0.7,0.5,0.4,0.3,1.1
		c-0.8,0-1.5,0.7-2.3,0v0.9c0.9,0.4-0.7,1.6,0.3,1.2c1.3,0.5,1.4-0.9,2.5-0.9C109.8,61.4,110.3,61.6,110.2,62z"/>
	<polygon id="XMLID_578_" class="st0" points="124.4,49.8 123.5,49.5 124.1,50 	"/>
	<path id="XMLID_579_" class="st0" d="M121.6,45c-0.8-0.8,0.3-1.5-0.9-1.9l-0.3,2.5c-0.6,0.1-1.3-0.2-1.7-0.9
		c0.1-0.1,0.4-0.2,0.3-0.5c-0.7,0-1.4,0.1-1.7-0.6c-0.3,0.9-0.6,2.5-0.9,2.8c0.1,0.6-0.1,1.1-0.6,1.5c-0.2,4.9-2.7,8.8-3.1,13.6
		c0.3,0.8-1.8,1.3-0.3,2c0.2,0.5-0.2,0.8-0.5,1.1c-0.2,0.2-0.4,0.4-0.3,0.6l0.8-0.9c0.4,0.1,0.9-0.2,1.2,0.3l-0.9,0.6l0.3,3.4
		c0.1,0.9-2,2.2,0,2.5c-0.5,0.9-1.3,0.8-2,1.2l-0.6-1.2c-0.4,0.4-0.6,0.8-1.1,0.6v0.5c0.9,0.9,2.5,0.3,3.4,0.6
		c0.8-1.8,1.4,1.1,2.3-0.6c1.8-7.8,4.4-15.1,5.4-23.3c-0.4-1.1,1-1.8-0.6-2.2l0.9-0.9C120.7,44.7,122,45.6,121.6,45z"/>
	<path id="XMLID_580_" class="st0" d="M120.1,37.8l-0.3-0.3c0,0,0,0,0,0L120.1,37.8L120.1,37.8z"/>
	<path id="XMLID_581_" class="st0" d="M119.8,37.6l-0.3-0.3c-0.1,0.1-0.4,0.2-0.3,0.5C119.5,38,119.7,37.8,119.8,37.6z"/>
	<path id="XMLID_582_" class="st0" d="M127.3,47.8c-0.7-2.5,0.2-5.9-0.9-8l0.3,8H127.3z"/>
	<polygon id="XMLID_583_" class="st0" points="121.3,42.4 122.1,41 121.6,40.4 	"/>
	<path id="XMLID_584_" class="st0" d="M105.9,53.5l-0.5-1.4C104.5,52.7,105.9,53.2,105.9,53.5z"/>
	<path id="XMLID_585_" class="st0" d="M125.8,42.4h-0.3v0.8C125.8,43.1,125.8,42.7,125.8,42.4z"/>
	<path id="XMLID_586_" class="st0" d="M120.1,39.9l0.6-0.6c0.1-0.3-0.1-0.4-0.3-0.5L120.1,39.9z"/>
	<path id="XMLID_587_" class="st0" d="M122.1,38.5c-0.2-0.7-0.9-1.1-1.4-1.8l-0.6,1.1l1.4,1.2L122.1,38.5z"/>
	<path id="XMLID_588_" class="st0" d="M101.7,68.2c0.1,0.3-0.1,0.5-0.4,0.6c-0.1-0.1-0.2-0.4-0.5-0.3c-0.1,0.6,0.2,1.3-0.3,1.7
		l-0.3-0.3v1.8H100c-0.1-0.2-0.4-0.4-0.2-0.6h-0.3v0.6h0.1c-0.4,0.1-0.8,0.6-1.2,0l0.8-0.9c0.2-0.6-0.4-0.9-0.6-1.4l-0.2,0.2
		c-0.2-0.6,0.1-1.7-1.2-1.7l-0.2,1.7c2.5,0-1.3,2,0.2,3.4l5.1-0.3C101.6,71.4,102.4,69.3,101.7,68.2z"/>
	<path id="XMLID_589_" class="st0" d="M96.9,64.3c-0.4,1.2,0.6,2.3,0.2,3.2l0.6-0.9c0.5-0.3,1.2,0.5,1.4,1.2l0.8-0.6l-0.2-0.3
		c-0.1-0.3,0.1-0.4,0.2-0.5l-0.8-0.9l0.3-0.2c1.2-0.7,1.3,1.2,1.4,1.2l0.5-1.2l0.4,0.2c0.1,0.6-0.1,1-0.4,1.5h0.6
		c-0.2-1.2,0.5-2.6-1.2-2.9c-0.1-0.2,0.1-0.4,0.3-0.5l-0.6-0.6c-0.2-0.5-0.9-1,0-1.4c-1.2-1.5,1.8-1.2,1.2-2.9
		c0.2-0.5-0.4-1.1-0.9-0.8c-0.6-0.2-1.1,1.6-2.3,0.5l-0.2,1.2c-0.5-1.1-1.2-0.2-1.4,0l0.8-0.3c0.5,0.7,0.5,1.1-0.3,1.7
		c0.1,0.9-0.7,1.9-0.5,2.6l1.4,0.5C97.9,64.6,97.4,64.7,96.9,64.3z"/>
	<path id="XMLID_590_" class="st0" d="M101.7,54.9c-2-0.4-1.1,1.7-1.8,2.3l0.3,0.3l0.3-0.3l-0.3-0.3
		C100.9,56.3,102.2,56.2,101.7,54.9z"/>
	<polygon id="XMLID_591_" class="st0" points="118.7,40.9 118.4,40.7 117.6,42.2 117.8,42.3 	"/>
	<path id="XMLID_592_" class="st0" d="M96.9,60l0.5,0.9c0,0,0,0,0,0C97.4,60.5,97.3,60.3,96.9,60z"/>
	<path id="XMLID_593_" class="st0" d="M103.7,50.9v0.6h0.8C104.6,51.2,104,51,103.7,50.9z"/>
	<polygon id="XMLID_594_" class="st0" points="147.3,35.8 147.6,35.8 147.7,34 147.4,34 	"/>
	<path id="XMLID_597_" class="st0" d="M138.4,34.8c-0.6-0.4,0.1-1.3-0.8-1.3c-1.1,6-1.9,14.8-2.1,21.9l0.9,1.6
		c-1.7,1.4-1.1,3.2-1.8,5.3c0.4,1.1,1.3,2.3,0.1,3.3c-0.5,1.6-0.1,3.4,1.2,4.3c0-0.4,0.4-1-0.2-1.2c0.7-0.2,1.6-2.3,2.7-1.1
		c1.5,0.4,0.4,1.4,0.3,2.2c-0.5,0.1-0.6-0.5-0.9-0.7l-0.9,0.9l0.9,0.1c2.1-0.6,2.2,2.7,4.2,0.8c0.4-3.4-0.1-6.4-0.2-9.6
		c1.6,0.1-0.4-1,0.8-1.4c-1.6-4.6,1.5-6.8,0.2-10.5c0.6-3.2,0.8-6.8,0.9-9.8c0.6-1.5,1.5-3.4,0.8-5.3
		C142.6,33.9,139.9,34.1,138.4,34.8z M139.8,36.3c0.1,0.4-0.7,0.8-0.1,1.2h0.6c-0.2,0.3-0.8,0.5-0.6,0.9c0.2,0.4,0.5,0.2,0.9,0.3
		c-0.1,1.5-4,0.9-1.1,2v0.6c-1.5,0.5-0.6-1.5-1.7-1.6C139.8,39.1,137.8,36.9,139.8,36.3z M138.8,48.8l-0.1,0.9l-0.2-1.2L138.8,48.8z
		 M137.6,66.4c-0.5-0.2-1.1,0-1.5,0.5c-0.1-0.4,0.5-0.5,0.7-0.8c0.8,0.4,1.2-0.4,1.8-0.8C138.9,66.1,137.7,65.9,137.6,66.4z
		 M139.5,60.2c-0.7-0.5,0.4-2.6-1.4-2.5l1.6-1.2c-1.2-0.2-0.1-0.5,0.1-1c0.1,1.4,0.7,2.6-0.6,3.7C139.5,59.4,139.5,59.8,139.5,60.2z
		 M139.1,54.8c-0.6,0.8-1-0.6-1.5,0.5c0.2,0.4,0.7,0.5,0.6,1c-1.2-1.4-2.8-2.3-0.7-4c0.1-0.5-0.5-0.6-0.2-1.2l0.3-0.4
		c0.3,0.2,0.5,0.8,0.9,0.7c0.1-0.6,0.5-2,1.2-0.6l-1.5,0.9c0.4,0.6,0.4,1.3,1.1,1.9c0.6-0.4,0.8-0.9,0.7-1.5
		C140.8,53.2,139,53.7,139.1,54.8z M139.4,43.4c-0.3-0.2-1.1-0.8-0.3-1.2c0.3,1,1.3,0.4,1.8,1C140.9,43.6,139.9,42.2,139.4,43.4z
		 M141.4,40.6l-0.9-0.4c0.2-0.4,0.5-0.3,0.9-0.3V40.6z M141.5,38.2l-0.2-1.2l0.3,0.4L141.5,38.2z"/>
	<path id="XMLID_607_" class="st0" d="M169.9,38.2c-0.4,1.2,0.5,2.1,1.4,2.6c-0.4,0.5-1.3-0.1-1.7,0.8c0.1,1.3-0.4,3.6,1.4,4.6
		c-0.1,0.4,0.2,0.9-0.3,1.1c-1,0.1-0.2-1.1-0.8-1.4c-0.5,5.4-1.3,10.3-1.4,15.3c-0.4-0.1-0.7,0.1-0.9-0.3c-0.7-2.9-2.6-5.3-3-8.2
		c-1.8-0.9-1.4-2.7-1.5-4.3c-0.5-0.3-1.5-0.4-1.1-1.4c-3.3-3.2-1.3-12.9-9.1-9.9l-0.5,0.6c-0.1,0.6,0,1.1,0.5,1.4
		c-0.5,0.5,0.1,1.4-0.8,1.8l0.3,0.2l0.5-0.5c0.3-0.1,0.4,0.1,0.6,0.3c-2.7,2.6-0.7,5.5-1.7,9l0.3-0.3c0.4-0.1,0.5,0.4,0.8,0.6
		c-0.1,0.5,0.2,1.1-0.3,1.5l-0.8-0.9c-0.6,1.3,0.1,3.2-0.6,4.6l0.6,0.6c-1.5,2.3-0.8,6.4-0.6,8.5l0.3,0.3c-1.3,2-1.3,4.4-1.7,7.1
		c2.1,0.1,4.6,1.1,6.3,0.6c0.1-0.4-0.4-0.6-0.6-0.9c2-1.5-1.5-3.4,0.9-4.5V50.7c-1.1-0.4-1.9,1.4-2.6-0.2c-0.4-0.2-0.4-0.7,0-0.9
		c0.2,0.2,0.3,0.4,0.6,0.3V49c0.5-0.9,0.8,0.4,1.4,0.3c-0.4-0.8-1.5-1.9-0.8-2.8l0.8,0.8l-0.3,0.3c0.7-0.4,0.9,0.5,1.4,0.8
		c0.1,0.3-0.1,0.4-0.3,0.6l1.7,0.3c-1.7,1.3,0.9,2.2,0.3,3.7c2,0.5,0.5,3.4,2.6,3.2c0,0.2,0.1,0.6-0.3,0.8c0.2,1.1,0.5,3.3,2,2.8
		c0.2,0.6-0.2,0.8-0.6,1.2c1.8,4.3,3.4,8.5,5.1,12.7c0.3,0,0.7,0.1,0.8-0.3l0.6,0.6c1.6-0.9,3.3,1.9,4.8-0.3
		c-0.6-3.4,1-6.6,0.8-10.2c0.4-2.6,0.5-6.1-0.2-8.2c1.9-2.2-1.4-3.6,0.5-5.7c-1-1.3,0.9-3.5-0.5-5.1c0.7-1.2,0.9-3.2,0.8-5.1
		c0.5-0.4,1.2-1.1,0.6-1.7C174.2,38.2,171.6,37.6,169.9,38.2z M152,70.6l-0.3-1.2c0.5,0.3,1.1,0.3,1.4,0.9
		C153,70.8,152.4,70.4,152,70.6z M154,56.9l0.3,2c-0.3,0.1-0.4-0.2-0.6-0.3l-0.6,0.5v-2.2H154z M153.4,43.6l-0.9-0.9l1.2-1.1
		L153.4,43.6z M154,45.6c0-0.1,0.1-0.2,0.1-0.2C154.1,45.4,154.1,45.5,154,45.6z M160.3,50.7l-0.3-0.9h0.6
		C160.6,50.2,160.6,50.5,160.3,50.7z M162,55.5v-1.5c0.5,0.4,0.2,1.1,0.5,1.5H162z M169.3,67.2l-0.3-1.4h0.6
		C169.5,66.2,169.9,66.9,169.3,67.2z M171.3,59.5c0.4,0.4,0.4,0.8,0.5,1.2C171.2,60.7,171.3,59.9,171.3,59.5z M170.7,53.5h-0.5
		c0-0.6,1.1-0.9,1.6-1.4C171.9,52.7,171.2,53,170.7,53.5z M173,47c0.2,0.6-1,1-1.2,1.4c0.5-1.2,0.4-2.1,0-3.4
		c1.4-0.4,0.7-1.2,0.9-2.3h0.5C174.3,44.7,170.6,45.5,173,47z"/>
	<path id="XMLID_617_" class="st0" d="M208.8,72.8c0.5,0.9-1,1.7-0.4,2.1C208.6,74.2,209.6,73.3,208.8,72.8z"/>
	<path id="XMLID_620_" class="st0" d="M206.1,53.5l-0.6,0.5c-0.6-0.8-1.2,0.2-1.8,0.4c-2.1-1.1-5-0.4-7.5-0.6
		c0.3,1.2,0.6,1.3,1.2,1.8c0.3-0.3,1.2,0.9,0.9,1.8l-0.9,0.3l0.6,0.6c0.8,0.1,1.6-0.2,2.3-0.3c1.7,1.1,0.9,3,1.5,4.8
		c1.9,1.2-1.9,1.9-0.5,3.3h0.2c0-1.5,1.5,0.6,1.5-0.9l0.3,0.3c0.2,0.9-0.3,1.5-0.6,2.1l-0.5-0.9c-0.1,0.4,0.2,0.9-0.4,1.2
		c-0.6,0.4-0.9-0.5-1.2-0.6c-0.6,2-3.2-0.4-3,2.4c-0.4,0-0.7,0.1-0.9-0.3c0.5-0.2,0.2-0.8,0.3-1.2c-1.2,0.4-4.3-0.4-5.7,0.4
		c0.2-0.2,0.3-0.5,0.6-0.4c-1.2-1.2-3.5-2.1-3.9-4.2c-1.1-1.7-0.3-4.4-1.8-5.7c0.2-0.2,0.4-0.4,0.6-0.3c0.3-3.3-0.7-6.4,0-9.2
		c-1.7,0.9-2.3-1.4-3.6-1.8c0.5,0.5,1.4,1.3,1.2,2.3c-0.4,0.3-0.6,0.8-1.2,0.6c-0.3-0.4-0.9-0.6-1-1.1l-0.2,1.8l0.9-0.3
		c0.1,0.6,1.3,1.6,0,2l0.6,0.6l-0.6,0.6l-1.5-1.5c-0.7-1.6-0.1-3.3,0.6-4.8c0.3-1.8,0.5-4.6,2.1-5.9c-0.9-0.2-0.6,1.1-1.5,1.5
		c-3.2,8.2-3.3,20.6,2.4,27.4c4.2,2.7,9.8,3.9,14.3,1.2l-0.5-0.6c1.3-0.2,2.6-2.6,4.2-2.1c1.7,0.6-0.3,1.9,0.9,2.1l-0.6,0.6
		c2.2,1.1,2.1-1.9,3.3-2C206.1,64.5,206.8,58.9,206.1,53.5z M181.7,52.9c-0.1,1.2,1.2,1.4,2,1.2l0.3-0.2c0.1,0.3-0.1,0.7,0.4,0.9
		c-0.8-0.2-1.3,0.6-1.5,1.2l0.3,0.3l-1.2,0.3v-0.6c0.6,0.2,0.8-0.2,1.2-0.6C182,55.2,181.4,54,181.7,52.9z M181.7,57.9l0.3-0.3
		c0,0,0.1,0,0.1,0C181.7,58,181.4,58.4,181.7,57.9z M184.4,64.2c0.5-0.3,0.2-1,0.3-1.5c0.2,0,0.5,0,0.7-0.1
		C185.1,63.2,185,63.8,184.4,64.2z M185.9,69.6l1.2-0.6c0.5,0.1,0.1,1.1,0.6,1.5C186.8,70.7,186.4,70,185.9,69.6z M189.2,68.4
		c0.9,0.5,1,1,0.9,1.5C189.8,69.4,188.7,69.3,189.2,68.4z M202.8,65.1c-0.9-0.5,0-0.9,0-1.5V65.1z M203.4,62.1l-0.9-2l0.2-0.1
		l0.9,2.1L203.4,62.1z M204.3,60h-0.9v-0.4h0.9V60z M205.5,59.7h-0.4v-1.2h0.4V59.7z"/>
	<path id="XMLID_629_" class="st0" d="M205.8,72.2v0.9l0.9-0.6C206.5,72.1,206.1,72.3,205.8,72.2z"/>
	<polygon id="XMLID_630_" class="st0" points="185.2,39.2 184.4,40.4 185.5,39.2 	"/>
	<path id="XMLID_633_" class="st0" d="M203.1,38.2c-0.5-1.4-2.5-0.7-3.3-2.1c-1.8-0.2-4.6-0.8-6.5-0.5c-1.9-0.2-0.1,1.5-1.5,1.8
		c-0.5-0.2-0.2-0.8-0.3-1.2h-0.9c-0.9,0.5-3.3,0.6-2.6,1.2h0.6c1.5-0.5,2.7-0.5,3.6,0.9l0.6-0.6c1.1,0.5-0.9,1.5,0.6,1.5l0.3-1.8
		c0.6,0.7,1.3,1.8,0.6,2.7c1.1,0.4,0.6-0.9,1.5-1.2c0.4,0.2,0.3,0.6,0.3,0.9l0.2-0.3c0.6,0,0.8,0.6,1.2,0.9l1.2-1.2l0.4,0.3
		c0.1,0.5-0.4,0.6-0.6,0.9c0.9,0.5,2.7,1.1,2.1,2.6h1.2c0.5-0.8,0.3-2.2,1.5-2.4c0.2,0.2,0.4,0.4,0.3,0.6c-0.2,0.1-0.4,0.4-0.6,0.3
		c0.5,1.4-1.1,2.3-1.8,3c1.8,0.5,0.5,2.5,0,3.6c1.4,0.9,3.7-0.5,5.4,0c1.2-3.2-1-5.6-1.5-8.4C204,39.4,204.2,38,203.1,38.2z
		 M195.4,38.2l-0.3,0.3l-0.6-1.2l0.6,0.3c0.5-2.3,1.5,0.4,1.5,1.2C196,39.1,195.8,38.6,195.4,38.2z M198.6,38.6l-0.3-0.1l0.3-0.9
		l0.3,0.1L198.6,38.6z M199.5,39.2h-0.2v-1.5h0.2c0.1,1.3,1.6,1.5,1.5,2.7C200.2,40.1,200.6,38.8,199.5,39.2z"/>
	<path id="XMLID_636_" class="st0" d="M186.8,41.6v1.2l0.5-0.9C187.2,41.7,187.1,41.5,186.8,41.6z"/>
	<path id="XMLID_637_" class="st0" d="M187.6,46.3c0.4-1,0.4-2.2,1.2-3c-0.3-1.7,1.8-1.6,2.4-2.9c0.8,0.1,1.6-0.2,1.8-0.6
		c-0.5-1.3-1.9,0.6-1.8-1.2l-0.9,1.2l-0.9-1.2c0.3,0.8-0.6,1.1,0.3,1.5c-0.1,1-0.9,1.9-1.5,2.4l-0.3-1.2l-0.6,0.5
		C189.2,43.3,186.2,45.3,187.6,46.3z"/>
	<path id="XMLID_638_" class="st0" d="M182.5,48.7l0-0.3C182.5,48.5,182.5,48.6,182.5,48.7z"/>
	<path id="XMLID_639_" class="st0" d="M242,37c0.2-1.8,2.5,0,1.5-2c-1.1,1-1.5-0.5-2.5-0.5c-0.5,0.6-1.7-0.2-1.9,0.9
		C239,37.6,241.3,35.8,242,37z"/>
	<path id="XMLID_642_" class="st0" d="M249.4,54c-0.5-0.6-1.4-0.9-1.2-1.6c-1.3,0.1-3.5-1-4.7-2.1c-1.2,0.4,0.2,1.7-1,2
		c-0.6,0.2-0.5-0.6-0.9-0.8c1.8-3.5-2.3-0.9-3.3-3.5c-0.1,0.2,0.1,0.4,0.2,0.5c-1.3,2-0.9-1.2-2-1.1l-0.8,0.6l-0.4-2.3
		c-0.1-0.9-0.8-1.9,0.1-2.8c-0.5-0.7-1.2-0.9-1.7-0.8c-0.2-0.4,0.3-0.6,0.5-0.9l0.3,0.3l0.6-0.6l0.6,0.6c-0.8-0.8-0.9-1.5-0.4-2.5
		l0.9,1.6l2.2-1.5c2.1,0.5,4.7-0.6,6.1,1.6c0.7,1.8,1.4,3.8,0.6,5.7c0.4-0.3,1.2-0.1,0.8-0.9c0.8-0.1,1.3-0.6,2.2-0.1
		c0.6-0.2-0.4-1.2,0.8-0.9c-1.9-0.8,1.2-1.1-0.7-1.9c0.4-0.4,0.8-0.7,0.5-1.2c0-1.1-0.1-3.3-1.9-3.3c-0.2-0.6,0.2-0.8,0.5-1.2
		l-1.5-1.3l-0.5,0.6l0.6,0.5c0.2,1.3-1.4,0.9-1.9,1.8l-0.6-0.8c-0.7-0.2-0.9,0.5-1.4,0.6c-0.5-0.5-1.6-0.1-1.8-1.1
		c-1.7-1.2-0.8,1.8-2.2,1.6c-0.9-0.5,0.4-0.9-0.1-1.5l-1.7-0.5c0-0.2,0.2-0.3,0.5-0.3c-0.8-0.5,0.4-0.9,0.3-1.4
		c-1.6,0.6-4.5,1.3-4.2,3c-0.5-0.9-1,0.8-1.1-0.5c-1,0.7-1.1,1.7-1.3,2.6c-0.1-0.1-0.3-0.3-0.6-0.2c-0.7,0.9,0.8,1.4-0.4,2l0.3,0.3
		l-0.9,0.6c0.2,0.7,1,1.4,0.4,2H229c-0.4,1.7,1.2,2.5,0.8,4.2c2.3,1.6,4.6,4,7.4,4.2c3.3,2.2,7.3,2.8,10,6.3c0.7,1.8,0.2,4-0.3,5.6
		c-1.9,1.5-4.3,2.5-6.8,1.8c-2.1-0.1-3-2.4-4.7-3c1.3-1.2,0.9-3.7,0.9-5.2l-6.5,0.6c-0.7,4.2,0.5,8.2,4,10.8
		c4.4,2.4,9.6,1.8,13.4,0.7c-1.1,0-0.9-1.1-1-1.9c0.5-0.8,2.3,0,2.9,0.1c0.4,1.6-1.2-0.1-1.1,1.2c1.9,0.3,3.4-2.2,4.7-3.4
		c1.6-4.4,2.4-9.9-1.5-13.6C250,52.8,250.4,53.7,249.4,54z M248,43.3l-0.2,0.9l-0.6-1.1C247.3,43.3,247.7,43.3,248,43.3z M247,41.6
		c-0.3-0.1-0.4,0.1-0.5,0.3c0.2-0.8-0.5-1.1-0.6-1.6C246.1,40.8,246.6,41.2,247,41.6z M236.9,37.9c-0.5,0.7,0.7,1.5-0.5,1.5
		C236.3,38.7,236.4,38.2,236.9,37.9z M234.3,42.8c0,0.5-0.4,0.8-0.5,1.3c-0.1-0.2-0.3-0.5-0.6-0.6L234.3,42.8z M232.7,42.4
		c-0.5,0.6,0.1,1.7-0.7,2c0.1-0.6,0.2-1.2-0.2-1.7L232.7,42.4z M232,44.4c0.1,0.2,0.3,0.3,0.5,0.2l-0.8,0.9
		C231.7,45.2,231.9,44.8,232,44.4z M232.7,49.2l-0.3,0.2l-0.6-0.5c0.2-0.6,0.9-1.8,1.6-0.9c0.1,0.7-0.6,1.5,0.1,2L232.7,49.2z
		 M234.2,44.9l0.2,0.2C234.3,45.1,234.2,45,234.2,44.9z M235.9,50.5c0,0.2-1.3-0.2-0.9-1.1c-0.2,0.5,0.4,0.8,0.6,1.1
		c0.9-0.5,0.4-1.3,0.5-2l0.3-0.1C236.8,48.9,236.6,49.9,235.9,50.5z M239.6,50.5c-0.3,0.2-0.4,0.8-0.8,0.6l-0.6-0.5
		c-1.4,0.6,0.6,1.5-0.5,2.3c-1.3-0.5,0.1-1.9,0.2-2.9C238.2,51.3,239.8,49.5,239.6,50.5z M235.5,60.1l-0.3,0.9l-0.8-0.8L235.5,60.1z
		 M232.9,64l-0.3-0.3c0.3,0.4,1.2-1.7,1.6-0.9L232.9,64z M236.2,66.9c-0.2-0.1-0.4,0.1-0.6,0.4l0.1,0.6l-1.4-0.5
		C234.6,67.2,236.4,63.5,236.2,66.9z M240.4,71.4l-0.1-0.5l0.4,0.3l0.5-0.9C241.3,70.2,241.1,71.8,240.4,71.4z M243.2,69.6
		c0.1-0.3-0.7-1.6,0.7-1.4l0.1,0.8C243.6,68.9,243.4,69.4,243.2,69.6z M247.3,56.4l-0.8,0.1c0.7-0.7,0.8-1.8,0.2-2.3
		c0.5,0.2,0.9,0.2,1.1,0.8C247.3,55.3,247.2,55.8,247.3,56.4z M248.4,68.2l-0.1-1.1l1.7,0.2C250,68.9,248.7,66.7,248.4,68.2z
		 M253.1,59.7l0.3-0.1l0.1,1.2l-0.3,0.1c0.3-1.1-0.8-1.6-1.2-2.2l-0.3,0.3l-0.1-1.1C252.6,57.7,252.3,59.3,253.1,59.7z M251.4,66.1
		c0,0.3,0.2,0.4,0.4,0.5c0.3-0.5,0.4-2.3,0.1-3l0.6-0.4c1.6,0.7-0.5,2-0.1,3.2l-1.4,1.2c0,0,0,0,0,0c0-0.2-0.1-0.3-0.3-0.3l0.5-0.6
		c-0.3-0.2-0.5-0.6-0.9-0.5v-0.6l0.9,0.9L251.4,66.1z"/>
	<path id="XMLID_661_" class="st0" d="M248.4,46.7l2-0.1c1.1-1,1.3-2.9,0.6-4h-0.3l0.1,1.7h0.3C251.3,46.2,249.3,46.2,248.4,46.7z"
		/>
	<path id="XMLID_662_" class="st0" d="M236.8,36.7C236.8,36.7,236.8,36.8,236.8,36.7C237.2,36.8,237,36.7,236.8,36.7z"/>
	<path id="XMLID_663_" class="st0" d="M238.9,36.9v-0.2c-0.2-0.4-0.5-0.3-0.9-0.2C237.9,36.9,238.4,37,238.9,36.9z"/>
	<path id="XMLID_664_" class="st0" d="M228.3,57.1c0.6-0.7,1.1-1.8,0.5-2.6C228.8,55.5,227,56.4,228.3,57.1z"/>
	<path id="XMLID_665_" class="st0" d="M279.3,67.2c-0.4-0.4-0.4-1.3,0-1.6C277.6,65.2,278.8,67.1,279.3,67.2z"/>
	<path id="XMLID_666_" class="st0" d="M274.1,35.9c-0.4-0.6-0.8-0.7-1.4-0.6l0.6,1.2L274.1,35.9z"/>
	<path id="XMLID_669_" class="st0" d="M284.9,42.6l-0.4,0.2c1.9,1.9-1.3,3.4-0.1,5.4c-1.5,0.6,0.4,1.8,0.6,2.3l0.2-0.3
		c0.8,0.6,0.6,1.9,0.5,2.5c-0.8,0.5-0.7-0.8-1.1-0.9l-0.2,0.2c-0.6-0.9-1.9,1.5-2.3-0.5l-0.3,0.2c-1.6-0.1-0.3-1.8-1.1-2.5
		c0.4-0.9,1.3-0.3,1.7-0.8c-1,0.1-0.2-1.1-0.8-1.5l-0.5,0.6c-1.2,0.1-0.2-1.3-0.9-1.5c-0.2,2.6,0.1,5.3-0.4,7.7l0.3,0.3
		c-1.1,4.2-1.2,8.8-4.5,12.2c-1.8,2-5.1,0.9-7.4,0.7c-1.8-0.6-2.5-2.6-3.3-4c-1.2-7.6-0.2-14.5,2.9-20.9c0.8-3.3,5.1-1.5,5.8-4.2
		l-1.5,0.5c-0.1-0.6-1.1-1.2,0.1-1.6l-0.3-0.3c0.1-0.3-0.1-0.7,0.3-0.9c-0.4-0.5-1.2-0.2-1.7-0.4c-1.3-0.1-2.5,1.2-3.4,1.1
		c-4.7,2.4-6.8,7.4-7.9,12.1c-0.2,3.2-0.9,6.6-0.8,9.6c-0.2,1.5,0.3,3.3,0.2,5.1c1.2,3.6,3.7,7.3,7.5,8.7c1.6,0.1,3.2,1.1,4.8,0.4
		c1.8,0.5,3,0.2,4.6,0.4c1.8-0.9,3.8-2,5.5-2.7c4.2-5.4,5.1-12.5,5.4-19.5C285.2,47.8,287,44.8,284.9,42.6z M270.4,37v0.5l-1.1-0.5
		C269.2,36.1,270.2,36.4,270.4,37z M265.5,38.5c0.2,0.4,0.6,0.3,0.9,0.3c0.2-0.3,0.9-0.8,0.4-1.1h0.6c-0.5,0.5-0.4,1.1,0.2,1.5
		c0.9-0.4,0.3-1.3,0.9-1.8c0.2,0.2,0.4,0.8,0.8,0.6l-0.9,1.7l-0.3-0.3c-0.4,2.6-2.9-1.5-2.3,1.3h0.9c-0.7,0.4-1.9,0.3-1.8,1.5
		c0.1-0.3-0.1-0.4-0.3-0.6c-0.1,0-0.2,0-0.2,0c0-0.1,0-0.2-0.1-0.3C264.8,40.4,266,39.9,265.5,38.5z M263.2,42.5l0.4-1.5l-0.4,2
		V42.5z M264.3,42.7c0.1,0.1,0.3,0.3,0.4,0.4l-1.5,1.3c0.7,0.5-1,1.9,0.2,2c-0.3,0-0.6,0.1-0.8-0.2
		C262.1,44.4,263.7,43.9,264.3,42.7z M261.1,51.9c1.5-0.5,1.1,1.3,1.6,2c-0.2-0.1-0.5-0.8-1-0.9c0.1,0,0.2-0.1,0.2-0.3
		c-0.1-0.3,0-0.6-0.4-0.8c-0.2-0.1-0.4,0.1-0.5,0.3V51.9z M261.1,53.3c-0.2-0.2-0.4-0.4-0.3-0.6c0.2,0,0.4,0.2,0.6,0.3
		c0,0-0.1,0-0.1,0L261.1,53.3z M261.7,65.5c0.2-0.4,0.5-0.3,0.8-0.3c-0.2,0.1-0.4,0.3-0.3,0.5l0.3,0.3
		C262.1,66,261.6,66.1,261.7,65.5z M264.2,65l-0.3-0.3l-1.2,1.3l0.1,0.1c-0.1-0.1-0.3-0.1-0.4-0.1c0.8-0.8,0.9-1.5,1.8-1.6V65z
		 M267,69.5l-1.1-1.4c0.4,0.3,0.6,0.8,1.1,0.8V69.5z M281.4,54.7v0.6l-0.5-0.9C281.2,54.4,281.3,54.6,281.4,54.7z M280.1,65.8
		l-0.6,0.6l0.6,0.6c-0.2,0.1-0.4,0.3-0.3,0.5l0.2,0.4c-0.2,0.1-0.4,0.2-0.3,0.5l-0.8-0.9c-0.4,0.6-1.1,0.2-1.5,0
		c0.5-0.7,0.5-1,0-1.7l0.3,0.2c0.5-0.6,0.2-2.2,1.5-1.9l0.2,0.3c1.1-0.2,0.2-1.8,1.5-1.4C280.9,64.1,280.6,64.8,280.1,65.8z
		 M281.9,65.8l-0.3,0.2l0.3-1.1V65.8z M282.2,61c-0.2-0.6-2-2.2,0.1-2.5c0.5,0.9-1,1.5,0.2,1.9c0.3-0.2,0.5-0.6,0.9-0.5
		C283.5,61,282.1,59.9,282.2,61z M284.9,57.1c-0.2,0-0.4-0.1-0.6-0.3l-0.3,0.3c0.5-1-0.8-1.1-0.5-1.8c1.1-0.4,1,0.7,1.4,1.2V57.1z
		 M284.7,52.8c-0.1-0.3-0.1-0.5-0.2-0.6l0.3,0.3l0.2-0.2C285,52.5,284.8,52.7,284.7,52.8z"/>
	<path id="XMLID_684_" class="st0" d="M281.5,49.6l0.4,1.2c0.3-0.2,0.2-0.6,0.2-0.9C282,49.8,281.8,49.6,281.5,49.6z"/>
	<path id="XMLID_685_" class="st0" d="M283.9,42.6l0.6-0.6c0-0.4,0.1-0.7-0.2-0.9c-0.2,0.4-0.6,0.3-0.9,0.2l0.3,0.4
		c-0.4,0.6-0.8-0.1-1.2-0.1c-0.7,0.8,0.2,1.5,0.2,2.3c0.5-0.1,1.5,0.3,1.5-0.2l-0.3-0.3l0.6-0.6C284.3,42.9,284.1,42.8,283.9,42.6z"
		/>
	<path id="XMLID_686_" class="st0" d="M279.7,43.3c0.2-0.4,0.6-0.3,0.9-0.2c0.1-0.4-0.2-0.9,0.3-1.1l-0.6-0.6
		c-0.6,0.7-1.5,0.1-1.9-0.6L278,41c1.1,1.2,1.5,3.1,2.1,4.3C280.1,44.6,280,43.9,279.7,43.3z"/>
	<path id="XMLID_687_" class="st0" d="M274.6,39.9l0.9-0.9c-0.3-0.2-0.5-0.7-0.9-0.6C274.5,38.9,274.1,39.5,274.6,39.9z"/>
	<path id="XMLID_688_" class="st0" d="M282.1,41.1l0.5-0.9c0.2,0.5,0.8,0.2,1.2,0.4c-0.4-1.3-1.8-1.2-2.6-2
		c-0.1,0.4,0.4,0.6,0.5,0.9c-1.2,0.1-0.6,1.3-1.5,1.9l0.9-0.8C281.6,40.5,281.7,40.9,282.1,41.1z"/>
	<path id="XMLID_689_" class="st0" d="M278,41C278,41,278,41,278,41C278,41,278,41,278,41L278,41z"/>
	<path id="XMLID_690_" class="st0" d="M277.1,38.2c-0.2,0.5-0.8,0.1-1.1,0.2v1.5c0.8,0.2,1.5,0.6,2,1.1c-0.6-1,0.3-2.7-1.1-3.1
		c-0.3-0.8,0.6-0.9,0.9-1.3c0.2-0.1,0.4,0.1,0.5,0.3c0.6,0.5-0.2,1.7,1.1,1.6c0.1,0.3-0.2,0.4-0.2,0.6c0.2,0.4,0.7,0.5,1.1,0.6
		c0.1-0.6,0.2-1.3,0.6-2c-1.7-0.9-4.3-2.8-6-1.2l0.3,0.3C277.6,35.4,275.3,38.1,277.1,38.2z"/>
	<path id="XMLID_691_" class="st0" d="M312.7,67.2c-0.4-0.4-0.4-1.3,0-1.6C311,65.2,312.3,67.1,312.7,67.2z"/>
	<path id="XMLID_694_" class="st0" d="M318.3,42.6l-0.4,0.2c1.9,1.9-1.3,3.4-0.1,5.4c-1.5,0.6,0.4,1.8,0.6,2.3l0.2-0.3
		c0.8,0.6,0.6,1.9,0.5,2.5c-0.8,0.5-0.7-0.8-1.1-0.9l-0.2,0.2c-0.6-0.9-1.9,1.5-2.3-0.5l-0.3,0.2c-1.6-0.1-0.3-1.8-1.1-2.5
		c0.4-0.9,1.3-0.3,1.7-0.8c-1,0.1-0.2-1.1-0.8-1.5l-0.5,0.6c-1.2,0.1-0.2-1.3-0.9-1.5c-0.2,2.6,0.1,5.3-0.4,7.7l0.3,0.3
		c-1.1,4.2-1.2,8.8-4.5,12.2c-1.8,2-5.1,0.9-7.4,0.7c-1.8-0.6-2.5-2.6-3.3-4c-1.2-7.6-0.2-14.5,2.9-20.9c0.8-3.3,5.1-1.5,5.8-4.2
		l-1.5,0.5c-0.1-0.6-1.1-1.2,0.1-1.6l-0.3-0.3c0.1-0.3-0.1-0.7,0.3-0.9c-0.4-0.5-1.2-0.2-1.7-0.4c-1.3-0.1-2.5,1.2-3.4,1.1
		c-4.7,2.4-6.8,7.4-7.9,12.1c-0.2,3.2-0.9,6.6-0.8,9.6c-0.2,1.5,0.3,3.3,0.2,5.1c1.2,3.6,3.7,7.3,7.5,8.7c1.6,0.1,3.2,1.1,4.8,0.4
		c1.8,0.5,3,0.2,4.6,0.4c1.8-0.9,3.8-2,5.5-2.7c4.2-5.4,5.1-12.5,5.4-19.5C318.6,47.8,320.4,44.8,318.3,42.6z M303.9,37v0.5
		l-1.1-0.5C302.6,36.1,303.6,36.4,303.9,37z M299,38.5c0.2,0.4,0.6,0.3,0.9,0.3c0.2-0.3,0.9-0.8,0.4-1.1h0.6
		c-0.5,0.5-0.4,1.1,0.2,1.5c0.9-0.4,0.3-1.3,0.9-1.8c0.2,0.2,0.4,0.8,0.8,0.6l-0.9,1.7l-0.3-0.3c-0.4,2.6-2.9-1.5-2.3,1.3h0.9
		c-0.7,0.4-1.9,0.3-1.8,1.5c0.1-0.3-0.1-0.4-0.3-0.6c-0.1,0-0.2,0-0.2,0c0-0.1,0-0.2-0.1-0.3C298.3,40.4,299.4,39.9,299,38.5z
		 M296.6,42.5L297,41l-0.4,2V42.5z M297.7,42.7c0.1,0.1,0.3,0.3,0.4,0.4l-1.5,1.3c0.7,0.5-1,1.9,0.2,2c-0.3,0-0.6,0.1-0.8-0.2
		C295.6,44.4,297.2,43.9,297.7,42.7z M294.5,51.9c1.5-0.5,1.1,1.3,1.6,2c-0.2-0.1-0.5-0.8-1-0.9c0.1,0,0.2-0.1,0.2-0.3
		c-0.1-0.3,0-0.6-0.4-0.8c-0.2-0.1-0.4,0.1-0.5,0.3V51.9z M294.5,53.3c-0.2-0.2-0.4-0.4-0.3-0.6c0.2,0,0.4,0.2,0.6,0.3
		c0,0-0.1,0-0.1,0L294.5,53.3z M295.2,65.5c0.2-0.4,0.5-0.3,0.8-0.3c-0.2,0.1-0.4,0.3-0.3,0.5l0.3,0.3
		C295.5,66,295.1,66.1,295.2,65.5z M297.7,65l-0.3-0.3l-1.2,1.3l0.1,0.1c-0.1-0.1-0.3-0.1-0.4-0.1c0.8-0.8,0.9-1.5,1.8-1.6V65z
		 M300.4,69.5l-1.1-1.4c0.4,0.3,0.6,0.8,1.1,0.8V69.5z M314.9,54.7v0.6l-0.5-0.9C314.7,54.4,314.7,54.6,314.9,54.7z M313.6,65.8
		l-0.6,0.6l0.6,0.6c-0.2,0.1-0.4,0.3-0.3,0.5l0.2,0.4c-0.2,0.1-0.4,0.2-0.3,0.5l-0.8-0.9c-0.4,0.6-1.1,0.2-1.5,0
		c0.5-0.7,0.5-1,0-1.7l0.3,0.2c0.5-0.6,0.2-2.2,1.5-1.9l0.2,0.3c1.1-0.2,0.2-1.8,1.5-1.4C314.4,64.1,314,64.8,313.6,65.8z
		 M315.3,65.8l-0.3,0.2l0.3-1.1V65.8z M315.6,61c-0.2-0.6-2-2.2,0.1-2.5c0.5,0.9-1,1.5,0.2,1.9c0.3-0.2,0.5-0.6,0.9-0.5
		C316.9,61,315.6,59.9,315.6,61z M318.3,57.1c-0.2,0-0.4-0.1-0.6-0.3l-0.3,0.3c0.5-1-0.8-1.1-0.5-1.8c1.1-0.4,1,0.7,1.4,1.2V57.1z
		 M318.1,52.8c-0.1-0.3-0.1-0.5-0.2-0.6l0.3,0.3l0.2-0.2C318.4,52.5,318.2,52.7,318.1,52.8z"/>
	<path id="XMLID_709_" class="st0" d="M307.5,35.9c-0.4-0.6-0.8-0.7-1.4-0.6l0.6,1.2L307.5,35.9z"/>
	<path id="XMLID_710_" class="st0" d="M315,49.6l0.4,1.2c0.3-0.2,0.2-0.6,0.2-0.9C315.4,49.8,315.3,49.6,315,49.6z"/>
	<path id="XMLID_711_" class="st0" d="M317.4,42.6L318,42c0-0.4,0.1-0.7-0.2-0.9c-0.2,0.4-0.6,0.3-0.9,0.2l0.3,0.4
		c-0.4,0.6-0.8-0.1-1.2-0.1c-0.7,0.8,0.2,1.5,0.2,2.3c0.5-0.1,1.5,0.3,1.5-0.2l-0.3-0.3l0.6-0.6C317.7,42.9,317.5,42.8,317.4,42.6z"
		/>
	<path id="XMLID_712_" class="st0" d="M315.5,41.1l0.5-0.9c0.2,0.5,0.8,0.2,1.2,0.4c-0.4-1.3-1.8-1.2-2.6-2
		c-0.1,0.4,0.4,0.6,0.5,0.9c-1.2,0.1-0.6,1.3-1.5,1.9l0.9-0.8C315,40.5,315.1,40.9,315.5,41.1z"/>
	<path id="XMLID_713_" class="st0" d="M308,39.9L309,39c-0.3-0.2-0.5-0.7-0.9-0.6C307.9,38.9,307.5,39.5,308,39.9z"/>
	<path id="XMLID_714_" class="st0" d="M313.1,43.3c0.2-0.4,0.6-0.3,0.9-0.2c0.1-0.4-0.2-0.9,0.3-1.1l-0.6-0.6
		c-0.6,0.7-1.5,0.1-1.9-0.6l-0.3,0.3c1.1,1.2,1.5,3.1,2.1,4.3C313.5,44.6,313.5,43.9,313.1,43.3z"/>
	<path id="XMLID_715_" class="st0" d="M311.5,41C311.5,41,311.4,41,311.5,41C311.4,41,311.4,41,311.5,41L311.5,41z"/>
	<path id="XMLID_716_" class="st0" d="M310.6,38.2c-0.2,0.5-0.8,0.1-1.1,0.2v1.5c0.8,0.2,1.5,0.6,2,1.1c-0.6-1,0.3-2.7-1.1-3.1
		c-0.3-0.8,0.6-0.9,0.9-1.3c0.2-0.1,0.4,0.1,0.5,0.3c0.6,0.5-0.2,1.7,1.1,1.6c0.1,0.3-0.2,0.4-0.2,0.6c0.2,0.4,0.7,0.5,1.1,0.6
		c0.1-0.6,0.2-1.3,0.6-2c-1.7-0.9-4.3-2.8-6-1.2l0.3,0.3C311,35.4,308.7,38.1,310.6,38.2z"/>
	<path id="XMLID_719_" class="st0" d="M345,38.2c-0.4,1.2,0.5,2.1,1.4,2.6c-0.4,0.5-1.3-0.1-1.7,0.8c0.1,1.3-0.4,3.6,1.4,4.6
		c-0.1,0.4,0.2,0.9-0.3,1.1c-1,0.1-0.2-1.1-0.8-1.4c-0.5,5.4-1.3,10.3-1.4,15.3c-0.4-0.1-0.7,0.1-0.9-0.3c-0.7-2.9-2.6-5.3-3-8.2
		c-1.8-0.9-1.4-2.7-1.5-4.3c-0.5-0.3-1.5-0.4-1.1-1.4c-3.3-3.2-1.3-12.9-9.1-9.9l-0.5,0.6c-0.1,0.6,0,1.1,0.5,1.4
		c-0.5,0.5,0.1,1.4-0.8,1.8l0.3,0.2l0.5-0.5c0.3-0.1,0.4,0.1,0.6,0.3c-2.7,2.6-0.7,5.5-1.7,9l0.3-0.3c0.4-0.1,0.5,0.4,0.8,0.6
		c-0.1,0.5,0.2,1.1-0.3,1.5l-0.8-0.9c-0.6,1.3,0.1,3.2-0.6,4.6l0.6,0.6c-1.5,2.3-0.8,6.4-0.6,8.5l0.3,0.3c-1.3,2-1.3,4.4-1.7,7.1
		c2.1,0.1,4.6,1.1,6.3,0.6c0.1-0.4-0.4-0.6-0.6-0.9c2-1.5-1.5-3.4,0.9-4.5V50.7c-1.1-0.4-1.9,1.4-2.6-0.2c-0.4-0.2-0.4-0.7,0-0.9
		c0.2,0.2,0.3,0.4,0.6,0.3V49c0.5-0.9,0.8,0.4,1.4,0.3c-0.4-0.8-1.5-1.9-0.8-2.8l0.8,0.8l-0.3,0.3c0.7-0.4,0.9,0.5,1.4,0.8
		c0.1,0.3-0.1,0.4-0.3,0.6l1.7,0.3c-1.7,1.3,0.9,2.2,0.3,3.7c2,0.5,0.5,3.4,2.6,3.2c0,0.2,0.1,0.6-0.3,0.8c0.2,1.1,0.5,3.3,2,2.8
		c0.2,0.6-0.2,0.8-0.6,1.2c1.8,4.3,3.4,8.5,5.1,12.7c0.3,0,0.7,0.1,0.8-0.3l0.6,0.6c1.6-0.9,3.3,1.9,4.8-0.3
		c-0.6-3.4,1-6.6,0.8-10.2c0.4-2.6,0.5-6.1-0.2-8.2c1.9-2.2-1.4-3.6,0.5-5.7c-1-1.3,0.9-3.5-0.5-5.1c0.7-1.2,0.9-3.2,0.8-5.1
		c0.5-0.4,1.2-1.1,0.6-1.7C349.3,38.2,346.7,37.6,345,38.2z M327.1,70.6l-0.3-1.2c0.5,0.3,1.1,0.3,1.4,0.9
		C328.1,70.8,327.5,70.4,327.1,70.6z M329.1,56.9l0.3,2c-0.3,0.1-0.4-0.2-0.6-0.3l-0.6,0.5v-2.2H329.1z M328.5,43.6l-0.9-0.9
		l1.2-1.1L328.5,43.6z M329.1,45.6c0-0.1,0.1-0.2,0.1-0.2C329.2,45.4,329.2,45.5,329.1,45.6z M335.4,50.7l-0.3-0.9h0.6
		C335.7,50.2,335.7,50.5,335.4,50.7z M337.1,55.5v-1.5c0.5,0.4,0.2,1.1,0.5,1.5H337.1z M344.4,67.2l-0.3-1.4h0.6
		C344.6,66.2,345,66.9,344.4,67.2z M346.4,59.5c0.4,0.4,0.4,0.8,0.5,1.2C346.3,60.7,346.4,59.9,346.4,59.5z M345.8,53.5h-0.5
		c0-0.6,1.1-0.9,1.6-1.4C347,52.7,346.3,53,345.8,53.5z M348.1,47c0.2,0.6-1,1-1.2,1.4c0.5-1.2,0.4-2.1,0-3.4
		c1.4-0.4,0.7-1.2,0.9-2.3h0.5C349.3,44.7,345.7,45.5,348.1,47z"/>
	<path id="XMLID_729_" class="st0" d="M382.9,103.3c-0.1,1.4,0.8,0.9,0.9,1.1C383.6,102,382.6,103.3,382.9,103.3z"/>
	<polygon id="XMLID_730_" class="st0" points="381,80.5 381.3,80.9 380.5,77.5 	"/>
	<path id="XMLID_731_" class="st0" d="M384.1,47.8c-0.6,0.7-0.5-2.5-0.2,2.6c0.1-0.3,0.1-0.3,0.1-0.5C384,49.5,384,48.9,384.1,47.8z
		"/>
	<path id="XMLID_732_" class="st0" d="M384,50C384.1,52.2,384.5,48.5,384,50L384,50z"/>
	<path id="XMLID_733_" class="st0" d="M383.7,39.6l0.5,3c0.3-0.6,0.4-3.2,0.6-2.3C384.6,37.3,384.2,37.9,383.7,39.6z"/>
	<path id="XMLID_734_" class="st0" d="M382.7,36.8l0.2,1.5C383,38.1,383.1,37.7,382.7,36.8z"/>
	<path id="XMLID_735_" class="st0" d="M383,39.8c-0.4-0.3,0,0.4,0.3,1.8l-0.4-3.2C382.6,38.8,382.2,38.8,383,39.8z"/>
	<path id="XMLID_736_" class="st0" d="M384.4,21.2c-0.3-0.2-0.8,1-1.2,1.2l0.3,2.2C383.8,23.5,384,21.4,384.4,21.2z"/>
	<path id="XMLID_737_" class="st0" d="M383.2,22.4l-0.5-3.3C382.7,22.1,382.9,22.6,383.2,22.4z"/>
	<path id="XMLID_738_" class="st0" d="M384.5,3.1c0,0,0.2,0.7,0.4,1.4c0.2,0.8,0.4,1.5,0.4,1.5c-0.3-1.7-0.6-3.2-0.9-4.6l-0.9,0.1
		l0.9-0.1L384.5,3.1z"/>
	<path id="XMLID_739_" class="st0" d="M368.9,1.1c0.3,0,0.6,0.1,0.9,0.1c0.1,0,0.3,0,0.5,0.1c0.3,0,0.6,0.1,0.8,0.1
		c1.3-0.3,0.5-0.5-0.4-0.8c-0.5-0.1-0.6-0.2-0.7-0.3c-0.1-0.1,0-0.2,0.4-0.3c-2.3,0.1-4.2,0.6-5.9,1.1c0.9-0.1,1.9-0.2,2.9-0.1
		C367.8,0.9,368.4,1,368.9,1.1z"/>
	<path id="XMLID_740_" class="st0" d="M361.5,1.7c0.9-0.1,1.9-0.4,2.9-0.7C363.4,1.2,362.5,1.4,361.5,1.7z"/>
	<path id="XMLID_741_" class="st0" d="M383.7,7.7c0,0-0.2,0.7-0.4,1.3c-0.2,0.6-0.4,1.3-0.4,1.3c0,0.6,0,1.4,0,2.1
		C383.1,12,383.5,11,383.7,7.7z"/>
	<path id="XMLID_742_" class="st0" d="M382.9,10.4L382.9,10.4c0.1-2.4,0.1-4,0.1-4.7C382.9,6.3,382.9,7.7,382.9,10.4z"/>
	<path id="XMLID_743_" class="st0" d="M382.9,12.9c0-0.2,0-0.3,0-0.5C382.8,12.6,382.8,12.8,382.9,12.9z"/>
	<path id="XMLID_744_" class="st0" d="M382.4,19.2l-0.6-3.7l-0.2,3.5C381.8,18.9,382.2,18.3,382.4,19.2z"/>
	<polygon id="XMLID_745_" class="st0" points="381.9,13.6 381.5,13.1 381.8,15.5 	"/>
	<path id="XMLID_746_" class="st0" d="M367.4,2.5c-1.5,0.4-3.1,0.4-5,0.5c2,0.2,4,0.3,6,0.3C368.7,3,369.6,2.5,367.4,2.5z"/>
	<path id="XMLID_747_" class="st0" d="M377.7,2.7c-0.2,0-0.4,0-0.6,0C377.5,2.9,377.7,2.9,377.7,2.7z"/>
	<path id="XMLID_748_" class="st0" d="M344.2,3c0.1,0.1,0.2,0.1,0.3,0.2c0-0.1,0-0.1,0.1-0.1L344.2,3z"/>
	<path id="XMLID_749_" class="st0" d="M368.8,3.4c0.4,0,0.7,0.1,1,0.1c0.2,0,0.3,0,0.4,0c0.2,0,0.4,0,0.6,0c0.8-0.1,1.5-0.2,2.2-0.3
		c-0.9,0-1.8,0.1-2.8,0.1c-0.6,0-1.2,0-1.8,0C368.3,3.3,368.3,3.4,368.8,3.4z"/>
	<path id="XMLID_750_" class="st0" d="M356.4,2.1c0.8,0.2,1.7,0.3,2.6,0.5C358.2,2.3,356.7,1.9,356.4,2.1z"/>
	<path id="XMLID_751_" class="st0" d="M376.5,2.6c0.1,0,0.2,0,0.4,0C376.1,2.3,376.2,2.4,376.5,2.6z"/>
	<path id="XMLID_752_" class="st0" d="M376.5,2.6c-1.3,0.1-2.4,0.3-3.4,0.5c1.5-0.1,2.9-0.2,4.1-0.3C376.9,2.7,376.6,2.6,376.5,2.6z
		"/>
	<path id="XMLID_753_" class="st0" d="M351,3.2l1.4-0.1c-1.6-0.1-2.8-0.5-4.9-1.1c-2.3,0.4-2.8,0.7-3,0.9l6.9,0.1L351,3.2z"/>
	<polygon id="XMLID_754_" class="st0" points="344.3,1.6 341.1,2.9 343.6,2.5 	"/>
	<polygon id="XMLID_755_" class="st0" points="336.6,1.9 334.7,2.3 336.3,2.6 	"/>
	<path id="XMLID_756_" class="st0" d="M11.9,87.3l0.2,1.6C12.1,88.1,12,87.6,11.9,87.3z"/>
	<path id="XMLID_757_" class="st0" d="M12,75.4l-0.4-0.3C11.8,75.7,12,75.9,12,75.4z"/>
	<path id="XMLID_758_" class="st0" d="M158.5,2.7c-2.4-0.7-5-1.9-4.8-1l0.7,0.9C156.1,2.5,157.4,2.5,158.5,2.7z"/>
	<path id="XMLID_759_" class="st0" d="M54.9,98.7l1.9-0.9C53.8,97.8,55.1,98.2,54.9,98.7z"/>
	<path id="XMLID_760_" class="st0" d="M262.2,3c-2.1-0.3-3.7-0.5-5.1-0.5C259.5,2.9,261.5,3.7,262.2,3z"/>
	<path id="XMLID_761_" class="st0" d="M2.7,82.6c0.2,1,0.3,1.4,0.5,1.4C3.1,83,3,82.4,2.7,82.6z"/>
	<path id="XMLID_762_" class="st0" d="M257,2.4c-1.8-0.4-3.9-0.6-5.9,0c0.4,0.1,0.7,0.1,1.1,0.2C253.7,2.5,255.2,2.4,257,2.4z"/>
	<path id="XMLID_763_" class="st0" d="M289.7,99.4c0.2,0,0.4,0.1,0.5,0.1C290.3,99.4,290,99.4,289.7,99.4z"/>
	<path id="XMLID_764_" class="st0" d="M358.1,108.2c-0.7,0.1-1.8,0.1-2.8,0.1C355.8,108.3,356.6,108.3,358.1,108.2z"/>
	<path id="XMLID_765_" class="st0" d="M307.2,2.3C308.7,2.2,307.4,2.2,307.2,2.3L307.2,2.3z"/>
	<path id="XMLID_766_" class="st0" d="M309.5,2.7c-0.6-0.1-1.2-0.2-2-0.3C307.9,2.5,308.5,2.6,309.5,2.7z"/>
	<path id="XMLID_767_" class="st0" d="M309.2,2.3c0.5,0,0.9,0.1,1.3,0.1C310.7,2.2,310.6,2.1,309.2,2.3z"/>
	<path id="XMLID_768_" class="st0" d="M307.2,2.3c-0.5,0-1.1,0-2.1,0c0.9,0,1.7,0,2.5,0.1C307.2,2.3,307.1,2.3,307.2,2.3z"/>
	<path id="XMLID_769_" class="st0" d="M11.7,82l0,0.6C11.8,82.4,11.7,82.2,11.7,82z"/>
	<path id="XMLID_770_" class="st0" d="M128.5,98.7c0.2,0,0.3,0,0.5,0C128.8,98.7,128.7,98.7,128.5,98.7z"/>
	<path id="XMLID_771_" class="st0" d="M279.4,99.4l-0.3,0C279.1,99.4,279.3,99.4,279.4,99.4z"/>
	<path id="XMLID_772_" class="st0" d="M54.9,98.7l-0.4,0.2l0.2,0C54.8,98.8,54.8,98.7,54.9,98.7z"/>
	<path id="XMLID_773_" class="st0" d="M322.8,2.4c-0.1-0.2-0.5-0.5,0-0.5l-3,0.2C321.4,2,322,2.2,322.8,2.4z"/>
	<path id="XMLID_774_" class="st0" d="M322.8,1.9l0.3,0C322.9,1.8,322.8,1.8,322.8,1.9z"/>
	<path id="XMLID_775_" class="st0" d="M302.2,2.9c1.1,0.2,0.7-1,1.3-0.7C304.7,1.2,296.1,3.5,302.2,2.9z"/>
	<polygon id="XMLID_776_" class="st0" points="369.4,109.2 372.5,109.7 370.5,109 	"/>
	<path id="XMLID_777_" class="st0" d="M375.4,107.7l0.7,1.3l1.9-1.2C377.3,107.9,375.9,108,375.4,107.7z"/>
	<path id="XMLID_778_" class="st0" d="M13.5,51.6l0.7-2.4l-0.3-0.2C13.5,49.4,13.5,50.1,13.5,51.6z"/>
	<polygon id="XMLID_779_" class="st0" points="13.2,91.2 13.2,90.4 12.1,91.8 	"/>
	<path id="XMLID_780_" class="st0" d="M24.7,97c0.3,0,0.7,0,1,0C25.4,97,25.1,97,24.7,97z"/>
	<path id="XMLID_781_" class="st0" d="M25.7,97c2.5,0.1,3.9,1.1,3.6-0.2C28.2,96.8,26.9,96.9,25.7,97z"/>
	<path id="XMLID_782_" class="st0" d="M2.3,8.8c0.1-1.4-0.8-0.9-0.9-1.1C1.6,10,2.5,8.8,2.3,8.8z"/>
	<polygon id="XMLID_783_" class="st0" points="4.2,31.6 3.9,31.2 4.7,34.5 	"/>
	<path id="XMLID_784_" class="st0" d="M1.1,64.3c0.6-0.7,0.5,2.5,0.2-2.6c-0.1,0.3-0.1,0.3-0.1,0.5C1.2,62.5,1.2,63.2,1.1,64.3z"/>
	<path id="XMLID_785_" class="st0" d="M1.2,62.1C1.1,59.8,0.7,63.6,1.2,62.1L1.2,62.1z"/>
	<path id="XMLID_786_" class="st0" d="M1.5,72.5l-0.5-3c-0.3,0.6-0.4,3.2-0.6,2.3C0.6,74.8,0.9,74.2,1.5,72.5z"/>
	<path id="XMLID_787_" class="st0" d="M2.5,75.3l-0.2-1.5C2.2,74,2.1,74.4,2.5,75.3z"/>
	<path id="XMLID_788_" class="st0" d="M2.2,72.2c0.4,0.3,0-0.4-0.3-1.8l0.4,3.2C2.5,73.3,3,73.2,2.2,72.2z"/>
	<path id="XMLID_789_" class="st0" d="M0.7,90.9c0.3,0.2,0.8-1,1.2-1.2l-0.3-2.2C1.4,88.6,1.2,90.7,0.7,90.9z"/>
	<path id="XMLID_790_" class="st0" d="M1.9,89.6l0.5,3.3C2.5,90,2.3,89.5,1.9,89.6z"/>
	<path id="XMLID_791_" class="st0" d="M0.7,109c0,0-0.2-0.7-0.4-1.4C0.2,106.8,0,106,0,106c0.3,1.7,0.6,3.2,0.9,4.6l0.9-0.1L1,110.6
		L0.7,109z"/>
	<path id="XMLID_792_" class="st0" d="M16.3,111c-0.3,0-0.6-0.1-0.9-0.1c-0.1,0-0.3,0-0.5-0.1c-0.3,0-0.6-0.1-0.8-0.1
		c-1.3,0.3-0.5,0.5,0.4,0.8c0.5,0.1,0.6,0.2,0.7,0.3c0.1,0.1,0,0.2-0.4,0.3c2.3-0.1,4.2-0.6,5.9-1.1c-0.9,0.1-1.9,0.2-2.9,0.1
		C17.4,111.1,16.8,111.1,16.3,111z"/>
	<path id="XMLID_793_" class="st0" d="M23.7,110.4c-0.9,0.1-1.9,0.4-2.9,0.7C21.8,110.9,22.7,110.7,23.7,110.4z"/>
	<path id="XMLID_794_" class="st0" d="M1.4,104.3c0,0,0.2-0.7,0.4-1.3c0.2-0.6,0.4-1.3,0.4-1.3c0-0.6,0-1.4,0-2.1
		C2.1,100.1,1.6,101,1.4,104.3z"/>
	<path id="XMLID_795_" class="st0" d="M2.3,101.7L2.3,101.7c-0.1,2.4-0.1,4-0.1,4.7C2.3,105.7,2.3,104.3,2.3,101.7z"/>
	<path id="XMLID_796_" class="st0" d="M2.3,99.1c0,0.2,0,0.3,0,0.5C2.4,99.4,2.4,99.3,2.3,99.1z"/>
	<path id="XMLID_797_" class="st0" d="M2.8,92.8l0.6,3.7l0.2-3.5C3.4,93.2,3,93.8,2.8,92.8z"/>
	<polygon id="XMLID_798_" class="st0" points="3.3,98.5 3.7,99 3.4,96.6 	"/>
	<path id="XMLID_799_" class="st0" d="M17.7,109.6c1.5-0.4,3.1-0.4,5-0.5c-2-0.2-4-0.3-6-0.3C16.5,109.1,15.6,109.6,17.7,109.6z"/>
	<path id="XMLID_800_" class="st0" d="M7.4,109.3c0.2,0,0.4,0,0.6,0C7.7,109.2,7.5,109.2,7.4,109.3z"/>
	<path id="XMLID_801_" class="st0" d="M41,109.1c-0.1-0.1-0.2-0.1-0.3-0.2c0,0,0,0.1-0.1,0.1L41,109.1z"/>
	<path id="XMLID_802_" class="st0" d="M16.4,108.7c-0.4,0-0.7-0.1-1-0.1c-0.2,0-0.3,0-0.4,0c-0.2,0-0.4,0-0.6,0
		c-0.8,0.1-1.5,0.2-2.2,0.3c0.9,0,1.8-0.1,2.8-0.1c0.6,0,1.2,0,1.8,0C16.9,108.7,16.9,108.6,16.4,108.7z"/>
	<path id="XMLID_803_" class="st0" d="M28.8,110c-0.8-0.2-1.7-0.3-2.6-0.5C27,109.8,28.5,110.2,28.8,110z"/>
	<path id="XMLID_804_" class="st0" d="M8.7,109.5c-0.1,0-0.2,0-0.4,0C9.1,109.7,9,109.6,8.7,109.5z"/>
	<path id="XMLID_805_" class="st0" d="M8.7,109.5c1.3-0.1,2.4-0.3,3.4-0.5c-1.5,0.1-2.9,0.2-4.1,0.3C8.3,109.3,8.5,109.4,8.7,109.5z
		"/>
	<path id="XMLID_806_" class="st0" d="M34.1,108.9l-1.4,0.1c1.6,0.1,2.8,0.5,4.9,1.1c2.3-0.4,2.8-0.7,3-0.9l-6.9-0.1L34.1,108.9z"/>
	<polygon id="XMLID_807_" class="st0" points="40.9,110.4 44.1,109.2 41.6,109.5 	"/>
	<polygon id="XMLID_808_" class="st0" points="48.6,110.2 50.5,109.7 48.8,109.4 	"/>
	<path id="XMLID_809_" class="st0" d="M373.2,24.8l-0.2-1.6C373.1,23.9,373.2,24.4,373.2,24.8z"/>
	<path id="XMLID_810_" class="st0" d="M373.2,36.7l0.4,0.3C373.4,36.4,373.2,36.2,373.2,36.7z"/>
	<path id="XMLID_811_" class="st0" d="M226.7,109.3c2.4,0.7,5,1.9,4.8,1l-0.7-0.9C229.1,109.6,227.8,109.5,226.7,109.3z"/>
	<path id="XMLID_812_" class="st0" d="M330.3,13.4l-1.9,0.9C331.4,14.3,330.1,13.8,330.3,13.4z"/>
	<path id="XMLID_813_" class="st0" d="M123,109.1c2.1,0.3,3.7,0.5,5.1,0.5C125.7,109.1,123.7,108.4,123,109.1z"/>
	<path id="XMLID_814_" class="st0" d="M382.4,29.5c-0.2-1-0.3-1.4-0.5-1.4C382.1,29.1,382.2,29.7,382.4,29.5z"/>
	<path id="XMLID_815_" class="st0" d="M128.2,109.6c1.8,0.4,3.9,0.6,5.9,0c-0.4-0.1-0.7-0.1-1.1-0.2
		C131.5,109.6,130,109.7,128.2,109.6z"/>
	<path id="XMLID_816_" class="st0" d="M95.5,12.7c-0.2,0-0.4-0.1-0.5-0.1C94.9,12.7,95.2,12.7,95.5,12.7z"/>
	<path id="XMLID_817_" class="st0" d="M27.1,3.9c0.7-0.1,1.8-0.1,2.8-0.1C29.4,3.8,28.5,3.8,27.1,3.9z"/>
	<path id="XMLID_818_" class="st0" d="M78,109.8C76.4,109.9,77.7,109.9,78,109.8L78,109.8z"/>
	<path id="XMLID_819_" class="st0" d="M75.7,109.4c0.6,0.1,1.2,0.2,2,0.3C77.3,109.6,76.7,109.5,75.7,109.4z"/>
	<path id="XMLID_820_" class="st0" d="M76,109.8c-0.5,0-0.9-0.1-1.3-0.1C74.4,109.9,74.6,110,76,109.8z"/>
	<path id="XMLID_821_" class="st0" d="M78,109.8c0.5,0,1.1,0,2.1,0c-0.9,0-1.7,0-2.5-0.1C77.9,109.7,78.1,109.8,78,109.8z"/>
	<path id="XMLID_822_" class="st0" d="M256.6,13.4c-0.2,0-0.3,0-0.5,0C256.3,13.4,256.5,13.4,256.6,13.4z"/>
	<path id="XMLID_825_" class="st0" d="M383.2,67.2c1.2-7.2-1.3-0.9-1.5-6.3c0.7-1,1.7,1.3,1.8-2.4c0.4-1.4-1.1-7-1.2-11.7
		c0.3,2.7,1,1.3,0.8-3.3c-0.3,1.4-0.4,3.2-0.8,1.8c0-0.8,0.1-1.6,0.3-2.3c-0.5,1.1-1,2.2-1.4-0.3c-0.1-1.2,0.1-2.7,0.3-4.2l0.7,3.3
		l-0.6-3.6c0.5-3.3,1-7,0-9.3c0.1-0.5,0.3-0.7,0.4-0.7c-0.4-2.8-0.7-9-1.5-11.1c0.1-0.2,0.2-0.5,0.2-0.6c0.1-0.1,0.1-0.1,0.2-0.2
		c0,0,0.1-0.1,0.1-0.1c0,0,0,0,0,0c0.1-0.2,0.2-0.4,0.3-0.7c0.2-0.8,0.3-1.9,0.3-3.1c0.1-2.4-0.1-5.2-0.2-7.8
		c-3.5,0.2-6.8,0.5-9.1,0.5c-0.6,0-1.1,0-1.6,0c-0.3,0-0.4,0-0.6-0.1c-0.2,0-0.3-0.1-0.4-0.1c-0.5-0.2-0.8-0.4-0.8-0.8l-9,0.2
		l0.2-0.3c0.6-0.2,0.9-0.4-1.1-0.6c1.3-0.1,2.5-0.2,3.6-0.2c-1.2-0.1-2.4-0.2-3.5-0.4c0.1,0,0.1,0,0.2,0.1l0,0c0,0,0,0,0,0
		c0.3,0.1,0.4,0.2,0.1,0.1c0,0-0.1,0-0.1,0c0,0.1-0.2,0.2-0.3,0.3c-1.9-0.2-0.3-0.2,0.3-0.3c0,0,0.1-0.1,0.1-0.1c0,0,0,0,0,0
		l-6.7,0.5c1.4,0.1,3.2,0.1,6.3,0c-0.3,0.3-0.9,0.5-1.4,0.7c-3.9,0.1-5.6,0.7-7.3,1.3c-1.3-0.2-0.4-0.5-0.3-0.7
		c-1.4-0.1-2.6-0.2-3.7-0.2c-0.5-0.4-1.1-0.7-1.7-1c-0.1,0.3-0.1,0.6-2.3,1c-2.6,0.1-4.6,0.5-8.7,1.4l0-0.1c0,0,0.1,0,0.1,0
		c0.1-0.2,0-0.2-0.2-0.2l-0.5-0.7c-0.9,0.3-3.9-0.1-7.7-0.4c2.5-0.5,5.2-0.9,7.8-0.7c-1.9-1.2-1,0.1-4-1.3c2.5,1.7-9.9,0.1-7.1,1.6
		c-2.9-1.4-5.2-0.6-9.1-1.9c0.1,0.4,1.4,0.8-2.1,0.6c-0.2,0.1-0.5,0.3-0.8,0.4c-0.1,0-0.1,0-0.2,0c0.1,0,0.1,0,0.2,0
		c-0.2,0.1-0.2,0.1,0.1,0c0.9,0.2,1.6,0.4,1.8,0.6c-0.4,0.2-0.9,0.3-1.6,0.5c-4.5,0.1-9.6-0.6-13.8-0.8c0.1-0.2,0.7-0.3,2.1-0.5
		l-4.5,0c-2.7-0.5-6.3-0.7-8.6-0.3c-2.1-0.2-5.4,1-3.5,0.3L274.6,3l-0.1-0.2c-7-0.1-14.4,1.5-22.4-0.1c-2.4,0.2-4.8,0.5-8.7,0.2
		l-0.8-0.8c-3,0.3-9.1-0.8-10.4,0c-3.3-2.1-14.7-0.5-20-0.8l-0.2,1c-3.7-0.1-7.2,0.2-11.7,0.6l0.1,0.4l-3.1-0.1l1.6,0.7
		c-3.9,0.2-9.2-0.8-14.6-0.7c0.4-0.3,2-0.3,3.1,0c-7.4-2-15.6,1.5-22.3,0c-1.7,0.3-2.9,0.2-4.1,0c0.2,0,0.3,0,0.4,0
		c-0.2,0-0.4,0-0.7,0c-0.7-0.2-1.5-0.3-2.3-0.5c0.7,0.2,1.4,0.4,2,0.5c-1.3,0-3.2,0.1-5.2,0.4l-0.8-1c-0.2,0-0.3,0-0.4,0
		c-1.9-0.4-1.5,0.5-0.5,1.2c-1,0.2-1.9,0.3-2.5,0.6c-1.5-1.6-5,0.5-7.1-1.1c-1,0.6-6.1,0.6-8.9,1.4c0-0.2-0.1-0.5-1.2-0.7
		c-2.3,0.3-4.7,0.4-7.2,0.3l-0.1-0.1l-0.3,0.1c-2.1,0-4.2-0.1-6.4-0.3c0.2-0.1,0.5-0.2,0.9-0.3c-0.6,0.1-1.1,0.2-1.5,0.3
		c-4.5-0.2-9.3-0.5-14.1-0.4c-0.2,0.4,1.6,0.9-0.6,1.4l-5.5-1.8c-2,0.2-1.9,2-5.6,0.8c0.2,0.1,0.5,0.3,0.6,0.4
		c-7.6-0.1-18,0.1-25.7-0.8c0.5,0.5,0.5,0.7,0.3,0.8c-0.3,0-0.6,0-0.9,0c-1.7-0.2-5.1-1.2-5.4,0c-0.7-0.6-2.3-0.9-0.4-1.3
		c-6.1,0.5-9.1-0.9-13.3,0.6c-0.7-0.6,1.3-0.8,0.7-1.1c-0.5,0.1-1.9,0.5-2.6,0.2C46,2.4,47.5,2.3,48.4,2c-4.6,0.1-6.1,1-6.8,2.2
		c-3.5-0.2-7-0.6-10.5-1.1c2.8,0.7,0.9,0.7-1.2,0.8c0.7,0.1,0.7,0.3,0.6,0.5c-1.9-0.1-4.1-0.1-5.8,0l-3.2-0.5
		C20,5.1,13.3,4.1,11.6,5c-1.6,0-3.3,0-6,0l1.9,0.2C7.1,5.8,6.5,6,5.5,6c0,0.9-0.1,1.8-0.1,2.9c-0.1,1.1-0.2,2.4-0.1,3.9l-0.2-0.2
		C5,14,4.9,15.1,4.8,16c-0.1,0.7-0.1,1.3-0.1,1.7c0,0.9,0,1.4,0.1,1.8c0.1,0.9,0.2,1.9-0.4,6.2l1-0.5C7.4,26.1,4.1,33,4.9,38
		l0.5-1.8c0.3,1.2-0.2,2.7-0.8,4.3l-1-1.5c0,1.1,0.1,2.2,0.2,3.4c-0.7,1.6-1.4,3.1-1.5,4.3c-0.2,0.6-0.3-1-0.4-1.8
		c-1.2,7.2,1.3,0.9,1.5,6.3c-0.7,1-1.7-1.3-1.8,2.4c-0.4,1.4,1.1,7,1.2,11.7c-0.3-2.7-1-1.3-0.8,3.3c0.3-1.4,0.4-3.2,0.8-1.8
		c0,0.8-0.1,1.6-0.3,2.3c0.5-1.1,1-2.2,1.4,0.3c0.1,1.2-0.1,2.7-0.3,4.2L3,70.4L3.6,74c-0.5,3.3-1,7,0,9.3C3.5,83.8,3.4,84,3.3,84
		c0.4,2.8,0.7,9,1.5,11.1c-0.1,0.2-0.2,0.5-0.2,0.6c-0.1,0.1-0.1,0.1-0.2,0.2c0,0-0.1,0.1-0.1,0.1c0,0,0,0,0,0
		c-0.1,0.2-0.2,0.4-0.3,0.7c-0.2,0.8-0.3,1.9-0.3,3.1c-0.1,2.4,0.1,5.2,0.2,7.8c3.5-0.2,6.8-0.5,9.1-0.5c0.6,0,1.1,0,1.6,0
		c0.3,0,0.4,0,0.6,0.1c0.2,0,0.3,0.1,0.4,0.1c0.5,0.2,0.8,0.4,0.8,0.8l9-0.2l-0.2,0.3c-0.6,0.2-0.9,0.4,1.1,0.6
		c-1.3,0.1-2.5,0.2-3.6,0.2c1.2,0.1,2.4,0.2,3.5,0.4c-0.1,0-0.1,0-0.2-0.1l0,0c0,0,0,0,0,0c-0.3-0.1-0.4-0.2-0.1-0.1
		c0,0,0.1,0,0.1,0c0-0.1,0.2-0.2,0.3-0.3c1.9,0.2,0.3,0.2-0.3,0.3c0,0-0.1,0.1-0.1,0.1c0,0,0,0,0,0l6.7-0.5c-1.4-0.1-3.2-0.1-6.3,0
		c0.3-0.3,0.9-0.5,1.4-0.7c3.9-0.1,5.6-0.7,7.3-1.3c1.3,0.2,0.4,0.5,0.3,0.7c1.4,0.1,2.6,0.2,3.7,0.2c0.5,0.4,1.1,0.7,1.7,1
		c0.1-0.3,0.1-0.6,2.3-1c2.6-0.1,4.6-0.5,8.7-1.4l0,0.1c0,0-0.1,0-0.1,0c-0.1,0.2,0,0.2,0.2,0.2l0.5,0.7c0.9-0.3,3.9,0.1,7.7,0.4
		c-2.5,0.5-5.2,0.9-7.8,0.7c1.9,1.2,1-0.1,4,1.3c-2.5-1.7,9.9-0.1,7.1-1.6c2.9,1.4,5.2,0.6,9.1,1.9c-0.1-0.4-1.4-0.8,2.1-0.6
		c0.2-0.1,0.5-0.3,0.8-0.4c0.1,0,0.1,0,0.2,0c-0.1,0-0.1,0-0.2,0c0.2-0.1,0.2-0.1-0.1,0c-0.9-0.2-1.6-0.4-1.8-0.6
		c0.4-0.2,0.9-0.3,1.6-0.5c4.5-0.1,9.6,0.6,13.8,0.8c-0.1,0.2-0.7,0.3-2.1,0.5l4.5,0c2.7,0.5,6.3,0.7,8.6,0.3c2.1,0.2,5.4-1,3.5-0.3
		l7.1-0.6l0.1,0.2c7,0.1,14.4-1.5,22.4,0.1c2.4-0.2,4.8-0.5,8.7-0.2l0.8,0.8c3-0.3,9.1,0.8,10.4,0c3.3,2.1,14.7,0.5,20,0.8l0.2-1
		c3.7,0.1,7.2-0.2,11.7-0.6l-0.1-0.4l3.1,0.1l-1.6-0.7c3.9-0.2,9.2,0.8,14.6,0.7c-0.4,0.3-2,0.3-3.1,0c7.4,2,15.6-1.5,22.3,0
		c1.7-0.3,2.9-0.2,4.1,0c-0.2,0-0.3,0-0.4,0c0.2,0,0.4,0,0.7,0c0.7,0.2,1.5,0.3,2.3,0.5c-0.7-0.2-1.4-0.4-2-0.5
		c1.3,0,3.2-0.1,5.2-0.4l0.8,1c0.2,0,0.3,0,0.4,0c1.9,0.4,1.5-0.5,0.5-1.2c1-0.2,1.9-0.3,2.5-0.6c1.5,1.6,5-0.5,7.1,1.1
		c1-0.6,6.1-0.6,8.9-1.4c0,0.2,0.1,0.5,1.2,0.7c2.3-0.3,4.7-0.4,7.2-0.3l0.1,0.1l0.3-0.1c2.1,0,4.2,0.1,6.4,0.3
		c-0.2,0.1-0.5,0.2-0.9,0.3c0.6-0.1,1.1-0.2,1.5-0.3c4.5,0.2,9.3,0.5,14.1,0.4c0.2-0.4-1.6-0.9,0.6-1.4l5.5,1.8c2-0.2,1.9-2,5.6-0.8
		c-0.2-0.1-0.5-0.3-0.6-0.4c7.6,0.1,18-0.1,25.7,0.8c-0.5-0.5-0.5-0.7-0.3-0.8c0.3,0,0.6,0,0.9,0c1.7,0.2,5.1,1.2,5.4,0
		c0.7,0.6,2.3,0.9,0.4,1.3c6.1-0.5,9.1,0.9,13.3-0.6c0.7,0.6-1.3,0.8-0.7,1.1c0.5-0.1,1.9-0.5,2.6-0.2c0.6,0.3-0.9,0.5-1.8,0.7
		c4.6-0.1,6.1-1,6.8-2.2c3.5,0.2,7,0.6,10.5,1.1c-2.8-0.7-0.9-0.7,1.2-0.8c-0.7-0.1-0.7-0.3-0.6-0.5c1.9,0.1,4.1,0.1,5.8,0l3.2,0.5
		c1.5-1.2,8.2-0.2,9.9-1.1c1.6,0,3.3,0,6,0l-1.9-0.2c0.5-0.5,1.1-0.7,2.1-0.8c0-0.9,0.1-1.8,0.1-2.9c0.1-1.1,0.2-2.4,0.1-3.9
		l0.2,0.2c0.1-1.3,0.2-2.4,0.3-3.3c0.1-0.7,0.1-1.3,0.1-1.7c0-0.9,0-1.4-0.1-1.8c-0.1-0.9-0.2-1.9,0.4-6.2l-1,0.5
		c-2.1-0.8,1.2-7.7,0.4-12.8l-0.5,1.8c-0.3-1.2,0.2-2.7,0.8-4.3l1,1.5c0-1.1-0.1-2.2-0.2-3.4c0.7-1.6,1.4-3.1,1.5-4.3
		C383,64.8,383.1,66.3,383.2,67.2z M290.4,3.1c0,0-0.1,0-0.1,0C287.7,2.7,288.6,2.9,290.4,3.1z M287.9,4.1c-0.2,0.1-0.3,0.2-0.5,0.4
		l-6.1,0.9c5.3,0.2,3,0.8,1.9,1.4c-0.7-0.1-1.5-0.1-2.2-0.1l2,0.3c-0.3,0.2-0.4,0.4,0,0.5c-0.3,0-0.7,0.1-1.1,0.1
		c-2.9-0.2-6-1.1-2.7-1.3l0.6,0.2c0.3-0.4,0-0.6-0.6-0.8C282.5,4.9,283.7,3.8,287.9,4.1z M215.8,10.5l-1.9,0.1
		c0.5-0.2,1-0.3,1.3-0.4C215.5,10.3,215.7,10.4,215.8,10.5z M212.5,10.7l-1.3,0.1c0.4,0,0.9-0.1,1.3-0.2
		C212.5,10.6,212.5,10.6,212.5,10.7z M181.6,11.6l-7.2,1c-0.1-0.4,0.3-0.8,1.2-1.3C177.8,11.6,179.8,11.7,181.6,11.6z M187.2,10.3
		c-0.8-0.3-0.4-0.6,0.6-0.8c0,0.3-0.2,0.6-0.5,1C186.8,10.5,186.7,10.4,187.2,10.3z M205.1,11.7C205,11.7,205,11.6,205.1,11.7
		c0.2-0.1,0.5-0.1,0.8-0.1C205.4,11.6,205.3,11.6,205.1,11.7z M14,5c-0.1,0-0.3,0-0.4,0l0.5,0C14.1,5,14,5,14,5z M94.8,109
		c0,0,0.1,0,0.1,0C97.4,109.3,96.6,109.2,94.8,109z M97.2,108c0.2-0.1,0.3-0.2,0.5-0.4l6.1-0.9c-5.3-0.2-3-0.8-1.9-1.4
		c0.7,0.1,1.5,0.1,2.2,0.1l-2-0.3c0.3-0.2,0.4-0.4,0-0.5c0.3,0,0.7-0.1,1.1-0.1c2.9,0.2,6,1.1,2.7,1.3l-0.6-0.2
		c-0.3,0.4,0,0.6,0.6,0.8C102.7,107.1,101.5,108.2,97.2,108z M169.4,101.6l1.9-0.1c-0.5,0.2-1,0.3-1.3,0.4
		C169.6,101.8,169.5,101.7,169.4,101.6z M172.6,101.4l1.3-0.1c-0.4,0-0.9,0.1-1.3,0.2C172.6,101.5,172.6,101.4,172.6,101.4z
		 M203.6,100.4l7.2-1c0.1,0.4-0.3,0.8-1.2,1.3C207.4,100.4,205.4,100.4,203.6,100.4z M198,101.7c0.8,0.3,0.4,0.6-0.6,0.8
		c0-0.3,0.2-0.6,0.5-1C198.4,101.6,198.5,101.6,198,101.7z M180.1,100.4C180.2,100.4,180.2,100.4,180.1,100.4
		c-0.2,0.1-0.5,0.1-0.8,0.1C179.7,100.5,179.9,100.4,180.1,100.4z M371.2,107c0.1,0,0.3,0,0.4,0l-0.5,0
		C371.1,107.1,371.2,107,371.2,107z M375,101.4c-1.1-0.3-2.2-0.6-3-0.7c-0.4-0.1-0.8-0.1-1.2,0c-0.2,0-0.3,0.1-0.6,0.1
		c-0.4,0.1-0.7,0.2-1.1,0.3c-1.2-0.4,0.6-0.8,0.2-1.3c-6.1,1-5.9,0.8-10,1.8c-2-0.4-4.2-0.7-6.5-0.6c-0.7-0.2-1.5-0.3-2.7-0.4
		l2.6,0.5c-0.7,0-1.3,0.1-2,0.3c0-0.1-0.2-0.2-0.8-0.3c0.2,0.1,0.3,0.3,0.4,0.4c-0.4,0.1-0.8,0.2-1.3,0.4c-0.2,0-0.3-0.1-0.3-0.1
		c0.2-0.1,0.2-0.2,0.1-0.3c0.4-0.2,1.2-0.4,0.7-0.6c-0.8,0.4-1.7,0.6-2.9,0.7l-1.1-1.1l-0.3,0.6l-8.1-0.9c-1.2,0.3-2.4,0.6-3.6,1
		c-1.8-0.1-3.5-0.2-5.3-0.3c-0.8-0.2-0.4-0.6,0.1-0.7l-3.6,0.5c-2.7-0.2-5.7-0.4-9.5-0.5l0.7,0.8c0,0.1-0.1,0.1-0.1,0.2
		c-2.3-0.1-2.9-0.4-4-0.6c-1.9,0.9,1.6,0.7,3.7,0.8c-0.3,0.1-0.6,0.2-1,0.3c-1.8-0.3-4.4-0.4-7.1-0.4c0.8-0.1,1.9-0.2,3.5-0.1
		c-1.9-0.6-3.3-0.3-4.5,0.1c-4.6,0-9.2-0.1-10.4-1.2c-4,0,1.2,1.1-2.8,1.1l-1-0.6l-1,0.8c-2.6-0.1-3.9-0.9-4-1.4
		c0.6,0.1,1.8-0.1,2.5-0.2c-3.1-0.6-8.6,0.1-10.3,0l3.5,0.3c-3.5,0.2-7.2,0.2-11,0.2l0.4-0.3c-0.3,0.1-0.5,0.2-0.8,0.3
		c-7.1,0-14.5,0-21,0.6c0.1,0,0.1-0.1,0.2-0.1l-0.4,0.1c-0.6,0.1-1.2,0.1-1.8,0.2l0.5,0.3l-0.9,0.3c-1.5,0.1-2.6,0.2-3.5,0.2
		c-0.3-0.5-1-1-1.7-1.3c0.7,0.4-5.6,0-7.4,0.2l2.8,0.5c-1.5-0.1-2.7,0-3.7,0.2c-0.1,0-0.2,0-0.4,0l0.3-0.1c-1.7,0.4-4.1,0.7-6.5,0.6
		c1.3-0.3-0.4-0.6-1.4-0.9c0.3-0.1,0.5-0.1,0.7-0.2c-0.2,0-0.5,0.1-0.7,0.2c-0.5-0.2-0.8-0.4-0.2-0.6c0.8,0.1,1.5,0.2,0.9,0.4
		c2.9-0.5,4.4-0.2,3.1-1.6c-4.8-0.5-1.1,1.3-5.5,0.6c-0.6,0.2,0.3,0.4,1.2,0.5c-7.8,0.8-3.8,0.7-9.3,2.3l-1.3-0.7
		c-1.1,0.4-1.7,0.7-2.8,0.9c2.1-0.8,4.2-1.6,5.8-2c-2.8-0.5-0.8-0.8-4.9-0.7c-1.5-0.6,2.3-0.9,3.5-1l-9.6-0.4c0.4,1.3-6.5,1.3-7,2.3
		c-0.6,0.1-1.2,0.1-1.8,0.2c0.3-0.3,0.5-0.5,0.5-0.7c-0.5,0.3-2.9,0.6-4.8,0.6c-0.4-0.1-0.8-0.2-1.2-0.4l1.8-0.4
		c-3.8-0.5-6.2,1.8-10.8,0.5c-1.6-0.1-4.7-1.7-5-0.9c0.3,0.2,0.5,0.4,0.8,0.6c-2.4-0.2-4.9,0.7-7.9,0c-0.2,0.1-0.5,0.3-0.7,0.3
		c-0.3,0-0.7-0.1-1.3-0.1c0.4,0.1,0.8,0.1,1,0.2c-1.1,0.3-2.2,0.1-3,0.3c-0.3,0-0.6,0-1,0c-0.5,1.2-5.8,0.2-3.2,0.8c0,0,0,0-0.1,0
		c0.1,0,0.2,0,0.3,0.1c0,0,0,0,0.1,0c0.3,0.1,0.7,0.2,1.2,0.3c-1.6,0.2-2.5,0.1-3.4,0c0.6-0.1,1.3-0.3,1.8-0.4
		c-1.8-0.5-3.5,0.3-5.5-0.2c0.5-1.6,8.2-0.3,12.3-1.6c-2-0.7-7.8,1.1-5.7-0.6c-3,2.2-7.2-0.3-12.2,1.4l0.3-0.9
		c-0.8,0.1-2.4,0.6-3.9,0.6l2.6-1.2c-4,1-7.8-0.9-11.6-0.3c8.1,0,1.8,1.1,5.2,1.8c-9.8,1.3-5.9-2.4-16.5-2c1.7,0,5,0.6,2.8,1
		c-2.1-0.2-4.9-0.6-6.2-1.1c-7.4,0.2,1.1,1-2,1.6c-2.5-1.2-3.6,0.5-6.9,0.8l0-1c-8.4-0.6-2.2,2-9.8,1.3l3.2-1.3l-4,0.3l0.8-1.1
		c-4.3,0.8-5.7,0.6-9.9,0.3c1,0.7-0.6,1.8-4.3,1.8c-2.6-0.6,1.4-0.9-3.9-0.8c1.2-0.6,2.5-1.4,4.8-0.5c0.2-0.3,1.2-0.6,1.4-0.9
		c-2.7-0.7-6.9-0.2-8.8-0.1c0.7,0,1.6,0.1,2.1,0.2l-7.7,1.3c-1.2-0.4-0.3-0.7,0.7-0.9c-1.6,0.1-2.6,0.5-4.9,0.6
		c0.6-0.8,0.5-1.6,3.7-2l-7.3,0.9c-0.5-0.3-3.8-0.9-2.8-1.2c-4.1-0.5-10,1.5-15.3,0.9c-0.3,0.2-0.8,0.3-2,0.4
		c-5.1-0.2-9.5-1.1-15.5-0.1l-3.4-1.4c-4.7,0.3,4.6,1.8-3.2,2.3c-5.5,0.4-2.1-1.2-4-1.6c-1.4,0.4-3.3,0.9-5.4,1.2
		c-1.1,0.2-2.2,0.2-3.5,0.2c-0.6,0-1.2,0-1.8-0.1c-0.3,0-0.7-0.1-0.9-0.1c-0.1-0.1-0.2-0.1-0.4-0.2c0.1,0,0.2-0.1,0.2-0.1
		c0.1,0,0.1,0,0.3,0c0.4,0,0.8,0,1.1,0c0.7,0,1.5,0,2.2,0c0,0-1-0.2-1.9-0.4c-0.5-0.1-1-0.2-1.3-0.3c-0.5-0.1-0.3-0.1-0.4-0.1
		c0-0.1,0.4-0.2,0.6-0.2c0.3-0.1,0.6-0.1,0.8-0.2c0.5-0.1,1-0.2,1.5-0.3c0.9-0.1,1.7-0.3,2.2-0.3c1-0.2,0.9-0.4-0.9-0.9
		c-0.1,0.5-0.6,0.8-1.4,1c-0.4,0.1-0.8,0.2-1.4,0.3c-0.3,0-0.5,0.1-0.8,0.1c-0.1,0-0.3,0-0.4,0l-0.2,0l0,0c-0.5,0.1-1,0.1-1.6,0.2
		c-0.2-0.3-0.5-0.4-1.3-0.1c0,0,0.1-0.3,0.3-0.6c0.1-0.3,0.3-0.5,0.3-0.5c0,0.2,0.1,0.2,0.1,0.5c0.3-0.5,0.4-0.7,0.2-0.8
		c0,0,0,0-0.1-0.1c0-0.1,0-0.2-0.1-0.2c0-0.2-0.1-0.3-0.2-0.4c-0.1-0.3-0.3-0.5-0.4-0.8c-0.6-1.1-1.3-2.4-1.1-5.6
		c0.2-2.2,0.6-3.8,0.9-2.3l-0.7-5c0-1.2,0.4-1.1,0.5-0.3l-0.2-7l0.1,0.1c-0.4-1.1-1.1-3.5-1.4-4.7c0.4-1.9,0.3,1,0.6,0.5l-0.7-4.2
		c0.7-1.7,1.4,1.8,1.3,4.7c2.7-3.9-0.7-3.5,0.9-11.9l0.3,4c1.5-2.6,1-5.6,1.9-10.1c-0.5,1.1-2.4,9-3.1,4.4c0.2-1.3,0.3-3-0.2-5.4
		c1,0,0.7-2.4,0.7-5.4l1.3,0.2c-0.4-3.2-1-3-1.6-4.9c0.1-3.6,1.1-4.4,2-5.2c0.2-5.8-1.6,4-1.8-2.9c0.5-4.8,0-8.2-0.8-14
		c0.4-3.4,0.8,0.6,1.1-0.6l-1-3c0-0.7,0.3-0.5,0.5-0.4c0-0.2-0.1-0.3-0.1-0.4c0-0.1-0.1-0.2-0.1-0.3c-0.1-0.1-0.1-0.1-0.2-0.2
		c-0.1-0.1-0.3-0.2-0.5-0.2c-0.3-0.2-0.6-0.4-0.8-1.8c-0.6-0.6-0.3-1.7,0.1-2.5c1.1,0.3,2.2,0.6,3,0.7c0.4,0.1,0.8,0.1,1.2,0
		c0.2,0,0.3-0.1,0.6-0.1c0.4-0.1,0.7-0.2,1.1-0.3c1.2,0.4-0.6,0.8-0.2,1.3c6.1-1,5.9-0.8,10-1.8c2,0.4,4.2,0.7,6.5,0.6
		c0.7,0.2,1.5,0.3,2.7,0.4l-2.6-0.5c0.7,0,1.3-0.1,2-0.3c0,0.1,0.2,0.2,0.8,0.3c-0.2-0.1-0.3-0.3-0.4-0.4c0.4-0.1,0.8-0.2,1.3-0.4
		c0.2,0,0.3,0.1,0.3,0.1c-0.2,0.1-0.2,0.2-0.1,0.3c-0.4,0.2-1.2,0.4-0.7,0.6c0.8-0.4,1.7-0.6,2.9-0.7l1.1,1.1l0.3-0.6L48,12
		c1.2-0.3,2.4-0.6,3.6-1c1.8,0.1,3.5,0.2,5.3,0.3c0.8,0.2,0.4,0.6-0.1,0.7l3.6-0.5c2.7,0.2,5.7,0.4,9.5,0.5l-0.7-0.8
		c0-0.1,0.1-0.1,0.1-0.2c2.3,0.1,2.9,0.4,4,0.6c1.9-0.9-1.6-0.7-3.7-0.8c0.3-0.1,0.6-0.2,1-0.3c1.8,0.3,4.4,0.4,7.1,0.4
		c-0.8,0.1-1.9,0.2-3.5,0.1c1.9,0.6,3.3,0.3,4.5-0.1c4.6,0,9.2,0.1,10.4,1.2c4,0-1.2-1.1,2.8-1.1l1,0.6l1-0.8c2.6,0.1,3.9,0.9,4,1.4
		c-0.6-0.1-1.8,0.1-2.5,0.2c3.1,0.6,8.6-0.1,10.3,0l-3.5-0.3c3.5-0.2,7.2-0.2,11-0.2l-0.4,0.3c0.3-0.1,0.5-0.2,0.8-0.3
		c7.1,0,14.5,0,21-0.6c-0.1,0-0.1,0.1-0.2,0.1l0.4-0.1c0.6-0.1,1.2-0.1,1.8-0.2l-0.5-0.3l0.9-0.3c1.5-0.1,2.6-0.2,3.5-0.2
		c0.3,0.5,1,1,1.7,1.3c-0.7-0.4,5.6,0,7.4-0.2l-2.8-0.5c1.5,0.1,2.7,0,3.7-0.2c0.1,0,0.2,0,0.4,0l-0.3,0.1c1.7-0.4,4.1-0.7,6.5-0.6
		c-1.3,0.3,0.4,0.6,1.4,0.9c-0.3,0.1-0.5,0.1-0.7,0.2c0.2,0,0.5-0.1,0.7-0.2c0.5,0.2,0.8,0.4,0.2,0.6c-0.8-0.1-1.5-0.2-0.9-0.4
		c-2.9,0.5-4.4,0.2-3.1,1.6c4.8,0.5,1.1-1.3,5.5-0.6c0.6-0.2-0.3-0.4-1.2-0.5c7.8-0.8,3.8-0.7,9.3-2.3l1.3,0.7
		c1.1-0.4,1.7-0.7,2.8-0.9c-2.1,0.8-4.2,1.6-5.8,2c2.8,0.5,0.8,0.8,4.9,0.7c1.5,0.6-2.3,0.9-3.5,1l9.6,0.4c-0.4-1.3,6.5-1.3,7-2.3
		c0.6-0.1,1.2-0.1,1.8-0.2c-0.3,0.3-0.5,0.5-0.5,0.7c0.5-0.3,2.9-0.6,4.8-0.6c0.4,0.1,0.8,0.2,1.2,0.4l-1.8,0.4
		c3.8,0.5,6.2-1.8,10.8-0.5c1.6,0.1,4.7,1.7,5,0.9c-0.3-0.2-0.5-0.4-0.8-0.6c2.4,0.2,4.9-0.7,7.9,0c0.2-0.1,0.5-0.3,0.7-0.3
		c0.3,0,0.7,0.1,1.3,0.1c-0.4-0.1-0.8-0.1-1-0.2c1.1-0.3,2.2-0.1,3-0.3c0.3,0,0.6,0,1,0c0.5-1.2,5.8-0.2,3.2-0.8c0,0,0,0,0.1,0
		c-0.1,0-0.2,0-0.3-0.1c0,0,0,0-0.1,0c-0.3-0.1-0.7-0.2-1.2-0.3c1.6-0.2,2.5-0.1,3.4,0c-0.6,0.1-1.3,0.3-1.8,0.4
		c1.8,0.5,3.5-0.3,5.5,0.2c-0.5,1.6-8.2,0.3-12.3,1.6c2,0.7,7.8-1.1,5.7,0.6c3-2.2,7.2,0.3,12.2-1.4l-0.3,0.9
		c0.8-0.1,2.4-0.6,3.9-0.6l-2.6,1.2c4-1,7.8,0.9,11.6,0.3c-8.1,0-1.8-1.1-5.2-1.8c9.8-1.3,5.9,2.4,16.5,2c-1.7,0-5-0.6-2.8-1
		c2.1,0.2,4.9,0.6,6.2,1.1c7.4-0.2-1.1-1,2-1.6c2.5,1.2,3.6-0.5,6.9-0.8l0,1c8.4,0.6,2.2-2,9.8-1.3l-3.2,1.3l4-0.3l-0.8,1.1
		c4.3-0.8,5.7-0.6,9.9-0.3c-1-0.7,0.6-1.8,4.3-1.8c2.6,0.6-1.4,0.9,3.9,0.8c-1.2,0.6-2.5,1.4-4.8,0.5c-0.2,0.3-1.2,0.6-1.4,0.9
		c2.7,0.7,6.9,0.2,8.8,0.1c-0.7,0-1.6-0.1-2.1-0.2l7.7-1.3c1.2,0.4,0.3,0.7-0.7,0.9c1.6-0.1,2.6-0.5,4.9-0.6c-0.6,0.8-0.5,1.6-3.7,2
		l7.3-0.9c0.5,0.3,3.8,0.9,2.8,1.2c4.1,0.5,10-1.5,15.3-0.9c0.3-0.2,0.8-0.3,2-0.4c5.1,0.2,9.5,1.1,15.5,0.1l3.4,1.4
		c4.7-0.3-4.6-1.8,3.2-2.3c5.5-0.4,2.1,1.2,4,1.6c1.4-0.4,3.3-0.9,5.4-1.2c1.1-0.2,2.2-0.2,3.5-0.2c0.6,0,1.2,0,1.8,0.1
		c0.3,0,0.7,0.1,0.9,0.1c0.1,0.1,0.2,0.1,0.4,0.2c-0.1,0-0.2,0.1-0.2,0.1c-0.1,0-0.1,0-0.3,0c-0.4,0-0.8,0-1.1,0c-0.7,0-1.5,0-2.2,0
		c0,0,1,0.2,1.9,0.4c0.5,0.1,1,0.2,1.3,0.3c0.5,0.1,0.3,0.1,0.4,0.1c0,0.1-0.4,0.2-0.6,0.2c-0.3,0.1-0.6,0.1-0.8,0.2
		c-0.5,0.1-1,0.2-1.5,0.3c-0.9,0.1-1.7,0.3-2.2,0.3c-1,0.2-0.9,0.4,0.9,0.9c0.1-0.5,0.6-0.8,1.4-1c0.4-0.1,0.8-0.2,1.4-0.3
		c0.3,0,0.5-0.1,0.8-0.1c0.1,0,0.3,0,0.4,0l0.2,0l0,0c0.5-0.1,1-0.1,1.6-0.2c0.2,0.3,0.5,0.4,1.3,0.1c0,0-0.1,0.3-0.3,0.6
		c-0.1,0.3-0.3,0.5-0.3,0.5c0-0.2-0.1-0.2-0.1-0.5c-0.3,0.5-0.4,0.7-0.2,0.8c0,0,0,0,0.1,0.1c0,0.1,0,0.2,0.1,0.2
		c0,0.2,0.1,0.3,0.2,0.4c0.1,0.3,0.3,0.5,0.4,0.8c0.6,1.1,1.3,2.4,1.1,5.6c-0.2,2.2-0.6,3.8-0.9,2.3l0.7,5c0,1.2-0.4,1.1-0.5,0.3
		l0.2,7l-0.1-0.1c0.4,1.1,1.1,3.5,1.4,4.7c-0.4,1.9-0.3-1-0.6-0.5l0.7,4.2c-0.7,1.7-1.4-1.8-1.3-4.7c-2.7,3.9,0.7,3.5-0.9,11.9
		l-0.3-4c-1.5,2.6-1,5.6-1.9,10.1c0.5-1.1,2.4-9,3.1-4.4c-0.2,1.3-0.3,3,0.2,5.4c-1,0-0.7,2.4-0.7,5.4l-1.3-0.2c0.4,3.2,1,3,1.6,4.9
		c-0.1,3.6-1.1,4.4-2,5.2c-0.2,5.8,1.6-4,1.8,2.9c-0.5,4.8,0,8.2,0.8,14c-0.4,3.4-0.8-0.6-1.1,0.6l1,3c0,0.7-0.3,0.5-0.5,0.4
		c0,0.2,0.1,0.3,0.1,0.4c0,0.1,0.1,0.2,0.1,0.3c0.1,0.1,0.1,0.1,0.2,0.2c0.1,0.1,0.3,0.2,0.5,0.2c0.3,0.2,0.6,0.4,0.8,1.8
		C375.8,99.4,375.5,100.5,375,101.4z M11.6,57.7c0.2,1.1,0.8,3.4,0.3,4.2C10.7,60.6,11.3,59.7,11.6,57.7z M373.6,54.3
		c-0.2-1.1-0.8-3.4-0.3-4.2C374.5,51.4,373.9,52.4,373.6,54.3z"/>
	<path id="XMLID_844_" class="st0" d="M105.8,12.6l0.3,0C106,12.6,105.9,12.6,105.8,12.6z"/>
	<path id="XMLID_845_" class="st0" d="M373.5,30l0-0.6C373.4,29.7,373.4,29.9,373.5,30z"/>
	<path id="XMLID_846_" class="st0" d="M330.3,13.4l0.4-0.2l-0.2,0C330.4,13.3,330.4,13.3,330.3,13.4z"/>
	<path id="XMLID_847_" class="st0" d="M62.4,109.7c0.1,0.2,0.5,0.5,0,0.5l3-0.2C63.8,110,63.2,109.8,62.4,109.7z"/>
	<path id="XMLID_848_" class="st0" d="M62.4,110.2l-0.3,0C62.2,110.2,62.3,110.2,62.4,110.2z"/>
	<path id="XMLID_849_" class="st0" d="M83,109.1c-1.1-0.2-0.7,1-1.3,0.7C80.5,110.9,89.1,108.6,83,109.1z"/>
	<polygon id="XMLID_850_" class="st0" points="15.7,2.8 12.6,2.4 14.6,3.1 	"/>
	<path id="XMLID_851_" class="st0" d="M9.8,4.3L9.1,3L7.2,4.2C7.9,4.1,9.3,4,9.8,4.3z"/>
	<path id="XMLID_852_" class="st0" d="M371,62.9l0.3,0.2c0.3-0.5,0.4-1.2,0.4-2.7L371,62.9z"/>
	<polygon id="XMLID_853_" class="st0" points="372,20.9 371.9,21.6 373.1,20.3 	"/>
	<path id="XMLID_854_" class="st0" d="M360.5,15.1c-0.3,0-0.7,0-1,0C359.8,15.1,360.1,15.1,360.5,15.1z"/>
	<path id="XMLID_855_" class="st0" d="M355.9,15.2c1.1,0,2.4-0.1,3.6-0.2C357,15,355.6,13.9,355.9,15.2z"/>
</g>
</svg>
