<?xml version="1.0" encoding="utf-8"?>
<!-- Generator: Adobe Illustrator 19.0.0, SVG Export Plug-In . SVG Version: 6.00 Build 0)  -->
<svg version="1.1" id="Layer_1" xmlns="http://www.w3.org/2000/svg" xmlns:xlink="http://www.w3.org/1999/xlink" x="0px" y="0px"
	 width="122.6px" height="48.2px" viewBox="0 0 122.6 48.2" style="enable-background:new 0 0 122.6 48.2;" xml:space="preserve">
<style type="text/css">
	.st0{fill:#CF2928;}
</style>
<g>
	<g>
		<path class="st0" d="M36.4,28c-0.2,1.6,0.1,3.2-0.3,4.7c0,0.1,0,0.3-0.1,0.4c-0.4,2.4-1.1,4.7-2,6.9c-0.4,0.8-0.9,1.6-1.5,2.3
			c-0.1,0.1-0.2,0.2-0.3,0.3c-0.9,0.6-1.6,1.3-2.3,2c-0.1,0.1-0.1,0.2-0.3,0.3c-0.6,0.5-1.1,1.1-1.8,1.5c-0.1,0.1-0.2,0.1-0.3,0.1
			c-1.6,0.1-3,0.7-4.5,1c-0.1,0.1-0.3,0.1-0.4,0.1c-2.5,0.5-5.2,0.7-7.6,0.4c-0.8-0.1-1.6-0.2-2.4-0.3l-1.3-0.2c0,0-0.1-0.1-0.3-0.1
			c-0.8-0.2-1.5-0.7-2.3-0.9c-1-0.2-1.8-0.4-2.8-0.7L6,45.7c-0.9-0.9-1.9-1.6-2.8-2.4c-0.1-0.1-0.1-0.2-0.3-0.3
			c-0.6-0.7-1.1-1.4-1.6-2.2c-2.4-4-1.6-8.4,2.8-10.2c1.3-0.5,2.7-0.7,4.3-0.9c-0.1-1.6-0.1-4,0-6.6v-0.4c-0.1-0.7,0.2-1.2,0.3-1.8
			c0.1-1.1-0.6-2-0.3-3.1v-0.3C8.5,17,8.7,16.5,9,16v-0.3c-0.1-0.8-0.4-1.6-0.2-2.4V13c0.3-2.6,0.6-5,1-6.8c0.5-1,1.8-2.2,6.2,0.1
			c0,0-0.5,2.8-1.1,6.7v0.3c-0.3,1.3-0.3,2.4-0.5,3.7c0,0.1-0.1,0.2-0.1,0.3c-0.2,1.5-0.4,2.9-0.5,4.4c0,0.1-0.1,0.2-0.1,0.3
			c-0.2,1.2-0.1,2.4-0.5,3.6l-0.2,0.3c-0.2,0.3-0.4,0.5-0.3,0.9c0.2,0.9,0.4,1.6,0.4,2.5v0.3c-0.1,0.3-0.1,0.5-0.1,0.8v0.3
			c0.4,1.6,0.1,3.1-0.6,4.7c-0.4,0.9,0.4,1.8,0.6,2.8c0.1,0.1,0.1,0.3,0.1,0.4c0.2,1.6,0.6,2.7,1.1,3.2c-0.8-0.1-1.2-0.1-2-0.4
			c-2.9-1.5-3.7-5.1-3.9-7.3c-0.9-0.1-1.7-0.1-2.4-0.1c-2.1,0.5-3.2,2.7-2.3,4.6c0.8,1.8,2.8,2.8,4.4,3.5c3.1,1.3,5.9,1.9,8.4,2h0.2
			c1.1,0.1,2.3,0,3.4-0.3c0.1,0,0.2-0.1,0.3-0.1c0.1-0.1,0.3-0.1,0.4-0.1c0.1,0,0.3-0.1,0.4-0.1c1.1-0.5,1.8-1.3,3-1.5l0.3-0.2
			c0.3-0.2,0.5-0.4,0.8-0.7c0.1-0.1,0.2-0.1,0.3-0.3c1.1-0.4,2.2-1,2-2.4c0.1-0.1,0.1-0.3,0.2-0.3l0.3-0.6c0.1-0.1,0.1-0.2,0.1-0.3
			c0.4-2.6,2-4.2,2-6.9c0-2.3,0.1-4.7,0-6.9c-0.1-1.7-0.9-3-1-4.7c-0.1-1.1-0.8-1.8-1.1-2.8c-0.1-0.1-0.1-0.3-0.1-0.4L27,13
			c-2.1-5.1-5.6-9.4-11.3-9.8c-1.8-0.1-3.4,0.1-4.9,0.5c-1.5,0.5-3,1.1-3.9,2C6.8,5,6.1,2.9,7.2,1.4c0.6-0.3,1.3-0.5,2-0.7
			c1.1-0.3,2.3-0.6,3.5-0.7h0.4c0.8-0.1,1.6,0.3,2.4,0.5c0.4,0.1,0.8,0.1,1.1-0.1c0.1-0.1,0.1-0.1,0.1-0.1c0.5-0.5,1.1,0,1.7,0.1
			h0.2c0.3,0.1,0.6,0.1,1,0.3h0.2c1.5,0.5,3,0.9,4.4,1.7l0.4,0.2c0.1,0.1,0.2,0.1,0.3,0.2L25.1,3c0.3,0,0.4,0.2,0.4,0.3
			C26.1,4.4,27,4.6,27.9,5c0.1,0.1,0.2,0.2,0.3,0.3l0.3,0.3c0.1,0.1,0.2,0.2,0.3,0.3c0.4,0.5,0.6,1.1,1,1.4l0.7,0.6
			c0.1,0.1,0.1,0.1,0.2,0.2c0.9,1.3,1.8,2.6,2.5,4c0.1,0.1,0.1,0.2,0.2,0.3l0.6,1.2c0.1,0.2,0.1,0.4,0.3,0.6
			c0.3,0.7,0.6,1.5,0.8,2.2c0.1,0.2,0.1,0.4,0.1,0.6c0,0.2,0.1,0.4,0.1,0.6c0.1,0.9,0.6,1.7,0.8,2.6c0,0.1,0.1,0.3,0.1,0.4
			s0.1,0.3,0.1,0.3c0,0.1,0.1,0.3,0.1,0.4s0.1,0.3,0.1,0.4s0,0.3,0.1,0.3c0,0.7,0.2,1.4,0.3,2.1c0.1,0.1,0.1,0.3,0.1,0.4
			c0.1,0.6,0.2,1.2,0.3,1.8C37,26.8,36.5,27.4,36.4,28z M9.9,30c0.3-0.1,0.2-0.7,0.3-1C9.7,29.1,9.7,29.7,9.9,30z M10.2,34
			c0.1,0.3,0.6,0.5,0.2,0.6c0.5,1,0.8-0.9,0.3-1.1C10.4,33.6,10.5,34.1,10.2,34z M10.4,29.6c0.1,0.4,0.3-0.1,0.8,0.1
			c-0.3,0.6-1.1,0.4-0.3,0.9c0.3,0,0.1-0.2,0-0.3c0-0.2,0.3-0.1,0.6-0.2c0-0.4-0.3-0.5-0.2-1C10.9,29.2,10.8,29.5,10.4,29.6z
			 M11,32.3c-0.3,0.3-0.6,0.3-0.6,0.8c0.5-0.2,1-0.5,0.6-1C10.7,32.1,10.9,32.3,11,32.3z M11.6,35.2c-1-0.3-1.1,1.5-0.1,1.3
			C11.7,35.9,11.7,35.8,11.6,35.2z M26.1,10c0.3,0,0.3,0.3,0.3,0.6h0.4C27.4,10.4,26.1,9.5,26.1,10z M31.4,20.6
			c-0.3-0.4-0.4-0.8-0.5-1.1c-0.1,0,0,0.1-0.1,0.1c-0.2,0.1-0.5-0.1-0.4,0.2c0.4,0-0.1,1.1,0.5,1C30.9,20.6,31.1,20.6,31.4,20.6z
			 M32.1,17.9c-0.3-0.1,0.2-1.1-0.4-1.1c0.1,0.4-0.3,0.1-0.4-0.3c-0.4,0.2-0.7,1.3-0.2,1c-0.1-0.3,0-0.4,0.1-0.7
			C31.6,17.5,32.2,18.5,32.1,17.9z M34.3,28.3c-0.4,0-0.9-0.3-0.8,0.5C34,28.7,34.3,28.6,34.3,28.3z"/>
	</g>
	<g>
		<path class="st0" d="M61,35c-0.4,1-0.9,0.9-0.7,1.9c-0.7-0.5,0.2,0.4-0.5,0.2c0.4,0.4,0.3,0.4,0,0.8c-0.3-0.1,0-0.2,0-0.4
			c-0.4,0.9-1.2,2.3-1.5,2.7c-1.3,0.9-2.4,4-4.8,4.7c0.1,0.7-0.4,0.7-1.3,1.2c-0.3,0.2-0.2,0.2-0.7,0.5c-0.4,0.2-0.1,0.2-0.6,0.2
			c-0.4,0.1-1.1,0.8-1.4,0.8c-0.4,0.1-1.6-0.5-1.3,0.2c-0.2,0.2-0.9,0-1.5,0.2c0.6-0.8,0.1-0.2-0.3-0.8c-0.3,0-0.3,0.6,0,0.6
			c0,0.4-0.8-0.1-0.4-0.4c0.1,0,0.1,0,0.1-0.1c0,0.1-0.1,0.1-0.1,0.1c-0.6,0.5-2.7,0.4-2.4-0.5c-1.6,0.8-4.8-3.2-4.5-5.6
			c-0.4-0.8-0.8-2.6-0.5-3.6c0,0.1,0.3,0.2,0.3,0.2c0-0.2-0.3-0.4-0.3-0.6c-0.3-1.3,0.3-3.3,0.5-4.3c0.3-1.6,0.4-2.9,0.9-4.4
			c0.9-2.5,2.7-5.9,3.7-7.2c0.6-0.7,1.7-1.3,2.3-1.9c1.9-1.7,6.3-2.5,8.1,0.4c0.3,0.3,0.4,0.6,0.6,0.9c0,0,0.2,0.2,0.1,0.3
			c0.1,0.2,0.7,1.8,0.8,2.5c0.1,0.7,0,2.1,0,2.2c0,0.2-0.3,1.9-0.4,1.9c-0.5,1.5-1.3,2.9-2.5,4.1c-2.1,2.3-4.8,3.9-7.8,5.2
			c-0.4,2.9,0.1,4.5,0.6,5.9c0.3,0.8,1.3,0.9,1.6,1.7c1.1-0.1,1.7-0.2,3-0.2c2.2-1.4,5-2,6.2-4.4c0.6,0.2,0.6-0.4,0.9-0.5
			c0.1-1.8,2.3-2.3,2-3.8c0.4,0,0.8-1.1,0.9-2.1c0.2,0.2,0.6-0.9,0.7-1.1C61.7,33.1,60.3,35.1,61,35z M41.2,35.4
			c-0.3,0.5-0.8-0.3-0.9,0.2c0.3,0,0.2,0.4,0.4,0.5c-0.1-0.4,0.2-0.5,0.2,0h0.3C41.3,35.8,41.5,35.6,41.2,35.4z M43.6,40.9
			c-0.6,0.1-0.9,0-1.1,0.2C42.8,41.2,43.3,41.6,43.6,40.9z M42.7,39.2c0.1,0.1,0.7,0.5,0.7,0c-0.3-0.1,0.1-0.2,0.2-0.4
			c-0.3,0-0.4-0.2-0.6-0.2c0,0.2,0.1,0.6-0.1,0.6C42.9,39.1,42.7,39,42.7,39.2z M42.9,36.3c0.3,0,1.3-0.4,0.7-0.8
			C43.4,35.8,42.9,35.7,42.9,36.3z M43.4,42.6c-0.3,0.2-0.4-0.8-0.5-0.2C43,42.4,43.2,43.3,43.4,42.6z M43.2,27.8
			c0.5,0.3,0.5-1,0-0.7V27.8z M44.6,43.7c0-0.7-0.6-0.5-0.9-0.9c-0.1,0.3-0.3,0.5-0.2,0.9C44.2,43.5,44.3,44.1,44.6,43.7z
			 M45.3,34.8c1.1-0.2,1.1-0.6,1.8-1.3c0.3-0.2,0.7-0.4,0.9-0.6c0.9-0.9,1.4-1.8,1.8-2.6c0.4-0.9,1.5-1.9,1.8-2.8
			c0,0.1,0.3-0.4,0.3-0.6c0.6-1.9-0.3-1.9,0.9-3.4c-0.8,0.5-0.4-1.9-1.1-2.6c-0.4-0.3-0.9,0.5-0.9,0c-0.1,0.1-0.7,0.6-1.5,0.8
			c-0.2,1.1-1,1.4-1.5,2.3c0.1-0.1-2.3,4.6-2.5,8.7C45.5,32.4,45.4,33.6,45.3,34.8z M52.7,30.7c-0.2,0-0.5,0.5-0.4,0.8
			c0.2-0.2,0.3-0.3,0.4-0.5V30.7z M52.8,26.7c-0.6,0.5,0.8,1.1,0.1,1.7c0.6-0.1,0.7,0.8,1.5,0.9c-0.1-0.1-0.9-1.1-0.2-1.1
			c-0.1-0.7-0.6,0.1-0.9,0c0.4-0.5-0.5-0.5-0.2-1.5c-0.2,0-0.1,0.2-0.2,0.4C52.8,27.1,52.8,26.9,52.8,26.7z M53.3,29.5
			c-0.1,0.2-0.4,1,0.2,0.8c0.1-0.4-0.3-0.5,0-0.7C53.7,30.4,53.8,29.5,53.3,29.5z M53.2,25c0,0.3,0.7-0.2,1.2,0
			c0.2,0.5-0.3,0.2-0.3,0.2c0,0.5,0.4,1.1,0.7,1.5c0.1-0.2,0.2-0.5,0.3-0.8c-0.3-0.1-0.5-0.3-0.4-0.8c0.2-0.2,0.3-0.2,0.5-0.2
			c0.1-0.2-0.3-0.9-0.3-1.2c-0.2,0.5-0.3,0.9-0.9,0.5c0.3-0.3,0.4-1.1-0.3-0.9C53.8,24.2,53,23.5,53.2,25z"/>
		<path class="st0" d="M76.2,35.4v1.1c-1.9,4.2-4.7,11.5-9.7,11.7c-1.6,0.1-2.8-0.8-3.8-2C62,44.5,61,42.5,61,40.4
			c0-0.4,0.3-0.5,0.3-0.8l0.3-3.3c-0.5-1.9,0.4-7.1,0.4-7.5c-0.1-0.5,0.1-0.6,0.4-0.8c-0.3-1.5,0.4-8,0.6-9.3
			c0.3-2.3,0.9-5.4,1.2-6.2c-0.3,0.2-0.6,0.5-0.8,0.8c-2.1-0.3-2.4,0.2-4.5-0.2c0-1.1-0.4-2.9,0.3-4c0.4-0.4,0.6-0.3,1.1-0.3
			c1.3,0,3.5,0.5,4.5-0.6c-0.3-0.5,0.1-0.8-0.1-1.2c0.7-1,0.4-3,1.1-4c0.1-0.1,0.4-0.1,0.6-0.2c0.2-0.2,1.3-1.2,1.8-0.5l0.4-0.5
			c1.2,0.6,2.8,0.8,4,1.7c-0.1,0.8-0.2,1.5-0.8,1.7c0.4,1.3-0.5,2-0.4,3.4c1.6,0.6,3.9-0.5,5.4,0.2c0.4,1.4,0.3,2.9,0.1,4.3
			c-2,1.1-4.3,0.8-6.5,0.2c-0.4,0.2-0.5,0.8-0.6,1.1c-0.2,1,0.2,2.7-0.6,2.9c0.4,0.8-0.1,1.9-0.3,2.7c-0.1,1,0,2-0.6,2.5
			c0.4,1.5-1.9,16.3-1.6,20.9c0.8,1,1.3,2.6,2.5,2.3c0.4-0.1,2.3-2.2,2.7-2.8c0.6-0.8,0.8-2.1,1.4-2.3c0.3-1.4,0.8-2.3,1.5-3.2
			c0.4-1.7,0.7-3.5,1.8-4.4C77.4,33.1,77,35.1,76.2,35.4z M61.5,9.8c0.2,0.1,0.1,0.4,0.1,0.6C62.4,10.5,61.8,9.3,61.5,9.8z M62,39.6
			c-0.1,0.2-0.2,0.2-0.1,0.5h0.3C62.3,39.9,62.3,39.7,62,39.6z M62.9,37.3c-0.1,0.3-0.5,0.2-0.4,0.6c0.1,0,0.3,0.1,0.4,0.2
			C63,38,63.2,37.4,62.9,37.3z M62.7,39.7v0.5C63.1,40.5,63.1,39.6,62.7,39.7z M63.1,28.4c0.1,0,0.2,0,0.3,0c0-0.2,0.1-0.2,0.1-0.5
			h-0.4V28.4z M63.1,36.4c0.2,0,0.3,0.2,0.3,0.6c0.2,0,0.4,0.1,0.5-0.2C63.6,36.7,63.4,35.9,63.1,36.4z M63.9,41
			c-0.3-0.2-0.4-0.4-0.8-0.5c-0.1,0.2,0.1,0.3,0.1,0.6C63.6,41,64.3,41.2,63.9,41z M63.6,9.3c0,0.3-0.4,0.2-0.4,0.5
			C63.4,9.9,63.9,9.5,63.6,9.3z M63.7,29.2c-0.1,0-0.2,0-0.3,0v0.3c0.1,0,0.2,0,0.3,0V29.2z M64.6,11.5c-0.3-0.1,0-0.7-0.4-0.6
			c0.1,0.5-0.6,0-0.5,0.6C64.1,11.3,64.4,11.9,64.6,11.5z M63.7,31.5c0.3,0.1,0.6-0.7,0.4-0.8C64,31.1,63.6,31,63.7,31.5z
			 M63.8,29.2c0.4,0.2,0.5-0.2,0.9-0.2C64.7,28.2,63.8,28.7,63.8,29.2z M64.4,34.1c-0.3,0-0.6,0-0.6,0.3
			C63.9,34.6,64.4,34.5,64.4,34.1z M63.8,35.7c0,0.1,0,0.2,0,0.3h0.3c0-0.2,0-0.2,0-0.3H63.8z M64.1,40.6c0.1-0.1,0.1-0.9-0.1-0.3
			C63.9,40.3,64,40.6,64.1,40.6z M64.3,20.8c0.2-0.2,0.1-0.7-0.3-0.7C64,20.5,64.1,20.8,64.3,20.8z M64.9,42.4
			c-0.1,0-0.1-0.2-0.1-0.5c-0.5,0.2-0.4-0.4-0.8-0.5C64.1,41.9,64.9,42.4,64.9,42.4z M64.3,37.5c0-0.2,0.4-0.1,0.4-0.3
			C64.4,37,64,37.4,64.3,37.5z M64.6,33.9c0-0.2,0-0.5-0.3-0.5v0.3C64.4,33.8,64.5,33.9,64.6,33.9z M66,25c-0.5,0.5-0.8,0-1.4,0.2
			c-0.1,0.5,0.4,0.4,0.3,1c0.8,0,0-0.8,0.5-0.8c0,0.2,0.1,0.2,0.1,0.3C65.9,25.8,65.8,25.3,66,25z M64.7,39.9v0.3c0.1,0,0.3,0,0.4,0
			C65.1,39.9,64.9,39.9,64.7,39.9z M64.8,15.8c0.1,0,0.2,0.1,0.3,0.2c0-0.3,0.1-0.5-0.3-0.5V15.8z M64.9,10.2
			c0.1,0.4,0.1,0.8,0.5,0.8c0-0.4-0.2-0.5-0.1-1c0.2,0,0.3,0,0.3-0.3C65.1,9.7,65.5,10.5,64.9,10.2z M64.9,22.2v0.8
			C65.6,23,65.3,22.3,64.9,22.2z M65.5,7.7c0.1-0.7,1-1.2,0.7-1.9C65.8,6.2,64.9,6.8,65.5,7.7z M65.7,12.4c0-0.2,0-0.2,0-0.3h-0.3
			c0,0.1,0,0.2,0,0.3H65.7z M66.1,23.1c-0.3-0.2,0.1-0.6-0.1-0.9c-0.5-0.2-0.6,0.9-0.1,0.9C65.8,22.7,66.5,23.5,66.1,23.1z
			 M66.3,14.4c-0.3,0.1-0.3-0.2-0.6-0.2v0.6C66.1,14.9,66.3,14.8,66.3,14.4z M67.5,18.4c0-0.5,0-0.9-0.3-1.1
			c-0.3,0.8-1.1,0.2-1.6,0.5c0.3,0.5,0.3,0.4,0.2,1.1c0.6,0.1,0.3-0.9,0.9-0.9C67.1,18,67,18.5,67.5,18.4z M66.1,15.1
			c-0.1,0.2-0.3,0.9,0,1c0-0.2,0.1-0.4,0.4-0.3c0.1,0.2,0,0.8,0.3,1.1c0-0.5,0.5-0.4,0.5-0.9C67.2,15.3,66.7,15.1,66.1,15.1z M67,24
			c-0.4,0.2-0.8,0.4-0.9,0.9C66.7,25,66.8,24.4,67,24z M66.8,14.1c0-0.2,0.2-0.3,0.1-0.6h-0.4C66.5,13.8,66.5,14.1,66.8,14.1z
			 M66.8,5.5H67c0.1-0.2,0.1-0.4-0.1-0.5C66.9,5.3,66.7,5.3,66.8,5.5z M67.2,13.3c0.1,0,0.3,0,0.4,0c0-0.3-0.1-0.4-0.4-0.3V13.3z
			 M67.5,14.1c-0.1,0.3-0.4,0.3-0.3,0.8C67.8,15,68,14.1,67.5,14.1z M67.9,19.3c-0.2,0-0.4,0-0.4,0.3C67.7,19.6,67.9,19.5,67.9,19.3
			z M68,19.4c0.3,0.1,0.5,0,0.5-0.3C68.3,19.1,68.1,19.2,68,19.4z M68.5,14.2c-0.1-0.4,0.5-1.1-0.1-1.1
			C68.2,13.5,68.3,14.1,68.5,14.2z M68.7,4.7c0.1,0,0.3,0,0.4,0V4.3c-0.1,0-0.3,0-0.4,0V4.7z M68.7,15c0.1,0.2-0.1,0.6,0.1,0.7
			C68.7,15.3,69.2,15,68.7,15z M68.8,6.5c-0.1,0.5,0.4,0.3,0.3,0.9c0.4-0.2,0.6-0.1,1.1,0C70.6,7,70,5.8,69.7,6
			c0.2,0.3,0,0.5,0.3,0.9c-0.2,0-0.2,0.1-0.3,0.2C69.7,6.5,69.1,6.7,68.8,6.5z M70.1,4c0.2,0,0.7,0.5,0.9,0
			C70.7,3.9,70.2,3.4,70.1,4z M71,12.9c0.1,0,0.1,0,0.1,0.2h0.3C71.6,12.6,70.9,12.6,71,12.9z M71.4,10.7c0-0.3,0.8-0.5,0.4-0.9
			C71.7,10.2,70.9,10.3,71.4,10.7z M72.4,10.1c0.4,0.2,0.3-0.3,0.4-0.5h-0.4V10.1z M72.6,12c0.4,0,0.3-0.3,0.4-0.6
			C72.6,11.2,72.8,11.8,72.6,12z M74.4,12.1c0.1,0,0.1,0,0.3,0v-0.3c-0.1,0-0.2,0-0.3,0V12.1z"/>
	</g>
	<g>
		<path class="st0" d="M98.4,33c0,0.1-0.6,5.6-6.8,6.4h-0.1c-0.6,0-1.1-0.1-1.6-0.2c-0.3,0.5-0.4,0.9-0.6,1.3
			c-0.3,0.6-0.5,1.3-0.8,1.8c-0.2,0.3-0.6,0.5-0.8,0.8c-0.3,0.5-0.5,1.1-0.9,1.5c-2,2.3-4.2,3.6-6.4,3.6c-4.9,0-7.8-6.8-6.3-15
			c0.3-1.7,0.8-3.4,1.4-5c0.1-0.5,0.6-0.8,0.8-1.3c0.5-1.2,0.8-2.3,1.5-3.3c0.1-0.3,0.5-0.2,0.7-0.4c0.2-0.3,0.2-0.9,0.4-1.2
			c2-2.4,4.4-3.9,6.7-3.9c2.4,0,4.3,1.6,5.4,4.2c0.2,0.4,0.3,0.8,0.4,1.2c0.4,1.1,0.6,2.3,0.7,3.6v0.5c0,0.3,0.1,0.5,0.1,0.8v0.8
			c0,0.2-0.1,0.6-0.1,0.8c0,0.2,0.1,0.2,0.1,0.5c0,0.2,0,0.5-0.1,0.8c-0.1,0.5-0.3,1.1-0.4,1.6c-0.1,0.5,0.1,1-0.1,1.4
			c-0.3,1.1-0.6,2-0.9,2.9c0.3,0.1,0.5,0.1,0.8,0.1c4.8-0.6,5.6-3.8,5.6-3.8C97.1,33,98,32.8,98.4,33z M76.4,39.9
			c0.1-0.2,0.2-0.4,0.3-0.6C76.1,38.6,75.6,39.7,76.4,39.9z M76.8,41.2c-0.3,0.2-0.8,0.2-0.8,0.8C76.3,42.3,76.8,41.8,76.8,41.2z
			 M77.9,41.2c-0.1-0.2-0.6-0.2-0.6,0.2c0.3,0,0.1,0.6,0.5,0.5C77.8,41.6,78,41.5,77.9,41.2z M88,38.4c-0.8-0.5-1.5-1.1-2-1.9
			c-0.1-0.2-0.4-0.2-0.4-0.4c-0.2-0.2-0.4-0.5-0.6-0.9c-0.1-0.1-0.1-0.5-0.1-0.6c-0.1-0.2-0.3-0.2-0.4-0.5l-0.2-0.5
			c-0.2-0.5-0.3-1.1-0.4-1.7c-0.8-3.6-0.3-7.8,0.9-9.8c-1.8,0.6-4,4.8-5.2,10.5c-0.4,2-1.6,11.4,1.9,11.4
			C83.9,44.1,86.3,41.8,88,38.4z M86.7,22.5c-0.8,1.2-2,5.4-1.2,9c0.1,0.5,0.1,1.2,0.3,1.8c0.1,0.3,0.4,0.5,0.6,0.8
			c0.2,0.5,0.4,0.8,0.8,1.2c0.1,0.2,0.1,0.5,0.3,0.6c0.3,0.2,0.5,0.3,0.8,0.5c0.1,0.2,0.3,0.3,0.5,0.4c0.4-1.1,0.8-2.3,1-3.6
			C90.6,28,89.3,23.6,86.7,22.5z"/>
	</g>
	<g>
		<path class="st0" d="M122.6,33.5c-0.6,1.6-1.1,3.3-2.1,4.6c-0.3,2.3-1.3,3.4-2.3,5.3c0,0-4.2,4.1-4.4,4.1c-0.2,0.1-0.4-0.1-0.6,0
			c-0.8,0.4-1.6,0.8-3,0.4c-0.5-0.6-1-1.3-1.8-1.6c-0.4-1.4-1.5-2-2-3.5l-0.8,0.5c-1.9,1.4-3.2,3-4.8,4.7c-0.6-0.2-0.8,0.1-1.3,0.2
			c-0.3-2.4,1.8-3.2,2.3-5c0.4-0.2,0.6-0.5,0.9-0.7c0-0.9,0.6-1.1,0.8-1.7c0.4-0.2,0.7-0.5,0.5-0.8c0.5-0.6,0.5-1.2,0.6-2l-0.2-0.7
			c-0.7-0.5-1.2-1.2-1-2.1c-0.6-0.5-0.6-1.7-1.2-2.1c0-0.2,0-0.5,0.1-0.5c-0.6-0.5-0.8-1.8-1.3-2.6c-0.1-0.4,0.1-0.6,0.3-0.6
			c-1.3-0.5-1.1-2.9-2.3-3.7c0.2,1.4-0.2,3.8-0.4,6.1c-0.1,1.7-1,3.1-1.3,4.4c-0.4,0.2-0.6,0.1-0.9-0.2c0.7-3.8,1.8-7.3,1.8-11.1
			c0-0.5,0.3-0.8,0-0.8c-1.2-3.1,0.7-6,3.1-6.6c0.4,1.3,1.3,2.3,1.7,3.5c0.1,0.5,0.1,1.2,0.4,1.7c0.4,0.8,1.4,2.4,1.4,3.5l0.1-0.1
			c0,0,0.1,0.2,0.2,0.5c0.5,0.8,1,1.4,1.1,2.6l0.2,0.5c0.3,0.3,0.5,0.7,0.6,1.2c0.5,0.8,0.9,1.5,1.3,1.7l0.1-0.1
			c1.4-2.9,2.6-5.9,3.8-9.1l0.5-0.4c0.3-2.2,1.4-3.2,1.8-5.3c0.2,0.1,0.3,0,0.3-0.2c2,0.5,3.5,2.2,4.7,4c0.1,0.2,0.3,1.1,0.3,1.5
			c-0.1,0.5-0.7,1.7-0.9,2.2c-0.4,1.1-0.8,2.6-1.5,2.7c0.1,0.6-0.2,0.8-0.5,1c-0.1,1-0.6,1.4-1.1,2c-0.1,0.2-0.2,0.5-0.4,0.8
			c-0.1,0.2-0.1,0.3-0.2,0.3c-1.3,2.1-4.5,6-4.9,6.4c0.3,0.2,0.8,0.6,0.5,1.1c0,0.1,0,0.1,0.1,0.2c0.8,0.4,3.3,4.7,3.5,5h0.1
			l-0.1,0.1l0.5,0.2c0.6-0.1,0.6-0.7,1.2-0.8c0.7-1.7,2-2.6,2.5-4.6c0.6-0.5,0.9-1.7,1.5-2.8c0.3-0.5,0.6-0.4,0.5-1.2
			c0.3-0.1,0.3-0.6,0.8-0.6c-0.3-1,0.4-1.8,0.9-2.3C122.3,32.7,122.3,33.3,122.6,33.5z M101.3,24c-0.2-0.9-1.1,0-1.4-0.7
			c-0.1,0.4,0,0.6,0.1,0.8C100.5,24.1,100.9,23.7,101.3,24z M100.8,24.7c-0.1,0.3-0.4,0.7,0,0.9C100.7,25.4,101.2,24.9,100.8,24.7z
			 M101.7,24.3l-0.3,0.3h0.3V24.3z M102.1,30.2c0-0.2,0-0.4-0.3-0.3c0.1,0.2,0,0.5,0.1,0.5C101.9,30.3,102,30.2,102.1,30.2z
			 M102.7,45.1c-0.2-0.5-0.1-0.8-0.3-1.1C102.3,44.2,102.4,44.9,102.7,45.1z M103.1,29.9h-0.3c0,0.2-0.1,0.2-0.1,0.5h0.4V29.9z
			 M103.3,27.3c0,0.2-0.1,0.6,0.1,0.6C103.4,27.8,103.7,27.2,103.3,27.3z M104.4,35.4c-0.4,0.2-0.6-0.5-0.7-0.3v0.1l0.1,0.2
			C104,35.7,104.3,36,104.4,35.4z M104.1,29.2c-0.1-0.2-0.4-0.2-0.4,0C103.6,29.5,104.3,29.5,104.1,29.2z M104,32.5
			c0.4,0.5,0.1,0.9-0.3,1.1c0.3,0.2,0.4,0,0.8,0.3c0.1-0.6,0.6-0.9,0.6-1.6C105,32,104.2,32.1,104,32.5z M104.1,30.1
			c0,0.2-0.3,0.3,0,0.5C104.1,30.4,104.3,30.2,104.1,30.1z M105.9,36.3c-0.1-0.6-1.3,0-1-1.1c0-0.3,0.4-0.1,0.4-0.5
			c-0.3-0.2-0.7-0.9-1-0.6C104.8,35.1,104.8,36.6,105.9,36.3z M104.6,36.8c0.1,0.1,0.5,0.4,0.5,0C105.1,36.8,104.6,36.4,104.6,36.8z
			 M104.7,37.6c0.2-0.2,0.4,0.6,0.7,0.1c-0.3,0-0.5-0.1-0.8-0.2L104.7,37.6z M108,37.8c-0.3-0.5-0.6,0.1-0.8-0.2
			c0.1-0.5,0.8-0.7,0.5-1.2c-0.4,0.1-0.3,0.8-0.9,0.6c-0.2-0.3,0.1-0.2,0-0.8c-0.5-0.1-1.5,0.2-1,0.8c0.1-0.2,0.3-0.5,0.6-0.5
			c0,0.2,0.1,0.2,0.1,0.3c0.1,0.4-0.3,0.2-0.4,0.5h0.6c0.1,0.3,0.3,0.6,0.3,1c-0.6,0.1-0.4,0.9-1.1,0.9c0-0.5,0.2-1.2-0.3-1.2
			c-0.1,0.8-0.8,1-1,1.7h0.8c0.3-0.2-0.3-0.5,0.1-0.6C106.5,40.4,107.2,38.1,108,37.8z M105.8,30.5c-0.1-0.2-0.4,0.1-0.4,0.2
			C105.3,31,105.9,30.6,105.8,30.5z M105.4,31.9c0.3,0,0.3,0.2,0.5,0.2C106.2,31.7,105.3,31.7,105.4,31.9z M107.7,43.4h-0.3v0.2
			C107.6,43.5,107.7,43.5,107.7,43.4z M110.1,40.6c-0.6,0.1-0.8,0.7-1.4,0.8c-0.1,0.5,0.5,0.4,0.5,0.8c-0.4,0.6-0.9-0.5-1.1,0
			c0.4-0.1,0.4,0.4,0.4,0.8c-0.2,0.2-0.7-0.1-0.9,0.2h0.5c0.6-0.2,1.1-0.3,1.8-0.2c0.1-0.9-0.3-0.4-0.5-0.7v-0.9
			c0.2,0.1,0.7-0.2,0.6,0.2c0,0.3-0.3,0.2-0.3,0.6C110.3,42.2,110.5,41,110.1,40.6z M108.2,36.5h0.3c0-0.2,0.1-0.2,0.1-0.5h-0.3
			C108.4,36.3,108.2,36.3,108.2,36.5z M108.5,39.7c0.3,0.3,0.9,0.8,1.4,0.5c0-0.7-0.8-0.5-1-0.9c0.2-0.2,0.8-0.1,0.6-0.6
			c-0.3-0.2-0.9-0.2-1.3-0.3C108.3,39,109.1,39.1,108.5,39.7z M108.4,37.7c0.3,0.1,0.3,0.5,0.6,0.4
			C109.1,37.7,108.4,37.5,108.4,37.7z M109.3,44.3c-0.4,0-0.4,0.6-0.1,0.8C109.1,44.7,109.1,44.5,109.3,44.3z M109,36.2
			c0.3,0.1,0.5,0,0.5-0.3C109.3,35.9,109.1,36,109,36.2z M109.4,43.5h-0.3c0,0.2,0.1,0.3,0.3,0.4C109.4,43.8,109.5,43.6,109.4,43.5z
			 M109.3,31.7c0,0.1,1.2,1.1,1.8,1.7c0.1-0.7-0.2-1-0.2-1.6c-0.2,0-0.3,0.2-0.5,0.2c-0.1-0.4-0.3-1.5-0.8-1.1
			C110,31.4,109.7,31.6,109.3,31.7z M109.4,36.9c-0.1,0.5-0.1,0.6,0.3,0.8C109.6,37.5,109.8,36.8,109.4,36.9z M110.1,30.2
			c0.1,0.2,0,0.5,0.1,0.6C110.4,30.8,110.6,30.1,110.1,30.2z M111.2,34.5c-0.4-0.1-0.5,0.2-0.9,0.2c0.1,0.5,0.1,0.3-0.1,0.6
			C110.6,35.7,111.5,34.7,111.2,34.5z M110.5,33.8c0-0.3-0.1-0.5-0.3-0.6C110.1,33.4,110.1,33.9,110.5,33.8z M111.2,45.1
			c-0.4,0-0.9-0.2-0.9,0.3c0.3,0,0.2,0.5,0.5,0.3c0.1-0.2,0-0.5,0.1-0.5S111.1,45.2,111.2,45.1z M111.8,42.1
			C111.8,42.1,111.8,42.1,111.8,42.1c-0.4-0.1-0.7-0.3-1.2-0.2c-0.1,0.5,0.1,0.7,0.3,1.1C111.2,42.7,111.3,42.1,111.8,42.1z
			 M112.1,44.5c-0.1-0.1-0.6-0.4-0.6,0C111.5,44.5,112,44.8,112.1,44.5z M111.6,34.1c0.3,0.6,0.8,0.3,1.4,0.3
			c0.1-0.2,0.2-0.3,0.3-0.4c-0.1,0-0.1,0.1-0.2,0.1c-0.4,0-0.5-0.5-0.6-0.8c-0.3-0.1-0.1,0.5-0.1,0.8h-0.5c-0.1-0.7,0.4-0.5,0.3-1.3
			c0.2,0.1,0.6-0.2,0.5,0.4c0.3-0.1,0.1-0.5,0.3-0.7c0.4,0,0.8,0.3,1,0.5c0,0.1,0,0.2-0.1,0.3c0.2-0.2,0.3-0.4,0.4-0.6
			c0.1-0.2,0.3-0.5,0.4-0.6c-0.3,0-0.5,0.1-0.4,0.6c-0.6-0.2-0.6-0.5-1.1-0.5c0-0.4,0.6-0.2,0.3-0.6c-0.5,0.1-0.5,0.8-0.9,1.1
			c-0.4,0.1-0.3-0.8-0.6-0.3C111.7,32.7,111.8,33.5,111.6,34.1z M112.5,31.3c-0.4-0.2,0.3-0.4,0.1-0.8c-0.3-0.1-0.3-0.3-0.6-0.3
			C111.9,30.8,112.1,31.7,112.5,31.3z M112.1,29.8c0.8-0.1,0.8,1.4,1.4,1.1c0-1.2-1.2-1.1-1-2.1C112.4,29.1,112.2,29.3,112.1,29.8z
			 M113.2,28.1c0.1-0.5-0.1-0.7-0.5-0.8C112.7,27.8,112.8,28.2,113.2,28.1z M113.5,28.9h0.5v-0.5h-0.4
			C113.6,28.6,113.5,28.7,113.5,28.9z M113.6,31.6c0.4,0.2,0.2-0.5,0.4-0.6C113.7,30.9,113.7,31.3,113.6,31.6z M114.4,26v-0.6
			c-0.3-0.2-0.3,0.2-0.6,0.2C113.7,26,114.1,26,114.4,26z M114.4,27.2c0.3,0.3,0.8,0.2,0.9-0.2c-0.5-0.1,0.1-0.6-0.4-0.8
			C114.7,26.8,114.9,27,114.4,27.2z M114.9,28.1c-0.3-0.1-0.2,0.4-0.4,0.5C114.8,28.6,114.9,28.4,114.9,28.1z M115,24.9
			c0.3-0.1,0.3,0.2,0.6,0.2c0-0.5,0.1-1.1-0.4-0.9C115.1,24.3,115,24.5,115,24.9z M115,25.8h0.3v-0.3H115V25.8z M115.7,26.6
			c-0.1-0.5,0.4-0.2,0.4-0.6h-0.3C115.7,26,115.4,26.6,115.7,26.6z M116.8,27.5c-0.6,0-0.6,0.8-0.8,1.3
			C116.6,28.7,116.6,28,116.8,27.5z M116.3,23.7c0-0.2,0.3-0.6,0-0.7C116.3,23.2,116,23.6,116.3,23.7z M116.2,23.8
			c-0.1,0.3,0.1,0.5,0.4,0.5C116.6,23.9,116.5,23.8,116.2,23.8z M117.6,21.8c-0.3-0.3-0.4-0.8-0.9-0.5
			C116.6,21.9,117.3,22.2,117.6,21.8z"/>
	</g>
</g>
</svg>
