<?xml version="1.0" encoding="utf-8"?>
<!-- Generator: Adobe Illustrator 19.0.0, SVG Export Plug-In . SVG Version: 6.00 Build 0)  -->
<svg version="1.1" id="Layer_1" xmlns="http://www.w3.org/2000/svg" xmlns:xlink="http://www.w3.org/1999/xlink" x="0px" y="0px"
	 width="169.7px" height="88.6px" viewBox="-423.9 473.5 169.7 88.6" style="enable-background:new -423.9 473.5 169.7 88.6;"
	 xml:space="preserve">
<style type="text/css">
	.st0{fill:#E58C36;}
</style>
<g>
	<path class="st0" d="M-393,497.9c0,0,2.1,3.8,0.2,7.4c-0.3-0.1-0.6-0.1-1-0.1c-0.2,0-0.2,0-0.4-0.1c-0.8-0.1-1.7-0.3-2.5-0.1
		c-0.7,0.2-1.4,0.6-2.1,0.8c-0.1,0-0.2,0-0.2,0.1c-1.3,0.3-2.7,0.8-4,1.5c0,0.2-0.1,2.3-0.4,5.3v0.3c-1,1.8-0.3,3.6-0.6,5.5
		c0,0.1,0,0.2-0.1,0.3c-1.5,11-5.2,25.4-13.7,21.3c-0.5-0.2-0.9-0.5-1.3-0.7c-0.1-0.1-0.2-0.2-0.3-0.3c-0.3-0.1-0.6-0.2-0.7-0.5
		c-0.6-1.1-1.5-1.9-2.3-2.8c-0.1-0.2-0.2-0.2-0.2-0.4c-0.3-0.6-0.6-1.3-0.8-2c-0.1-0.2-0.1-0.3-0.2-0.5c-0.4-1.7-0.5-3.4-0.3-5.1
		v-0.3c0.4-3.9,1.9-8.1,4.4-11.9l0.2-0.2c0.7-1.5,1.4-2.8,2.8-3.7l0.2-0.2c0.2-0.2,0.4-0.5,0.6-0.6l0.2-0.2c0.2-0.4,0.6-0.8,1.1-1.1
		c1-0.6,1.7-1.4,2.5-2.2l0.2-0.2c0.8-0.6,1.6-1.2,2.5-1.8c0.3-1.2,0.5-2.9,0.6-4.8c0-0.2,0-0.3,0.1-0.5c0.6-2-0.2-4,0-6v-0.2
		c0-3.1-0.1-6.3-0.1-9.3c0.6-1.3,2.3-2.8,8-0.1c0,0-0.3,2.2-0.7,5.7c0,0.1,0,0.2-0.1,0.2c0.1,0.8-0.2,1.6-0.1,2.4v0.4
		c-0.2,2.8-0.3,5.8-0.6,9c0.6-0.2,1.1-0.6,1.6-0.8c0.1-0.1,0.2-0.2,0.2-0.2c1.4-0.4,2.6-1,3.6-1.9c0.2,0,0.2-0.1,0.3-0.2
		c0.3-0.1,0.6-0.2,0.8-0.4L-393,497.9z M-392.1,483h-0.3c-1.5-0.1-2.8-0.2-4.3-0.2h-0.2c-3.2-0.3-5.4-0.6-5.4-0.6
		c-1.9-0.5-5.2-0.5-8.6-0.3h-0.3c-1.5-0.4-2.9,0.1-4.4,0.3c-0.1,0.1-0.2,0.1-0.2,0.1c-3.6,0.3-6.3,0.7-6.3,0.7
		c-5.6-13.3,30.7,0.7,47-9.5C-372.5,481.8-383.4,483.2-392.1,483z M-420.8,531.5c0.1-0.6-1.4-1.6-0.8-0.4c0.1-0.2,0.2-0.3,0.4-0.2
		c-0.2,0.5-0.2,0.7-0.1,1.1c-0.9-0.6-0.7,0.4-0.2,0.6C-421.3,531.9-420.8,532-420.8,531.5z M-420.1,534.9c-0.3-0.2-0.2-0.6-0.6-0.6
		c-0.2,0.2-0.5,0.8-0.1,1C-420.7,534.8-420.3,535.2-420.1,534.9z M-419,533.9c-0.2-0.2-0.5-0.7-0.3-0.2c-0.5,0.5-1.3,0.6-0.5,1.2
		C-419,534.6-419.7,534.3-419,533.9z M-417.8,536.2c-0.2-0.6-0.6-0.6-1-0.1c0.4,0.2,0.6,0.4,0.7,0.6L-417.8,536.2z M-409.2,510
		c-4.8,4-7.4,8.3-8.6,12.1c-0.1,0.1-0.1,0.2-0.1,0.2c-0.6,1.3-0.7,2.8-0.8,4.1v0.4c-0.2,3.2,0.6,5.6,1.6,6.9c1.8,2.1,4-0.6,5.7-6.2
		c0-0.2,0-0.2,0.1-0.3c0.6-1.3,1.1-2.4,0.9-3.9c0-0.1,0-0.2,0.1-0.3C-409.6,519.2-409.2,514.8-409.2,510z M-404.4,511.1
		c-1.2-1-1.1,0.5-1.9,1.1c-0.4-0.6-1.6-0.2-1.7-0.7c0.1,0.1,0.3,0.1,0.2-0.2c-0.3,0.2-0.8,0.2-1.1,0.7c1.3,0.6,2.7,0.3,2.2,2
		c-0.5-0.3-0.2-0.7-0.3-1.1c-0.7,0.1-0.2,0.3-0.7,0.8c0.8,0.9,1.4-0.2,1.6,0c0.2,0,0.4,0.2,0.5-0.1c-1.2-1.1,0.5-1.1,0.2-2.6
		C-405,511.4-404.7,511.2-404.4,511.1z M-405.1,515.6c-2.7,1.6-3-0.2-3.6,1.2c0.3-0.8,1.5,1.3,0,2c0.6-0.1,1.1,0.6,0.4,0.8
		c0-0.2-0.4-0.5-0.4,0c1.5,1,1.2-1.5,1.5-2C-406.6,519.1-404.4,516.5-405.1,515.6z M-406.7,523.2c-0.9,0.2-2.5,0-1.5,1.1
		c0.2-0.6,0.5,0.1,1.1,0C-407.1,523.7-406.8,523.5-406.7,523.2z"/>
	<path class="st0" d="M-351.2,523.2c-0.7,2.1-1.8,4.4-2.9,6.6c-0.5,0.9-1.1,1.5-1.5,2.2c-0.8,1.3-1.4,2.7-2.8,3.6
		c-0.6,0.4-0.9,1.1-1.3,1.5c-0.6,0.4-2.2,1.1-3.2,1.5c-0.7,0.2-1.3,0.2-2.3,0.2l-0.5-0.5c-0.2,0-0.1,0.5-0.4,0.5
		c-0.2,0-0.2,0-0.3,0.2c-1.3-0.6-2.3-0.9-2.9-2.1c-0.3-0.6-1.1-1-1.3-1.4c-0.5-0.7-0.5-1.9-0.9-2.8c0-0.4,0.2-0.6,0.6-0.5
		c-0.1-0.4-0.7-0.1-0.9-0.3c-0.1-0.6,0.2-0.8,0.3-1.2c-1.4,0.2-1.5,2.5-2.4,3.8c-0.3,0.5-1,0.5-1,1.1c-0.9,0.2-1.2,0.8-1.5,1.5
		c-0.6,0.1-0.5,0.2-1,0c0.3,0.4-0.5,0.6-0.6,1.1c-0.2,0-0.5,0-0.5-0.2c-1.3,1.4-4.3,1.1-5.9,0.2c-0.2-0.7-0.9-1.1-1.6-1.3l-0.2-0.4
		c-1.8-1.8-2.4-5.6-2.1-11.5c0.3-5,1.2-10.7,2.1-15.5c0.2-0.7,0.5-1.2,0.6-2c1.9-1.5,5.1-0.7,7,0.3c-0.2,2.3-0.6,4.5-1,7.1l-0.2,2
		c0,0-0.1,0.3-0.1,0.9l-1,16.6c0.3,0.5,0.6,1,0.2,1.3c5.7,0.7,7.2-4.1,9-7.8c0,0,1.1-10,0.9-10c0.6-2.5,0.6-4.4,1-6.9
		c0.1-0.2,0-1.4,0.1-1.9c0.1-1.6,1.9-2.7,3.8-2.5c1.4,0.1,2.6,0.9,3.5,1.1c0.5,1.9,0,4.5-0.6,6.1c0,0.4,0,0.8,0.2,1
		c-0.1,0.4-0.2,0.7-0.5,0.8c0.6,1.1-0.3,3.1-0.5,4.6c-0.2,1.1,0.2,1.9-0.5,2.5c-0.2,4-1.1,7.9,0.2,12c0.9,0.6,1.9,1.1,3.4,1.1
		c0.4-0.6,1.4-1.3,2-1.9c1.1-1.2,1.7-2.8,2.9-4c0.2-1.6,1.5-2.8,2.2-4.3c0.5-1.1,0.2-2.7,1.6-3.1
		C-351.7,522.6-351.4,522.9-351.2,523.2z M-388,528.2v0.6h0.5C-387.4,528.4-387.7,528.3-388,528.2z M-383.9,529.7
		c-0.1-0.9,0.6-1.2,1-1.1c-0.2-0.6-0.6-1.2-1-1.6c0.1-0.6,0.4-0.2,0.8-0.2c-0.4-0.8,0.3-1.1,0-1.7c-0.8-0.2-0.2,1.1-0.8,1.2
		c-0.4-0.2-0.6-0.7-0.8-1.1c0.2-0.2,0.6-0.5,0.3-0.8c-0.5-0.2-0.4,0.2-0.8,0.2c-0.1-0.3-0.4-0.4-0.3-0.8h0.8
		c-0.1-0.5-0.3-0.7-0.8-0.6c-0.6,0.6-0.3,1.1-0.5,2.1c0.6,0.2,0.2-0.4,0.8-0.3c-0.6,0.6,0,2.3-1,2.5c0,0.7,0.9,0.6,1.1,1.3
		c-0.6,0.3-0.8,1.8-2,1c0.2,0.6-0.2,0.8-0.3,1.1c0.8-0.1,0.4,1,0.9,1.2c0.2-0.6-0.2-0.4-0.2-1.1C-386.1,530-384.9,529.6-383.9,529.7
		z M-386.9,528.4c0.2,0.1,0.3,0.2,0.7,0.2C-386,528-386.8,528-386.9,528.4z M-386.3,512.2c0.3-0.2,1.1-0.6,1.5-0.2
		c0-0.5-0.6-0.3-0.3-1c-0.7-0.2-0.6,0.5-0.8,0.8c-0.1-0.1-0.2-0.2-0.2-0.3L-386.3,512.2z M-385.3,532.6c-0.4-0.1-0.7-0.4-0.8,0.2
		C-386,533-385.3,533-385.3,532.6z M-386,533.9c0.5,0,0,0.9,0.8,0.6C-385,533.9-386,533.6-386,533.9z M-385.9,510.2
		c0.1-0.1,0.2-0.1,0.4-0.1c0-0.2-0.2-0.3-0.3-0.3C-385.9,509.9-385.9,510.1-385.9,510.2z M-384.7,518.6c-0.4,0.4-1,0.6-1.1,1.1
		c0.2,0.8,1.1,0,1.5-0.2c0.3,0.6,0.4,1.1,0,1.5c0.6,0.2,0.5-0.4,0.8-0.6c0.6,0,0.4,0.9,0.8,1.1c1.2,0.1,0.6-1,0.5-1.7
		c-1.2,0.2-1.1-0.7-2.1-0.8c-0.4-1.2,0.7-2.1,0.5-3.5c0.4,0,1,0,1.1,0.2c-0.1,0.3,0.2,1-0.2,1.1c0.2,0.3,1.1,0.6,0.6,1.1
		c1.1-0.2,0.4-0.8,0.6-1.3c0-0.2-0.4-0.2-0.6-0.2c0-0.4,0.1-0.7,0.3-0.9c-0.4,0-0.2-0.3-0.5-0.6c-0.2-0.3-3.2,0.5-1.8,2
		C-384.6,517.5-384.9,517.7-384.7,518.6z M-385.2,532.4c0.8,0.2,1.3,0.5,1.6-0.5c-0.6-0.6-1.3-1.1-1.9-0.9
		C-385,531.3-384.9,531.9-385.2,532.4z M-385.2,527.1h0.5C-384.7,528.1-385.6,528.1-385.2,527.1z M-384.7,533.7
		c0.1-0.2,0.4-0.8-0.2-0.6C-384.8,533.3-384.9,533.6-384.7,533.7z M-383.9,536.1c-0.7-0.5,0.3-0.6,0.3-1.3c-0.5-0.2-1.1,0.6-1.3,1.1
		C-384.3,535.8-384,536.5-383.9,536.1z M-384.7,531.8h0.5v0.5C-384.5,532.2-384.7,532.1-384.7,531.8z M-384.7,510.7
		c0,0.6,0.9,0.5,1.1,0.2C-383.8,510.6-384.3,510.7-384.7,510.7z M-383.2,529.1c0.2,1-0.8,0.9-1.3,1.1c0.4,0.3,1.1,0.4,0.6,1.1
		c0.5-0.1,0.3,0.4,0.6,0.4c0.2-0.7-0.3-0.6-0.3-1.1c0.6-0.3,0.6,0.2,1.3,0.2C-382.7,530.5-382.7,529.5-383.2,529.1z M-384.3,527.8
		c0.1-0.3,0.2,0.1,0.2,0.3C-384.3,528.4-384.4,528-384.3,527.8z M-382.7,523c-1-0.3-0.5,1-1.3,0.8c-0.1,0.4,0.1,0.7,0.5,0.6
		C-383.6,523.6-382.9,523.6-382.7,523z M-384,510c0.5,0.1,0.9-0.3,1.3,0C-382.5,508.8-384.2,509.1-384,510z M-382.9,537.2
		c-0.2-0.3-0.9-0.9-1.1-0.2C-383.9,537.4-383.1,537.7-382.9,537.2z M-382.9,517.3c-0.3,0-0.6,0.1-0.6,0.3c0.5,0.2-0.2,0.5,0,1
		c0.2,0,0.6,0.1,0.6-0.2C-383.1,518.2-382.6,517.8-382.9,517.3z M-382.9,535.3c-0.2,0-0.2-0.2-0.5-0.2
		C-383.6,535.6-382.8,535.6-382.9,535.3z M-381.8,522.9c-0.2-0.5-0.5-0.8-1-1C-383.2,522.4-382,523.1-381.8,522.9z M-382.7,535.5
		c-0.2,0.6,0.6,0.2,1,0.3C-381.6,535.2-382.5,535.2-382.7,535.5z M-381.2,525.3c-0.6-0.6,0.1-1.1-0.2-1.6c-0.6,0.7-0.7,0.1-1.3,0.2
		c0.1,0.6,1,0.2,0.5,1C-382,525-381.6,525.2-381.2,525.3z M-380.9,513.3c0-0.9-0.5-1.1-0.2-1.8c-0.6-0.2-1-1.8-1.5-0.8
		c0.6,0.3-0.1,0.9,0,1.6c0.6,0.2,0.3-0.5,0.8-0.3c0.3,0.3,0,0.2,0,0.6C-381.2,512.6-381.2,513.1-380.9,513.3z M-382.2,525.6v-0.3
		h-0.3v0.3H-382.2z M-370.8,529.1c0.5,0.2,0.3-0.4,0.6-0.5c0,0.2,0.1,0.2,0.3,0.2C-369.9,527.8-371.1,528.1-370.8,529.1z
		 M-369.7,531.6c-0.6-0.1-0.5-0.8-1.1-0.7C-370.8,531.4-370,532.3-369.7,531.6z M-369.9,525.4c0.3-0.1,1.2-0.5,0.6-1
		C-369.1,525-370.4,525-369.9,525.4z M-369.9,519.7c0.6,0,0,1.1,0.8,0.8C-369.1,520-369.7,519.4-369.9,519.7z M-368.6,532.7
		c-0.5,0-0.7-0.6-1.1-0.2C-369.9,533.2-368.6,533.2-368.6,532.7z M-369.5,530.4c-0.2,0.6,0.6,0.6,0.6,0.2
		C-369.1,530.5-369.2,530.3-369.5,530.4z M-369.2,535.2h-0.3v0.3h0.3V535.2z M-368.7,535.5c0.5-0.2,0.2,0.6,0.6,0.5
		C-368,535.6-368.8,534.8-368.7,535.5z M-368.7,523.7h0.3v-0.3h-0.3V523.7z M-368.4,529.6c0.4-0.4,1,0.3,1.3-0.2
		c-0.3-0.1-0.5-0.3-0.8-0.5C-368,529.2-368.3,529.2-368.4,529.6z M-367.9,534.2v0.5c0.5-0.1,0.6,0.3,1.1,0.2
		C-366.7,533.9-367.5,534.2-367.9,534.2z M-366.6,533.7c0-0.2,0-0.4-0.3-0.3c0.1,0.2,0,0.5,0.2,0.5
		C-366.8,533.8-366.7,533.7-366.6,533.7z M-366.3,510.3c0,0.2-0.2,0.4,0,0.6C-366.2,510.6-366,510.5-366.3,510.3z M-364.9,523h-0.3
		v0.3h0.3V523z"/>
	<path class="st0" d="M-324,504.2c0,0.4-0.6,0.8-0.9,1.5c-0.2,0.4,0,0.7-0.2,1c-0.6,1.2-1.9,2.1-2.3,3c-0.5,0.1-0.3,0.1-0.8,0
		c-0.5,1.4-1.7,1.9-3.2,2.3c-0.8,0.5-0.7,1.9-1.6,2.3c-0.6,2.4-1.9,4.6-3,6.7c-0.6,1.3-1.1,2.6-1.8,4c-0.2,0.3-0.6,0.6-0.8,1
		c-0.1,0.1,0.2,0.3,0.2,0.5c-0.2,0.5-1.4,1.5-1.3,2.5c0.6,0.7,2,0.6,2.4,1.6c3.4,0.2,6.8,3.3,10.4,2.3c1.6-0.5,2.2-2.1,3.8-2.9
		c-0.2-0.7,0.2-1,0.6-1.2c0.3-1.1,0.6-2.3,1.3-3.2c0.8-0.2,0.8,0.5,1.3,0.6c-0.8,1.1-0.8,3-1.9,3.8c-0.1,1.2-1.1,2.2-1.6,3.1
		c-0.4,0.6-0.3,1.1-1.2,1.2c-0.6,1.4-1.7,2.3-3.2,2.8c-0.6,0.8-1.2,0.5-1.7,1.3c-1.7,0.2-2.9,1.1-4.5,1c-0.2,0-0.3-0.3-0.6-0.3
		c-0.5,0-0.3,0-1-0.3c-0.5-0.2-0.9-0.1-1.5-0.2c-1.5-1.3-4.3-1.5-5.3-3.4h-1.3c-0.5,0.1-0.2,0.9-0.5,1.3c0,0-0.7,0.3-1.1,0.6
		c-0.8,0.9-2,2-3.9,1.8c-1.2-0.1-2.4-1.1-2.7-2.8c-0.4-3.2,1.6-5.1,2.8-7.3h0.6c0.9-2.3,4.1-0.6,6.2-0.5c0.7-0.3,0.4-1.6,1.3-1.8
		c0.7-3.1,1.8-5.3,3.2-7.8c0.4-0.9,0.7-1.9,1.3-3c0.3-0.6,1-0.9,0.8-1.6c-0.6-0.3-1.1,0.2-1.6,0.5c-4.7,1.1-9.9,1.5-13.2-1
		c-0.9,0.6,0,1.9,0,3.2c0.1,0.5-0.2,1-0.3,1.5c0,1.8,0,3.2-0.3,4.8c-0.2,1.3-0.4,2.7-1.1,3.6c-0.4-0.2-0.8-0.4-1.1-0.6
		c1.2-3.6,1.9-9.2,1.1-13.5c-0.1-0.5,0.2-0.6,0.3-1c-1.6-1.1-1.1-4.9-0.5-6.4c1.9,1.1,4.7,1.6,6.9,2.4c1.8,0.1,3.7-0.1,5.4,0
		c0.6,0.1,1.4,0.1,1.9,0.5c0.8-0.9,2.4,0.1,3.6-0.8c0.6,0.4,1.6,0,2.1-0.3c0.4,0.1,0.6,0.2,1,0.3c1.2-1.9,3.2-4.8,6.6-4.4
		C-324.6,503.2-324.1,503.7-324,504.2z M-346.9,533.7c-0.2,0.2-0.2,1.1,0.3,1.2C-346.6,534.5-346.2,533.6-346.9,533.7z
		 M-344.4,509.7c0.1-0.2,0.6-0.9,0.2-1.1c-0.2,0.8-0.6,0.6-1.1,0.2C-345.8,509.4-344.8,509.5-344.4,509.7z M-344.2,533.9
		c-0.2-0.1-0.7,0.2-0.7,0.4C-344.5,534.3-344.3,534.2-344.2,533.9z M-344.7,532.9c0.4,0,0.1,0.6,0.6,0.5
		C-343.9,532.9-344.6,532.6-344.7,532.9z M-343.4,531.1c-0.1,0.3,0.1,0.5,0.5,0.5C-342.8,531.2-343.2,531.3-343.4,531.1z
		 M-341.6,532.7c-0.4,0-0.8,0-0.8,0.3C-342,533.1-341.8,533-341.6,532.7z M-342.1,513c-0.1,0.5,0.6,0.6,0.6,0.2
		C-341.7,513.1-341.8,513-342.1,513z M-341.3,531.6c-0.2,0-0.2-0.2-0.5-0.2c-0.1,0.2-0.2,0.3-0.2,0.6
		C-341.5,532.2-341.2,532-341.3,531.6z M-341.5,508.6c-0.1,0.5,0.2,0.6,0.5,0.8C-340.7,509.2-341.1,508.6-341.5,508.6z
		 M-338.1,535.1c-0.2-0.1-0.3-0.3-0.5-0.3c-0.1,0.2-0.2,0.3-0.2,0.6C-338.5,535.4-338.2,535.3-338.1,535.1z M-336.9,535.4
		c-0.1,0.4,0.3,0.3,0.5,0.5C-336.3,535.5-336.5,535.3-336.9,535.4z M-335.9,510.6c-0.2,0.3-0.1,1.5,0.3,1.6
		C-335.3,511.4-335.1,511-335.9,510.6z M-334.3,532.4c-0.1,0.2-0.6,0.9-0.2,1C-334.7,533-333.9,532.7-334.3,532.4z M-332.4,511.2
		c-0.5,0-0.8,0.1-1,0.3c0.5,0.2,1.5-0.2,1.9-0.6c-0.8,0.6-0.8-1.1-1.5-0.5C-333,511-332.1,510.5-332.4,511.2z M-331.4,534.4
		c0.2-0.2,0.2-0.4-0.2-0.6c0,0.2-0.2,0.2-0.2,0.6H-331.4z M-330.9,507.6c-0.2-0.4-1,0.2-0.5,0.3
		C-331.4,507.6-330.9,507.8-330.9,507.6z M-328.6,505.8c0-0.5-0.6-0.6-0.7-0.2C-329.1,505.7-329,505.9-328.6,505.8z M-327.1,505.9
		c-0.4-0.2-0.7,0.6-0.3,0.6C-327.5,506.3-327.1,506.4-327.1,505.9z"/>
	<path class="st0" d="M-291.9,504.2c0,0.4-0.6,0.8-0.9,1.5c-0.2,0.4,0,0.7-0.2,1c-0.6,1.2-1.9,2.1-2.3,3c-0.5,0.1-0.3,0.1-0.8,0
		c-0.5,1.4-1.7,1.9-3.2,2.3c-0.8,0.5-0.7,1.9-1.6,2.3c-0.6,2.4-1.9,4.6-3,6.7c-0.6,1.3-1.1,2.6-1.8,4c-0.2,0.3-0.6,0.6-0.8,1
		c-0.1,0.1,0.2,0.3,0.2,0.5c-0.2,0.5-1.4,1.5-1.3,2.5c0.6,0.7,2,0.6,2.4,1.6c3.4,0.2,6.8,3.3,10.4,2.3c1.6-0.5,2.2-2.1,3.8-2.9
		c-0.2-0.7,0.2-1,0.6-1.2c0.3-1.1,0.6-2.3,1.3-3.2c0.8-0.2,0.8,0.5,1.3,0.6c-0.8,1.1-0.8,3-1.9,3.8c-0.1,1.2-1.1,2.2-1.6,3.1
		c-0.4,0.6-0.3,1.1-1.2,1.2c-0.6,1.4-1.7,2.3-3.2,2.8c-0.6,0.8-1.2,0.5-1.7,1.3c-1.7,0.2-2.9,1.1-4.5,1c-0.2,0-0.3-0.3-0.6-0.3
		c-0.5,0-0.3,0-1-0.3c-0.5-0.2-0.9-0.1-1.5-0.2c-1.5-1.3-4.3-1.5-5.3-3.4h-1.3c-0.5,0.1-0.2,0.9-0.5,1.3c0,0-0.7,0.3-1.1,0.6
		c-0.8,0.9-2,2-3.9,1.8c-1.2-0.1-2.4-1.1-2.7-2.8c-0.4-3.2,1.6-5.1,2.8-7.3h0.6c0.9-2.3,4.1-0.6,6.2-0.5c0.7-0.3,0.4-1.6,1.3-1.8
		c0.7-3.1,1.8-5.3,3.2-7.8c0.4-0.9,0.7-1.9,1.3-3c0.3-0.6,1-0.9,0.8-1.6c-0.6-0.3-1.1,0.2-1.6,0.5c-4.7,1.1-9.9,1.5-13.2-1
		c-0.9,0.6,0,1.9,0,3.2c0.1,0.5-0.2,1-0.3,1.5c0,1.8,0,3.2-0.3,4.8c-0.2,1.3-0.4,2.7-1.1,3.6c-0.4-0.2-0.8-0.4-1.1-0.6
		c1.2-3.6,1.9-9.2,1.1-13.5c-0.1-0.5,0.2-0.6,0.3-1c-1.6-1.1-1.1-4.9-0.5-6.4c1.9,1.1,4.7,1.6,6.9,2.4c1.8,0.1,3.7-0.1,5.4,0
		c0.6,0.1,1.4,0.1,1.9,0.5c0.8-0.9,2.4,0.1,3.6-0.8c0.6,0.4,1.6,0,2.1-0.3c0.4,0.1,0.6,0.2,1,0.3c1.2-1.9,3.2-4.8,6.6-4.4
		C-292.4,503.2-291.9,503.7-291.9,504.2z M-314.8,533.7c-0.2,0.2-0.2,1.1,0.3,1.2C-314.5,534.5-314.1,533.6-314.8,533.7z
		 M-312.3,509.7c0.1-0.2,0.6-0.9,0.2-1.1c-0.2,0.8-0.6,0.6-1.1,0.2C-313.7,509.4-312.7,509.5-312.3,509.7z M-312.1,533.9
		c-0.2-0.1-0.7,0.2-0.7,0.4C-312.4,534.3-312.2,534.2-312.1,533.9z M-312.6,532.9c0.4,0,0.1,0.6,0.6,0.5
		C-311.8,532.9-312.5,532.6-312.6,532.9z M-311.3,531.1c-0.1,0.3,0.1,0.5,0.5,0.5C-310.7,531.2-311.1,531.3-311.3,531.1z
		 M-309.5,532.7c-0.4,0-0.8,0-0.8,0.3C-309.9,533.1-309.7,533-309.5,532.7z M-310,513c-0.1,0.5,0.6,0.6,0.6,0.2
		C-309.6,513.1-309.7,513-310,513z M-309.2,531.6c-0.2,0-0.2-0.2-0.5-0.2c-0.1,0.2-0.2,0.3-0.2,0.6
		C-309.4,532.2-309.1,532-309.2,531.6z M-309.3,508.6c-0.1,0.5,0.2,0.6,0.5,0.8C-308.6,509.2-308.9,508.6-309.3,508.6z M-306,535.1
		c-0.2-0.1-0.3-0.3-0.5-0.3c-0.1,0.2-0.2,0.3-0.2,0.6C-306.3,535.4-306.1,535.3-306,535.1z M-304.7,535.4c-0.1,0.4,0.3,0.3,0.5,0.5
		C-304.2,535.5-304.4,535.3-304.7,535.4z M-303.8,510.6c-0.2,0.3-0.1,1.5,0.3,1.6C-303.2,511.4-303,511-303.8,510.6z M-302.2,532.4
		c-0.1,0.2-0.6,0.9-0.2,1C-302.5,533-301.7,532.7-302.2,532.4z M-300.3,511.2c-0.5,0-0.8,0.1-1,0.3c0.5,0.2,1.5-0.2,1.9-0.6
		c-0.8,0.6-0.8-1.1-1.5-0.5C-300.9,511-300,510.5-300.3,511.2z M-299.3,534.4c0.2-0.2,0.2-0.4-0.2-0.6c0,0.2-0.2,0.2-0.2,0.6H-299.3
		z M-298.8,507.6c-0.2-0.4-1,0.2-0.5,0.3C-299.3,507.6-298.8,507.8-298.8,507.6z M-296.5,505.8c0-0.5-0.6-0.6-0.7-0.2
		C-297,505.7-296.9,505.9-296.5,505.8z M-295,505.9c-0.4-0.2-0.7,0.6-0.3,0.6C-295.3,506.3-294.9,506.4-295,505.9z"/>
	<path class="st0" d="M-254.2,522.9c0,1-0.6,1.9-1,2.8c-0.4,0.8-1,1.5-1.3,2.3c-0.2,0.3,0,0.7-0.2,1c-0.2,0.5-0.8,0.7-1.1,1.1
		c-0.2,0.5-0.3,1.1-0.6,1.5c-0.6,0.9-2.1,2.9-2.1,2.9c-1.4,1.1-2.4,2.2-4,3.3c-1.4,1-2,2.1-3.8,2.1c-0.5,0.4-0.8,0.8-1.5,1
		c-0.2,1.2-0.3,2.3-1,3h0.1v0.2c0.2,0.5-0.2,1.1-0.5,1.5c-0.3,1-0.7,2.1-1.3,3.4l-1.1,2.1c0,0.1,0,0.1-0.1,0.2
		c-0.1,0.2-0.2,0.5-0.4,0.7c-1.5,2.8-3.5,5.7-5.5,7.1l-0.1-0.1c-2.3,1.7-5.4,3.8-9.1,2.8c-0.3-0.2-0.5-0.2-0.8-0.6
		c-0.5-0.1-0.5,0.3-1,0.2c-0.8-0.5-2.2-1.5-2.3-2.6c-0.1-0.3,0.1-0.3,0.3-0.3c-0.1-0.3-0.7-0.1-0.9-0.3c-0.8-4,0.4-5.7,1.4-8.6
		c0.2-0.1,0.3-0.2,0.6-0.2c0.6-2,2.8-2.3,4-3.8c3.2-1.6,6.8-2.8,10.4-4c0.3-0.1,0.6,0,0.8,0.2c0.7-0.6,0.3-1.5,0.5-2.3
		c0.2-0.8,0.7-1.5,0.8-2.3c0-0.6-0.6-1.5,0.3-1.9c-0.6-0.5,0-1.5,0-2.3c-1.1,1.1-1.7,2.7-2.8,3.8c-0.6,0.6-1.4,0.8-1.9,1.5
		c-0.5-0.5-0.6,0.6-1,0.2c-2.4,2.3-6.8,0.6-8.3-1.5c-0.3-0.6-1.1-2.6-1.3-3.3c-0.1-0.5-0.1-1.1-0.2-1.6c-0.1-0.3-0.3-0.6-0.3-0.8
		c-0.1-1.2,0.3-2.3,0.3-3.5c0-0.5-0.2-0.9-0.2-1.3c0.1-1.1,0.7-2.2,0.6-3.3c0-1.1,0.2-1.3,0.3-2.8c0.2-1,0.3-2.9,0.2-3.2
		c0.6-2.1,0.7-4.1,0.6-6.1c0.2-0.2,0.5-2.3,0.7-3c0.4-0.2,0.9-0.3,1-0.8h0.2c1.4-0.7,4.9-0.2,6.1,1.1c0.9,0.8,0.1,3.9-0.7,6.9
		c-0.2,1-0.6,2-0.7,2.8c-0.6,5.2-2.2,11.6-0.9,17.2c-0.2,0.2,0.6,0.7,1,1.2c4.7,0.1,5.4-4,7.8-6.1c-0.6-1.6,0.2-3.5,0.3-5.1
		c0-0.3,0.2-0.8,0.3-1.2c0.1-1.7,0.5-4.6,0.9-7.3c0.3-2.4,1.1-7.2,1.2-7.4c0.2-0.2,0.2-0.3,0.2-0.4c0.8-1.4,2.1-1.9,4.3-1.5
		c0.4-0.1,0.3,0.3,0.5,0.5c1.2-0.5,1.5,0.4,2.4,0.3c-0.5,2.3-0.7,4.9-2.1,6.2c0.2,0.2,0.4,0.3,0.5,0.7c0.2,0.6-0.4,0.6-0.5,1
		c-0.2,3.5-1.5,6.9-1.5,10.5c0,0,0,0.4-0.2,1c-1,1.1,0.6,3.9-0.8,5.1c0.1,0.6,0.2,1.2,0,1.9c-0.3,1-0.3,2.8-0.8,4.1
		c0.2,0.5,0.6-0.3,0.8,0.2c1.4-0.9,2.7-2.1,4-3.3c0.5-0.4,0.6-0.5,1.3-0.8c3.3-3.3,5.7-7.5,7.6-12.3
		C-254.7,522.4-254.4,522.6-254.2,522.9z M-290.7,555.5c0.1-0.5-0.2-0.6-0.3-1c-0.2,0-0.6-0.1-0.6,0.2c0.6-0.1,0.1,1.1,0.5,1.1
		C-291.1,555.7-291,555.5-290.7,555.5z M-290.8,554.2h0.3v-0.3h-0.3V554.2z M-289.4,557.1c-0.4-0.1-0.6,0-0.8,0.2
		c0-0.3-0.2-1.2-0.3-0.9c0,0.3,0,0.6-0.3,0.6c0.2,0.4,0.2,0.9,0.6,1.1C-290.1,557.5-289.3,557.7-289.4,557.1z M-290.7,552.6
		c0.6,0.1,1-0.2,1-0.6C-290,551.7-290.7,552-290.7,552.6z M-290.2,555.2c0.5,0.1,0.6-0.3,0.5-0.8
		C-290.2,554.4-290.5,554.9-290.2,555.2z M-289.7,554.2v-0.6C-290.3,553.4-290.3,554.4-289.7,554.2z M-290,551.5
		c0.2,0,0.2,0.1,0.3,0.2c0-0.3,0-0.6-0.3-0.6V551.5z M-288.2,553.6c-0.3,0-0.5-0.3-1-0.2C-289.4,554.1-288.2,554.1-288.2,553.6z
		 M-288.7,550.1c0.3,0,0.4,0.2,0.6,0.2C-287.3,549.6-288.7,549.1-288.7,550.1z M-288.2,551.8h-0.3v0.3h0.3V551.8z M-287.9,528.4
		c0.1-0.5-0.2-0.6-0.5-0.8C-288.3,528-288.2,528.4-287.9,528.4z M-287.3,524.5c-0.4,0.1-0.6,0-0.9-0.2
		C-288.7,525-287.3,525.5-287.3,524.5z M-287.2,528.8c-1.1,0.2-0.3,1.1-0.9,1.6C-287.1,530.2-287.7,529.5-287.2,528.8z
		 M-275.7,543.2c-0.6,0.1-0.2-0.6-0.8-0.5c-2.1,1-3.6,2.4-5.6,3.5c-0.6,1.4-2,2.1-2.7,3.6c-0.4,0-1.1,2.2-1.8,2.3
		c-0.2,1.5-0.4,3-0.8,4.2c0.6,0.5,0.1,1.6-0.3,2c1.1-0.2,1,0.8,1.3,1.5c0.6-0.5,1,0.6,1.6,0.5c3.8-0.6,4.8-4.1,6.2-7
		c0-0.3,1.4-4.4,1.4-4.5c0.2-1.2,0.6-2.1,0.8-2.8C-276.2,545-276.7,543.7-275.7,543.2z M-286.9,549.1c0-0.4-0.2-0.6-0.6-0.5
		C-287.6,549.3-287.3,549.3-286.9,549.1z M-287.2,510.1c0.4-0.1,0.7-0.2,1-0.4c-0.6-0.2,0.4-0.4,0.2-1c-0.2,0-0.2-0.4-0.5-0.3
		C-286.1,509.6-287.4,509-287.2,510.1z M-283.9,517.3c0-0.7,0.2-1.2,0.5-1.6h-1.1c-0.6-0.8-0.3-1.3-0.8-2c0.6-0.3,0.7-0.9,0.9-1.3
		c-0.2,0.2-0.2,0.6-0.6,0.5c0-0.2,0.1-0.6-0.2-0.6c-0.3,0-0.1,0.7-0.2,1c-0.6,0.1-0.5-0.3-0.8,0c-0.2,0.6,0.5,0.5,0.3,1.1
		c-0.5,0.5-0.6,1.2-1.1,1.7c0.5,0.9,1.1-0.2,1.1-0.8c0.7,0.2,1.5,0.6,1.5,1.6c-0.8,0.2-0.6-0.7-1.3-0.6
		C-285.6,517.2-285.3,517.8-283.9,517.3z M-286.4,529.1c-0.1,0.2-0.2,0.4-0.3,0.6C-286.4,529.9-286,529.2-286.4,529.1z
		 M-285.7,530.4c0,0.4-0.4,0.4-0.8,0.4c-0.2,0.6,0.6,0.4,0.8,0.6C-285.9,530.9-285.2,530.6-285.7,530.4z M-285.4,522.1l-0.5,0.1
		C-285.6,522.2-285.5,522.2-285.4,522.1z M-285.2,527c0.4-0.2,0.6-1.5,0-1.5C-285.2,525.8-285.6,527-285.2,527z M-284.9,520.4
		c-0.6-0.2-0.6,0.7,0,0.6V520.4z M-285.4,529.4c0.4,0,0.2,0.7,0.8,0.5C-284.3,529.3-285.3,529.2-285.4,529.4z M-285.2,508
		c0,0.4,0.6,0.2,0.8,0.5c-0.1,0.6-0.1,1.1,1,0.8c0-0.2,0-0.4,0.2-0.5c0.1-0.6-0.9-0.4-0.8-1.1c0.4-0.1-0.2-0.3-0.2-0.2
		C-284.3,508.2-284.7,508.3-285.2,508z M-285.1,548.3h0.3c0-0.2,0.2-0.2,0.2-0.5h-0.3C-284.9,548-285.2,548.1-285.1,548.3z
		 M-284.9,518.4v0.5C-284.4,519.1-284.4,518.2-284.9,518.4z M-282.4,518.6c-0.2-0.4,0-1.1-0.6-1.1c0.6,0.8-1.1,0.7-0.6,1.3
		C-283.5,518.4-282.8,518.6-282.4,518.6z M-282.6,515.5h0.5c0-0.3-0.2-0.4-0.5-0.3V515.5z M-281.4,510.4c0.1-0.6-0.2-0.6-0.5-0.7
		C-282,510.2-281.7,510.2-281.4,510.4z M-274.1,539.6c0-0.2,0-0.4-0.3-0.3c0,0.2,0,0.5,0.2,0.5
		C-274.2,539.7-274.2,539.6-274.1,539.6z M-273.6,536.4c-0.2,0-0.2-0.2-0.3-0.2c0.2,0.4-0.6,0.5-0.2,0.6c0-0.2,0.2-0.2,0.5-0.2
		V536.4z M-272.3,522.2c0.1,0.5-0.5,0.3-0.3,1C-272,523.3-272,521.7-272.3,522.2z M-270.1,523.8c-0.9-0.1-1.1,0-1.8-0.2
		c0.2,0.5,0.6,0.6,1.1,0.8C-270.6,524.2-270.1,524.3-270.1,523.8z M-270.4,521.6c0.3,0,0.6-0.1,0.6-0.3
		C-269.9,521-270.4,521.1-270.4,521.6z M-270.3,525.3c0.2,0.2,0.4,0.2,0.8,0.2c0-0.3-0.1-0.6,0.2-0.7c0.6,0,0.9,1.1,1.5,0.5
		c-0.5-0.7-1.1-0.7-2.1-0.8C-270,524.8-270.3,524.9-270.3,525.3z M-269.8,538.6h-0.3v0.3h0.3V538.6z M-267.5,522.2
		c0-0.4-0.2-0.6-0.2-1.1c-0.8,0.5-1.9,0.3-2.3,1.6c0.7,0,0.6-0.9,1.5-0.8c0.5,0.4-0.2,0.3-0.2,0.8
		C-268.2,522.5-267.9,522.3-267.5,522.2z M-269.3,535.3c-0.1,0.3-0.7,0.1-0.5,0.7C-269.3,536.2-268.9,535.6-269.3,535.3z
		 M-269.8,519.4c0,0.4,0.3,1.3,0.6,0.6C-269.6,520.1-269.2,519.2-269.8,519.4z M-269.6,512.8c0,0.8,0,1.5,0.5,1.8c0-0.4,0.6,0,0.6,0
		c-0.2-0.5,0.2-0.6-0.2-1c0.2,0.3-0.7,0.3-0.6,0c-0.2-0.5,0.9-0.6,0.3-1C-269.1,513.1-269.2,512.8-269.6,512.8z M-269,510.9
		c0.1,0.6,0.6,0,1.1,0.3C-267.8,510.6-268.8,510.8-269,510.9z M-268.3,513.1c0.6,0.2,0.6-0.6,0.2-0.6
		C-268.2,512.7-268.4,512.8-268.3,513.1z M-268.3,510.4h0.5c0.1-0.3-0.2-0.4-0.5-0.3V510.4z M-267.8,514.3c0.5,0,1.1,0.1,1.4-0.2
		c-0.4-0.5,0.2-1.2-0.3-1.3C-266.5,514-268.1,513.2-267.8,514.3z M-266.8,520.6c-0.4,0-0.4-0.3-0.9-0.2
		C-267.9,521.2-266.8,521-266.8,520.6z M-267.4,520.3c0.1-0.2,0.2-0.2,0.2-0.6h-0.3c0,0.2-0.2,0.2-0.2,0.6H-267.4z M-267.5,511.7
		c0.2,0.2-0.2,1,0.2,1C-267,512.4-267.2,511.9-267.5,511.7z M-266.9,515.3c0.4-0.1,0.9,0.6,1,0.5
		C-266.1,515.4-266.7,514.8-266.9,515.3z M-265.7,511.5c-0.2,0-0.2-0.2-0.5-0.2C-266.5,511.8-265.6,511.9-265.7,511.5z
		 M-266.1,510.6c0.2,0,0.4-0.2,0.5-0.3C-266,510.2-266.1,510.3-266.1,510.6z"/>
</g>
</svg>
