<?xml version="1.0" encoding="utf-8"?>
<!-- Generator: Adobe Illustrator 19.0.0, SVG Export Plug-In . SVG Version: 6.00 Build 0)  -->
<svg version="1.1" id="Layer_1" xmlns="http://www.w3.org/2000/svg" xmlns:xlink="http://www.w3.org/1999/xlink" x="0px" y="0px"
	 width="175.6px" height="80.2px" viewBox="-356.8 518.5 175.6 80.2" style="enable-background:new -356.8 518.5 175.6 80.2;"
	 xml:space="preserve">
<style type="text/css">
	.st0{fill:#EBB637;}
</style>
<g>
	<path class="st0" d="M-314.2,568.1c0.1,3,0.3,6.1,1.2,8.2c-0.6-0.1-1.2-0.2-2.1-0.6c-5.3-2.5-6.3-9.7-6.5-12.5v-0.3
		c0-1.1,0.1-2,0.2-3.1c0.1-1.5-0.3-3.1-0.2-4.7v-0.3c0-1.3,0.1-2.8,0.1-4.2c-0.4,0.2-0.9,0.3-1.5,0.5h-0.3c-2.1,0-4.2,0.2-6.3-0.2
		c-0.1,0-0.2-0.1-0.2-0.1c-1-0.1-1.9-0.2-2.9-0.5c-2.5-0.5-4.9-0.6-6.9-0.6c-0.3,3.2-0.6,6.6-0.7,9.6v0.3c-0.2,1.1-0.3,2.1-0.1,3.2
		c0.2,1-0.2,2-0.1,3c0.2,0.8,0.2,1.7,0.1,2.6v0.3c-0.1,1.7,0.1,3.4,0.5,5c0,0.2,0.1,0.3,0.1,0.5c0.3,1.3,0.6,2.2,1.2,2.7
		c-1.1,0-1.7-0.1-2.8-0.6c-5.7-2.7-5.4-11.7-5.4-11.7s-0.1-0.4-0.1-1v-0.3c0-0.2,0.1-0.5,0-0.6c-0.2-0.3-0.6-0.6-0.6-1
		c0.6-1.9,0.9-3.5,0.6-5.4V556c0-1.7,0-3.6,0-5.6c-0.9,0.2-1.6,0.4-2.3,0.6c-0.2,0-0.2,0.1-0.3,0.1c-0.4,0.2-0.8,0.1-1.2,0.3
		c-1.2,0.7-2,1.7-3.4,1.9c-0.1,0.1-0.2,0.2-0.3,0.2c-0.7,0.5-1.1,0.8-1.1,0.8c-1.5-4.2-1.3-7-0.1-8.7c0.1-0.1,0.2-0.2,0.2-0.3
		c0.7-0.6,1.8-0.3,2.4-0.9c0.6-0.4,1.1-1.1,1.9-1.1c0.2,0,0.3-0.1,0.5-0.1c1.2-0.1,2.5,0,3.9,0.2c0-1.9,0.1-3.6,0.2-5.5v-0.2
		c0.2-2.8-0.1-5.7,0.1-8.5c0.1-1,0.7-1.9,0.6-3c0.1-0.2,0.1-0.3,0.1-0.5c0.2-2.2,0.6-4.1,1-5.5c0.7-1.4,2.6-3,8.7,0.1
		c0,0-0.2,1.5-0.6,3.8c0,0.2-0.1,0.3-0.1,0.5c-0.3,1.1-1.2,2.3-0.8,3.5c0.2,0.8,0.3,1.8,0.2,2.7c0,0.2,0,0.3-0.1,0.4
		c-0.3,2.4-1.5,4.8-1.2,7.3c0.1,0.9-0.1,1.9-0.2,2.8v0.5c-0.2,1.1-0.2,2.2-0.4,3.3c7,1.1,16.4,0.2,18,0c0-2.3,0.2-4.6,0.2-7v-0.2
		c0.2-1.1-0.2-2.2,0.1-3.2c1.1-3,0.6-6.1,1.1-9.2v-0.5c0.3-1.5,0.6-3,0.9-4.3c0.9-1.6,3.1-3.5,10.2,0.2c0,0-3.4,19.2-4.6,35v0.3
		c-0.4,1.9-0.6,3.8-0.1,5.8c0.2,0.5-0.3,1.1-0.4,1.6v0.5c-0.1,0.8-0.2,1.7-0.3,2.6c0,0.4,0.2,0.8,0.2,1.2V568.1z M-348.9,547.2
		c-0.6,0.1-0.4-0.6-0.7-0.9c0,0.6-0.1,0.6-0.7,0.9C-350,547.6-349.2,547.8-348.9,547.2z M-345.2,557.3c-0.7,0.4-0.8-0.7-1.1-0.2
		c0.5,0,0.1,0.6,0,0.7c0.3,0.1,0.5,0.2,0.7,0.3C-345.4,558-345.4,557.6-345.2,557.3z M-343,555.3c0.1,0.8-0.6,0.7-1.1,0.9
		c-0.3-0.2-0.6-0.2-0.6-0.7c0.1-0.4,1.2-0.6,0.3-0.9c-0.5,0.3-0.7,1-1.3,1.3C-345.1,557.5-341.4,556.4-343,555.3z M-344.1,532.8
		c0.6,0.2,0.5-0.3,0.7-0.4c-0.2-0.6-0.5-0.9,0.2-1.3c-0.5-0.1-0.7-0.5-1.1-0.7C-344.9,531.1-344,531.5-344.1,532.8z M-343.3,559.5
		c-0.5,0-0.7,0.2-0.7,0.7c0.6-0.2,0.2,0.6,0.7,0.6C-343.6,560.3-343.6,560-343.3,559.5z M-343.5,537.7c0.2,0,0.4,0.1,0.6,0.2
		c0.1-0.6,1.2-1.3,0.7-2c-0.1,0.6-0.4,0.8-1.1,0.7C-343.2,537.1-343.7,537.1-343.5,537.7z M-341.9,534.9c0.1-0.6,0.6-0.8,0.6-1.7
		c-1.1-0.2-0.2,0.6-0.7,1c-0.7-0.2-0.3-1.5-1.1-1.5c0.4,1.3,0.9,2.5,2,3.1C-340.8,534.9-341.6,535.3-341.9,534.9z M-341.9,540.8
		c0.2,1.1-0.6,0.1-0.9,0c-0.2,1.2,0.1,1.8,0.9,2.9c0.5,0.1,0.6-0.2,0.7-0.6c-0.4-0.2-0.6-0.7-1.1-0.9c0.3-0.3,0.2-1.1,1.1-0.9
		C-341,540.8-341.7,541.1-341.9,540.8z M-321.7,548.1c-1.1,0.3-1,0.6-2.2,0.2v0.8c0.5,0,0.6-0.4,1.2-0.2c0,0.2,0.2,0.3,0.2,0.5
		c0,0.2-0.6,0.1-0.3,0.5c0.3,0.4,0.2,0,0.7,0C-322.5,548.9-321.8,548.9-321.7,548.1z M-318,547.3c-1.1-0.2-2-1.5-3.2-0.8
		c-0.1,0.6,0.9,0.7,1.1,0.3C-320.2,548.1-318,548.6-318,547.3z M-316.5,546.1c-0.8,0-1.1-0.8-1.8-0.4c-0.2-0.3-0.5-1.5-1.1-0.8
		c0.3,0,0.2,0.5,0,0.6c0.8,0.5,2,0.6,2.2,1.6c-0.2,0.1-0.4,0.2-0.6,0.5c0.5,0.1,1,0.1,1.2-0.2V546.1z M-317.8,551.3
		c-0.6,0.1-0.7-0.4-1.4-0.2c0.3,1.1,0.4,1.4,1.1,2.2c0,0.3-0.6,0.1-0.6,0.5c0.4,0,0.4,0.2,0.8,0.2
		C-317.7,552.7-318.4,552.2-317.8,551.3z M-317.8,535.2c0.2,0.7,1.3,0.7,0.7,1.6c0.9,0.1,1.1-0.4,1.7-0.7
		C-316.3,536-317.2,535-317.8,535.2z M-315,541.2c-0.8-0.2-1.9,0.3-2.8-0.2c0.4,1,1.1,0.6,2,1.1C-315.7,541.6-315.4,541.3-315,541.2
		z"/>
	<path class="st0" d="M-280.9,575.1c-0.7,0.2-1.5,0.2-2,0.6c-2.4,0.1-3.9-1-5.3-1.9c-0.1-1-1.3-1.4-1-2.2c-0.6-0.4-1.2-1.5-0.8-2.4
		c-0.7-1-0.5-2.8-0.5-4.5c-0.7,0.6-0.8,1.9-1.7,2.3c0.5,1.4-4,7.7-9.7,8.7c-1.4-0.6-2.8-0.6-3.7-1.6c-1.6-1.7-1.6-4.3-2.2-6.2
		c0-0.5,0.2-0.6,0.6-0.5c-1.9-1.7-0.1-5.1-0.5-7.3c0.6-1.4,0.5-2.5,0.9-4.4c0.6-0.2,0.2-1,0.5-1.5c0.4-1.1,1.5-2,1.6-3.5
		c0.5-0.2,0.6-0.6,1.3-0.6c0.2,0.4,0.4,0.6,0.3,1.2c0.3-0.1,0.2-0.6,0.5-0.7c-0.2-0.4-0.7-0.5-1-1c0.1-1,1.1-0.9,1.1-1.9
		c0.5-0.2,0.8-0.3,1.2-0.5c-0.2,0.9,1.1,0.8,0.5,1.6c0.1,0.4,0.4-0.8,0.8-0.2c-0.8,0.7-0.8,1.1-0.5,2.5c0.5,0.1,0.5-0.3,1-0.2
		c0.1-0.6-0.6-0.4-0.6-1c0.3-1.2,0.2-1,1.5-1c0.2-0.6-0.5-0.2-0.8-0.3c1.1-0.9,1.8,0.6,3,0.6c-0.4,1.3-1.1,2.3-1.9,3.2
		c-0.3-0.4,0.2-0.8,0-1.5c-1.4,0.4-0.2,1.7,0,2.3c-0.3,0.2-0.2,0-0.6,0c-0.2,0.5,0.6,0.1,0.3,0.6c-0.3,0.1,0,0.8-0.6,0.6
		c0,0.3,0.2,0.3,0.2,0.6c0,0.4-0.3,0.2-0.3,0.3c-0.2,0.6,0.1,1.6-0.2,2.3c-0.1,0.2-0.5,0.3-0.5,0.5c-0.1,0.5,0.4,1.4-0.3,1.8
		c-0.2,3.4-0.5,6.3-0.3,10.2c0.9,0.4,0.8,1.3,1.6,1.5c2.8,0.7,4.6-3.6,5.6-5.3c0.2-0.1,0.4-0.2,0.6-0.3c0-0.6,0.1-1.1,0.6-1.1
		c0-0.6-0.2-0.5,0-1c1.3-1.6,1.6-4.1,2.8-5.7c-0.5-0.7,0.2-1.5,0-2.5c0.3-0.4,1-0.5,1-1.3c0.2-0.4-0.7,0.2-0.6-0.3
		c-0.5-0.3,0.5-0.4,0.5-0.6c0-0.1-0.3-0.8-0.3-0.8c0-0.3,0.3-0.4,0.3-0.6c0.1-0.5-0.2-1,0-1.5c0.1-0.2,0.5-0.5,0.5-0.6
		c0-0.1-0.3-0.5-0.3-0.6c0-0.6,0.6-1.1,0.5-1.6c-0.8-0.9-2.3-1.5-3.2-1.1c-0.4-0.1-0.4-0.6-0.7-0.6c-0.4,0.6-1.5,0.6-1.9,1.3
		c-0.3,0-0.3-0.2-0.6-0.2c-0.3,0.9-1.2,1.1-1.5,2.1c-1.3,0-1.9-0.9-1.7-1.9c-0.8,0-1,0.8-1.9,0.8c0.6-1.1-0.2-2.7,1-3.3
		c0.6-0.2,0.2,0.6,0.6,0.5c0.2-0.8,0.7-1.2,1.7-1.3c0.3,0.5,0.2,1.5,0.5,2c0.8-0.6-0.2-1.4,0.2-2c1.1-0.7,1.9,0,3.6-0.2
		c0.5,0.8,2.8,0.6,2.3,1.6c0.5-0.1,1.3,0.3,1.6,0.9c0.6-0.2,0-0.4,0.2-1.1c0.6-0.2,1.1-0.6,1.3-1.3c0.6,0.4,0.8-0.4,1.2-0.5
		c1.8-0.4,2.8,1.1,4.9,1.3c0.2,0.7-0.1,1.7-0.5,2.2c-0.6,3.6-2,6.4-2.2,10.5c-0.2,0.1-0.2,0.3-0.5,0.3c0.1,3.2-0.8,5.3-0.6,8.7
		c0.2,2.9,0.7,7.1,4.1,6c1.1-0.4,3.4-3.3,4.4-4.9c0.9-1.5,1.6-3.7,2.4-5.6c0.5,0.1,0.4-0.2,0.8-0.2
		C-270.9,564.3-277.7,574.1-280.9,575.1z M-306.2,564.7c0.1-0.6,0.9-0.1,1.1-0.2c0.1-1-0.6-0.8,0-1.5c-0.9,0.3-0.8,0-0.6-0.8h-0.5
		C-306.4,562.8-306.6,564.2-306.2,564.7z M-305.5,565.2c-0.5-0.1-0.4,0.2-0.8,0.2C-306.4,566.2-305.6,565.7-305.5,565.2z
		 M-304.7,566.3c0.2,1.3,1.6,0.6,2.8,1.1c-0.1-0.3,0.6-0.6,0-0.6c-0.5,0.7-1.2-0.7-2.1,0c0-0.4-0.4-0.2-0.3-0.7
		c-0.9,0.2-1.1-0.1-1.5,0.7C-305.5,567.1-305.2,566.4-304.7,566.3z M-305.1,555.2c-0.2,0-0.2-0.2-0.5-0.2
		C-305.8,555.4-305,555.5-305.1,555.2z M-304.7,569.5c-0.1,0-0.2,0-0.3,0c0,0.2-0.2,0.2-0.2,0.5h0.5V569.5z M-304.9,554
		c0.2,0.4,0.6-0.3,0.8,0.2c0.1,0.6-0.8,1,0.3,1c0.2-1.1,0-1.5-0.6-1.9c0,0.2-0.2,0.2-0.5,0.2V554z M-304.7,556.4
		c0.3,0.2,0.2,1,1,0.8C-303.7,556.6-305,556.1-304.7,556.4z M-303.9,567.9c0.2,0.6-0.6,0.2-0.8,0.6c0.5-0.2,0.4,0.2,0.8,0.2
		C-304.2,568.1-303.1,567.9-303.9,567.9z M-304.6,567.7c0.1,0,0.2,0,0.2,0.2h0.3C-303.8,567.5-304.7,567.4-304.6,567.7z
		 M-303.9,557.5c-0.4-0.1-0.5,0.2-0.6,0.5C-304.2,558-303.8,557.9-303.9,557.5z M-303.6,560.1c-0.1-0.2-1,0.6-1,0.5
		c0.1,0.5,0.3,0.8,0.8,0.9C-304.2,560.8-303.6,560.1-303.6,560.1z M-304.6,563.4c0.2,1.5,0.1,2.3,1.5,2.6c0.6-0.4,1.1-1,1.7-1
		c-1.1-0.2-3,0.7-2.7-1c0.1,0.2,0.9,0.4,1,0c-0.1-0.3-0.7,0-0.8-0.3c-0.1-0.6,0.9-0.9,0.2-1.1C-304.2,562.7-304,563.4-304.6,563.4z
		 M-304.2,559.4c0.6-0.2,0.8,0,1.6-0.2c0.1-0.5-0.2-0.6-0.5-0.8C-303,559.6-304.2,558.4-304.2,559.4z M-303.9,551.9
		c0,0.2,0.2,0.4,0.3,0.5C-303.6,552.1-303.7,552-303.9,551.9z M-303.3,555c-0.5,0.4-0.9,1.2-0.2,1.5
		C-303.4,556.1-302.9,555.3-303.3,555z M-303.3,570.5c0-0.4,0.2-0.5,0.3-0.8c-0.3,0-0.2-0.4-0.6-0.3
		C-303.4,569.6-303.5,570.3-303.3,570.5z M-303.4,553.7c0.3,0,0.8,0.2,0.6-0.3C-303.5,553.4-303.4,553.3-303.4,553.7z M-302.8,555.8
		c0.3,1.1,0,1.1-0.5,1.5c0.5,0.1,0.5-0.3,1-0.2c0-0.4,0.1-0.6,0.2-0.8C-302.6,556.5-302.5,555.9-302.8,555.8z M-301.1,563.3
		c-1.1-0.2-0.9-1.5-2.2-1.5c0.1,0.7,0.9,0.7,0.8,1.6C-301.7,563.3-301.4,563.7-301.1,563.3z M-302.8,573.6h-0.5c0,0.2,0,0.3,0,0.5
		C-302.8,574.2-303,573.8-302.8,573.6z M-302.5,568.8c-0.3-0.1-0.6,0-0.6,0.3C-302.7,569.2-302.5,569.1-302.5,568.8z M-303,560.6
		c0.4,0,0.3,0.1,0.3-0.3C-303,560.3-303,560.2-303,560.6z M-302.6,560.1c0-0.4,0.1-0.3-0.3-0.3v0.3H-302.6z M-302.3,555.8
		c1-0.3,0.8-1.1,1.7-1.3c-0.1-0.4-0.2-0.7-0.5-1c0,0.4-0.1,0.6-0.3,0.6c-0.2-0.2-0.2-0.5-0.7-0.5
		C-302.1,554.7-302.3,554.5-302.3,555.8z M-301.6,560.6c0-0.1,0.1-0.2,0.3-0.2c0.1-0.6-0.4-0.6-1.1-0.6
		C-302.3,560.3-302.1,560.6-301.6,560.6z M-302.1,550.9c0.9,0.2,0.8,1.3,1.9,1.2c-0.2-0.7-0.6-1.3-1.1-1.7c0.2-0.2,0.3-0.4,0.6-0.5
		c-0.2-0.2,0-0.9-0.5-0.8C-301.7,549.7-302.3,549.8-302.1,550.9z M-300.9,570.8c-0.5,0.2-0.8,0.3-1.1,0.6
		C-301.4,571.4-300.9,571.3-300.9,570.8z M-300.9,571.7c-0.5-0.1-0.9,0.7-0.5,0.9C-301.4,572.2-300.8,572.5-300.9,571.7z
		 M-300.4,552.7c-0.3-0.1-0.5-0.3-0.6-0.5c-0.2,0-0.6,0.6-0.2,0.8c0-0.2,0.2-0.3,0.5-0.3C-300.8,552.9-300,552.9-300.4,552.7z
		 M-300.6,556.7c-0.4,0-0.3-0.1-0.3,0.3h0.3V556.7z M-300.6,561.6c-0.2,0-0.2,0-0.3,0v0.3c0.1,0,0.2,0,0.3,0V561.6z M-300.1,553.7
		c0.4,0,0.3,0.1,0.3-0.3C-300.2,553.4-300.1,553.3-300.1,553.7z M-299.8,552.2c0.3,0.1-0.1,1,0.6,0.8c0.1-0.5-0.3-0.5-0.2-1
		C-299.5,552.1-299.8,552-299.8,552.2z M-299.5,555.8c-0.1,0-0.2,0-0.3,0v0.3c0.1,0,0.2,0,0.3,0V555.8z M-299.2,550.4
		c0.6,0.1,1-1,0.3-1.1C-298.9,549.7-299.6,550-299.2,550.4z M-296.3,546.7c-0.6,0-0.2-1.1-0.9-1.1c-0.1,0.6,0.2,0.8,0.2,1.4
		C-296.7,546.9-296.5,546.8-296.3,546.7z M-295.7,547.3c0,0.2-0.6,0.6-0.2,0.8C-295.8,547.8-295,547.5-295.7,547.3z M-294.9,544.8
		v0.6c0.1,0,0.2,0,0.3,0C-294.5,544.7-294.5,544.8-294.9,544.8z M-293.9,546.2c0.1,0.2-0.6,0.4-0.2,0.5
		C-294.1,546.5-293.3,546.3-293.9,546.2z M-289,546.3c0.1,0,0.2,0,0.2,0.2h0.3C-288.2,546.1-289,546-289,546.3z M-288.5,560.6
		c-0.4,0-0.3-0.1-0.3,0.3C-288.4,560.9-288.5,561-288.5,560.6z M-287.8,548.8c0.4,0,0.8,0,1-0.2c0.1-0.4,0-0.7-0.5-0.6
		C-287.3,548.4-287.7,548.4-287.8,548.8z M-287.7,559.3c0.6-0.2,0.6-0.7,0-1c-0.4,0.4,0.2,0.3,0.2,0.8
		C-287.7,559.1-287.9,559.2-287.7,559.3z M-287,564.4h-0.6c-0.1,0.9,0.7,0.8,1.1,1.1C-286,565.1-286.9,565-287,564.4z M-286.7,551.1
		c-0.3-0.2-0.5-0.4-0.8-0.6C-287.6,551-286.9,551.5-286.7,551.1z M-287.3,554c0.4,0,0.3,0.1,0.3-0.3
		C-287.4,553.7-287.3,553.6-287.3,554z M-286.5,557.2c-0.4,0-0.3-0.3-0.6,0C-287.3,557.8-286.4,557.8-286.5,557.2z M-287,552.6
		c0.4,0,0.3,0.1,0.3-0.3C-287.1,552.2-287,552.2-287,552.6z M-286.7,545.1c0.5-0.1,1-0.2,1.2-0.5
		C-286.1,544.6-286.5,544.7-286.7,545.1z M-286.2,553.7c-0.1,0.2-0.2,0.4-0.3,0.6C-286.1,554.5-286,553.6-286.2,553.7z
		 M-286.5,555.2c0.3,0.5,0.6,1,1.4,1C-285.1,555.3-285.8,554.8-286.5,555.2z M-286.4,548c0.6,0,0.5-1.3,1.2-0.6v-0.6
		C-285.7,546.9-286.5,547.6-286.4,548z M-285,548.6c-0.2,0.6-1,0.6-1,1.5h0.8c0.1-0.6,0.5-1.1,1-1.3
		C-284.6,548.9-284.8,548.8-285,548.6z M-284.8,552.4h-0.6C-285.6,553.1-284.8,552.9-284.8,552.4z M-284.3,554.4
		c-0.3-0.6,0.3-1.3-0.3-1.5C-284.4,553.6-285.2,554.4-284.3,554.4z M-284.5,545.5c0.7,0,1.5,0.1,1.5-0.8c-0.7,0-1,0.7-1.5,0V545.5z
		 M-282.7,547.8c0.2,0,0.2,0,0.3,0v-0.3c-0.1,0-0.2,0-0.3,0V547.8z"/>
	<path class="st0" d="M-245.4,564.8c-0.1,0.3-0.1,0.6-0.2,1c-1.9,0.7-3.3,0.8-5.5,1c-0.5,0.1-0.4-0.5-0.8-0.5
		c0.4,1.1-0.8,1.9-1.6,2.3c0.2,1.9-1.4,1.9-1.6,3.3h-0.6c-1,1.2-2.2,2.2-3.6,2.9c-1.4-0.3-1.8,0.5-3.5,0.2c-0.4-0.5-0.9-0.8-1.5-1.1
		c0.1-1-0.7-1.1-1.1-1.5c-0.2-0.6,0.1-1.2,0-1.8c-0.1-0.2-0.4-0.6-0.3-0.8c0.2-3.8,4.5-5.8,7.8-4.6c0.4,0.1,1.2-0.6,0.8-0.9
		c0.6-0.6,0.4-2.1,0.8-3.2c0.6-0.2,1-5.5,1.5-6.2c-0.1-0.2-0.2,0-0.2,0.2c-0.6-0.5-0.7-2.1-0.2-2.7c-0.4-0.6-0.2-1.5-0.3-2.1
		c-0.3-1.1-1-1.9-1.2-3c-0.8-0.2-1.5-0.6-2.1-0.5c-1.1,1.2-2.7,2-4.1,4c-1.4,2.8-2.6,5.3-3.4,8.3c-0.3,1.6-1.1,6.6-2,11.8
		c-1.5,8.7-2.7,14-3.5,15.9l-0.2-0.1c-0.6,1.6-0.6,3.7-1.9,4.7c0.6,1.4-0.9,2.1-1,3.4c-0.6,0.2-0.9,0.5-0.8,1.2
		c-0.9,0.4-1.7,0.9-2.5,1.5c-3.1,0.3-5.8-0.5-6.7-2.8c2.3-1.2,3.3-3.6,4.8-5.7v-1c1.3-2,1.4-5.4,2.8-7.4c-0.5-2.2,1.3-3.8,0.8-6
		c0.3,0,0.2-0.6,0.2-1c0.3-1.1,0.3-2.2,0.6-3.4c0.1-0.4,0.4-0.9,0.5-1.4s-0.1-1.1,0-1.6c0.3-1.9,0.7-4.4,0.8-6.2
		c0.1-1.6,0.8-3.3,1-4.9c0.2-1.7,0-3.2,0.8-4.6c-0.1-0.4-0.2-0.9-0.2-1.5c0.2-0.7,0.7-1.4,0.3-2.2c0.1-0.3,0.1-0.6,0.5-0.6
		c-1.1-2,1.6-4.9,3.5-3.4c1.5-0.8,3.2,0.4,4.3,1.1c-0.1,1.3-0.9,1.9-0.8,3.4c-0.2,0.1-0.3,0.2-0.5,0.2c0.6,1-0.1,3.2-0.3,4.6
		c0.9-0.7,1.5-1.9,1.9-3.1c0,0,3.1-5.2,7-6.6c1.5-0.3,2.7,0.1,4,0.4c0.4,0.1,0.2,0.6,0.6,0.8c0.3,0.2,0.7-0.1,1,0.2
		c0.1,0,0.7,0.6,0.8,0.8c0.3,0.3,0.4,1,0.7,1.5c0.8,1.4,1.5,1.6,1,3.3c0.5,0.2,0.5,0.9,0.8,1.3c-0.6,1.7,0.2,3.4-0.3,5.3
		c-0.2,0.4-0.5,0.9-0.5,1.3c0,0.3,0.2,0.4,0.2,0.6c-0.3,1.6-1.1,3.2-1.3,4.8c-0.3,0.2-0.5,0.5-1.1,0.3c0,0.7,0.1,1.5-0.2,2
		c2.2-0.2,3.2-0.6,5.3-1L-245.4,564.8z M-276.7,582.5c0,0.2-0.2,0.2-0.2,0.5h0.3C-276.3,582.7-276.3,582.6-276.7,582.5z M-276.6,581
		c0.3,0,0.5-0.2,0.6-0.3C-276.3,580.7-276.5,580.8-276.6,581z M-275.7,582c-0.2,0-0.6-0.6-0.7-0.2
		C-276.3,581.9-275.9,582.5-275.7,582z M-274.2,577.2c-0.9-0.4,0.6-0.8,0.5-1.5c0.2,0.1,0.4,0.2,0.5,0.3c-0.2,0.2-0.3,0.6-0.5,0.8
		c0.5,0.2,0.4-0.2,0.8-0.2c0.1,0.3-0.2,0.3-0.2,0.6h0.8c-0.4-1,0.3-1.2,0.6-1.8c-0.6-0.1-0.9,0.7-0.8-0.3c-0.6-0.1-0.9-0.3-1.6-0.2
		c-0.2,0.4-0.1,1.2-0.5,1.5c-0.5-0.2-0.8-0.3-1.1-0.5C-275.7,576.8-274.9,577.7-274.2,577.2z M-275.2,580.2h-0.3
		c0,0.2-0.2,0.2-0.2,0.3C-275.4,580.5-275.1,580.6-275.2,580.2z M-274.9,583.6h-0.3c0,0.2-0.2,0.2-0.2,0.3
		C-275.1,584-274.8,584-274.9,583.6z M-275.2,573.1c0.6,0.2,0-0.7,0.6-0.5c0.2,0.3,0.8,0.4,1.1,0.6c0.2,0.4,0.2,0.9,0.2,1.5
		c0.6,0.1,1.4-0.1,1.6,0.2c0.3-0.3,0.1-1.1,0.5-1.2c-0.7-0.2-1,1-1.6,0.3c0.2-0.6,1.2-0.2,1-1.1c-0.6,0-0.2,1-1.1,0.6
		c0-0.3,0.2-0.3,0.2-0.6c-1.1,0.1-1.6-0.6-1.8-1.5c0.2,0,0.5,0,0.5-0.2C-275,571.3-275.5,572.5-275.2,573.1z M-274.2,574.6
		c-0.2-0.1-0.5,0.2-0.5,0.2C-275.3,575.3-274,574.9-274.2,574.6z M-274.4,570.5c0.2,0,0.2,0.1,0.3,0.2c0-0.2,0.2-0.2,0.2-0.3
		c-0.2,0-0.2-0.2-0.3-0.2C-274.2,570.4-274.4,570.4-274.4,570.5z M-274.1,590h-0.3v0.3h0.3V590z M-272.9,581.5
		c-0.7,0.2-0.3-0.6-1-0.5c0,0.1-0.2,0.2-0.3,0.2c-0.2,0.6,0.2,0.6,0.2,1.3c0.6-0.5,0.6-0.5,1.1,0V581.5z M-272.8,579.7
		c0-0.9-0.4-1.2-1.3-1.8c0.6,0.6-0.5,1.8,0.3,2.1c0-0.4-0.2-1.1,0.3-1.1C-272.9,578.8-273.4,579.8-272.8,579.7z M-273.9,567.2
		c0.5,0.2,0.2-0.6,0.6-0.5c0.4-0.1,0.7,0.9,0.8,0.6c-0.4-0.6-0.1-0.8,0.2-1.5c-0.2-0.3-1-0.2-1.5-0.2
		C-273.3,566.4-273.7,566.6-273.9,567.2z M-273.1,584.8h-0.5c-0.1,0.4-0.4,0.9,0.2,1.1C-273.7,585.1-273.1,585.3-273.1,584.8z
		 M-269.5,568c-0.6-0.3-1.5,0.3-1.9,0.8c-0.6,0.2-0.2-0.7-0.6-0.8c-0.3,0.6,0,0.9-0.2,1.7c-0.6-0.1-0.7-0.3-1.3,0
		c0.4-0.4,0.2-1.5,0.5-2c-0.3-0.1-0.4,0.2-0.6,0.2c-0.2,1.2-0.2,2.4,0.3,3.6c0.6-0.6,0-1.1,0.2-1.5c0.6-0.2,0.8,0.1,1.1,0.2
		c0.2-0.4,0.6-0.7,0.6-1.2c1.3,0.4,2.3,0,1.4-0.2C-270.2,568.4-270.2,567.9-269.5,568z M-272.6,565.1c0.6,0.1,0.9-0.2,1-0.5
		c-0.2-0.1-0.3-0.2-0.3-0.6c0.6-0.2,0.8-1.5,1.7-1c-0.1-0.4-0.2-0.6-0.6-0.6c-0.1,0.8-1.2,0.5-1.7,0.8c-0.1,0.6,0.3,0.6,0,0.8
		c-0.3-0.1-0.5-0.4-0.8-0.2C-273.5,564.7-272.3,564.1-272.6,565.1z M-272.8,572.2c0,0.6,0.9,0.2,1,0.6c0.2-0.5,0.5-1,0.6-1.5
		c-0.2,0-0.2-0.2-0.5-0.2c-0.1,0.6-0.2,0.7-0.3,1.1C-272.4,572.4-272.3,572-272.8,572.2z M-271.8,578.2c-0.2-0.2-0.4-0.2-0.8-0.2
		C-272.9,578.5-271.7,578.5-271.8,578.2z M-272.5,560.7c0-0.2,0.4-0.2,0.3-0.5C-272.5,560-272.9,560.6-272.5,560.7z M-272,571.2
		c0.1-0.5-0.3-0.4-0.6-0.5C-272.6,571.1-272.4,571.2-272,571.2z M-272.1,580.4h-0.3c0,0.2-0.1,0.2-0.2,0.3c0.2,0,0.4,0.1,0.5,0.2
		V580.4z M-272.5,559.9h0.3v-0.3h-0.3V559.9z M-271.6,565.8c0,0.2-0.2,0.2-0.3,0.5c0.3,0.1,0.4,0.3,0.8,0.3
		C-271.1,566.1-271.3,565.9-271.6,565.8z M-271.8,562.4c0-0.4,0.8,0.1,0.5-0.5C-271.6,561.9-272.1,562.4-271.8,562.4z M-271.1,584.2
		c-0.3,0.1-0.6,0.2-0.7,0.4c0.1,0.2,0.2,0.5,0.4,0.7C-271.3,585-271.2,584.6-271.1,584.2z M-270.8,564.6c-0.2-0.2-0.6-0.2-0.7,0.2
		C-271.2,565-270.8,565-270.8,564.6z M-270.9,576.6c-0.2-0.3,0.2-1.1-0.2-1.1c0,0.2-0.2,0.1-0.3,0.3
		C-271.1,575.9-271.5,576.7-270.9,576.6z M-270.8,570.2v-0.5c-0.2,0-0.5-0.1-0.6,0.2C-271,569.9-271.2,570.3-270.8,570.2z
		 M-271.2,561.5c0.6,0.5,0.6-0.5,1.2-0.5c0.2,0.2,0.1,0.8,0.5,0.8c0.2-0.4,0.2-1,0.5-1.3c-0.5-0.1-0.2-0.9-1-0.6
		c-0.1,0.4,0.2,0.3,0.2,0.8C-270.4,560.7-270.7,561.1-271.2,561.5z M-270.6,573.8c-0.2,0.2-0.7,1.4,0,1.4
		C-271.1,574.4-270.2,574.3-270.6,573.8z M-269.5,571.5c-0.6-0.5-1,0.4-1.5,0.5c0.1,0.3-0.2,1,0.2,1
		C-270.3,572.5-270.1,571.4-269.5,571.5z M-270.8,550h0.5c-0.1-0.2,0-0.5-0.2-0.5C-270.5,549.7-270.8,549.7-270.8,550z
		 M-270.5,581.6l-0.2,0.2c0.1,0.2,0.1,0.3,0.1,0.5C-270.6,582.1-270.5,581.9-270.5,581.6z M-269.9,557c-0.5-0.1-0.5,0.3-0.5,0.6
		C-269.9,557.8-270.3,557.2-269.9,557z M-270.4,558.5c0.4,0.1,0.5-0.2,0.5-0.6C-270.5,557.7-270.2,558.4-270.4,558.5z M-269.6,555.1
		c-0.4-0.2,0.4-1.1-0.5-1C-270.4,554.7-269.9,555.5-269.6,555.1z M-269.5,563.3c-0.6,0-0.2,0.9-0.6,1
		C-269.7,564.1-269.5,563.8-269.5,563.3z M-269.8,545.9c0.3,0.4,0.7-0.1,1-0.3C-269.1,545.2-269.5,545.7-269.8,545.9z M-269.6,562.3
		v0.5C-269.1,563-269.1,562-269.6,562.3z M-269.1,558.6c-0.1,0.2-0.2,0.3-0.2,0.7c0.5,0.1,0.8,0.2,1.3,0.3
		C-267.9,558.9-268.7,559-269.1,558.6z M-268.4,566.6c-0.2-0.1-0.4-0.4-0.7-0.7C-269.5,567.1-268.7,567.1-268.4,566.6z M-269,547.5
		c-0.1,0.2-0.2,0.3-0.2,0.6h0.6C-268.5,547.7-268.7,547.6-269,547.5z M-267.7,562.4c-0.4,0.1-0.6,0-0.8-0.2c0.2,0.6-0.6,0.2-0.5,0.6
		C-268.4,562.6-267.8,563.3-267.7,562.4z M-268.8,556.1c0,0.3,0.1,0.6,0.3,0.6C-268.4,556.3-268.6,556.1-268.8,556.1z M-268.2,564.2
		c-0.3-0.5-0.8,0.6,0,0.4V564.2z M-267.8,545.2c0.3,0.4-0.3,0.9,0.5,1c0-0.3,0.2-0.3,0.2-0.6C-267.4,545.5-267.6,545.3-267.8,545.2z
		 M-267.8,555.6h0.5c0-0.3-0.2-0.4-0.5-0.3V555.6z M-266.9,549c-0.4,0-0.6,0.2-0.8,0.5c0.4,0,0.3,0.6,0.8,0.5V549z M-267.2,556.5
		c-0.3,0-0.5,0.2-0.5,0.5C-267.2,557.1-267.4,556.7-267.2,556.5z M-265.9,553.9h-0.3v0.4h0.3V553.9z M-257.6,567.9
		c-0.2-0.3-0.5,0.2-0.8-0.3c0.2-0.5,0.4-1,0.7-1.3c-1.8-0.1-3.1,0.1-3.7,0.5l-1.2,0.5c-1.7,1.1-1.9,4,0.7,4.5
		C-260.1,570.8-259.1,570.1-257.6,567.9z M-254,562.1h-0.6C-254.8,562.8-253.9,562.8-254,562.1z M-254.5,560h0.6
		c0-0.5-0.4-0.6-0.6-0.9C-254.5,559.6-254.3,559.7-254.5,560z M-253,561h-0.8C-254,561.6-253,561.6-253,561z M-253.2,567.5
		c-0.4,0-0.6,0.2-0.6,0.6h0.6V567.5z M-253.2,549c0.3,0.2,0.8,0,1-0.4C-252.7,548.6-253,548.7-253.2,549z M-251.9,553.5
		c-0.6-0.2,0.1,1-0.6,0.7c-0.4-0.1-0.2-0.7-0.5-0.9c-0.2,1.1,1.5,1.8,0,2.2c0.2,0.2,0.7,0.2,1.1,0.2
		C-252.1,555.1-252.1,554.2-251.9,553.5z M-251.3,564.8c0,0.3-0.4,0.2-0.3,0.6C-251.2,565.5-250.9,564.8-251.3,564.8z M-251.4,557.8
		h0.6C-250.6,557.2-251.5,557.2-251.4,557.8z M-249.9,561.1c-0.3,0-0.6-0.1-0.7-0.2C-250.7,561.6-250,561.6-249.9,561.1z
		 M-249.4,554.6c-0.6-0.1-0.2-1.1-0.9-0.9C-250.4,554.4-249.8,555-249.4,554.6z M-249.6,555.7c-0.4-0.1-1.1,0.4-0.5,0.6
		C-250,556.1-249.6,556.1-249.6,555.7z"/>
	<path class="st0" d="M-216.3,564.8c-0.1,0.3-0.1,0.6-0.2,1c-1.9,0.7-3.3,0.8-5.5,1c-0.5,0.1-0.4-0.5-0.8-0.5
		c0.4,1.1-0.8,1.9-1.6,2.3c0.2,1.9-1.4,1.9-1.6,3.3h-0.6c-1,1.2-2.2,2.2-3.6,2.9c-1.4-0.3-1.8,0.5-3.5,0.2c-0.4-0.5-0.9-0.8-1.5-1.1
		c0.1-1-0.7-1.1-1.1-1.5c-0.2-0.6,0.1-1.2,0-1.8c-0.1-0.2-0.4-0.6-0.3-0.8c0.2-3.8,4.5-5.8,7.8-4.6c0.4,0.1,1.2-0.6,0.8-0.9
		c0.6-0.6,0.4-2.1,0.8-3.2c0.6-0.2,1-5.5,1.5-6.2c-0.1-0.2-0.2,0-0.2,0.2c-0.6-0.5-0.7-2.1-0.2-2.7c-0.4-0.6-0.2-1.5-0.3-2.1
		c-0.3-1.1-1-1.9-1.2-3c-0.8-0.2-1.5-0.6-2.1-0.5c-1.1,1.2-2.7,2-4.1,4c-1.4,2.8-2.6,5.3-3.4,8.3c-0.3,1.6-1.1,6.6-2,11.8
		c-1.5,8.7-2.7,14-3.5,15.9l-0.2-0.1c-0.6,1.6-0.6,3.7-1.9,4.7c0.6,1.4-0.9,2.1-1,3.4c-0.6,0.2-0.9,0.5-0.8,1.2
		c-0.9,0.4-1.7,0.9-2.5,1.5c-3.1,0.3-5.8-0.5-6.7-2.8c2.3-1.2,3.3-3.6,4.8-5.7v-1c1.3-2,1.4-5.4,2.8-7.4c-0.5-2.2,1.3-3.8,0.8-6
		c0.3,0,0.2-0.6,0.2-1c0.3-1.1,0.3-2.2,0.6-3.4c0.1-0.4,0.4-0.9,0.5-1.4s-0.1-1.1,0-1.6c0.3-1.9,0.7-4.4,0.8-6.2
		c0.1-1.6,0.8-3.3,1-4.9c0.2-1.7,0-3.2,0.8-4.6c-0.1-0.4-0.2-0.9-0.2-1.5c0.2-0.7,0.7-1.4,0.3-2.2c0.1-0.3,0.1-0.6,0.5-0.6
		c-1.1-2,1.6-4.9,3.5-3.4c1.5-0.8,3.2,0.4,4.3,1.1c-0.1,1.3-0.9,1.9-0.8,3.4c-0.2,0.1-0.3,0.2-0.5,0.2c0.6,1-0.1,3.2-0.3,4.6
		c0.9-0.7,1.5-1.9,1.9-3.1c0,0,3.1-5.2,7-6.6c1.5-0.3,2.8,0.1,4,0.4c0.4,0.1,0.2,0.6,0.6,0.8c0.3,0.2,0.7-0.1,1,0.2
		c0.1,0,0.7,0.6,0.8,0.8c0.3,0.3,0.4,1,0.7,1.5c0.8,1.4,1.5,1.6,1,3.3c0.5,0.2,0.5,0.9,0.8,1.3c-0.6,1.7,0.2,3.4-0.3,5.3
		c-0.2,0.4-0.5,0.9-0.5,1.3c0,0.3,0.2,0.4,0.2,0.6c-0.3,1.6-1.1,3.2-1.3,4.8c-0.3,0.2-0.5,0.5-1.1,0.3c0,0.7,0.1,1.5-0.2,2
		c2.2-0.2,3.2-0.6,5.3-1L-216.3,564.8z M-247.6,582.5c0,0.2-0.2,0.2-0.2,0.5h0.3C-247.2,582.7-247.2,582.6-247.6,582.5z M-247.5,581
		c0.3,0,0.5-0.2,0.6-0.3C-247.2,580.7-247.4,580.8-247.5,581z M-246.6,582c-0.2,0-0.6-0.6-0.7-0.2
		C-247.1,581.9-246.7,582.5-246.6,582z M-245.1,577.2c-0.9-0.4,0.6-0.8,0.5-1.5c0.2,0.1,0.4,0.2,0.5,0.3c-0.2,0.2-0.3,0.6-0.5,0.8
		c0.5,0.2,0.4-0.2,0.8-0.2c0.1,0.3-0.2,0.3-0.2,0.6h0.8c-0.4-1,0.3-1.2,0.6-1.8c-0.6-0.1-0.9,0.7-0.8-0.3c-0.6-0.1-0.9-0.3-1.6-0.2
		c-0.2,0.4-0.1,1.2-0.5,1.5c-0.5-0.2-0.8-0.3-1.1-0.5C-246.6,576.8-245.8,577.7-245.1,577.2z M-246.1,580.2h-0.3
		c0,0.2-0.2,0.2-0.2,0.3C-246.3,580.5-246,580.6-246.1,580.2z M-245.8,583.6h-0.3c0,0.2-0.2,0.2-0.2,0.3
		C-246,584-245.7,584-245.8,583.6z M-246.1,573.1c0.6,0.2,0-0.7,0.6-0.5c0.2,0.3,0.8,0.4,1.1,0.6c0.2,0.4,0.2,0.9,0.2,1.5
		c0.6,0.1,1.4-0.1,1.6,0.2c0.3-0.3,0.1-1.1,0.5-1.2c-0.7-0.2-1,1-1.6,0.3c0.2-0.6,1.2-0.2,1-1.1c-0.6,0-0.2,1-1.1,0.6
		c0-0.3,0.2-0.3,0.2-0.6c-1.1,0.1-1.6-0.6-1.8-1.5c0.2,0,0.5,0,0.5-0.2C-245.9,571.3-246.4,572.5-246.1,573.1z M-245.1,574.6
		c-0.2-0.1-0.5,0.2-0.5,0.2C-246.2,575.3-244.9,574.9-245.1,574.6z M-245.3,570.5c0.2,0,0.2,0.1,0.3,0.2c0-0.2,0.2-0.2,0.2-0.3
		c-0.2,0-0.2-0.2-0.3-0.2C-245.1,570.4-245.3,570.4-245.3,570.5z M-244.9,590h-0.3v0.3h0.3V590z M-243.8,581.5
		c-0.7,0.2-0.3-0.6-1-0.5c0,0.1-0.2,0.2-0.3,0.2c-0.2,0.6,0.2,0.6,0.2,1.3c0.6-0.5,0.6-0.5,1.1,0V581.5z M-243.6,579.7
		c0-0.9-0.4-1.2-1.3-1.8c0.6,0.6-0.5,1.8,0.3,2.1c0-0.4-0.2-1.1,0.3-1.1C-243.7,578.8-244.3,579.8-243.6,579.7z M-244.8,567.2
		c0.5,0.2,0.2-0.6,0.6-0.5c0.4-0.1,0.7,0.9,0.8,0.6c-0.4-0.6-0.1-0.8,0.2-1.5c-0.2-0.3-1-0.2-1.5-0.2
		C-244.1,566.4-244.5,566.6-244.8,567.2z M-244,584.8h-0.5c-0.1,0.4-0.4,0.9,0.2,1.1C-244.5,585.1-244,585.3-244,584.8z M-240.3,568
		c-0.6-0.3-1.5,0.3-1.9,0.8c-0.6,0.2-0.2-0.7-0.6-0.8c-0.3,0.6,0,0.9-0.2,1.7c-0.6-0.1-0.7-0.3-1.3,0c0.4-0.4,0.2-1.5,0.5-2
		c-0.3-0.1-0.4,0.2-0.6,0.2c-0.2,1.2-0.2,2.4,0.3,3.6c0.6-0.6,0-1.1,0.2-1.5c0.6-0.2,0.8,0.1,1.1,0.2c0.2-0.4,0.6-0.7,0.6-1.2
		c1.3,0.4,2.3,0,1.4-0.2C-241.1,568.4-241.1,567.9-240.3,568z M-243.5,565.1c0.6,0.1,0.9-0.2,1-0.5c-0.2-0.1-0.3-0.2-0.3-0.6
		c0.6-0.2,0.8-1.5,1.7-1c-0.1-0.4-0.2-0.6-0.6-0.6c-0.1,0.8-1.2,0.5-1.7,0.8c-0.1,0.6,0.3,0.6,0,0.8c-0.3-0.1-0.5-0.4-0.8-0.2
		C-244.4,564.7-243.2,564.1-243.5,565.1z M-243.6,572.2c0,0.6,0.9,0.2,1,0.6c0.2-0.5,0.5-1,0.6-1.5c-0.2,0-0.2-0.2-0.5-0.2
		c-0.1,0.6-0.2,0.7-0.3,1.1C-243.2,572.4-243.2,572-243.6,572.2z M-242.7,578.2c-0.2-0.2-0.4-0.2-0.8-0.2
		C-243.7,578.5-242.6,578.5-242.7,578.2z M-243.3,560.7c0-0.2,0.4-0.2,0.3-0.5C-243.3,560-243.7,560.6-243.3,560.7z M-242.8,571.2
		c0.1-0.5-0.3-0.4-0.6-0.5C-243.5,571.1-243.2,571.2-242.8,571.2z M-243,580.4h-0.3c0,0.2-0.1,0.2-0.2,0.3c0.2,0,0.4,0.1,0.5,0.2
		V580.4z M-243.3,559.9h0.3v-0.3h-0.3V559.9z M-242.5,565.8c0,0.2-0.2,0.2-0.3,0.5c0.3,0.1,0.4,0.3,0.8,0.3
		C-242,566.1-242.2,565.9-242.5,565.8z M-242.7,562.4c0-0.4,0.8,0.1,0.5-0.5C-242.5,561.9-243,562.4-242.7,562.4z M-242,584.2
		c-0.3,0.1-0.6,0.2-0.7,0.4c0.1,0.2,0.2,0.5,0.4,0.7C-242.2,585-242.1,584.6-242,584.2z M-241.6,564.6c-0.2-0.2-0.6-0.2-0.7,0.2
		C-242.1,565-241.7,565-241.6,564.6z M-241.8,576.6c-0.2-0.3,0.2-1.1-0.2-1.1c0,0.2-0.2,0.1-0.3,0.3
		C-242,575.9-242.4,576.7-241.8,576.6z M-241.6,570.2v-0.5c-0.2,0-0.5-0.1-0.6,0.2C-241.9,569.9-242,570.3-241.6,570.2z M-242,561.5
		c0.6,0.5,0.6-0.5,1.2-0.5c0.2,0.2,0.1,0.8,0.5,0.8c0.2-0.4,0.2-1,0.5-1.3c-0.5-0.1-0.2-0.9-1-0.6c-0.1,0.4,0.2,0.3,0.2,0.8
		C-241.3,560.7-241.5,561.1-242,561.5z M-241.5,573.8c-0.2,0.2-0.7,1.4,0,1.4C-242,574.4-241.1,574.3-241.5,573.8z M-240.3,571.5
		c-0.6-0.5-1,0.4-1.5,0.5c0.1,0.3-0.2,1,0.2,1C-241.1,572.5-241,571.4-240.3,571.5z M-241.6,550h0.5c-0.1-0.2,0-0.5-0.2-0.5
		C-241.4,549.7-241.6,549.7-241.6,550z M-241.4,581.6l-0.2,0.2c0.1,0.2,0.1,0.3,0.1,0.5C-241.5,582.1-241.4,581.9-241.4,581.6z
		 M-240.8,557c-0.5-0.1-0.5,0.3-0.5,0.6C-240.8,557.8-241.1,557.2-240.8,557z M-241.3,558.5c0.4,0.1,0.5-0.2,0.5-0.6
		C-241.4,557.7-241.1,558.4-241.3,558.5z M-240.5,555.1c-0.4-0.2,0.4-1.1-0.5-1C-241.2,554.7-240.8,555.5-240.5,555.1z
		 M-240.3,563.3c-0.6,0-0.2,0.9-0.6,1C-240.6,564.1-240.3,563.8-240.3,563.3z M-240.7,545.9c0.3,0.4,0.7-0.1,1-0.3
		C-240,545.2-240.3,545.7-240.7,545.9z M-240.5,562.3v0.5C-240,563-240,562-240.5,562.3z M-240,558.6c-0.1,0.2-0.2,0.3-0.2,0.7
		c0.5,0.1,0.8,0.2,1.3,0.3C-238.8,558.9-239.6,559-240,558.6z M-239.3,566.6c-0.2-0.1-0.4-0.4-0.7-0.7
		C-240.3,567.1-239.6,567.1-239.3,566.6z M-239.8,547.5c-0.1,0.2-0.2,0.3-0.2,0.6h0.6C-239.4,547.7-239.6,547.6-239.8,547.5z
		 M-238.6,562.4c-0.4,0.1-0.6,0-0.8-0.2c0.2,0.6-0.6,0.2-0.5,0.6C-239.3,562.6-238.6,563.3-238.6,562.4z M-239.7,556.1
		c0,0.3,0.1,0.6,0.3,0.6C-239.3,556.3-239.4,556.1-239.7,556.1z M-239,564.2c-0.3-0.5-0.8,0.6,0,0.4V564.2z M-238.7,545.2
		c0.3,0.4-0.3,0.9,0.5,1c0-0.3,0.2-0.3,0.2-0.6C-238.3,545.5-238.5,545.3-238.7,545.2z M-238.7,555.6h0.5c0-0.3-0.2-0.4-0.5-0.3
		V555.6z M-237.7,549c-0.4,0-0.6,0.2-0.8,0.5c0.4,0,0.3,0.6,0.8,0.5V549z M-238.1,556.5c-0.3,0-0.5,0.2-0.5,0.5
		C-238.1,557.1-238.2,556.7-238.1,556.5z M-236.8,553.9h-0.3v0.4h0.3V553.9z M-228.5,567.9c-0.2-0.3-0.5,0.2-0.8-0.3
		c0.2-0.5,0.4-1,0.7-1.3c-1.8-0.1-3.1,0.1-3.7,0.5l-1.2,0.5c-1.7,1.1-1.9,4,0.7,4.5C-230.9,570.8-230,570.1-228.5,567.9z
		 M-224.9,562.1h-0.6C-225.7,562.8-224.8,562.8-224.9,562.1z M-225.4,560h0.6c0-0.5-0.4-0.6-0.6-0.9
		C-225.4,559.6-225.1,559.7-225.4,560z M-223.9,561h-0.8C-224.9,561.6-223.8,561.6-223.9,561z M-224.1,567.5c-0.4,0-0.6,0.2-0.6,0.6
		h0.6V567.5z M-224.1,549c0.3,0.2,0.8,0,1-0.4C-223.6,548.6-223.9,548.7-224.1,549z M-222.8,553.5c-0.6-0.2,0.1,1-0.6,0.7
		c-0.4-0.1-0.2-0.7-0.5-0.9c-0.2,1.1,1.5,1.8,0,2.2c0.2,0.2,0.7,0.2,1.1,0.2C-222.9,555.1-223,554.2-222.8,553.5z M-222.1,564.8
		c0,0.3-0.4,0.2-0.3,0.6C-222,565.5-221.7,564.8-222.1,564.8z M-222.3,557.8h0.6C-221.5,557.2-222.4,557.2-222.3,557.8z
		 M-220.8,561.1c-0.3,0-0.6-0.1-0.7-0.2C-221.6,561.6-220.8,561.6-220.8,561.1z M-220.3,554.6c-0.6-0.1-0.2-1.1-0.9-0.9
		C-221.3,554.4-220.7,555-220.3,554.6z M-220.4,555.7c-0.4-0.1-1.1,0.4-0.5,0.6C-220.9,556.1-220.5,556.1-220.4,555.7z"/>
	<path class="st0" d="M-181.2,559.4c0,1-0.6,1.9-1,2.8c-0.4,0.8-1,1.5-1.3,2.3c-0.2,0.3,0,0.7-0.2,1c-0.2,0.5-0.8,0.7-1.1,1.1
		c-0.2,0.5-0.3,1.1-0.6,1.5c-0.6,0.9-2.1,2.9-2.1,2.9c-1.4,1.1-2.4,2.2-4,3.3c-1.4,1-2,2.1-3.8,2.1c-0.5,0.4-0.8,0.8-1.5,1
		c-0.2,1.2-0.3,2.3-1,3h0.1v0.2c0.2,0.5-0.2,1.1-0.5,1.5c-0.3,1-0.7,2.1-1.3,3.4l-1.1,2.1c0,0.1,0,0.1-0.1,0.2
		c-0.1,0.2-0.2,0.5-0.4,0.7c-1.5,2.8-3.5,5.7-5.5,7.1l-0.1-0.1c-2.3,1.7-5.4,3.8-9.1,2.8c-0.3-0.2-0.5-0.2-0.8-0.6
		c-0.5-0.1-0.5,0.3-1,0.2c-0.8-0.5-2.2-1.5-2.3-2.6c-0.1-0.3,0.1-0.3,0.3-0.3c-0.1-0.3-0.7-0.1-0.9-0.3c-0.8-4,0.4-5.7,1.4-8.6
		c0.2-0.1,0.3-0.2,0.6-0.2c0.6-2,2.8-2.3,4-3.8c3.2-1.6,6.8-2.8,10.4-4c0.3-0.1,0.6,0,0.8,0.2c0.7-0.6,0.3-1.5,0.5-2.3
		c0.2-0.8,0.7-1.5,0.8-2.3c0-0.6-0.6-1.5,0.3-1.9c-0.6-0.5,0-1.5,0-2.3c-1.1,1.1-1.7,2.7-2.8,3.8c-0.6,0.6-1.4,0.8-1.9,1.5
		c-0.5-0.5-0.6,0.6-1,0.2c-2.4,2.3-6.8,0.6-8.3-1.5c-0.3-0.6-1.1-2.6-1.3-3.3c-0.1-0.5-0.1-1.1-0.2-1.6c-0.1-0.3-0.3-0.6-0.3-0.8
		c-0.1-1.2,0.3-2.3,0.3-3.5c0-0.5-0.2-0.9-0.2-1.3c0.1-1.1,0.7-2.2,0.6-3.3c0-1.1,0.2-1.3,0.3-2.8c0.2-1,0.3-2.9,0.2-3.2
		c0.6-2.1,0.7-4.1,0.6-6.1c0.2-0.2,0.5-2.3,0.7-3c0.4-0.2,0.9-0.3,1-0.8h0.2c1.4-0.7,4.9-0.2,6.1,1.1c0.9,0.8,0.1,3.9-0.7,6.9
		c-0.2,1-0.6,2-0.7,2.8c-0.6,5.2-2.2,11.6-0.9,17.2c-0.2,0.2,0.6,0.7,1,1.2c4.7,0.1,5.4-4,7.8-6.1c-0.6-1.6,0.2-3.5,0.3-5.1
		c0-0.3,0.2-0.8,0.3-1.2c0.1-1.7,0.5-4.6,0.9-7.3c0.3-2.4,1.1-7.2,1.2-7.4c0.2-0.2,0.2-0.3,0.2-0.4c0.8-1.4,2.1-1.9,4.3-1.5
		c0.4-0.1,0.3,0.3,0.5,0.5c1.2-0.5,1.5,0.4,2.4,0.3c-0.5,2.3-0.7,4.9-2.1,6.2c0.2,0.2,0.4,0.3,0.5,0.7c0.2,0.6-0.4,0.6-0.5,1
		c-0.2,3.5-1.5,6.9-1.5,10.5c0,0,0,0.4-0.2,1c-1,1.1,0.6,3.9-0.8,5.1c0.1,0.6,0.2,1.2,0,1.9c-0.3,1-0.3,2.8-0.8,4.1
		c0.2,0.5,0.6-0.3,0.8,0.2c1.4-0.9,2.7-2.1,4-3.3c0.5-0.4,0.6-0.5,1.3-0.8c3.3-3.3,5.7-7.5,7.6-12.3
		C-181.8,559-181.4,559.2-181.2,559.4z M-217.7,592.1c0.1-0.5-0.2-0.6-0.3-1c-0.2,0-0.6-0.1-0.6,0.2c0.6-0.1,0.1,1.1,0.5,1.1
		C-218.1,592.3-218,592.1-217.7,592.1z M-217.8,590.8h0.3v-0.3h-0.3V590.8z M-216.4,593.7c-0.4-0.1-0.6,0-0.8,0.2
		c0-0.3-0.2-1.2-0.3-0.9c0,0.3,0,0.6-0.3,0.6c0.2,0.4,0.2,0.9,0.6,1.1C-217.1,594.1-216.3,594.3-216.4,593.7z M-217.7,589.2
		c0.6,0.1,1-0.2,1-0.6C-217,588.3-217.8,588.6-217.7,589.2z M-217.2,591.8c0.5,0.1,0.6-0.3,0.5-0.8
		C-217.2,591-217.5,591.5-217.2,591.8z M-216.7,590.8v-0.6C-217.4,590-217.4,591-216.7,590.8z M-217,588.1c0.2,0,0.2,0.1,0.3,0.2
		c0-0.3,0-0.6-0.3-0.6V588.1z M-215.3,590.2c-0.3,0-0.5-0.3-1-0.2C-216.4,590.7-215.3,590.7-215.3,590.2z M-215.7,586.7
		c0.3,0,0.4,0.2,0.6,0.2C-214.4,586.1-215.7,585.7-215.7,586.7z M-215.3,588.4h-0.3v0.3h0.3V588.4z M-214.9,565
		c0.1-0.5-0.2-0.6-0.5-0.8C-215.3,564.6-215.3,565-214.9,565z M-214.4,561.1c-0.4,0.1-0.6,0-0.9-0.2
		C-215.7,561.6-214.4,562.1-214.4,561.1z M-214.2,565.4c-1.1,0.2-0.3,1.1-0.9,1.6C-214.1,566.8-214.7,566.1-214.2,565.4z
		 M-202.7,579.8c-0.6,0.1-0.2-0.6-0.8-0.5c-2.1,1-3.6,2.4-5.6,3.5c-0.6,1.4-2,2.1-2.7,3.6c-0.4,0-1.1,2.2-1.8,2.3
		c-0.2,1.5-0.4,3-0.8,4.2c0.6,0.5,0.1,1.6-0.3,2c1.1-0.2,1,0.8,1.3,1.5c0.6-0.5,1,0.6,1.6,0.5c3.8-0.6,4.8-4.1,6.2-7
		c0-0.3,1.4-4.4,1.4-4.5c0.2-1.2,0.6-2.1,0.8-2.8C-203.2,581.6-203.7,580.3-202.7,579.8z M-213.9,585.7c0-0.4-0.2-0.6-0.6-0.5
		C-214.6,585.9-214.4,585.9-213.9,585.7z M-214.2,546.7c0.4-0.1,0.7-0.2,1-0.4c-0.6-0.2,0.4-0.4,0.2-1c-0.2,0-0.2-0.4-0.5-0.3
		C-213.1,546.2-214.4,545.6-214.2,546.7z M-211,553.9c0-0.7,0.2-1.2,0.5-1.6h-1.1c-0.6-0.8-0.3-1.3-0.8-2c0.6-0.3,0.7-0.9,0.9-1.3
		c-0.2,0.2-0.2,0.6-0.6,0.5c0-0.2,0.1-0.6-0.2-0.6c-0.3,0-0.1,0.7-0.2,1c-0.6,0.1-0.5-0.3-0.8,0c-0.2,0.6,0.5,0.5,0.3,1.1
		c-0.5,0.5-0.6,1.2-1.1,1.7c0.5,0.9,1.1-0.2,1.1-0.8c0.7,0.2,1.5,0.6,1.5,1.6c-0.8,0.2-0.6-0.7-1.3-0.6
		C-212.6,553.8-212.3,554.4-211,553.9z M-213.4,565.7c-0.1,0.2-0.2,0.4-0.3,0.6C-213.4,566.5-213.1,565.8-213.4,565.7z M-212.7,567
		c0,0.4-0.4,0.4-0.8,0.4c-0.2,0.6,0.6,0.4,0.8,0.6C-212.9,567.5-212.3,567.2-212.7,567z M-212.4,558.7l-0.5,0.1
		C-212.7,558.8-212.5,558.8-212.4,558.7z M-212.3,563.6c0.4-0.2,0.6-1.5,0-1.5C-212.2,562.4-212.7,563.6-212.3,563.6z M-211.9,557
		c-0.6-0.2-0.6,0.7,0,0.6V557z M-212.4,566c0.4,0,0.2,0.7,0.8,0.5C-211.4,565.9-212.3,565.8-212.4,566z M-212.3,544.6
		c0,0.4,0.6,0.2,0.8,0.5c-0.1,0.6-0.1,1.1,1,0.8c0-0.2,0-0.4,0.2-0.5c0.1-0.6-0.9-0.4-0.8-1.1c0.4-0.1-0.2-0.3-0.2-0.2
		C-211.3,544.8-211.8,544.9-212.3,544.6z M-212.1,584.9h0.3c0-0.2,0.2-0.2,0.2-0.5h-0.3C-211.9,584.6-212.2,584.7-212.1,584.9z
		 M-211.9,555v0.5C-211.4,555.7-211.4,554.8-211.9,555z M-209.4,555.2c-0.2-0.4,0-1.1-0.6-1.1c0.6,0.8-1.1,0.7-0.6,1.3
		C-210.6,555-209.8,555.2-209.4,555.2z M-209.6,552.1h0.5c0-0.3-0.2-0.4-0.5-0.3V552.1z M-208.5,547c0.1-0.6-0.2-0.6-0.5-0.7
		C-209,546.7-208.7,546.8-208.5,547z M-201.1,576.2c0-0.2,0-0.4-0.3-0.3c0,0.2,0,0.5,0.2,0.5C-201.3,576.3-201.3,576.2-201.1,576.2z
		 M-200.6,573c-0.2,0-0.2-0.2-0.3-0.2c0.2,0.4-0.6,0.5-0.2,0.6c0-0.2,0.2-0.2,0.5-0.2V573z M-199.3,558.8c0.1,0.5-0.5,0.3-0.3,1
		C-199.1,559.9-199.1,558.3-199.3,558.8z M-197.1,560.4c-0.9-0.1-1.1,0-1.8-0.2c0.2,0.5,0.6,0.6,1.1,0.8
		C-197.6,560.8-197.1,560.9-197.1,560.4z M-197.5,558.2c0.3,0,0.6-0.1,0.6-0.3C-197,557.6-197.5,557.7-197.5,558.2z M-197.3,561.9
		c0.2,0.2,0.4,0.2,0.8,0.2c0-0.3-0.1-0.6,0.2-0.7c0.6,0,0.9,1.1,1.5,0.5c-0.5-0.7-1.1-0.7-2.1-0.8
		C-197,561.4-197.3,561.5-197.3,561.9z M-196.8,575.2h-0.3v0.3h0.3V575.2z M-194.5,558.8c0-0.4-0.2-0.6-0.2-1.1
		c-0.8,0.5-1.9,0.3-2.3,1.6c0.7,0,0.6-0.9,1.5-0.8c0.5,0.4-0.2,0.3-0.2,0.8C-195.3,559.1-194.9,558.9-194.5,558.8z M-196.3,571.9
		c-0.1,0.3-0.7,0.1-0.5,0.7C-196.3,572.8-195.9,572.2-196.3,571.9z M-196.8,556c0,0.4,0.3,1.3,0.6,0.6
		C-196.6,556.7-196.2,555.8-196.8,556z M-196.6,549.4c0,0.8,0,1.5,0.5,1.8c0-0.4,0.6,0,0.6,0c-0.2-0.5,0.2-0.6-0.2-1
		c0.2,0.3-0.7,0.3-0.6,0c-0.2-0.5,0.9-0.6,0.3-1C-196.2,549.7-196.2,549.4-196.6,549.4z M-196,547.5c0.1,0.6,0.6,0,1.1,0.3
		C-194.9,547.2-195.8,547.4-196,547.5z M-195.3,549.7c0.6,0.2,0.6-0.6,0.2-0.6C-195.2,549.3-195.4,549.4-195.3,549.7z M-195.3,547
		h0.5c0.1-0.3-0.2-0.4-0.5-0.3V547z M-194.9,550.9c0.5,0,1.1,0.1,1.4-0.2c-0.4-0.5,0.2-1.2-0.3-1.3
		C-193.5,550.5-195.1,549.8-194.9,550.9z M-193.8,557.2c-0.4,0-0.4-0.3-0.9-0.2C-194.9,557.8-193.8,557.6-193.8,557.2z
		 M-194.4,556.9c0.1-0.2,0.2-0.2,0.2-0.6h-0.3c0,0.2-0.2,0.2-0.2,0.6H-194.4z M-194.5,548.3c0.2,0.2-0.2,1,0.2,1
		C-194.1,549-194.2,548.4-194.5,548.3z M-194,551.9c0.4-0.1,0.9,0.6,1,0.5C-193.1,552-193.7,551.4-194,551.9z M-192.7,548.1
		c-0.2,0-0.2-0.2-0.5-0.2C-193.5,548.4-192.6,548.4-192.7,548.1z M-193.2,547.2c0.2,0,0.4-0.2,0.5-0.3
		C-193,546.7-193.1,546.9-193.2,547.2z"/>
</g>
</svg>
