<?xml version="1.0" encoding="utf-8"?>
<!-- Generator: Adobe Illustrator 19.0.0, SVG Export Plug-In . SVG Version: 6.00 Build 0)  -->
<svg version="1.1" id="Layer_1" xmlns="http://www.w3.org/2000/svg" xmlns:xlink="http://www.w3.org/1999/xlink" x="0px" y="0px"
	 width="8px" height="8.2px" viewBox="0 0 8 8.2" style="enable-background:new 0 0 8 8.2;" xml:space="preserve">
<style type="text/css">
	.st0{fill:#FFFFFF;}
</style>
<path class="st0" d="M6.7,6.8C6.5,6.9,6.4,7,6.2,7.2C5.6,7,5,6.5,4.8,5.9C4.5,5.3,4.5,4.6,4.8,4C5,4,5.2,3.9,5.5,3.9
	C5.4,4.4,5.5,5,5.7,5.5C5.9,6,6.3,6.5,6.7,6.8 M3.8,6.3C3.6,5.7,3.5,5.1,3.6,4.5C3.4,4.6,3.2,4.7,2.9,4.8c-0.3,0.6-0.3,1.3,0,1.9
	C3.2,7.3,3.7,7.8,4.3,8C4.5,7.9,4.8,7.8,5,7.7C4.5,7.4,4.1,6.9,3.8,6.3 M2,7.1C1.8,6.7,1.7,6.2,1.7,5.8C1.1,6.4,0.9,7,1.1,7.5
	C1.3,8,1.9,8.2,2.8,8.2C2.4,7.9,2.2,7.5,2,7.1 M6.5,3.8c-0.1,0.4,0,0.9,0.2,1.3c0.2,0.4,0.5,0.8,0.8,1C7.9,5.5,8.1,5,8,4.5
	C7.8,4.1,7.2,3.8,6.5,3.8 M3.9,3.6c0,0,1.6-1.4,1.7-2.1c0.1-0.7-0.3-1.4-1-1.5C3.9-0.1,3.2,0.3,3.1,1C3,1.7,3.9,3.6,3.9,3.6
	 M3.3,3.9c0,0-0.7-2-1.3-2.3C1.4,1.2,0.6,1.3,0.2,1.9C-0.2,2.6,0,3.4,0.6,3.7C1.2,4.1,3.3,3.9,3.3,3.9"/>
</svg>
