<?xml version="1.0" encoding="utf-8"?>
<!-- Generator: Adobe Illustrator 19.0.0, SVG Export Plug-In . SVG Version: 6.00 Build 0)  -->
<svg version="1.1" id="Layer_1" xmlns="http://www.w3.org/2000/svg" xmlns:xlink="http://www.w3.org/1999/xlink" x="0px" y="0px"
	 width="52.3px" height="59px" viewBox="0 0 52.3 59" style="enable-background:new 0 0 52.3 59;" xml:space="preserve">
<style type="text/css">
	.st0{fill:#76C15F;}
</style>
<path class="st0" d="M38.3,57.9c2.3-4.1,2.8-8.7,1.5-13.2c-1.3-4.6-3.8-8.7-6.3-12.7c-3.1-5.1-6.7-10-11-14.2
	c-2.1-2.1-4.5-4-6.9-5.7c-0.6-0.4-1.2-0.8-1.9-1.2c-0.3-0.2-0.9-0.6-0.7-1.1c0.3-0.8,2.7,1.2,3.1,1.4c4.9,3.4,9.2,7.6,12.8,12.4
	c3.4,4.4,6.5,9.2,9.2,14.2c2,3.7,3.7,7.7,3.8,11.9c0.1,2.1-0.3,4.2-1,6.1c-0.2,0.5-0.4,1-0.6,1.5c-0.2,0.5-0.5,1.2-0.8,1.6
	C39,59.4,38,58.4,38.3,57.9C43.4,48.9,38.3,57.9,38.3,57.9"/>
<path class="st0" d="M12.6,9.7C12.1,7.1,10.1,5.4,7.9,4C6.7,3.3,5.4,2.5,4.1,2c-0.4-0.1-2.3-1-2.5-0.3C1.4,2.3,2,3,2.3,3.4
	C2.7,4,3.1,4.5,3.6,5c2.2,2,5,3.2,7.8,4c0.8,0.2,2.7,0.3,2.5,1.5c-0.1,0.6-1.9-0.1-2.3-0.2C9.6,9.7,7.6,9,5.8,8C4,7,2.3,5.7,1.1,4
	C0.6,3.2,0.2,2.3,0.1,1.4C0,1-0.2,0.2,0.3,0.1c0.4-0.2,1.1,0,1.6,0.1c3.3,0.4,6.4,2.1,8.8,4.3c1.2,1.1,2.2,2.4,2.8,3.9
	c0.2,0.4,0.8,1.7,0.4,2.1C13.5,10.8,12.7,10.1,12.6,9.7C12,6.3,12.6,9.7,12.6,9.7"/>
<path class="st0" d="M27.4,27.3c-1.2-0.9-2.1-2.1-3.1-3.3c-0.9-1.1-1.9-2-2.9-2.9c-2-1.7-4.2-3.4-6.7-4.5c-1.1-0.5-2.7-1.2-3.9-0.6
	c-1.7,0.7,1.4,3.8,1.9,4.3c2.3,2.2,5.2,3.7,8.1,4.8c1.5,0.5,3.1,1,4.7,1.4c1,0.3,2.3,0.3,2.7,1.4c0.2,0.4-0.8,0-1,0
	c-0.8-0.2-1.5-0.4-2.3-0.6c-1.5-0.4-3-0.8-4.4-1.4c-2.6-1-4.9-2.3-7.1-4.1c-1.4-1.2-2.9-2.4-3.8-3.9c-0.4-0.6-0.7-1.3-0.5-2.1
	c0.2-0.7,0.8-1.1,1.6-1.1c1.6-0.1,3.2,0.8,4.5,1.6c2.4,1.4,4.8,3.2,6.9,5.1c1.3,1.2,2.4,2.6,3.6,3.9c0.3,0.3,0.6,0.6,0.9,0.9
	c0.3,0.3,0.7,0.5,0.9,0.8C28,27.3,28,27.7,27.4,27.3C25.5,25.8,27.4,27.3,27.4,27.3"/>
<path class="st0" d="M36.7,48.9c0.3-2.4-0.8-4.8-1.9-6.9c-1.2-2.3-2.5-4.7-4.5-6.4c-0.5-0.5-1.1-0.9-1.7-1.3
	c-0.3-0.2-0.6-0.4-0.9-0.6c-0.3-0.2-0.6-0.5-0.9-0.7c-0.5-0.3-1.1-0.4-1.7-0.4c-0.3,0-0.6,0.1-0.9,0.2c-0.1,0.2-0.1,0.5-0.1,0.7
	c0.1,1,0.6,2,1,2.9c0.6,1.3,1.5,2.4,2.4,3.5c1.9,2.1,4.2,3.7,6.4,5.4c1.1,0.9,2.1,1.8,3.1,2.9c0.2,0.2,1.1,1,0.8,1.4
	C37.6,50,36.9,49.2,36.7,48.9c-1.9-2.3-4.4-4-6.7-5.8c-2.1-1.7-3.8-3.5-5.2-5.8c-0.9-1.4-2.2-3.6-1.6-5.3c0.6-1.6,2.4-1,3.5-0.3
	c1.6,0.9,3,2.1,4.3,3.4c1.4,1.3,2.6,2.8,3.5,4.5c0.6,1.2,1.1,2.5,1.7,3.7c0.5,1,1,2,1.4,3.1c0.3,1,0.6,2.3,0.3,3.2
	C37.7,50.2,36.6,49.3,36.7,48.9C37.1,45.4,36.7,48.9,36.7,48.9"/>
<path class="st0" d="M44.3,46.3c-1.4-4.5-1.1-10.1,1.6-14.1c0.7-1,1.5-1.9,2.4-2.6c0.5-0.4,1-0.7,1.5-0.9c0.6-0.3,1-0.4,1.4,0.2
	c0.6,0.8,0.9,2.1,1,3.2c0.1,1.1,0,2.1-0.2,3.2c-0.5,2.2-1.5,4.2-2.7,6c-0.6,0.9-1.2,1.9-1.8,2.8c-0.3,0.4-0.6,0.9-0.9,1.3
	c-0.2,0.3-0.5,1-0.8,1.1c-0.3,0.1-0.7-0.2-0.9-0.4c-0.3-0.4-0.1-0.7,0.1-1.1c0.6-0.9,1.2-1.7,1.8-2.6c1.2-1.8,2.5-3.7,3.3-5.8
	c1-2.4,1.2-5.1,0-7.5c0.3,0.2,0.7,0.4,1,0.6c-3.4,1.5-5.4,5-6.1,8.6c-0.3,1.8-0.4,3.7-0.1,5.6c0.1,0.9,0.4,1.7,0.6,2.6
	C45.7,47.2,44.5,46.9,44.3,46.3C42.3,40.2,44.3,46.3,44.3,46.3"/>
<path class="st0" d="M41.2,32.8c1.6-2.6,3.4-5.2,3.4-8.4c0-2-0.8-3.7-1.8-5.3c-0.3-0.4-0.8-1.4-1.4-1.5c-0.3,0-0.7,0.5-0.9,0.7
	c-0.4,0.5-0.7,1-1,1.6c-1,2.1-1.6,4.8-1.2,7.2c0.2,1.2,0.7,2.4,1.4,3.5c0.6,1.1,1.4,2.1,2.1,3.1c0.4,0.5-0.2,0.4-0.5,0.2
	c-0.5-0.3-0.8-1-1.2-1.5c-0.8-1-1.4-2.1-2-3.3c-0.8-1.8-1.3-3.7-0.9-5.6c0.3-1.6,0.7-3.2,1.3-4.7c0.3-0.8,1.2-2.9,2.4-2.3
	c1,0.5,1.9,1.4,2.5,2.3c0.7,1,1.3,2.1,1.7,3.2c0.9,2.4,0.6,5-0.3,7.3c-0.5,1.2-1.1,2.3-1.8,3.4c-0.1,0.2-0.6,1.3-0.9,1.3
	c-0.3,0-0.7-0.4-0.9-0.7C41.2,33.1,41.1,32.9,41.2,32.8C42.7,30.4,41.2,32.8,41.2,32.8"/>
<path class="st0" d="M30.2,18.9c1.3-2.2,1.5-4.8,0.7-7.2c-0.4-1.3-1.2-2.6-2-3.7c-0.5-0.7-1-1.4-1.5-2c-0.4-0.4-0.9-0.9-1.6-1
	c-0.7-0.1-1.1,0.7-1.4,1.2c-0.5,0.9-0.8,1.9-0.9,2.9c-0.2,3.8,3.7,6.4,6.2,8.6c0.3,0.2,0.8,0.6,0.6,1c-0.1,0.4-0.7,0.4-1,0.2
	c-0.5-0.4-1-0.9-1.5-1.3c-0.6-0.5-1.1-0.9-1.7-1.4c-2-1.7-4.2-4-4.3-6.7c-0.1-1.2,0.4-2.4,0.9-3.5c0.4-0.9,0.9-2,1.8-2.4
	c1-0.4,2.1,0.2,2.8,0.8c0.9,0.7,1.7,1.6,2.3,2.6c1.3,1.9,2.4,4,2.8,6.2c0.2,1.2,0.2,2.4,0,3.6c-0.1,0.6-0.3,1.2-0.5,1.7
	c-0.2,0.4-0.4,1.3-0.8,1.5C30.7,20.2,29.9,19.5,30.2,18.9C31.7,16.4,30.2,18.9,30.2,18.9"/>
<path class="st0" d="M27,33.7c-0.7-0.4-0.4-1.5,0.4-1C28.2,33.1,27.8,34.2,27,33.7C26.3,33.3,27,33.7,27,33.7"/>
</svg>
