<?xml version="1.0" encoding="utf-8"?>
<!-- Generator: Adobe Illustrator 19.0.0, SVG Export Plug-In . SVG Version: 6.00 Build 0)  -->
<svg version="1.1" id="Layer_1" xmlns="http://www.w3.org/2000/svg" xmlns:xlink="http://www.w3.org/1999/xlink" x="0px" y="0px"
	 viewBox="0 0 25.7 19.3" style="enable-background:new 0 0 25.7 19.3;" xml:space="preserve">
<style type="text/css">
	.st0{fill:#BCBEC0;}
</style>
<path id="XMLID_1_" class="st0" d="M24.7,3.9H1c-0.6,0-1-0.4-1-1V1c0-0.6,0.4-1,1-1h23.7c0.6,0,1,0.4,1,1v1.9
	C25.7,3.4,25.2,3.9,24.7,3.9z"/>
<path id="XMLID_3_" class="st0" d="M24.7,11.6H1c-0.6,0-1-0.4-1-1V8.7c0-0.6,0.4-1,1-1h23.7c0.6,0,1,0.4,1,1v1.9
	C25.7,11.1,25.2,11.6,24.7,11.6z"/>
<path id="XMLID_4_" class="st0" d="M11.8,19.3H1c-0.6,0-1-0.4-1-1v-1.9c0-0.6,0.4-1,1-1h10.8c0.6,0,1,0.4,1,1v1.9
	C12.8,18.9,12.4,19.3,11.8,19.3z"/>
</svg>
