<?xml version="1.0" encoding="utf-8"?>
<!-- Generator: Adobe Illustrator 19.0.0, SVG Export Plug-In . SVG Version: 6.00 Build 0)  -->
<svg version="1.1" id="Layer_1" xmlns="http://www.w3.org/2000/svg" xmlns:xlink="http://www.w3.org/1999/xlink" x="0px" y="0px"
	 width="7px" height="8.4px" viewBox="0 0 7 8.4" style="enable-background:new 0 0 7 8.4;" xml:space="preserve">
<style type="text/css">
	.st0{fill:#FFFFFF;}
</style>
<path class="st0" d="M5.2,8.4C2.2,8.5,0,8,0,4.5c0-2.7,0.3-4.2,0.3-4.2 M4.6,6.1L6,2.5C5.8,2.4,5.6,2.2,5.3,2L4,5.2L4.6,6.1z
	 M3.4,4.1l1.1-2.6C4.2,1.4,4,1.3,3.7,1.1L2.8,3.3L3.4,4.1z M2.8,0.7C1.6,0.2,0.9,0,0.9,0l1.3,2.2L2.8,0.7z M5.2,7.1l0.6,1
	c1-1.8,1.5-3.3,0.9-4.6L5.2,7.1z"/>
</svg>
