<?xml version="1.0" encoding="utf-8"?>
<!-- Generator: Adobe Illustrator 19.0.0, SVG Export Plug-In . SVG Version: 6.00 Build 0)  -->
<svg version="1.1" id="Layer_1" xmlns="http://www.w3.org/2000/svg" xmlns:xlink="http://www.w3.org/1999/xlink" x="0px" y="0px"
	 width="45.4px" height="43.6px" viewBox="0 0 45.4 43.6" style="enable-background:new 0 0 45.4 43.6;" xml:space="preserve">
<style type="text/css">
	.st0{fill:#E28028;}
</style>
<path class="st0" d="M2.3,32.1c0.9-1.9,2.4-3.5,3.6-5.2c0.6-0.8,1.2-1.6,1.8-2.3c0.2-0.2,1.8-2.2,1.8-1c0,0.7-1.4,1.6-1.8,2.1
	c-0.8,1-1.5,2-2.3,3c-0.4,0.5-0.8,1-1.2,1.5c-0.1,0.2-0.8,0.8-0.8,1.1c0,0.3-0.6,0.9-0.7,1.2C2.5,33.3,2,32.7,2.3,32.1"/>
<path class="st0" d="M3,34.4c0.1-0.8,0.8-1.7,1.2-2.4c0.5-0.8,1-1.6,1.5-2.5c0.5-0.8,1.1-1.7,1.7-2.4C7.7,26.7,8.6,25.2,9,26
	c0.2,0.4-1.8,2.7-2.1,3c-0.5,0.5-1,1.5-1.4,2.1c-0.5,1-1.3,1.8-1.8,2.8c-0.2,0.3-0.2,0.8-0.4,1.1C3.1,35.3,2.9,34.5,3,34.4"/>
<path class="st0" d="M4.4,34.9c0.7-1.3,1.6-2.6,2.4-3.8c0.6-0.9,1.3-1.8,2-2.6c0.2-0.2,0.4-0.6,0.7-0.4c0.5,0.5-0.4,1.2-0.7,1.6
	c-0.6,0.7-1.2,1.5-1.7,2.3c-0.4,0.6-0.8,1.5-1.3,2c-0.2,0.2-1.2,1.5-1.1,1.9c0.1,0.4-0.2,0.5-0.5,0.4C3.7,36,4.3,35.2,4.4,34.9"/>
<path class="st0" d="M5.1,36.7c0.5-1.1,1.2-2.2,1.9-3.2c0.5-0.7,1-1.4,1.6-2.1c0.3-0.3,0.5-0.7,0.9-1c0.2-0.2,0.6,0,0.4,0.4
	c-0.3,0.7-1,1.4-1.5,2c-0.3,0.4-1.2,1.2-1.2,1.7c0,0.5-1,1.6-1.3,2.1c-0.2,0.3-0.3,1.1-0.5,1.3C4.9,38.4,5,36.9,5.1,36.7"/>
<path class="st0" d="M6.4,38.2C7,36.7,8,35.3,8.9,34.1c0.2-0.2,1.4-2.2,1.6-1.3c0.1,0.5-0.8,1.3-1,1.6c-0.7,0.7-1.3,2-1.9,2.9
	c-0.3,0.4-0.5,0.9-0.7,1.3c0,0.1-0.1,0.4-0.2,0.4C6.4,39.4,6.3,38.4,6.4,38.2"/>
<path class="st0" d="M18.1,40.8c0.8-1.6,1.8-3,2.9-4.4c0.5-0.7,1-1.3,1.5-1.9c0.2-0.2,0.6-0.3,0.6,0.1c0,0.4-0.6,0.9-0.8,1.2
	c-1,1.2-1.9,2.6-2.9,3.9c-0.2,0.3-0.5,0.7-0.7,1.1c-0.1,0.2-0.1,0.6-0.3,0.8C18,41.9,17.9,41,18.1,40.8"/>
<path class="st0" d="M22.3,9.2c0.8-0.6,2.2-0.6,2.2-2c0,0.1-1.2,1-1.3,1c-0.3,0.2-0.5,0.4-0.8,0.7C22.4,8.9,22,9.4,22.3,9.2"/>
<path class="st0" d="M26,14.4c-2.2-0.6-4.8-1-7.1-0.8c-0.5,0.1-2.3,0.6-2.7,0.9c-0.4,0.4-0.4-0.2-0.8-0.4c-2.2-0.9-5.1,0.3-7.1,1.5
	c-2.2,1.2-4,3.1-5.4,5.2c-0.7,1.1-1.3,2.3-1.8,3.5c-0.2,0.6-0.5,1.3-0.6,2c-0.1,0.3-0.1,1.3-0.3,1.5C-0.2,30,0.3,33.1,1.5,35
	C2,35.8,2.4,36.7,3,37.3c0.5,0.5,0.9,0.9,1.4,1.3c0.1,0.1,1,0.6,1,0.7c0,0.4,1.8,1.4,2.1,1.5c0.5,0.3,1,0.4,1.6,0.6
	c0.4,0.2,0.6,0.6,1.1,0.5c0.6-0.1,1.1,0.7,1.6,0.6c0.4,0,0.9-0.2,1.3,0.2c0.3,0.3,1.1-0.2,1.4-0.4c0.7-0.3-0.5-0.9-0.3-1.2
	c0.1-0.2,1,0.7,1.2,0.8c0.5,0.3,0.8,0.4,1.3,0.6c0.9,0.4,1.9,0.8,2.9,0.8c1,0.1,2.2,0.1,3.2-0.1c0.6-0.1,1.3-0.3,1.9-0.5
	c0.2-0.1,1-0.6,1.2-0.5c0.8,0.2,2.3-1.6,2.8-2.1c0.8-0.7,1.4-1.5,2.1-2.4c1.3-1.7,2.5-3.8,3.1-5.8c1.6-5.2,0.4-10.6-2.9-14.6
	C29.5,16,27.9,14.9,26,14.4 M7.5,38.8c-0.2,0.4-0.2,0.9-0.6,0.6c-0.4-0.3-0.7-0.6-1.1-0.8c-0.7-0.5-1.3-1-1.9-1.6
	c-0.5-0.6-0.8-1.3-1.2-1.9c-0.4-0.5-1.1-2.1-0.9-2.8c0.6-2,2.4-3.8,3.6-5.4c1.1-1.6,2.4-3.2,3.7-4.6c0.2-0.2,0.5-0.6,0.7-0.7
	c0.3-0.1,0.1-0.8-0.2-0.7c-0.6,0.1-1.1,0.9-1.5,1.4c-1.4,1.6-2.5,3.4-3.7,5.1c-0.5,0.7-1,1.3-1.5,2c-0.2,0.3-1,1.7-1.3,1.7
	c-0.1,0-0.1-0.6-0.1-0.6c-0.2-1.7,1.8-3.2,2.7-4.3C5,25,5.8,23.8,6.6,22.7C7,22.2,9,20.4,8.8,19.9c-0.4-1.1-1.9,1.4-2.1,1.7
	c-0.6,0.9-1.5,1.8-2,2.8c-0.4,0.8-1.4,1.7-1.9,2.5c-0.5,0.6-0.9,1.2-1.4,1.8c0.1-1.2,1-2.1,1.7-3c0.7-0.9,1.4-1.9,2.1-2.8
	c1.1-1.3,2.1-2.6,3.3-3.9c0.3-0.3,0.6-0.6,0.9-0.9c0.4-0.3,0-0.8-0.3-0.6c-1.1,0.6-2,2.1-2.9,3.1c-0.5,0.6-4.3,5.6-4.3,5.5
	C1.8,26,2.6,24.1,2.7,24C2.9,23.8,3,23.3,3.2,23c0.3-0.5,0.7-0.9,1.1-1.3c1-1.1,2-2.3,3.1-3.4c1.9-2,4.3-3.5,6.9-3.4
	c0.5,0,1.6-0.1,0.9,0.5c-0.6,0.6-1.2,1.2-1.6,2c-0.9,1.8-1.5,3.7-2,5.6c-0.4,1.8-0.9,3.6-0.9,5.5c0,1,0,2.1,0.1,3.1
	c0,0.2,0.3,2.4,0.3,2.4c-0.1,0.1-0.3-0.1-0.4,0.1c-0.2,0.2-0.4,0.4-0.6,0.7c-0.3,0.4-0.6,0.9-1,1.4C8.4,37.1,7.9,37.9,7.5,38.8
	 M10.4,39.8c-0.3,0.6-0.4,1.2-1.1,0.9c-0.8-0.4,1.2-2.9,1.5-3.3c0.2-0.3,0.7-0.8,0.3-1.2c-0.3-0.3-1.1,1-1.2,1.2
	c-0.3,0.4-0.6,0.9-0.9,1.4c-0.2,0.4-0.5,1.5-1,1.2c-1-0.6,2.7-4.6,3-5.6c-0.1,0.3,0.4,1.7,0.5,2.1c0.1,0.2,0.5,1.3,0.5,1.5
	c0-0.1-0.4-0.1-0.5,0c-0.1,0.1-0.2,0.3-0.3,0.4C10.9,39,10.7,39.3,10.4,39.8 M11.8,41c-0.3,0.5-0.5,0.3-1,0.2
	c-0.7-0.2,1.4-2.9,1.2-2.9c0.2,0,0.4,0.9,0.5,1c0.3,0.4,0.2,0.4-0.1,0.9C12.2,40.4,12,40.7,11.8,41 M12.6,41.3
	c-0.1,0.1-0.2,0.2-0.4,0.2c0-0.3,0.8-1.3,1-1.2C13.9,40.7,13.1,41,12.6,41.3 M32.5,22.6c0.9,2.8,0.8,5.7,0,8.6
	c-0.5,1.7-1.5,3.5-2.5,4.9c-0.5,0.8-1.1,1.7-1.8,2.3c-0.5,0.4-0.9,0.9-1.4,1.3c-0.2,0.2-0.8,0.9-1.1,0.9c0.3,0,1.5-1.9,1.3-2.3
	c-0.2-0.4-0.9,0.8-1.1,1c-0.6,0.8-1.2,1.9-2.1,2.2c-0.3,0.1-1.4,0.6-1.6,0.4c-0.1-0.1,2.6-3.5,2.8-3.7c0.2-0.3,1-1.2,0.4-1.5
	c-0.4-0.2-0.6,0.6-0.8,0.9c-0.7,1.4-2,2.5-2.9,3.8c-0.3,0.4-0.4,0.7-0.8,0.7c-0.1,0-0.9-0.2-0.9-0.1c0-0.8,1.2-1.4,1.3-2.1
	c0-0.3,0.7-1,0.8-1.2c0.4-0.5,0.7-1,1.1-1.5c0.4-0.6,0.8-1.2,1.3-1.7c0.2-0.2,0.7-0.7,0.7-1c0-0.8-0.7-0.2-0.9,0.1
	c-0.4,0.6-0.7,1.1-1.1,1.6c-1.1,1.4-1.9,2.8-2.9,4.3c-0.2,0.4-0.4,0.7-0.6,1.1c-0.3,0.7-0.6,0.6-1.3,0.5c-0.2,0-1.9-0.5-1.9-0.7
	c0-0.4,0.7-1.2,0.9-1.5c0.2-0.3,0.4-0.8,0.7-1c0.3-0.2,1.5-1.8,1.5-2.2c0-0.4,0.9-1.1,1.1-1.4c0.3-0.4,0.6-0.7,0.9-1.1
	c0.2-0.3-0.1-0.7-0.4-0.4c-0.2,0.2-0.5,0.5-0.7,0.8c-1,1.3-2,2.7-2.9,4.1c-0.4,0.6-0.8,1.1-1.1,1.7c-0.2,0.3-0.4,0.9-0.8,0.7
	c-0.1,0-0.5-0.3-0.5-0.4c-0.2-0.5,1-1.9,1.3-2.3c0.3-0.5,0.6-0.9,1-1.4c0.1-0.2,0.7-0.7,0.7-1c0-0.3,0.5-0.7,0.7-0.9
	c0.4-0.4,0.7-0.9,1-1.3c0.2-0.2,0.8-0.8,0.4-1.1c-0.1-0.1-0.2-0.1-0.3,0c-0.4,0.3-1.7,1.6-1.7,2.1c0,0.6-1.1,1.1-1.1,1.7
	c0,0.4-1,1.5-1.2,1.8c-0.4,0.6-0.8,1.3-1.2,2c-2-1.2,6.3-8.6,5.7-9.4c-0.5-0.7-3.5,3.6-3.9,4.2c-0.2,0.4-1.7,2.3-1.5,2.5
	c0,0-1,1.4-1,1.4c-0.3,0,1-2.2,1.1-2.4c0.5-0.7,0.9-1.4,1.3-2.1c1.5-2.1,3.1-4,4.6-6c0.2-0.2,0.3-1-0.2-0.7c-0.6,0.3-1,1.2-1.4,1.7
	c-0.5,0.7-1.1,1.3-1.6,2c-0.8,1.1-1.5,2.2-2.2,3.3c-0.4,0.6-0.8,1.2-1.2,1.8c-0.1,0.2-0.9,2-1.1,2c-0.1,0-0.5-1-0.4-1.1
	c0.2-0.4,0.5-0.9,0.8-1.3c0.5-0.7,0.9-1.4,1.3-2.1c1.3-2.1,2.7-4.1,4.1-6c0,0,2.1-2.3,1.2-2.3c-0.7,0-1.8,2.1-2.1,2.6
	c-0.9,1.2-1.6,2.4-2.4,3.6c-0.5,0.8-1.1,1.7-1.3,2.6c0-0.1-0.4,0.2-0.4,0.4c0,0.2-0.3,0.5-0.4,0.6c-0.3,0.5-0.6,1-0.9,1.4
	c-0.5-1.9,1-3.8,2-5.3c1.2-1.9,2.5-3.8,3.9-5.5c0.2-0.3,0.8-0.9,0.1-1.1c-0.4-0.1-0.8,0.8-1,1c-0.8,1.1-1.6,2.1-2.3,3.3
	c-0.7,1.1-1.4,2.2-2,3.4c-0.3,0.6-0.7,1.4-1.1,1.9c0.2-0.2-0.3-0.9-0.1-1.3c1.1-1.7,2.2-3.5,3.4-5.1c0.6-0.9,1.3-1.7,1.8-2.6
	c0.3-0.5,1.7-2,1.4-2.5c-0.3-0.5-0.6,0.1-0.9,0.4c-0.2,0.3-1,1-1,1.4c0,0.5-0.8,1.2-1,1.5c-0.3,0.5-0.6,0.9-0.9,1.4
	c-0.5,0.8-1,1.7-1.6,2.5c-0.2,0.3-1.6,2.4-1.6,2.3c-0.3-1.1,0.4-2.3,0.9-3.1c0.7-1.1,1.5-2.3,2.3-3.4c0.4-0.7,0.9-1.3,1.4-2
	c0.3-0.4,1.4-1.6,1.3-2.2c-0.1-0.9-1.6,1.4-1.8,1.6c-0.6,0.8-1.1,1.7-1.7,2.6c-0.4,0.6-0.8,1.3-1.2,2c-0.1,0.2-1.2,1.9-1.2,1.9
	c-0.2-0.8,1.1-2.3,1.4-2.9c0.5-0.8,0.9-1.6,1.4-2.3c0.7-1.1,1.5-2.3,2.4-3.2c0.2-0.2,0.9-0.9,0.6-1.3c-0.2-0.3-0.6,0.1-0.7,0.3
	c-1.2,1.2-2.2,2.8-3.1,4.3c-0.6,1.1-1.1,2.5-1.9,3.4c-0.1-0.8,0.1-1.7,0.4-2.4c0.3-0.7,0.9-1.2,1.1-1.8c0.7-1.7,2-3.3,2.9-4.8
	c0.2-0.3,1.4-1.9,0.4-1.8c-0.3,0-1,1.5-1.2,1.8c-0.3,0.6-3.3,5.3-3.1,5.6c-0.1-0.2,0.3-1.5,0.3-1.7c0.2-0.8,0.4-1.6,0.6-2.4
	c0.2-0.6,0.5-1.4,0.8-1.9c0.4-0.8,0.8-1.5,1.5-2.1c0.2-0.2,0.4-0.5,0.6-0.6c0.5-0.3,1-0.2,1.5-0.5c1.1-0.6,2.1-0.6,3.3-0.5
	c1.1,0.1,2.3,0.1,3.5,0.3c0.8,0.2,1.8,0.3,2.5,0.8c0.5,0.3,0.9,0.5,1.3,0.8c0.2,0.2,0.6,0.8,0.9,0.8c0.4,0,1.5,2.1,1.7,2.4
	C31.9,21.1,32.2,21.8,32.5,22.6"/>
<path class="st0" d="M44.9,9.7c-0.2,0.1-0.7,0.1-0.9,0.1c-1.8,0-3.6-0.2-5.4-0.4c-2-0.2-4.2,0-6.1-0.2c0.3,0.1,1-0.7,1.4-0.9
	c0.6-0.4,1.3-0.7,1.9-1.1c1.2-0.8,2.4-1.8,3.4-2.9c0.5-0.6,3.8-3,2.8-4c-0.8-0.8-1.1-0.1-2,0.2c-0.7,0.2-1.3,0.4-2,0.6
	c-2.1,0.4-4.1,0.8-6.2,1.4c-1.8,0.5-3.6,0.9-5.3,1.9c-1.6,1-3.2,1.9-4.6,3.3c-0.5,0.5-1,1.1-1.4,1.7c-0.2,0.3-0.6,1.5-1.1,1.5
	c-0.3,0,0.4,1.2,0.5,1.2c0.3,0.3,0.8,0.3,1.1,0.3c0.3,0,1-0.1,1.2,0.2c0.3,0.4,0.5,0.6,1,0.7c1.8,0.6,3.7,1.2,5.6,1.3
	c2.1,0.1,4.4,0,6.4-0.4c1.5-0.2,3.2-0.6,4.7-1.2c0.8-0.3,1.7-0.6,2.6-0.9c0.4-0.1,0.8-0.3,1.2-0.4c0.4-0.1,0.8,0,1.1-0.1
	C45.7,11.3,45.4,9.5,44.9,9.7 M34.8,10.8c0,0,0.9-1,0.9-0.5c0,0.3-0.5,0.4-0.4,0.8c0.1,0.3,0.4,0.3,0.5,0.1c0-0.1,0.5-0.2,0.6-0.2
	c-0.2,0.7-1.3,0.5-1.7,0.5c0,0-0.7,0-0.7,0C33.9,11.3,34.6,11,34.8,10.8 M33.9,10.3c0,0.1-0.6,0.7-0.7,0.7c-0.2,0,0.4,0.6,0.4,0.6
	c0,0.1-0.8,0.1-0.8,0.1c-0.1,0-0.7,0.1-0.8,0C31.9,11.4,33.9,10.3,33.9,10.3 M34.4,3.3c0.2,0.2-1,0.8-1.1,0.8c0,0-0.7,0.4-0.8,0.3
	C32.1,4,34,2.8,34.4,3.3 M30.7,4.5C30.5,4,31.5,3.7,32,3.7c0,0-0.6,1.2-0.9,1.3c-0.4,0.3-0.9,0.4-1.3,0.6
	C29.7,5.7,30.7,4.6,30.7,4.5 M28.8,4.8c0.1-0.4,1-0.2,1-0.4c-0.2,0.4-0.6,0.7-0.8,1.1c-0.2,0.3-0.3,0.7-0.6,0.9
	c-0.1,0-0.2,0.1-0.3,0.1C28.3,6.3,28.7,5,28.8,4.8 M27.9,5.2c0,0.1,0,0.2-0.1,0.2C27.6,5.4,27.8,5.1,27.9,5.2 M27.6,5.8
	c-0.4-0.1,0,1-0.7,1.3C26.9,7.1,26.5,5.5,27.6,5.8 M25.4,7.1c0.2-0.3,0.3-0.6,0.6-0.8c0,0,0.5-0.4,0.5-0.2c-0.1,0.4-0.4,0.7-0.5,1.1
	c0,0.1,0,0.3,0,0.3C25.8,7.7,25.3,7.9,25,8C24.6,8,25.3,7.2,25.4,7.1 M22,11.1c0,0-0.6,0-0.6,0c0-0.4,2.3-1.2,2.7-1.3
	c0.5-0.2,1-0.4,1.5-0.7c1.6-0.9,3.4-1.4,5-2.4c0.4-0.3,1.5-0.8,2-0.8c0.6,0,1.3-0.9,1.9-0.9c0.7,0,1.7-0.8,2.4-1.2
	c0.3-0.2,0.7-0.3,1.1-0.4c0,0,0.6-0.3,0.5-0.2c-2,2.5-5,4-7.8,5.4C27.9,10,25.1,11,22,11.1 M30,11.8c-0.3-0.5,1.7-1.4,2.1-1.4
	c-0.1,0.2-0.9,0.8-0.8,1.1C31.5,11.8,30.2,11.8,30,11.8 M26,11.9c0-0.3,3.4-1.2,3.6-1.2c-0.1,0-0.5,1-0.5,1
	c-0.2,0.3-1.9,0.1-2.3,0.1C26.8,11.9,26,11.9,26,11.9 M36.3,12.7c-0.4,0.1-0.8,0.2-1.2,0.2c-0.7,0.1-1.5,0.2-2.2,0.3
	c-1.6,0.1-3.4,0.3-5,0.1c0,0-0.9-0.2-0.9-0.2c0.1-0.3,2.2-0.1,2.5-0.1c0.8,0,1.6-0.1,2.3-0.1c0.8,0,1.7-0.1,2.5-0.1
	c0.8-0.1,2.3-0.6,3.1-0.2C37.2,12.3,36.4,12.7,36.3,12.7 M37.8,11.2c-0.1,0-0.2,0-0.2,0c0-0.2,0.4-0.2,0.4-0.5
	c0-0.2,0.6-0.1,0.6-0.1c0.4,0,1.9-0.1,2.2,0.2C40.6,10.7,38.2,11.1,37.8,11.2"/>
</svg>
