<?xml version="1.0" encoding="utf-8"?>
<!-- Generator: Adobe Illustrator 19.0.0, SVG Export Plug-In . SVG Version: 6.00 Build 0)  -->
<svg version="1.1" id="Layer_1" xmlns="http://www.w3.org/2000/svg" xmlns:xlink="http://www.w3.org/1999/xlink" x="0px" y="0px"
	 width="8.1px" height="10px" viewBox="0 0 8.1 10" style="enable-background:new 0 0 8.1 10;" xml:space="preserve">
<style type="text/css">
	.st0{fill:#FFFFFF;}
</style>
<path class="st0" d="M4,10c-2.2,0-4-2.1-4-4.6C0,3.9,0.6,2.7,1.5,2c0.6-0.4,1.4-0.6,2.2-0.4c0.1-0.4,0.4-1,0.9-1.5
	C4.7-0.1,5,0,5.2,0.2c0.2,0.2,0.1,0.5,0,0.6C4.9,1,4.7,1.3,4.6,1.6C5.4,1.5,6,1.7,6.6,2C7.5,2.7,8.1,4,8.1,5.4C8.1,7.9,6.3,10,4,10
	 M3.1,2.4c-0.4,0-0.7,0.1-1,0.3C1.3,3.3,0.9,4.2,0.9,5.4c0,2,1.4,3.7,3.1,3.7c1.7,0,3.1-1.6,3.1-3.7c0-1.1-0.4-2.1-1.1-2.6
	C5.6,2.4,4.9,2.4,4.2,2.6c0,0-1.4,0.9-0.8,3.6c0.1,0.2-0.1,0.5-0.3,0.5C2.9,6.8,2.7,6.7,2.6,6.4C2.1,4.4,2.6,3.1,3.1,2.4
	C3.1,2.4,3.1,2.4,3.1,2.4"/>
</svg>
