<?xml version="1.0" encoding="utf-8"?>
<!-- Generator: Adobe Illustrator 19.0.0, SVG Export Plug-In . SVG Version: 6.00 Build 0)  -->
<svg version="1.1" id="Layer_1" xmlns="http://www.w3.org/2000/svg" xmlns:xlink="http://www.w3.org/1999/xlink" x="0px" y="0px"
	 width="175.1px" height="63.2px" viewBox="-392.8 514.6 175.1 63.2" style="enable-background:new -392.8 514.6 175.1 63.2;"
	 xml:space="preserve">
<style type="text/css">
	.st0{fill:#E58C36;}
</style>
<g>
	<path class="st0" d="M-344.9,535.4c-0.1,1.6-0.6,3.1-0.8,4.8c-0.1,0.6-1,0.7-1.4,1.1l-0.2,0.2c-0.1,0.1-0.2,0.2-0.2,0.2l-0.2,0.2
		c-0.6,0.7-1.4,1.5-2.3,1.9c-1.4,0.7-1.5,2.6-2.8,3.4c-1.5,1-2.8,1.7-4.3,2.6c-0.2,0.1-0.3,0.2-0.5,0.2c-3.9,2.1-8.2,3.5-11.8,3.5
		v1.1c0.1,1.5,0.2,3.9,0.2,6.3v0.5c0.1,0.8-0.1,1.5-0.2,2.2c-0.4,1.5,0.5,2.2,0.3,3.4c-0.1,0.7-0.3,1.5-0.2,2.5
		c0,0.1-0.1,0.2-0.1,0.4c-0.3,1.5-0.8,2.8-1.7,4c-0.1,0.2-0.2,0.2-0.2,0.3c-0.4,0.6-0.9,1.1-1.5,1.5c-1.7,1.5-4,2.3-7.2,1.9
		c-3.6-0.3-6.6-1.7-8.8-3.6c-0.2-0.1-0.2-0.2-0.3-0.3c-2.9-2.1-2.9-6-3.6-9.4v-0.3c0.6-5.3,5.7-4.9,5.7-4.9s-0.2,1-0.3,2.3
		c0,0.2-0.1,0.3-0.1,0.5c-0.6,4.3,0.7,10.5,5.1,12.1c0.2,0,0.2,0.1,0.3,0.1c0.4,0.2,0.9,0.3,1.4,0.4c3.2,0.6,4.2-2.2,4.4-6.4v-0.3
		c0-2.1,0.2-4.3,0-6.6c0-0.8-0.2-1.7-0.2-2.5v-0.3c0-0.1,0-0.2,0-0.3c-0.2-2-0.2-4-0.2-5.9c0-1.5-0.1-2.9-0.1-4.4v-0.3
		c0-0.4,0.2-0.8,0.2-1.3c0.2-3.4-0.8-6.6,0-10.1c0.5-2.1,0.3-4.4-0.3-6.6c-0.4-1.3,0.6-2.4,0.7-3.7v-0.4c0.1-0.4,0.2-0.9,0.2-1.3
		c0.5-1.5,2.2-3.4,8.5-0.6c0,0-0.5,4.9-1,11.7c0,0.1,0,0.2-0.1,0.3c-0.5,2.8-0.1,5.6-0.5,8.3v0.4c-0.1,1.5-0.2,3.2-0.2,4.9
		c0.7,0,1.5-0.1,1.5-0.1c5.7-0.8,9-4.1,11.3-7.7l0.2-0.4c0.3-0.5,0.6-1,1-1.5c0-0.1,0.1-0.2,0.2-0.3l0.2-0.4
		c1.3-2.5,2.2-5.7,1.1-9.2c0-0.1,0-0.2-0.1-0.2c0-0.1,0-0.2-0.1-0.2c-1.5-3.8-4.4-7.1-8.5-8.3c-0.6-0.2-1.5-0.8-2.4-1.1
		c-0.1,0-0.2-0.1-0.4-0.1c-1-0.2-1.9-0.3-2.8-0.3c-2.4-0.1-4.8,0.2-7,0.7c-2.1,0.6-4.1,1.5-5.4,2.8c-0.3-1-1.2-3.9,0.2-5.9
		c0.6-0.2,1.2-0.4,1.8-0.6c0.1-0.1,0.2-0.1,0.3-0.2c6.5-1.9,13.4-1.6,19.6,0.8c1.6,0.6,3.2,2.3,5.3,2.3c0.2,0,0.6,0.2,0.6,0.4
		c0.2,0.7,0.6,1.1,1,1.5c0.1,0.1,0.2,0.2,0.2,0.2c0.7,0.7,1.5,1.5,2.1,2.2c0.1,0.2,0.2,0.3,0.2,0.4c0.8,1.4,0.9,3.1,1.9,4.2
		C-345.2,529.9-344.9,532.7-344.9,535.4z M-374.4,561.5c-0.1,0.5-0.9,0.2-0.6-0.4h-0.6c-0.1,0.6,0.2,1,0.6,1.1
		C-375.2,561.7-373.8,561.9-374.4,561.5z M-374.3,560h0.9c-0.1-0.3,0.2-1.1-0.3-0.9c0,0.2,0.1,0.4,0.2,0.5
		C-373.9,559.7-374.4,559.5-374.3,560z M-374.3,556.1h0.4v-0.3h-0.4V556.1z M-373.7,557.6c0.3,0.1,0.4-0.2,0.7-0.2
		c0-0.4-0.1-0.6-0.4-0.7C-373.5,557.1-373.9,557-373.7,557.6z M-373.7,558v0.4c0.2,0.2,0.4,0.2,0.6-0.2
		C-373.5,558.2-373.6,558.1-373.7,558z M-371.2,562.5c-0.3-0.3-0.5,0.1-0.9,0.2c-0.2-0.7-0.6-1.4-1.6-1.3v1.1c1,0.2,1.5,0.8,2.2,1.3
		C-371.3,563.5-371.7,562.9-371.2,562.5z M-373.4,555.7c0.1,0.4,0.2,0.8,0.7,0.7C-372.6,555.8-373.2,555.9-373.4,555.7z
		 M-372.8,560.8c-0.2,0.4,0.5,0.8,0.6,0.3C-372.6,561.1-372.4,560.7-372.8,560.8z M-372.4,558.9c0.8,0.2,0.8-0.7,0.2-0.7
		C-372.3,558.6-372.5,558.6-372.4,558.9z M-372.4,557.4c0.2,0.2,0.9,0.2,0.9-0.3C-372,557-372.4,557-372.4,557.4z M-370.6,556.7
		c-1-0.1-0.4-0.6-0.9-1.1c-0.1,0.4-0.7,0.3-0.6,1.1c0.6-0.3,0.6-0.1,0.9,0.4C-371.2,556.8-370.6,557-370.6,556.7z M-371.9,559.5v0.4
		h0.6C-371.4,559.5-371.5,559.4-371.9,559.5z M-370.2,560.4c-0.2,0-0.2-0.2-0.6-0.2v0.6h0.3C-370.5,560.6-370.3,560.5-370.2,560.4z
		 M-360.6,518.2c0.6-0.1,0.7,0.4,1.2,0.5C-359.3,518.1-360.5,517.5-360.6,518.2z M-359.6,517.2c-0.2,0-0.2-0.2-0.6-0.2
		C-360.4,517.6-359.5,517.6-359.6,517.2z M-358.8,518.2c0.2,0,0.2,0.1,0.4,0.2c-0.1-0.3,0-0.6-0.4-0.6V518.2z M-357.5,518.9
		c-0.2-0.1-0.3-0.3-0.7-0.2c0.2,0.6-0.6,0.2-0.4,0.7c0.3,0,0.4,0.1,0.6,0.2C-358.3,519-357.5,519.4-357.5,518.9z M-356.4,520.7
		c-0.2-1,0.2-0.6,0.9-0.6v-0.7c-0.7,0.1-1.4,0.1-2.2,0.2c0.1,0.4,0.2,0.9,0.3,1.2C-356.9,521-357,520.6-356.4,520.7z M-356.8,521.8
		c1.3,0.2,1.8-0.6,2.3-1.1c-0.3,0-0.2-0.5-0.7-0.3C-355.4,521.2-356.4,521.2-356.8,521.8z M-355.5,522.7c-0.4-0.1-0.2-0.7-0.7-0.6
		c-0.1,0.3-0.3,0.3-0.4,0.6C-356.3,522.7-355.7,523.2-355.5,522.7z M-355.4,522.9v0.2C-356.2,524.1-354.5,522.7-355.4,522.9z
		 M-354.6,521.3c0.2,0.7-0.4,0.6-0.6,1.1c0.6,0.2,0.8,0,1.7,0.2c-0.2-0.7,0.4-0.6,0.3-1.1c-0.2,0-0.4-0.1-0.6-0.2
		C-353.9,522.2-354.2,521.6-354.6,521.3z M-354.9,524c1.2,0.1,1.1,1.3,2.5,0.7c0-1-0.9-0.4-1.3-0.2c0.1-0.5-0.3-0.4-0.2-1
		c0.6-0.2,0.5,0.3,0.9,0.2c0-0.6,0.5-0.6,0.4-1.1C-353.7,522.7-354.4,523.2-354.9,524z M-353.3,526.2c-0.2,0-0.4-0.3-0.6,0
		C-353.7,526.2-353.5,526.5-353.3,526.2z M-352.1,540.1c-0.1-0.5-0.1-0.9-0.6-0.9c-0.1,0.2-0.2,0.3-0.6,0.3c0.1,0.3-0.2,1.1,0.2,1.1
		C-353.2,540.1-352.7,540.1-352.1,540.1z M-351.9,526.5c-0.3-0.1-0.8-0.9-1.1-0.5c0.7,0.2,0.1,0.2-0.2,0.5
		C-353,526.8-352,526.9-351.9,526.5z M-350.9,537.4c-0.9-0.2-2.1,0.4-1.6,1.5c0.6,0.2,0.6-0.3,1.1-0.2
		C-351.2,538.3-351.1,537.8-350.9,537.4z M-352.4,524.9c-0.1,1.1,1.1,0,1.1,0.7c0,0.3-0.5,0.2-0.4,0.6c0.8,0.7,0.5-0.8,1.3-0.6
		c0.1,0.5-0.3,0.4-0.2,0.9c1.1-0.2,0.5-1.3,1.1-1.8c-0.3-0.2-0.8-1-1.1-0.2c0.2,0,0.9,0.5,0.3,0.7
		C-351.1,524.6-351.6,525.2-352.4,524.9z M-351.7,524c0.2,0,0.2,0.3,0.4,0.3c0-0.2,0.2-0.2,0.2-0.5
		C-351.4,523.9-351.6,523.8-351.7,524z M-348.5,536.1c-0.3,0-0.2-0.4-0.2-0.7c-1.4,0.6-1.1-0.7-2.3-0.7c-0.2,0.2-0.1,0.9-0.6,1
		c0,0.6,0.6,0.5,0.4,1.3c1.1,0-0.2-1.5,1.1-1.5c0.5,0.6,0,1.2-0.2,1.7L-348.5,536.1z M-350.4,523c-0.3-0.1-0.5-0.4-0.9-0.3
		C-351.7,523.3-350.5,523.4-350.4,523z M-349,537.8c-0.3-0.1-0.5-0.4-0.9-0.4c0,0.4-0.2,0.4-0.2,0.7
		C-349.7,538.5-349.1,538.6-349,537.8z M-349.9,528.6c0.4-0.4,1,0.2,1.2-0.2C-348.8,528.1-349.9,527.7-349.9,528.6z M-349.5,525.5
		v0.6C-349,526.3-349,525.2-349.5,525.5z M-348.9,538.8h-0.6c0.1,0.6-0.2,1.5,0.4,1.5C-349.4,539.5-348.5,539.3-348.9,538.8z
		 M-347.9,536.9h0.7v-0.4c-0.2,0-0.2-0.2-0.4-0.2C-347.7,536.6-347.9,536.7-347.9,536.9z M-347.4,537.8c0.1,0.4-0.8,0.9-0.2,1.3
		C-347.5,538.8-346.7,537.7-347.4,537.8z M-346.9,535c-0.2-0.2-0.7-0.2-0.7,0.3C-347.3,535.4-346.9,535.3-346.9,535z"/>
	<path class="st0" d="M-319.6,561.3c-0.5,1.1-1.2,1-0.9,2c-0.9-0.6,0.2,0.4-0.6,0.2c0.6,0.4,0.3,0.4,0,0.9c-0.3-0.1,0-0.2,0-0.4
		c-0.5,1-1.5,2.5-1.9,2.9c-1.7,1-3.1,4.3-6.1,5.1c0.1,0.7-0.5,0.7-1.6,1.3c-0.4,0.2-0.2,0.2-0.9,0.5c-0.6,0.2-0.1,0.2-0.7,0.2
		c-0.6,0.1-1.4,0.8-1.8,0.9c-0.5,0.1-2-0.5-1.6,0.2c-0.2,0.2-1.1,0-1.9,0.2c0.7-0.9,0.1-0.2-0.4-0.9c-0.3,0-0.3,0.6,0,0.6
		c0,0.4-1-0.1-0.6-0.4c0.1,0,0.1,0,0.1-0.1c0,0.1-0.1,0.1-0.1,0.1c-0.8,0.5-3.5,0.4-3.1-0.5c-2.1,0.8-6.1-3.5-5.7-6
		c-0.5-0.8-1.1-2.8-0.6-3.9c0,0.1,0.4,0.2,0.4,0.2c0-0.2-0.3-0.4-0.4-0.6c-0.3-1.4,0.4-3.6,0.6-4.6c0.4-1.7,0.5-3.2,1.1-4.8
		c1.1-2.7,3.4-6.3,4.8-7.8c0.8-0.7,2.2-1.4,3-2c2.4-1.9,8.1-2.7,10.4,0.4c0.3,0.3,0.6,0.6,0.8,1c0,0,0.2,0.2,0.2,0.3
		c0.1,0.2,0.9,1.9,1,2.7c0.1,0.7,0,2.3,0,2.3c0,0.2-0.4,2-0.6,2c-0.6,1.6-1.7,3.2-3.2,4.4c-2.7,2.4-6.1,4.2-10,5.6
		c-0.5,3.2,0.1,4.9,0.7,6.4c0.3,0.9,1.6,1,2,1.9c1.4-0.1,2.2-0.2,3.9-0.2c2.8-1.5,6.5-2.1,8-4.8c0.7,0.2,0.7-0.4,1.1-0.5
		c0.1-1.9,2.9-2.4,2.5-4.1c0.6,0,1-1.2,1.1-2.3c0.2,0.2,0.8-1,0.9-1.2C-318.7,559.3-320.4,561.4-319.6,561.3z M-344.9,561.8
		c-0.3,0.5-1-0.3-1.1,0.2c0.3,0,0.2,0.4,0.5,0.5c-0.1-0.4,0.2-0.6,0.2,0h0.4C-344.8,562.2-344.5,562-344.9,561.8z M-341.9,567.7
		c-0.8,0.1-1.2,0-1.4,0.2C-342.9,568-342.2,568.4-341.9,567.7z M-343.1,565.9c0.1,0.1,0.9,0.6,0.9,0c-0.4-0.1,0.1-0.2,0.2-0.4
		c-0.3,0-0.5-0.2-0.7-0.2c0,0.2,0.1,0.6-0.2,0.6C-342.8,565.8-343.1,565.6-343.1,565.9z M-342.8,562.7c0.4,0,1.7-0.4,0.9-0.9
		C-342.2,562.2-342.8,562.1-342.8,562.7z M-342.2,569.5c-0.3,0.2-0.6-0.9-0.6-0.2C-342.6,569.3-342.4,570.3-342.2,569.5z
		 M-342.4,553.6c0.6,0.3,0.6-1.1,0-0.7V553.6z M-340.5,570.7c0-0.7-0.8-0.6-1.1-1c-0.1,0.3-0.3,0.5-0.2,1
		C-341.1,570.5-341,571.1-340.5,570.7z M-339.7,561.1c1.4-0.2,1.4-0.6,2.3-1.4c0.3-0.2,0.9-0.4,1.1-0.6c1.1-1,1.8-1.9,2.3-2.8
		c0.6-1,1.9-2,2.3-3c0,0.1,0.3-0.4,0.4-0.6c0.7-2-0.4-2,1.2-3.6c-1.1,0.6-0.6-2-1.4-2.8c-0.6-0.3-1.1,0.5-1.1,0
		c-0.1,0.1-0.9,0.6-1.9,0.9c-0.2,1.1-1.3,1.5-1.9,2.5c0.1-0.1-3,4.9-3.2,9.4C-339.4,558.6-339.6,559.9-339.7,561.1z M-330.2,556.7
		c-0.2,0-0.6,0.6-0.5,0.8c0.2-0.2,0.4-0.3,0.5-0.5V556.7z M-330,552.4c-0.8,0.6,1,1.2,0.2,1.8c0.8-0.1,0.9,0.8,1.9,1
		c-0.2-0.1-1.2-1.1-0.2-1.1c-0.2-0.7-0.7,0.1-1.1,0c0.5-0.5-0.6-0.6-0.2-1.6c-0.2,0-0.2,0.2-0.2,0.4C-330,552.8-330,552.6-330,552.4
		z M-329.4,555.4c-0.2,0.2-0.6,1.1,0.2,0.9c0.1-0.4-0.3-0.6,0-0.7C-329,556.4-328.8,555.4-329.4,555.4z M-329.5,550.6
		c0,0.3,0.9-0.2,1.5,0c0.2,0.6-0.4,0.2-0.4,0.2c0,0.6,0.6,1.2,0.9,1.6c0.2-0.2,0.2-0.6,0.3-0.8c-0.3-0.1-0.6-0.3-0.6-0.8
		c0.2-0.2,0.4-0.2,0.6-0.2c0.1-0.2-0.3-1-0.3-1.3c-0.2,0.6-0.4,1-1.1,0.6c0.3-0.3,0.6-1.1-0.3-1C-328.8,549.8-329.8,549-329.5,550.6
		z"/>
	<path class="st0" d="M-292.5,574.8c-0.7,0.2-1.5,0.2-2,0.6c-2.4,0.1-3.9-1-5.3-1.9c-0.1-1-1.3-1.4-1-2.2c-0.6-0.4-1.2-1.5-0.8-2.4
		c-0.7-1-0.5-2.8-0.5-4.5c-0.7,0.6-0.8,1.9-1.7,2.3c0.5,1.4-4,7.7-9.7,8.7c-1.4-0.6-2.8-0.6-3.7-1.6c-1.6-1.7-1.6-4.3-2.2-6.2
		c0-0.5,0.2-0.6,0.6-0.5c-1.9-1.7-0.1-5.1-0.5-7.3c0.6-1.4,0.5-2.5,0.9-4.4c0.6-0.2,0.2-1,0.5-1.5c0.4-1.1,1.5-2,1.6-3.5
		c0.5-0.2,0.6-0.6,1.3-0.6c0.2,0.4,0.4,0.6,0.3,1.2c0.3-0.1,0.2-0.6,0.5-0.7c-0.2-0.4-0.7-0.5-1-1c0.1-1,1.1-0.9,1.1-1.9
		c0.5-0.2,0.8-0.3,1.2-0.5c-0.2,0.9,1.1,0.8,0.5,1.6c0.1,0.4,0.4-0.8,0.8-0.2c-0.8,0.7-0.8,1.1-0.5,2.5c0.5,0.1,0.5-0.3,1-0.2
		c0.1-0.6-0.6-0.4-0.6-1c0.3-1.2,0.2-1,1.5-1c0.2-0.6-0.5-0.2-0.8-0.3c1.1-0.9,1.8,0.6,3,0.6c-0.4,1.3-1.1,2.3-1.9,3.2
		c-0.3-0.4,0.2-0.8,0-1.5c-1.4,0.4-0.2,1.7,0,2.3c-0.3,0.2-0.2,0-0.6,0c-0.2,0.5,0.6,0.1,0.3,0.6c-0.3,0.1,0,0.8-0.6,0.6
		c0,0.3,0.2,0.3,0.2,0.6c0,0.4-0.3,0.2-0.3,0.3c-0.2,0.6,0.1,1.6-0.2,2.3c-0.1,0.2-0.5,0.3-0.5,0.5c-0.1,0.5,0.4,1.4-0.3,1.8
		c-0.2,3.4-0.5,6.3-0.3,10.2c0.9,0.4,0.8,1.3,1.6,1.5c2.8,0.7,4.6-3.6,5.6-5.3c0.2-0.1,0.4-0.2,0.6-0.3c0-0.6,0.1-1.1,0.6-1.1
		c0-0.6-0.2-0.5,0-1c1.3-1.6,1.6-4.1,2.8-5.7c-0.5-0.7,0.2-1.5,0-2.5c0.3-0.4,1-0.5,1-1.3c0.2-0.4-0.7,0.2-0.6-0.3
		c-0.5-0.3,0.5-0.4,0.5-0.6c0-0.1-0.3-0.8-0.3-0.8c0-0.3,0.3-0.4,0.3-0.6c0.1-0.5-0.2-1,0-1.5c0.1-0.2,0.5-0.5,0.5-0.6
		c0-0.1-0.3-0.5-0.3-0.6c0-0.6,0.6-1.1,0.5-1.6c-0.8-0.9-2.3-1.5-3.2-1.1c-0.4-0.1-0.4-0.6-0.7-0.6c-0.4,0.6-1.5,0.6-1.9,1.3
		c-0.3,0-0.3-0.2-0.6-0.2c-0.3,0.9-1.2,1.1-1.5,2.1c-1.3,0-1.9-0.9-1.7-1.9c-0.8,0-1,0.8-1.9,0.8c0.6-1.1-0.2-2.7,1-3.3
		c0.6-0.2,0.2,0.6,0.6,0.5c0.2-0.8,0.7-1.2,1.7-1.3c0.3,0.5,0.2,1.5,0.5,2c0.8-0.6-0.2-1.4,0.2-2c1.1-0.7,1.9,0,3.6-0.2
		c0.5,0.8,2.8,0.6,2.3,1.6c0.5-0.1,1.3,0.3,1.6,0.9c0.6-0.2,0-0.4,0.2-1.1c0.6-0.2,1.1-0.6,1.3-1.3c0.6,0.4,0.8-0.4,1.2-0.5
		c1.8-0.4,2.8,1.1,4.9,1.3c0.2,0.7-0.1,1.7-0.5,2.2c-0.6,3.6-2,6.4-2.2,10.5c-0.2,0.1-0.2,0.3-0.5,0.3c0.1,3.2-0.8,5.3-0.6,8.7
		c0.2,2.9,0.7,7.1,4.1,6c1.1-0.4,3.4-3.3,4.4-4.9c0.9-1.5,1.6-3.7,2.4-5.6c0.5,0.1,0.4-0.2,0.8-0.2
		C-282.5,564.1-289.3,573.9-292.5,574.8z M-317.8,564.5c0.1-0.6,0.9-0.1,1.1-0.2c0.1-1-0.6-0.8,0-1.5c-0.9,0.3-0.8,0-0.6-0.8h-0.5
		C-318,562.5-318.2,564-317.8,564.5z M-317.2,565c-0.5-0.1-0.4,0.2-0.8,0.2C-318.1,566-317.2,565.5-317.2,565z M-316.4,566.1
		c0.2,1.3,1.6,0.6,2.8,1.1c-0.1-0.3,0.6-0.6,0-0.6c-0.5,0.7-1.2-0.7-2.1,0c0-0.4-0.4-0.2-0.3-0.7c-0.9,0.2-1.1-0.1-1.5,0.7
		C-317.1,566.9-316.8,566.2-316.4,566.1z M-316.7,554.9c-0.2,0-0.2-0.2-0.5-0.2C-317.4,555.2-316.6,555.3-316.7,554.9z
		 M-316.4,569.3c-0.1,0-0.2,0-0.3,0c0,0.2-0.2,0.2-0.2,0.5h0.5V569.3z M-316.5,553.8c0.2,0.4,0.6-0.3,0.8,0.2c0.1,0.6-0.8,1,0.3,1
		c0.2-1.1,0-1.5-0.6-1.9c0,0.2-0.2,0.2-0.5,0.2V553.8z M-316.4,556.1c0.3,0.2,0.2,1,1,0.8C-315.3,556.4-316.6,555.8-316.4,556.1z
		 M-315.5,567.6c0.2,0.6-0.6,0.2-0.8,0.6c0.5-0.2,0.4,0.2,0.8,0.2C-315.8,567.9-314.7,567.6-315.5,567.6z M-316.2,567.5
		c0.1,0,0.2,0,0.2,0.2h0.3C-315.5,567.2-316.3,567.2-316.2,567.5z M-315.5,557.3c-0.4-0.1-0.5,0.2-0.6,0.5
		C-315.8,557.8-315.5,557.7-315.5,557.3z M-315.2,559.9c-0.1-0.2-1,0.6-1,0.5c0.1,0.5,0.3,0.8,0.8,0.9
		C-315.9,560.6-315.2,559.9-315.2,559.9z M-316.2,563.2c0.2,1.5,0.1,2.3,1.5,2.6c0.6-0.4,1.1-1,1.7-1c-1.1-0.2-3,0.7-2.7-1
		c0.1,0.2,0.9,0.4,1,0c-0.1-0.3-0.7,0-0.8-0.3c-0.1-0.6,0.9-0.9,0.2-1.1C-315.8,562.5-315.6,563.2-316.2,563.2z M-315.9,559.2
		c0.6-0.2,0.8,0,1.6-0.2c0.1-0.5-0.2-0.6-0.5-0.8C-314.6,559.4-315.9,558.2-315.9,559.2z M-315.5,551.7c0,0.2,0.2,0.4,0.3,0.5
		C-315.2,551.9-315.3,551.8-315.5,551.7z M-314.9,554.8c-0.5,0.4-0.9,1.2-0.2,1.5C-315.1,555.8-314.5,555.1-314.9,554.8z
		 M-314.9,570.2c0-0.4,0.2-0.5,0.3-0.8c-0.3,0-0.2-0.4-0.6-0.3C-315,569.4-315.1,570.1-314.9,570.2z M-315.1,553.5
		c0.3,0,0.8,0.2,0.6-0.3C-315.1,553.2-315.1,553.1-315.1,553.5z M-314.4,555.6c0.3,1.1,0,1.1-0.5,1.5c0.5,0.1,0.5-0.3,1-0.2
		c0-0.4,0.1-0.6,0.2-0.8C-314.3,556.2-314.1,555.7-314.4,555.6z M-312.7,563c-1.1-0.2-0.9-1.5-2.2-1.5c0.1,0.7,0.9,0.7,0.8,1.6
		C-313.4,563-313,563.5-312.7,563z M-314.4,573.4h-0.5c0,0.2,0,0.3,0,0.5C-314.4,573.9-314.6,573.5-314.4,573.4z M-314.1,568.6
		c-0.3-0.1-0.6,0-0.6,0.3C-314.3,569-314.1,568.8-314.1,568.6z M-314.6,560.4c0.4,0,0.3,0.1,0.3-0.3
		C-314.7,560-314.6,560-314.6,560.4z M-314.3,559.9c0-0.4,0.1-0.3-0.3-0.3v0.3H-314.3z M-313.9,555.6c1-0.3,0.8-1.1,1.7-1.3
		c-0.1-0.4-0.2-0.7-0.5-1c0,0.4-0.1,0.6-0.3,0.6c-0.2-0.2-0.2-0.5-0.7-0.5C-313.8,554.4-313.9,554.3-313.9,555.6z M-313.2,560.4
		c0-0.1,0.1-0.2,0.3-0.2c0.1-0.6-0.4-0.6-1.1-0.6C-313.9,560.1-313.7,560.4-313.2,560.4z M-313.8,550.6c0.9,0.2,0.8,1.3,1.9,1.2
		c-0.2-0.7-0.6-1.3-1.1-1.7c0.2-0.2,0.3-0.4,0.6-0.5c-0.2-0.2,0-0.9-0.5-0.8C-313.3,549.4-313.9,549.6-313.8,550.6z M-312.6,570.5
		c-0.5,0.2-0.8,0.3-1.1,0.6C-313,571.2-312.6,571.1-312.6,570.5z M-312.6,571.5c-0.5-0.1-0.9,0.7-0.5,0.9
		C-313,571.9-312.4,572.2-312.6,571.5z M-312.1,552.5c-0.3-0.1-0.5-0.3-0.6-0.5c-0.2,0-0.6,0.6-0.2,0.8c0-0.2,0.2-0.3,0.5-0.3
		C-312.4,552.7-311.6,552.7-312.1,552.5z M-312.2,556.5c-0.4,0-0.3-0.1-0.3,0.3h0.3V556.5z M-312.2,561.4c-0.2,0-0.2,0-0.3,0v0.3
		c0.1,0,0.2,0,0.3,0V561.4z M-311.7,553.5c0.4,0,0.3,0.1,0.3-0.3C-311.8,553.2-311.7,553.1-311.7,553.5z M-311.4,552
		c0.3,0.1-0.1,1,0.6,0.8c0.1-0.5-0.3-0.5-0.2-1C-311.1,551.9-311.4,551.8-311.4,552z M-311.1,555.6c-0.1,0-0.2,0-0.3,0v0.3
		c0.1,0,0.2,0,0.3,0V555.6z M-310.8,550.2c0.6,0.1,1-1,0.3-1.1C-310.5,549.5-311.2,549.8-310.8,550.2z M-307.9,546.4
		c-0.6,0-0.2-1.1-0.9-1.1c-0.1,0.6,0.2,0.8,0.2,1.4C-308.3,546.7-308.1,546.6-307.9,546.4z M-307.3,547.1c0,0.2-0.6,0.6-0.2,0.8
		C-307.4,547.6-306.6,547.2-307.3,547.1z M-306.5,544.6v0.6c0.1,0,0.2,0,0.3,0C-306.2,544.5-306.1,544.6-306.5,544.6z M-305.5,546
		c0.1,0.2-0.6,0.4-0.2,0.5C-305.7,546.3-304.9,546.1-305.5,546z M-300.6,546.1c0.1,0,0.2,0,0.2,0.2h0.3
		C-299.9,545.9-300.7,545.8-300.6,546.1z M-300.1,560.4c-0.4,0-0.3-0.1-0.3,0.3C-300,560.7-300.1,560.8-300.1,560.4z M-299.4,548.5
		c0.4,0,0.8,0,1-0.2c0.1-0.4,0-0.7-0.5-0.6C-298.9,548.2-299.4,548.1-299.4,548.5z M-299.3,559.1c0.6-0.2,0.6-0.7,0-1
		c-0.4,0.4,0.2,0.3,0.2,0.8C-299.3,558.9-299.5,559-299.3,559.1z M-298.6,564.2h-0.6c-0.1,0.9,0.7,0.8,1.1,1.1
		C-297.7,564.9-298.6,564.7-298.6,564.2z M-298.3,550.9c-0.3-0.2-0.5-0.4-0.8-0.6C-299.2,550.8-298.6,551.3-298.3,550.9z
		 M-299,553.8c0.4,0,0.3,0.1,0.3-0.3C-299,553.5-299,553.4-299,553.8z M-298.2,557c-0.4,0-0.3-0.3-0.6,0
		C-298.9,557.6-298,557.6-298.2,557z M-298.6,552.3c0.4,0,0.3,0.1,0.3-0.3C-298.7,552-298.6,551.9-298.6,552.3z M-298.3,544.9
		c0.5-0.1,1-0.2,1.2-0.5C-297.7,544.3-298.2,544.5-298.3,544.9z M-297.8,553.5c-0.1,0.2-0.2,0.4-0.3,0.6
		C-297.7,554.3-297.6,553.4-297.8,553.5z M-298.2,554.9c0.3,0.5,0.6,1,1.4,1C-296.7,555.1-297.4,554.5-298.2,554.9z M-298,547.7
		c0.6,0,0.5-1.3,1.2-0.6v-0.6C-297.3,546.7-298.2,547.3-298,547.7z M-296.6,548.4c-0.2,0.6-1,0.6-1,1.5h0.8c0.1-0.6,0.5-1.1,1-1.3
		C-296.2,548.6-296.5,548.5-296.6,548.4z M-296.5,552.2h-0.6C-297.3,552.8-296.5,552.7-296.5,552.2z M-296,554.1
		c-0.3-0.6,0.3-1.3-0.3-1.5C-296,553.4-296.9,554.1-296,554.1z M-296.1,545.2c0.7,0,1.5,0.1,1.5-0.8c-0.7,0-1,0.7-1.5,0V545.2z
		 M-294.3,547.6c0.2,0,0.2,0,0.3,0v-0.3c-0.1,0-0.2,0-0.3,0V547.6z"/>
	<path class="st0" d="M-254.9,559.7c-0.1,0.1-0.2,0.2-0.5,0.2c0.1,2.4-1.8,3-2.1,5.1h-0.5c-0.5,1.2-1.1,2.3-2.3,2.8v0.6
		c-1.5,0.9-2.4,3.2-4.3,3.2c-0.2,0.3-0.3,0.8-0.8,1c-0.5,0.2-0.6-0.2-0.8-0.3c-0.2,0-0.2,0.2-0.3,0.2c-0.5,0.2,0.5,0.3,0.3,0.8
		c-0.6-0.2-0.6,0.5-1,0.6c-0.8,0.5-2.3,0.7-3.3,1.1c-0.6,0.2-1.1,0.1-1.8,0.3v-0.9c-0.4,0.4-0.5,1-1,1.2c-1.5-0.2-3.4,0.2-4.8-0.6
		c0.6-0.3,0.1-0.6,0.6-0.9c-0.1-0.2-0.2-0.3-0.5-0.3c-0.4,0-0.1,0.6-0.2,0.8c-0.6,0.3-1-0.1-1.1-0.6c-0.3,0.1-0.2,0.6-0.7,0.3
		c0.3-0.8-0.5-0.5-1.3-0.8c-0.2-1-1.5-1.1-1.5-2.4c-0.2-0.2-0.4-0.5-0.6-0.8l-0.2,0.1c-1-1.6-1.8-4.9-0.4-10.9
		c0.2-1.1,0.4-1.8,0.7-2.7c0,0,0.1-0.3,0.2-0.3c0.7-2.5,1.6-4.5,2-5.2l0.2,0.2c0.4-0.9,0.7-1.9,1.8-1.7c-0.2-0.7-0.1-0.6,0-1.4
		c0.6,0.1,0.8-1.1,1.6-0.5c0.1-0.5-0.5-0.3-0.3-1c1.9-1.3,3.3-3.2,6.6-3.2c0.2-0.2,0.7-0.2,0.8-0.6c1.1,0.2,2.2,0.4,3.3,0.6
		c1,0.7,2.2,0.8,3,1.8c0.3,0.5,0.2,1.3,1,1.5c0.2,2.3,0.9,3.2,0.3,5.6c-1.2,1.4-4,1.2-5.7,0.3c0.6-1.9,2.1-4.9,0.8-6.7
		c-3.2,0.3-4.1,2.8-5.6,4.8c-0.6,0.2-0.6-0.4-1-0.5c-0.2-0.5,0.3-0.3,0.3-0.6c-0.7-0.2-0.5,0.6-0.6,1c0,0.5,0.7,0.2,1,0.5
		c0.2,0.9-0.5,1-0.6,1.5c-0.4,0.1-0.2-0.3-0.5-0.3c-0.6,0.4,0.5,0.6,0.3,1.3c-0.7-0.1-0.9,0.4-1.1,0.9c0.2,0.5,0.2-0.4,0.7-0.2
		c-0.1,0.9-0.9,1-0.9,1.9c-0.5,0.2-0.5-0.2-0.8-0.3c-0.1,0.5,0.2,0.4,0.2,0.8c0.6,0.2,0.7-0.3,1,0c0,0.4-0.2,0.5-0.2,1
		c-1.1,0.1-1.3-0.6-1.8-1.1c-0.6,0.2,0.4,0.8-0.2,1.5c0.1,0.3,0.4,0.3,0.6,0.5c0.6,0,0.3-0.7,1.1-0.5c-0.3,2.5-1,4.9-1,6.8
		c-0.7-0.4-0.4-0.5-1.3-0.2c-0.1-0.4,0.1-0.5,0.2-0.7c-0.6-0.1-0.2,0.7-0.8,0.6v-0.7c-0.2,0.3-1,0.2-0.8-0.3
		c-0.6-0.1-0.6,0.3-1.2,0.2c-0.2-1-0.1-1.6-0.6-2.4c-0.2,0-0.2,1,0,1c-0.4,0.5-0.8-0.3-1.1-0.5c-0.1-0.8,0.6,0.2,0.6-0.3
		c-0.7-1-1.5,0.9-2.4,1.1v0.6c0.5-0.3,1.1-0.2,1-0.9c0.6,0.2,0.6,0.7,1.1,0.8c-1,0.4,0.3,1.2-0.5,1.7c0.1,0.1,0.2,0.2,0.3,0.3
		c0.2-0.6,0.6-1,0.3-1.7c0.8-0.1,0.7,0.7,1.1,1c0.6-0.2,0.6-0.2,1.2,0c0.1,0.5-0.3,0.4-0.3,0.7c0.6,0.3-0.3,1.1,0.5,1.3
		c0.5-0.2-0.5-1.1,0.5-1c-0.2,1-0.1,2.1-1.2,2.1c0.1,0.4,0,0.6-0.2,0.8c0.1,0.3,0.5,0.3,0.7,0.5c0.4-0.2-0.5-0.2-0.2-0.8
		c1.2-0.6,1-1.8,1.3-3.1c0.6,0.2,0.7,0,1.5,0c0.4,1.5,1.4,3.8,0.2,5.1c0.1,0.3,0.8,0,0.6,0.6c1.5-0.6,1.8,1.4,3.2,1.5
		c1.1-0.6,2.8,0.3,3.8-0.6c1.2,0.2,2-0.6,2.9-1.1c1,0.1,1.5-0.2,1.6-0.9c1,0.1,1.3-0.4,1.5-1.1c0.4,0,0.3-0.2,0.6,0
		c0.5-0.8,1.1-1.5,1.9-1.9c-0.1-0.5,0.2-0.4,0.2-0.8c2.1-1.7,2.9-4.6,4.3-7C-255.2,558.4-254.8,558.7-254.9,559.7z M-283.8,560.8
		h0.2c0-0.2-0.1-0.2-0.2-0.2C-283.7,560.7-283.8,560.8-283.8,560.8z M-282.5,559.9c0.2,0.7-0.6,0.6-0.5,1.3c0.2-0.4,0.9-0.3,1-0.8
		c0.5,0.3,1.3,0.6,1.9,0.3c0.4,0.4,0.2,1.2-0.2,1.5c0.5,0.5,0.8,0.1,1.2,0.6c0.4,0.2-0.2-0.7,0.3-0.6c-0.2-0.4-0.8-0.3-1-0.6
		c0.2-0.7-0.3-1.5,0.6-1.8c0.4,0.5-0.2,0.9,0,1.6c0.2,0.2,0.6,0.2,0.8,0.5c0.4-0.2-0.6-0.3-0.3-0.8c1-1-0.2-2.1,0.2-3.2
		c-0.3,0.4-0.4,1.1-1.1,1c0.1-0.6-0.2-0.6-0.6-0.8c-0.1-0.5,0.5-0.4,0.6-0.8c0.2,0.1-0.3-1.5-0.7-2.1c-0.8,0.1,0.1,1-0.8,1
		c0.5-0.6-0.6-1.7,0.2-1.9c-0.1-0.6-0.5-0.2-0.8-0.3c0,0.2-0.1,0.2-0.1,0.4c0.9,0.2-0.1,1.6,0.4,2.3c0.1,0.4-0.5,0.2-0.5,0.5
		c0.3,0.2,1.5-0.1,1.6-0.5c0.2,0.2,0.2,0.4,0.2,1c-0.6-0.1-1.1,0.2-1.8,0.3c0-0.6-0.8,1.1-0.8,1.5
		C-282.9,559.5-282.8,560-282.5,559.9z M-282.5,556.1c0.2,0.1,0.3,0.2,0.5,0.2c0.1-0.3-0.1-0.5-0.3-0.5
		C-282.5,555.8-282.5,556-282.5,556.1z M-282.5,559.5c0.5-0.5,0.5-0.7,0.5-1.4c0.6,0,1.1,0,1.3,0.3
		C-281.2,559-282,560.3-282.5,559.5z M-280.8,568.7c-0.1-0.6-0.4-2.5,0.6-2.8c0-0.4-0.1-0.9-0.3-1.1c-0.3,0.2-0.1,0.7,0,1.1
		c-1.2,0.6-1.7,1.9-1.6,3.2C-281.5,569.2-281.1,568.9-280.8,568.7z M-281.2,552.8c0.3,0,0.5,0.2,0.6,0.3c-0.1-0.4,0-0.6-0.4-0.9
		L-281.2,552.8z M-280.9,562.9c0,0.3-0.2-0.1-0.2-0.3C-281,562.3-280.8,562.7-280.9,562.9z M-280.1,559.5c0.9,0.2-0.5,1.2-0.8,0.8
		C-281.1,559.6-280.1,560-280.1,559.5z M-279.7,570.9c-0.6-0.3-0.4-1.2-1.1-1.3c0.1,0.6,0.4,1.1,0.3,1.9c0,0.4-0.8,1.1-0.2,1.3
		C-280.5,572-279.9,571.6-279.7,570.9z M-280.3,558.2h-0.5v-0.3C-280.4,557.8-280.2,557.9-280.3,558.2z M-280.3,552.1
		c0.5,0.3,0.5,1.1,1.4,1c-0.2-0.4-0.2-0.6,0.2-1c0.5-0.2,0.5,0.2,0.8,0.3c-0.1-1.3,0.7-1.6,1.8-1.8v1.3c0.6-0.1,0.6,0.3,1.1,0.2
		c0.2-0.2,0.2-0.7,0.4-1c-0.4-0.4-1.3-0.2-1.2-1.1c-0.6,0.2-0.8,0-1.6,0c0.1,0.9-0.6,1.1-1,1.5c0-0.2-0.1-0.4-0.3-0.3
		c0-0.3,0.4-0.2,0.3-0.6c-0.6-0.2-0.6-0.1-1-0.6c-0.1,0.9-0.1,1.8,0.3,2.3C-279.4,552.5-279.8,551.5-280.3,552.1z M-280.3,566.9
		c0.5,0.1,0.5-0.3,0.6-0.6C-280.3,566.1-279.9,566.8-280.3,566.9z M-280.1,559.1c0.3-0.1,0.3,0.1,0.6,0.2
		C-279.5,559.5-280.4,559.5-280.1,559.1z M-278.2,554.4c-0.2,0-0.4-0.1-0.5-0.2c0.2,0.6-1,0-0.8,0.6c0.2,0.1,0.1,0.6,0.6,0.5
		C-279,554.9-278.3,554.9-278.2,554.4z M-279.1,554.1v-0.4h-0.3v0.4H-279.1z M-279.1,564.1c0.4,0,0.5,0.2,0.5,0.7
		C-279.1,564.9-279.3,564.3-279.1,564.1z M-278.6,571.4c-0.2,0-0.2-0.4-0.5-0.3C-279.2,571.4-278.7,571.8-278.6,571.4z
		 M-278.2,562.9c-0.2,0.1-0.6,0-0.6,0.2C-278.7,563.3-278.3,563.3-278.2,562.9z M-277.3,552.4c-0.2,0.1-0.5,0-0.5,0.2
		c0.6,0.6-0.9,0.3-0.8,0.8c0.3,0.2,0.5,0.4,1,0.3C-277.8,553.1-277.1,553.2-277.3,552.4z M-277.9,571.8c-0.2,0-0.6,0-0.5,0.3
		C-278.2,572.2-278,572-277.9,571.8z M-278.1,567.1c0,0.5,0.1,1,0.6,0.8C-277.3,567.2-277.8,567.2-278.1,567.1z M-277.1,570.4h-0.8
		c-0.2,0.6,0.4,0.3,0.5,0.6c-0.1,0.3,0,0.6,0.3,0.6C-276.6,571.1-277,571.1-277.1,570.4z M-277.8,559.1c-0.2-0.3,0.5-0.6,0-0.7
		C-277.8,558.5-278.2,559-277.8,559.1z M-277.9,568.8c0.4,0.2,0.4,0.7,1,0.7C-277,569.2-277.7,568.5-277.9,568.8z M-277,563.4
		c-0.1-0.1-1-0.4-0.8,0.2C-277.4,563.3-277.2,563.8-277,563.4z M-277.8,559.4c0.4,0,0.3,0.6,0.8,0.5c-0.1-0.6,0.5-0.3,0.3-0.8
		C-277,559.2-277.6,559.1-277.8,559.4z M-276.6,561.2c-0.2-0.5-0.9-1-1.1-0.2C-277.3,560.8-277,561.8-276.6,561.2z M-277.6,566.7
		c0.5,0.1,0.6-0.2,0.8-0.5c-0.3,0-0.3-0.2-0.6-0.2C-277.5,566.3-277.7,566.4-277.6,566.7z M-277.6,549c0.6-0.2,0.8,0,1,0.3
		c0.3-0.3,0-0.4,0-0.9C-277,548.6-277.6,548.5-277.6,549z M-276.8,567.7c0.2,0.3-0.8,0.3-0.3,0.5
		C-277,568.2-276.3,567.9-276.8,567.7z M-275.5,552.9c-0.7,0.8-0.7-0.6-0.8-0.3c0,0.2-0.2,0.2-0.3,0.3c0,0.4,0.2,0.6,0.3,0.8
		C-275.9,553.7-275.3,553.1-275.5,552.9z M-275.7,573.5c-0.1-0.5-0.8-1.1-1-1C-276.2,572.8-276.4,573.6-275.7,573.5z M-276.1,554.1
		c-0.6-0.2-0.5,0.6,0,0.6V554.1z M-276.3,571.5h0.3c0-0.2,0.2-0.2,0.2-0.5h-0.5V571.5z M-276.1,548h0.5c0.1-0.2-0.2-0.3-0.5-0.3V548
		z M-275.5,569.7c0.1,0.1,0,0.1-0.2,0.2h-0.3c0-0.3,0.2-0.3,0.2-0.6C-275.7,569.4-275.7,569.7-275.5,569.7z M-274.4,572.3
		c-0.5,0.1-0.6-0.4-1.1-0.3C-275.7,572.6-274.6,572.7-274.4,572.3z M-275.5,549.8c0.5,0,0.6-0.2,0.5-0.6
		C-275.5,549-275.2,549.7-275.5,549.8z M-274.9,547.3c0.2-0.2,0.2-0.6-0.2-0.6C-275.2,546.9-275.2,547.3-274.9,547.3z M-274.3,549.2
		c-0.2-0.1-0.2-0.2-0.6-0.2v0.5h0.4C-274.4,549.4-274.4,549.3-274.3,549.2z M-273,572.5c-0.9,0.2-0.7-0.5-1.1-0.6
		c-0.1,0.6,0.2,0.7,0.2,1.3C-273.6,573-273.1,573-273,572.5z M-274,547.3c0.2,0,0.4-0.1,0.5-0.3C-273.8,547-273.9,547.2-274,547.3z
		 M-273.2,548c0.4,0.1,0.5-0.2,0.5-0.6C-273.1,547.3-273.2,547.6-273.2,548z M-271.2,572.7h-0.5v0.5h0.3
		C-271.4,573-271.1,572.9-271.2,572.7z M-271.4,546c0.1,0.7,1-1,0.2-0.2C-271.3,546-271.4,545.9-271.4,546z M-270.7,574.4
		c0-0.2,0-0.3-0.3-0.3c0.1,0.2,0,0.5,0.2,0.6C-270.9,574.5-270.8,574.4-270.7,574.4z M-268.7,544.3h0.3v-0.3h-0.3V544.3z
		 M-268.2,571.5c-0.6-0.2-0.6,0.8,0,0.6C-268.2,571.7-268,571.8-268.2,571.5z M-264.8,550.2c0.6,0.1,0.3-0.7,0.5-1h-0.5
		C-264.7,549.5-264.5,549.8-264.8,550.2z"/>
	<path class="st0" d="M-226.5,574c-1.4,1-2.8,1.5-4.2,1.5c-0.5,0-0.9,0-1.4-0.1c-2.3-0.4-3.4-1.8-4-2.8c-1.9-2.6-1.9-7.3-1.4-10.9
		c0.1-0.4,0.2-0.6,0.5-0.7c-0.7-1.8,0.5-3.7,0.5-5.5c0-1.1-0.2-3.4,0.6-4c-0.6-1.7-0.5-5.8-3.2-4.4c-2.2,1.2-3.6,3.4-5,5.7
		c-1.9,2.9-5.3,8.7-5.3,8.7c0,3.6-1.7,10.2,0.4,13.9c-10.7-0.6-6.4-16.7-5.7-26c-0.1-0.6,0.3-0.7,0.6-0.9c-0.2-0.7-0.3-1.9-0.2-3
		c0.2-1.5,1.3-8.3,2.5-9.3c-0.2-0.6-0.9-2.2,0-1.6c0.2-4,1.1-7.5,4.9-7.5c2.1,0,2.8,1.2,5.3,1.8c-0.8,3.3-1.8,6.1-2.1,8.5
		c-0.6,0.2-0.5,1.1-1.4,1.1c1.1,3.6-1.3,5.8-1.4,9.8c-0.6-0.2-0.4,0.5-0.6,0.7c0.1,0.3,0.4-0.2,0.5,0.2c0.2,0.6-0.5,0.5-0.7,0.7
		c0.9,0.3-1,3.3-0.5,4.8c0.7,0.2,0.5-0.6,1.2-0.5c-0.2-0.8,0.6-2.4,1.5-2.9c1.3-2.8,4.5-7.2,8.3-8c8.5-2,7.8,3.8,8.2,4.4
		c-0.4,0.4-0.5,2.6-0.6,3.9c-1.9,14.7-2.3,8.3-1.6,12.9c-0.6,1.4,0.4,1.5-0.9,2.1c0.2,1.1,0.6,2.1,0.5,2l0.3,1.1
		c0.1,0.1,0.2,0.7,0.2,0.6c0.2,0.6,1.3,1.9,1.5,2.2c1.1-0.7,2.7,0.6,3-0.4c0.6,0.1,1.4-1.3,1.8-1.6c1.4-2.8,2.9-5.3,4.6-7.8
		c0.1-1.7,0.2-3.4,1.8-3.6C-216.4,561.9-223.6,572.1-226.5,574z M-250.8,542.2c-0.6,0.2-0.6-0.3-1.1-0.2c-0.1,0.6,0.3,0.7,0.6,0.9
		C-251.4,542.5-251,542.5-250.8,542.2z M-249.7,537.6c-0.2,0-0.2-0.3-0.2-0.6h-0.6c0.6,0.6,0.1,0.4-0.5,1.4
		C-250.5,538.2-250,538-249.7,537.6z M-250.8,534.7c0,0.4,0.2,0.7,0.5,0.9C-250.3,535-250.4,534.7-250.8,534.7z M-249,544.7
		c0,0.3-0.3,0.6-0.5,0.2c0.1,0,0.2-0.2,0-0.2c-0.4,0.4,0.2,0.4-0.2,0.9C-249,546-248.5,544.9-249,544.7z M-248.1,541.7
		c-0.3-0.1-0.6-0.3-0.9-0.5c-0.4,0.8,0.7,0.2,0.6,0.7c-0.2,0-0.3,0.2-0.5,0.5c0.4-0.2,0.6,0.3,0.7,0
		C-248.5,542.4-248.2,541.9-248.1,541.7z M-247.8,538.1c-0.6-0.2,0.6-0.7,0.4-1.4C-249.8,536.7-248.2,539.1-247.8,538.1z
		 M-247.8,530.1c0.6,2.7,1.7,1.1,2,2.1c-0.4,0-1.1,0.2,0.5,0.2c0-0.1-0.7-3.1-1.1-3.2c-0.1,0.2-0.1,0.6-0.5,0.5
		c-0.2,0.7,0.1,0-0.5,0C-247.4,529.9-247.7,530-247.8,530.1z M-246,534c-1.2,0-1,0.3-0.4-0.5c-0.4,0-1.8,1.7,0.4,1.2V534z
		 M-245.3,530.3c0,1,0.4,0,0-0.2c0.2,0,0.4,0,0.4-0.2C-245.5,529.9-246.2,530.3-245.3,530.3z M-235.5,563.3l-0.2-0.4
		c0.4-0.4,0-0.6,0-1.1c-0.5,0.1-1,0.2-1.1,0.7c1-0.2-0.2,0.4,0.5,0.4c0.1-0.2,0.2-0.5,0.4-0.6c-0.2,0.6-0.2,0.9,0,1.5
		c-0.2-0.2-1.1-0.2-0.4,0.1c0.3,0.1,0.6,0.3,0.9,0.4C-234.3,560.4-235.5,560.8-235.5,563.3z M-233.7,559.1c-0.3-0.1-0.3-0.3-0.7-0.2
		c0.1,0.2,0,0.6,0.2,0.6C-234.2,559.2-233.8,559.4-233.7,559.1z M-233.5,562.8v0.7c0.2-0.1,0.5-0.2,0.5-0.3
		C-233.3,563.2-233.3,562.8-233.5,562.8z M-230.3,574.4c-0.2-0.2-0.4-1,0.5-1c-1.1-0.3-0.2-1.1-0.7-1.8c-0.6,0.2,0.2,0.5,0,0.9
		c-0.8-0.2-0.2,0.1-1.4-0.6c0.2,1,1.2,0.3,1.1,1.8c-0.2-0.1-0.2-0.5-0.4-0.5c-0.9-0.1-1.5-0.4-2.3-0.4c0.3,0.2,2.8,3.7,7,1.1
		C-226.3,573.8-230.1,573.5-230.3,574.4z M-233.4,563.6c0,0.5,0.2,0.2,0.2,0.1C-233.3,563.7-233.4,563.6-233.4,563.6z M-232.3,565.7
		h-0.7c-0.1,0.5,0.6,1.2,0.7,0.7C-232.7,566.3-232.3,566.1-232.3,565.7z M-233,562.9c0.5,0.7,0.1,0.6,0.9,0.2c0,0.3-0.3,0.5,0.2,0.5
		C-231.6,562.9-232.8,562.5-233,562.9z M-232.1,570.3c0.6,0.7,0.1,1.2,0.7,1.6c-0.1-0.6-0.1-1.1,0.2-1.4
		C-231.6,570.1-231.6,570.7-232.1,570.3z"/>
</g>
</svg>
