<?xml version="1.0" encoding="utf-8"?>
<!-- Generator: Adobe Illustrator 19.0.0, SVG Export Plug-In . SVG Version: 6.00 Build 0)  -->
<svg version="1.1" id="Layer_1" xmlns="http://www.w3.org/2000/svg" xmlns:xlink="http://www.w3.org/1999/xlink" x="0px" y="0px"
	 width="287.9px" height="71.2px" viewBox="-392.9 515 287.9 71.2" style="enable-background:new -392.9 515 287.9 71.2;"
	 xml:space="preserve">
<style type="text/css">
	.st0{fill:#F2CE36;}
</style>
<g>
	<path class="st0" d="M-335.5,578.6c-5.3,9.2-8.5,8.6-13.3,5.5c-0.1,0-0.2-0.1-0.3-0.2c-0.6-0.4-9.3-16.5-10-17.7l0.1,0.1
		c-0.5-0.6-0.9-1.3-1.4-2c0,0,0-0.1-0.1-0.1l0.1,0.1c0,0.1,0,0.1,0,0.2c-0.6-1-1.2-1.9-1.6-2.9l-0.2-0.4c-0.9-2-1.9-3.7-3-5.5
		c-0.1-0.1-0.2-0.2-0.2-0.2l-1-1.8c-1.1,0.2-2,0.2-2.9,0.2c-0.1,0.3,0,0.7-0.1,1.1c0.1,2,0.2,5.8,0.2,9.1v0.2
		c0.1,1.5,0.1,3.2-0.1,4.6c0,0.2-0.1,0.3-0.1,0.5c-0.2,1.8-0.9,3.6-1.9,5.1c-0.1,0.2-0.2,0.2-0.2,0.3c-0.3,0.5-0.7,1-1.2,1.3
		c-0.2,0.1-0.2,0.2-0.3,0.2c-1.6,1.4-3.8,1.5-5.8,1.7h-0.3c-0.2,0-0.5-0.1-0.8-0.1c-0.5,0-1-0.1-1.5-0.2c-0.2-0.1-0.3-0.1-0.5-0.1
		c-2.5-0.4-4.7-1.8-6.9-3l-0.2-0.3c-0.7-1-1.5-1.8-2.1-2.8c-1.1-1.5-1.4-3.2-1.6-4.9v-0.4c-0.7-7.4,5.7-6.9,5.7-6.9
		s-0.5,2.3-0.4,5.1v0.2c0.1,2.9,0.7,6.1,3,8.2l0.2,0.2c0.9,0.7,2,1.3,3.5,1.6c1.4,0.2,2.3-0.1,3-0.9c0.1-0.1,0.2-0.2,0.2-0.2
		c0.4-0.6,0.9-1.2,1-1.9c0.2-1-0.2-1.9,0.1-2.8c1.1-4.5,0-8.8,0-13.2v-0.4c-0.1-1-0.1-1.9-0.1-2.9c-0.1-3.4-0.1-7.1-0.1-10.8v-0.3
		c-0.2-1.9,0.2-3.6,0.2-5.4c0-2.2-0.2-4.3,0-6.5v-0.4c0.2-1.9,0.3-3.6,0.6-4.9c0.5-1.5,2.2-3.4,8.5-0.6c0,0-0.2,2-0.5,5.3v0.5
		c-0.1,0.2-0.1,0.2-0.1,0.4c0.1,1.8-0.2,3.5-0.4,5.3v0.5c-0.2,1.5-0.6,2.9-0.2,4.4c0.1,0.3,0.6,0.7,0.4,1.1c-1.1,1.9-1.4,4-1,6.1
		v0.5c-0.1,0.5-0.1,1-0.1,1.5h1.5c1.5-0.2,2.9-0.6,4-1.1c0.2-0.1,0.3-0.1,0.5-0.2c2.4-1.1,4.3-3.1,6.1-5.1l0.3-0.3
		c1.4-1.8,2.6-3.8,2.4-5.9c-0.1-1.2,1.1-2.3,1.2-3.6v-0.5c-0.1-2.2-0.9-4.4-2.3-6.2c-0.2-0.2-0.5,0-0.6-0.2
		c-1.4-1.7-2.3-3.7-4.5-4.5l-0.4-0.2c-1.1-0.6-2.3-1.1-3.5-1.4c-0.2-0.1-0.3-0.1-0.5-0.1c-1.1-0.2-2.1-0.4-3.2-0.4
		c-2.4-0.1-4.8,0.2-7,0.7c-2.1,0.6-4.1,1.5-5.4,2.8c-0.3-1.1-1.2-3.9,0.2-5.9c1-0.4,1.9-0.6,2.9-0.9c2.7-0.7,5.8-1.1,9-1
		c5.8,0.2,14.9,2.5,19.7,9.6c0.2,0.2,0.3,0.4,0.5,0.6c0,0.1,0.1,0.2,0.2,0.2c0.5,0.6,0.9,1.4,1.2,2.2c0.2,0.2,0.6,0.1,0.6,0.2
		c0.4,1.8,0.3,3.6,0.8,5.3c0,0.2,0,0.3,0.1,0.5c0.1,2-0.2,3.9-0.7,5.4l-0.1,0.3c-0.2,0.7-0.6,1.2-1.5,1.4c-1.2,0.2-0.6,1.9-1.1,2.8
		c-1.4,2.2-3.9,3.2-5.7,4.9c-0.2,0.1-0.3,0.2-0.4,0.2c-1,0.6-2,1.2-3,1.8c0.1,0.9,0.6,3.4,1.2,4.9c0.1,0.1,0.2,0.2,0.2,0.4
		c0.3,0.3,0.4,0.9,0.5,1.3c0.6,3,2.3,4.6,3.9,7.1c0.7,1.1,5.4,13.9,6.1,14.5c5.3,5.1,7.4,0.5,8.6-0.6
		C-335.9,576.5-335.5,578.6-335.5,578.6z M-376,574l-0.1-0.3l-0.4,0.1l0.1,0.3L-376,574z M-374.5,573.2c-0.1-0.4-0.3-0.6-0.6-0.5
		l0.1,0.6L-374.5,573.2z M-372.4,571c-0.2,0.5-0.6,0-1,0.5c0-0.4-0.3-0.4-0.5-0.5c-0.1-0.4,0.5-0.4,0.2-0.8
		c-0.8-0.1-0.8,0.6-1.4-0.3c-0.4,0.6,0.4,1.2,0.4,2C-373.9,572.4-371.9,571.9-372.4,571z M-370.4,568.6c-0.5-0.2-1-0.2-1.1-0.9
		c0.4-0.2,0.4,0.2,0.9,0c-0.1-1.1-0.9-0.1-1.3,0.1c-0.2-0.7-2-0.4-2.2,0.2c0.8-0.2,0.1,0.3-0.3,0.2c0.2,0.8,0.9,1.1,1.5,1.1
		c0.1-0.5,0.1-0.9,0.5-1.1c-0.4,1,0.6-0.3,0.8,0.4c-0.4,0.5,0.1,0.6-0.1,1C-370.9,569.6-370.4,569.3-370.4,568.6z M-374.4,532.8
		c0.2,0.2,0.4,0.8,0.7,0.3C-373.9,532.8-374.1,532.7-374.4,532.8z M-374.1,531.6l0.4,0.4c0.3-0.2,0.5-0.6,0.3-0.8
		C-373.6,531.4-373.8,531.3-374.1,531.6z M-372.9,530.7c0.1-0.2,0.2-0.9-0.3-0.6C-373.2,530.3-373.4,531.1-372.9,530.7z
		 M-373.2,531.6c0.5,0.3,0.2,0.6,0.3,0.9c0.2,0,0.6-0.2,0.8-0.5C-372.4,531.8-372.7,531.3-373.2,531.6z M-372.7,535.3
		c0.2,0.2-0.8,1.1,0,1.1C-372.8,536.1-371.9,535.2-372.7,535.3z M-372.2,572c-0.6-0.1-0.6,0.7-0.1,0.7
		C-372.3,572.3-372.1,572.3-372.2,572z M-372.3,528.2c0.3,0.3,0.6,0.2,0.9,0.2C-371.6,528.2-371.9,527.8-372.3,528.2z M-372,565.5
		c-0.3,0.6,0,1.5,0.8,1.5C-371.5,566.5-371.4,565.3-372,565.5z M-371.9,533.5l0.3,0.3c0.4-0.1-0.1-0.8-0.3-0.6
		C-371.8,533.3-371.7,533.5-371.9,533.5z M-371.8,535l0.2,0.2c0.6-0.1,0-0.9-0.2-0.6C-371.7,534.8-371.7,534.9-371.8,535z
		 M-371.5,529.8c0.2,0.2,0.4,0.6,0.6,0.5C-370.9,529.9-371.1,529.5-371.5,529.8z M-370.9,571c0-0.3-0.2-0.4-0.5-0.5
		C-371.5,570.8-371.5,571.3-370.9,571z M-370.8,534.4c-0.1,0.1-0.2,0.1-0.1,0.2C-370.2,535.1-370.8,533.1-370.8,534.4z
		 M-369.8,531.5c-0.4-0.6-1-0.1-1,0.2C-370.5,532.4-370.1,531.6-369.8,531.5z M-370.6,529.5l0.2,0.3c0.1-0.2,0.2-0.1,0.3-0.1
		C-370.2,529.5-370.3,529.1-370.6,529.5z M-358.6,548.7c-0.1,0.3-0.5,0.2-0.7,0.5l0.1-0.7c-1.2,0.1-0.9,1.1-0.8,1.8
		c-1.1-0.6-1.7,0.2-2.5-0.7c-0.2,1.1-0.4,1.4-0.8,2.1c-0.2-0.2-0.8-0.3-1-0.1c0,0.2,0,0.5,0.2,0.7c0.2-0.5,1.1-0.8,1.5-0.6
		c0.3-0.6,0.2-0.6,0.9-0.6c0.3-0.4-0.4-0.7,0.1-0.8c0.2,0.6,1.5,0.7,2.1,0.6C-360.3,549.9-358.2,549.6-358.6,548.7z M-360.6,517.5
		c-0.7,0.2-0.6-0.7-1.5-0.4c0.1,0.6,0.9,0.2,0.8,1.1c-0.4-0.1-0.9,0.6-0.5,0.7C-361.6,518.2-360.2,518.4-360.6,517.5z M-359.4,546.7
		c0.7,0.5,1.2,0.5,2.3,0.9c-0.1-0.9-1.5-0.6-1.1-1.8l-0.5-0.1C-358.1,546.7-359.2,546.2-359.4,546.7z M-358.6,519.6
		c-0.5,0.1-0.7,0.4-0.6,0.8C-358.8,520.3-358.6,520.1-358.6,519.6z M-358.5,547.8c0,0.2-0.1,0.6,0.1,0.6c0.1-0.1,0.1-0.2,0.2-0.2
		C-358.2,548-358.3,547.8-358.5,547.8z M-357.1,519.2c-0.6,0.1-0.9-0.2-0.8,0.6C-357.5,519.7-357.1,519.4-357.1,519.2z
		 M-356.9,546.4c0.3,0.4,0.5-0.5,0.2-0.5c0,0.2,0,0.2-0.2,0.2V546.4z M-356.7,542.9c0.4,0.1,1-0.3,0.6-0.5
		C-356.1,542.8-356.9,542.2-356.7,542.9z M-356.2,543.2c0.1,0.2-0.3,0.9,0.1,1C-356,544-355.6,543.1-356.2,543.2z M-356.1,545.1
		c0.7-0.2,0.2,0.7,0.6,0.9c0.2-0.2,0.2-0.5,0.7-0.5c0.2,0.4,0.2,1.1,0.7,1.2c-0.2-0.6-0.1-1.6-0.3-2.3c-0.5,0.2,0.2,0.7-0.2,0.8
		c-0.3-0.1,0-0.5-0.3-0.6C-354.9,545.1-355.8,544.7-356.1,545.1z M-354.8,541.8c1.1,0.1,0.3,1.5,1.5,1.5
		C-353.3,542.5-354.2,541.3-354.8,541.8z M-353.6,539.8c0.5-0.1,0.7,0.6,0.9,0.2C-352.8,540-353.3,539.3-353.6,539.8z M-352.5,541.4
		c-0.5-0.1-0.7,0-0.7,0.5C-352.7,542.2-352.7,541.7-352.5,541.4z M-352.5,540c0.7,0.2,1.4-0.6,1.2-0.9c-0.5,0.7-0.6,0.2-1.1-0.2
		C-352.4,539.6-352.8,539.6-352.5,540z M-352.5,524.4c0.5-0.2,0.6,0.2,1.1-0.1c-0.2-0.2,0-0.9-0.5-0.6
		C-351.5,524.4-352.5,524-352.5,524.4z M-352,527.8c-0.1,0.3-0.2,0.6-0.1,1.1c0.5-0.5,0.7-1.6,1.9-1.2
		C-350.7,526.6-351.1,527.5-352,527.8z M-351.8,526.9c0.2-0.3,0.2-1.4-0.3-1.4C-351.6,526.1-352.5,526.9-351.8,526.9z M-351,544.6
		c-0.2-0.2-0.6-0.3-0.7,0.2C-351.5,544.9-351,545-351,544.6z M-351.5,524.8c0,0.5,0.3,0.6,0.6,0.6c-0.2-0.4,0.2-0.5-0.1-0.9
		C-351.2,524.6-351.4,524.7-351.5,524.8z M-350.5,541c-0.2,0.4,0.2,0.6,0.6,0.6C-349.8,541.2-350.1,541-350.5,541z M-350,526.4
		c0.1,0.3,0.3,0.5,0.6,0.3C-349.4,526.4-349.6,526.3-350,526.4z M-349.4,526.1c0.2,0.6,0.3,0.5,0.2,1c0.8-0.2,0.5,0.9,0.8,1.2
		C-347.2,527.8-348.6,526.2-349.4,526.1z"/>
	<path class="st0" d="M-312.1,561.3c-0.5,1.1-1.2,1-0.9,2c-0.9-0.6,0.2,0.4-0.6,0.2c0.6,0.4,0.3,0.4,0,0.9c-0.3-0.1,0-0.2,0-0.4
		c-0.5,1-1.5,2.5-1.9,2.9c-1.7,1-3.1,4.3-6.1,5.1c0.1,0.7-0.5,0.7-1.6,1.3c-0.4,0.2-0.2,0.2-0.9,0.5c-0.6,0.2-0.1,0.2-0.7,0.2
		c-0.6,0.1-1.4,0.8-1.8,0.9c-0.5,0.1-2-0.5-1.6,0.2c-0.2,0.2-1.1,0-1.9,0.2c0.7-0.9,0.1-0.2-0.4-0.9c-0.3,0-0.3,0.6,0,0.6
		c0,0.4-1-0.1-0.6-0.4c0.1,0,0.1,0,0.1-0.1c0,0.1-0.1,0.1-0.1,0.1c-0.8,0.5-3.5,0.4-3.1-0.5c-2.1,0.8-6.1-3.5-5.7-6
		c-0.5-0.8-1.1-2.8-0.6-3.9c0,0.1,0.4,0.2,0.4,0.2c0-0.2-0.3-0.4-0.4-0.6c-0.3-1.4,0.4-3.6,0.6-4.6c0.4-1.7,0.5-3.2,1.1-4.8
		c1.1-2.7,3.4-6.3,4.8-7.8c0.8-0.7,2.2-1.4,3-2c2.4-1.9,8.1-2.7,10.4,0.4c0.3,0.3,0.6,0.6,0.8,1c0,0,0.2,0.2,0.2,0.3
		c0.1,0.2,0.9,1.9,1,2.7c0.1,0.7,0,2.3,0,2.3c0,0.2-0.4,2-0.6,2c-0.6,1.6-1.7,3.2-3.2,4.4c-2.7,2.4-6.1,4.2-10,5.6
		c-0.5,3.2,0.1,4.9,0.7,6.4c0.3,0.9,1.6,1,2,1.9c1.4-0.1,2.2-0.2,3.9-0.2c2.8-1.5,6.5-2.1,8-4.8c0.7,0.2,0.7-0.4,1.1-0.5
		c0.1-1.9,2.9-2.4,2.5-4.1c0.6,0,1-1.2,1.1-2.3c0.2,0.2,0.8-1,0.9-1.2C-311.3,559.3-313,561.4-312.1,561.3z M-337.5,561.8
		c-0.3,0.5-1-0.3-1.1,0.2c0.3,0,0.2,0.4,0.5,0.5c-0.1-0.4,0.2-0.6,0.2,0h0.4C-337.4,562.2-337.1,562-337.5,561.8z M-334.5,567.7
		c-0.8,0.1-1.2,0-1.4,0.2C-335.4,568-334.8,568.4-334.5,567.7z M-335.6,565.9c0.1,0.1,0.9,0.6,0.9,0c-0.4-0.1,0.1-0.2,0.2-0.4
		c-0.3,0-0.5-0.2-0.7-0.2c0,0.2,0.1,0.6-0.2,0.6C-335.4,565.8-335.6,565.6-335.6,565.9z M-335.4,562.7c0.4,0,1.7-0.4,0.9-0.9
		C-334.7,562.2-335.4,562.1-335.4,562.7z M-334.7,569.5c-0.3,0.2-0.6-0.9-0.6-0.2C-335.2,569.3-335,570.3-334.7,569.5z M-335,553.6
		c0.6,0.3,0.6-1.1,0-0.7V553.6z M-333.1,570.7c0-0.7-0.8-0.6-1.1-1c-0.1,0.3-0.3,0.5-0.2,1C-333.7,570.5-333.5,571.1-333.1,570.7z
		 M-332.2,561.1c1.4-0.2,1.4-0.6,2.3-1.4c0.3-0.2,0.9-0.4,1.1-0.6c1.1-1,1.8-1.9,2.3-2.8c0.6-1,1.9-2,2.3-3c0,0.1,0.3-0.4,0.4-0.6
		c0.7-2-0.4-2,1.2-3.6c-1.1,0.6-0.6-2-1.4-2.8c-0.6-0.3-1.1,0.5-1.1,0c-0.1,0.1-0.9,0.6-1.9,0.9c-0.2,1.1-1.3,1.5-1.9,2.5
		c0.1-0.1-3,4.9-3.2,9.4C-332,558.6-332.1,559.9-332.2,561.1z M-322.7,556.7c-0.2,0-0.6,0.6-0.5,0.8c0.2-0.2,0.4-0.3,0.5-0.5V556.7z
		 M-322.6,552.4c-0.8,0.6,1,1.2,0.2,1.8c0.8-0.1,0.9,0.8,1.9,1c-0.2-0.1-1.2-1.1-0.2-1.1c-0.2-0.7-0.7,0.1-1.1,0
		c0.5-0.5-0.6-0.6-0.2-1.6c-0.2,0-0.2,0.2-0.2,0.4C-322.6,552.8-322.6,552.6-322.6,552.4z M-321.9,555.4c-0.2,0.2-0.6,1.1,0.2,0.9
		c0.1-0.4-0.3-0.6,0-0.7C-321.5,556.4-321.4,555.4-321.9,555.4z M-322.1,550.6c0,0.3,0.9-0.2,1.5,0c0.2,0.6-0.4,0.2-0.4,0.2
		c0,0.6,0.6,1.2,0.9,1.6c0.2-0.2,0.2-0.6,0.3-0.8c-0.3-0.1-0.6-0.3-0.6-0.8c0.2-0.2,0.4-0.2,0.6-0.2c0.1-0.2-0.3-1-0.3-1.3
		c-0.2,0.6-0.4,1-1.1,0.6c0.3-0.3,0.6-1.1-0.3-1C-321.4,549.8-322.3,549-322.1,550.6z"/>
	<path class="st0" d="M-283.5,554.4c-1.1,0.2-2.2,0.1-3.2,0.2c-0.6,1.5-1.2,4.4-2.3,6.4c-0.1,0-2.8,4.5-4.1,6.4
		c-0.2,0.3-0.6,0.6-0.9,0.9c-2.1,2.7-7,8.3-12.5,6.9c-4.2-2.6-6-8-5.5-15.5c0.2-3.6,0.8-7.8,1.4-11c0.2-1.3,0.4-3.2,0.6-4.8
		c1.7-1.8,5.8-0.9,7.4,0.6c0.2,1.7-1.1,2.5-0.5,4.1c-1.1,0.8,0,2.2-0.7,3.6c-0.4-0.2,0,3.1-0.4,4.6c-0.2-0.1-0.5,1.2-0.6,2
		c-0.2,2-0.6,4.3-0.8,6.6c-0.2,1.5-0.5,3-0.2,4.4c0.4,2.2,1.6,4.9,4.1,3.2c2.9-1.9,6.3-7,7.8-11.4c0.9-2.8,1.5-5,2-8.3
		c-1.3-1.5-3.2-2.6-4.1-4.5c-0.9-2.1-0.1-4.4,1.1-5.3c2.6-1.8,6.6,1.3,8.3,1.9c2.3,2.3,0.9,5.8,0.5,7.8c2.4,0.3,4.4-0.9,5.9-2.3
		c0.7-0.6,1.1-2.3,2.5-1.8C-277.5,551.1-281.4,553.9-283.5,554.4z M-307.3,549.8c-0.5,0-0.3-0.6-0.9-0.4v0.4c0,0.2,0,0.3,0.2,0.2
		C-307.9,549.3-307.2,550.6-307.3,549.8z M-290.6,548.9c-1.1-0.5-0.2-2.8-0.5-4.1c-3.9-1.8-4.9,3.2-2.8,5.3l0.7,0.7
		c0.2,0.5,0.3,1.1,1,1.1C-290.7,551.3-291.8,549.9-290.6,548.9z M-289.9,548.5c0.3,1.1-0.1,0.2-0.5,0.7c0.2,0.1,0.5,0.2,0.6,0.5
		c-0.2,0-0.6-0.1-0.6,0.2c0.3,0.7,0.9,0.6,1.1,0.6C-289,550.2-289.3,548.5-289.9,548.5z"/>
	<path class="st0" d="M-260.3,560c-0.8,3.2-2,5.9-3.8,8.1c-0.9,2.8-3.2,5-5.6,6.6c-0.9,0.6-1,0.9-2.2,1.1c-1.1,0.3-1.4,0.2-2.6,0
		c-2.5-0.4-5.1-2.9-5.6-6.2c-0.1-0.4,0.3-0.9,0.3-1c0-0.2-0.5-0.7-0.5-1c-0.2-1.2,0.2-3.2,0.2-4.6c0-1.2,0.2-2.3,0-3.3
		c0.4-0.2,0.2-1.1,0.6-1.1c-0.5-0.7-0.3-2.7,0.3-3.2c-0.2-0.4-0.5-1.6,0.2-2.2c0.5-0.4,0.1-0.2,0-0.8c-0.1-0.9,0.7-1.9,0.5-3
		c0.6-1.1,0.5-3.2,1.1-4.5c1.9-1.6,5.3-0.8,7.1,0.3c0.1,1.1-0.6,2.8-1.1,3.7c-0.3,2.8-1.1,3.9-1.2,6.8c-0.2,0.2-0.5,0.3-0.6,0.6
		c0.2,0.7,0.2,1.3,0,2.1c-0.5,1.9-0.5,5.1-1,7.4c0.4,0.8,0.6,2.8,0,3.2c0.5,1.1,1.9,2.7,1.3,3.8c2.8,0.2,4.4-1.1,5.7-2.7
		c1.4-1.6,3.1-4.9,4.1-7c0.6-1.3,0.6-2.8,1.6-3.6C-260.8,559.5-260.7,560-260.3,560z M-276.6,552.2c-0.4,0.3-0.7-0.2-1,0.2
		c0.2,0,0.2,0.2,0.2,0.3C-277,552.7-276.5,552.7-276.6,552.2z M-277.3,555.3c0.2,0,0.2,0,0.2,0.2h0.3
		C-276.5,555.1-277.3,555-277.3,555.3z M-275.6,555.7c-0.2-0.1-0.3-0.3-0.5-0.3c-0.2,0.3-0.8,0.5-0.3,1
		C-276.1,556.2-275.8,555.9-275.6,555.7z M-276.4,551.2c0.8,0.1,0.6,0.6,0.3,1.1c0.3,0,0.2,0.5,0.6,0.3c-0.2-0.7,0.2-0.9,0.2-1.6
		C-275.8,551.1-276.2,550.6-276.4,551.2z M-275.1,554.1c-0.2-0.5-0.5-1-1.1-1c-0.2,0.5,0.2,0.5,0.2,1c-0.2,0-0.2,0.2,0,0.2
		c0-0.2,0.2-0.2,0.3-0.3C-275.5,554-275.4,554.2-275.1,554.1z M-276.1,537.4c-0.4-3.1,3.6-5,5.9-3.1c0,0,0.1,0.5,0.3,0.8
		c0.8,1.1,1.1,2.3,0.2,4.2c-1.3,0.7-2.3,1.3-3.6,1.1C-274.5,540-275.9,538.7-276.1,537.4z M-274.8,549.4c-0.5,0.1-0.8-0.3-1.1,0
		c0.2,0.6,1,0.3,0.6,1.4C-274.7,550.7-274.8,550-274.8,549.4z M-274.6,536.4h-0.6C-275.4,537.1-274.5,537.1-274.6,536.4z
		 M-274.8,551.4c-0.2,0-0.2,0-0.3,0v0.3c0.1,0,0.2,0,0.3,0V551.4z M-274.4,548.4c0-0.2,0.2-0.2,0.2-0.5h-0.3c0,0.2-0.2,0.2-0.2,0.5
		H-274.4z M-274,552.5c0-0.2-0.2-0.4-0.3-0.5C-274.5,552.3-274.5,552.7-274,552.5z M-273.5,537.4c0,0.4,0.2,0.5,0.5,0.6v-0.6H-273.5
		z"/>
	<path class="st0" d="M-238.9,561.7v1.1c-2.4,4.5-6,12.4-12.5,12.6c-2.1,0.1-3.6-0.9-4.9-2.1c-0.9-1.8-2.1-4-2.2-6.2
		c0-0.4,0.3-0.5,0.3-0.9l0.3-3.6c-0.6-2,0.5-7.6,0.6-8.1c-0.1-0.5,0.2-0.6,0.5-0.8c-0.3-1.6,0.6-8.6,0.7-10c0.4-2.5,1.1-5.8,1.5-6.7
		c-0.4,0.2-0.7,0.5-1,0.8c-2.8-0.3-3.1,0.2-5.7-0.2c0-1.2-0.5-3.1,0.3-4.3c0.5-0.4,0.8-0.3,1.5-0.3c1.7,0,4.5,0.5,5.7-0.6
		c-0.3-0.5,0.2-0.8-0.2-1.3c0.9-1.1,0.5-3.2,1.5-4.3c0.2-0.1,0.6-0.1,0.7-0.2c0.2-0.2,1.6-1.3,2.3-0.5l0.5-0.5
		c1.5,0.6,3.6,0.8,5.1,1.8c-0.1,0.8-0.2,1.6-1,1.8c0.6,1.4-0.6,2.2-0.5,3.6c2,0.6,5-0.6,6.9,0.2c0.6,1.5,0.3,3.1,0.2,4.6
		c-2.6,1.2-5.5,0.9-8.3,0.2c-0.5,0.2-0.6,0.8-0.7,1.1c-0.2,1.1,0.2,2.9-0.8,3.2c0.6,0.9-0.1,2-0.3,2.9c-0.2,1.1,0,2.2-0.8,2.7
		c0.6,1.6-2.4,17.6-2.1,22.5c1.1,1.1,1.6,2.8,3.2,2.5c0.6-0.1,2.9-2.3,3.5-3c0.7-0.9,1-2.3,1.8-2.4c0.4-1.5,1.1-2.5,1.9-3.5
		c0.6-1.8,0.9-3.7,2.3-4.8C-237.5,559.3-238,561.4-238.9,561.7z M-257.9,534.2c0.2,0.1,0.2,0.4,0.2,0.6
		C-256.7,535-257.5,533.7-257.9,534.2z M-257.1,566.3c-0.1,0.2-0.2,0.2-0.2,0.6h0.3C-256.8,566.6-256.8,566.4-257.1,566.3z
		 M-256,563.8c-0.1,0.3-0.6,0.2-0.5,0.6c0.2,0,0.3,0.1,0.5,0.2C-255.9,564.6-255.6,563.9-256,563.8z M-256.3,566.4v0.6
		C-255.8,567.2-255.8,566.3-256.3,566.4z M-255.8,554.3c0.1,0,0.2,0,0.3,0c0-0.2,0.2-0.2,0.2-0.5h-0.5V554.3z M-255.8,562.9
		c0.2,0,0.3,0.2,0.3,0.6c0.2,0,0.6,0.1,0.6-0.2C-255.1,563.2-255.4,562.3-255.8,562.9z M-254.7,567.8c-0.3-0.2-0.6-0.4-1-0.5
		c-0.1,0.2,0.2,0.3,0.2,0.6C-255.1,567.8-254.3,568-254.7,567.8z M-255.2,533.7c0,0.3-0.6,0.2-0.5,0.5
		C-255.4,534.3-254.7,533.9-255.2,533.7z M-255,555.1c-0.1,0-0.2,0-0.3,0v0.3c0.1,0,0.2,0,0.3,0V555.1z M-253.9,536.1
		c-0.3-0.1,0-0.7-0.5-0.6c0.1,0.5-0.8,0-0.6,0.6C-254.5,535.8-254.1,536.5-253.9,536.1z M-255,557.6c0.4,0.1,0.8-0.7,0.5-0.8
		C-254.6,557.1-255.1,557-255,557.6z M-254.9,555.1c0.6,0.2,0.6-0.2,1.1-0.2C-253.7,554-254.9,554.6-254.9,555.1z M-254.1,560.4
		c-0.4,0-0.8,0-0.8,0.3C-254.7,560.9-254.1,560.8-254.1,560.4z M-254.9,562.1c0,0.1,0,0.2,0,0.3h0.3c0-0.2,0-0.2,0-0.3H-254.9z
		 M-254.5,567.3c0.2-0.1,0.1-1-0.2-0.3C-254.7,567.1-254.6,567.3-254.5,567.3z M-254.2,546.1c0.2-0.2,0.2-0.7-0.3-0.7
		C-254.6,545.8-254.5,546-254.2,546.1z M-253.4,569.3c-0.2,0-0.2-0.2-0.2-0.5c-0.6,0.2-0.6-0.4-1-0.5
		C-254.5,568.8-253.5,569.3-253.4,569.3z M-254.2,564c0-0.2,0.5-0.1,0.5-0.3C-254.1,563.5-254.6,563.9-254.2,564z M-253.9,560.2
		c0-0.2,0-0.6-0.3-0.5v0.3C-254.1,560-254,560.2-253.9,560.2z M-252.1,550.6c-0.6,0.6-1.1,0-1.8,0.2c-0.1,0.6,0.5,0.4,0.3,1.1
		c1,0,0-0.8,0.6-0.8c0,0.2,0.2,0.2,0.2,0.3C-252.2,551.5-252.4,550.9-252.1,550.6z M-253.7,566.7v0.3c0.2,0,0.3,0,0.5,0
		C-253.2,566.7-253.4,566.6-253.7,566.7z M-253.6,540.7c0.2,0,0.2,0.1,0.3,0.2c0-0.3,0.1-0.6-0.3-0.6V540.7z M-253.4,534.7
		c0.1,0.4,0.2,0.9,0.6,0.9c0-0.4-0.2-0.5-0.2-1.1c0.2,0,0.4,0,0.3-0.3C-253.2,534.1-252.8,535-253.4,534.7z M-253.4,547.6v0.8
		C-252.6,548.5-252.9,547.7-253.4,547.6z M-252.8,532c0.2-0.7,1.3-1.3,0.9-2C-252.3,530.4-253.4,531-252.8,532z M-252.4,537.1
		c0-0.2,0-0.2,0-0.3h-0.3c0,0.1,0,0.2,0,0.3H-252.4z M-251.9,548.5c-0.3-0.2,0.2-0.6-0.2-1c-0.6-0.2-0.7,1-0.2,1
		C-252.3,548.1-251.5,549-251.9,548.5z M-251.7,539.2c-0.3,0.1-0.4-0.2-0.7-0.2v0.6C-252,539.7-251.7,539.6-251.7,539.2z
		 M-250.1,543.4c0-0.5,0-1-0.3-1.1c-0.3,0.8-1.4,0.2-2,0.5c0.3,0.5,0.4,0.4,0.2,1.1c0.7,0.1,0.4-1,1.1-1
		C-250.7,543-250.7,543.6-250.1,543.4z M-251.9,540c-0.2,0.2-0.4,1,0,1.1c0-0.2,0.2-0.4,0.5-0.3c0.2,0.2,0,0.9,0.3,1.1
		c0-0.6,0.6-0.4,0.6-1C-250.6,540.2-251.1,540-251.9,540z M-250.7,549.5c-0.5,0.2-1.1,0.4-1.1,1C-251.1,550.6-251,550-250.7,549.5z
		 M-251.1,538.8c0-0.2,0.2-0.3,0.2-0.6h-0.5C-251.5,538.6-251.4,538.8-251.1,538.8z M-251.1,529.6h0.3c0.2-0.2,0.2-0.4-0.2-0.5
		C-250.9,529.4-251.1,529.4-251.1,529.6z M-250.6,538c0.2,0,0.3,0,0.5,0c0-0.3-0.2-0.4-0.5-0.3V538z M-250.1,538.8
		c-0.1,0.3-0.5,0.3-0.3,0.8C-249.8,539.9-249.5,538.9-250.1,538.8z M-249.6,544.4c-0.2,0-0.6,0-0.5,0.3
		C-249.9,544.7-249.7,544.7-249.6,544.4z M-249.4,544.6c0.4,0.1,0.6,0,0.6-0.3C-249.1,544.3-249.4,544.3-249.4,544.6z M-248.8,539
		c-0.1-0.4,0.6-1.1-0.2-1.1C-249.2,538.2-249.1,538.9-248.8,539z M-248.6,528.8c0.2,0,0.3,0,0.5,0v-0.5c-0.2,0-0.3,0-0.5,0V528.8z
		 M-248.6,539.8c0.1,0.2-0.1,0.6,0.2,0.7C-248.6,540.2-248,539.8-248.6,539.8z M-248.5,530.7c-0.1,0.5,0.5,0.3,0.3,1
		c0.6-0.2,0.7-0.1,1.4,0c0.6-0.4-0.2-1.7-0.6-1.5c0.2,0.3,0,0.6,0.4,1c-0.2,0-0.2,0.1-0.4,0.2C-247.3,530.7-248.1,530.9-248.5,530.7
		z M-246.8,528c0.2,0,0.9,0.5,1.1,0C-246,527.9-246.7,527.3-246.8,528z M-245.6,537.5c0.1,0,0.2,0,0.2,0.2h0.3
		C-244.9,537.3-245.7,537.2-245.6,537.5z M-245.2,535.2c0-0.3,1-0.6,0.5-1C-244.8,534.6-245.8,534.8-245.2,535.2z M-243.9,534.5
		c0.5,0.2,0.3-0.3,0.5-0.5h-0.5V534.5z M-243.5,536.6c0.5,0,0.4-0.3,0.5-0.6C-243.5,535.8-243.3,536.4-243.5,536.6z M-241.4,536.7
		c0.1,0,0.2,0,0.3,0v-0.3c-0.2,0-0.2,0-0.3,0V536.7z"/>
	<path class="st0" d="M-212.2,574.8c-0.7,0.2-1.5,0.2-2,0.6c-2.4,0.1-3.9-1-5.3-1.9c-0.1-1-1.3-1.4-1-2.2c-0.6-0.4-1.2-1.5-0.8-2.4
		c-0.7-1-0.5-2.8-0.5-4.5c-0.7,0.6-0.8,1.9-1.7,2.3c0.5,1.4-4,7.7-9.7,8.7c-1.4-0.6-2.8-0.6-3.7-1.6c-1.6-1.7-1.6-4.3-2.2-6.2
		c0-0.5,0.2-0.6,0.6-0.5c-1.9-1.7-0.1-5.1-0.5-7.3c0.6-1.4,0.5-2.5,0.9-4.4c0.6-0.2,0.2-1,0.5-1.5c0.4-1.1,1.5-2,1.6-3.5
		c0.5-0.2,0.6-0.6,1.3-0.6c0.2,0.4,0.4,0.6,0.3,1.2c0.3-0.1,0.2-0.6,0.5-0.7c-0.2-0.4-0.7-0.5-1-1c0.1-1,1.1-0.9,1.1-1.9
		c0.5-0.2,0.8-0.3,1.2-0.5c-0.2,0.9,1.1,0.8,0.5,1.6c0.1,0.4,0.4-0.8,0.8-0.2c-0.8,0.7-0.8,1.1-0.5,2.5c0.5,0.1,0.5-0.3,1-0.2
		c0.1-0.6-0.6-0.4-0.6-1c0.3-1.2,0.2-1,1.5-1c0.2-0.6-0.5-0.2-0.8-0.3c1.1-0.9,1.8,0.6,3,0.6c-0.4,1.3-1.1,2.3-1.9,3.2
		c-0.3-0.4,0.2-0.8,0-1.5c-1.4,0.4-0.2,1.7,0,2.3c-0.3,0.2-0.2,0-0.6,0c-0.2,0.5,0.6,0.1,0.3,0.6c-0.3,0.1,0,0.8-0.6,0.6
		c0,0.3,0.2,0.3,0.2,0.6c0,0.4-0.3,0.2-0.3,0.3c-0.2,0.6,0.1,1.6-0.2,2.3c-0.1,0.2-0.5,0.3-0.5,0.5c-0.1,0.5,0.4,1.4-0.3,1.8
		c-0.2,3.4-0.5,6.3-0.3,10.2c0.9,0.4,0.8,1.3,1.6,1.5c2.8,0.7,4.6-3.6,5.6-5.3c0.2-0.1,0.4-0.2,0.6-0.3c0-0.6,0.1-1.1,0.6-1.1
		c0-0.6-0.2-0.5,0-1c1.3-1.6,1.6-4.1,2.8-5.7c-0.5-0.7,0.2-1.5,0-2.5c0.3-0.4,1-0.5,1-1.3c0.2-0.4-0.7,0.2-0.6-0.3
		c-0.5-0.3,0.5-0.4,0.5-0.6c0-0.1-0.3-0.8-0.3-0.8c0-0.3,0.3-0.4,0.3-0.6c0.1-0.5-0.2-1,0-1.5c0.1-0.2,0.5-0.5,0.5-0.6
		c0-0.1-0.3-0.5-0.3-0.6c0-0.6,0.6-1.1,0.5-1.6c-0.8-0.9-2.3-1.5-3.2-1.1c-0.4-0.1-0.4-0.6-0.7-0.6c-0.4,0.6-1.5,0.6-1.9,1.3
		c-0.3,0-0.3-0.2-0.6-0.2c-0.3,0.9-1.2,1.1-1.5,2.1c-1.3,0-1.9-0.9-1.7-1.9c-0.8,0-1,0.8-1.9,0.8c0.6-1.1-0.2-2.7,1-3.3
		c0.6-0.2,0.2,0.6,0.6,0.5c0.2-0.8,0.7-1.2,1.7-1.3c0.3,0.5,0.2,1.5,0.5,2c0.8-0.6-0.2-1.4,0.2-2c1.1-0.7,1.9,0,3.6-0.2
		c0.5,0.8,2.8,0.6,2.3,1.6c0.5-0.1,1.3,0.3,1.6,0.9c0.6-0.2,0-0.4,0.2-1.1c0.6-0.2,1.1-0.6,1.3-1.3c0.6,0.4,0.8-0.4,1.2-0.5
		c1.8-0.4,2.8,1.1,4.9,1.3c0.2,0.7-0.1,1.7-0.5,2.2c-0.6,3.6-2,6.4-2.2,10.5c-0.2,0.1-0.2,0.3-0.5,0.3c0.1,3.2-0.8,5.3-0.6,8.7
		c0.2,2.9,0.7,7.1,4.1,6c1.1-0.4,3.4-3.3,4.5-4.9c0.9-1.5,1.6-3.7,2.4-5.6c0.5,0.1,0.4-0.2,0.8-0.2
		C-202.3,564.1-209.1,573.9-212.2,574.8z M-237.6,564.5c0.1-0.6,0.9-0.1,1.1-0.2c0.1-1-0.6-0.8,0-1.5c-0.9,0.3-0.8,0-0.6-0.8h-0.5
		C-237.7,562.5-238,564-237.6,564.5z M-236.9,565c-0.5-0.1-0.4,0.2-0.8,0.2C-237.8,566-237,565.5-236.9,565z M-236.1,566.1
		c0.2,1.3,1.6,0.6,2.8,1.1c-0.1-0.3,0.6-0.6,0-0.6c-0.5,0.7-1.2-0.7-2.1,0c0-0.4-0.4-0.2-0.3-0.7c-0.9,0.2-1.1-0.1-1.5,0.7
		C-236.8,566.9-236.6,566.2-236.1,566.1z M-236.4,554.9c-0.2,0-0.2-0.2-0.5-0.2C-237.1,555.2-236.3,555.3-236.4,554.9z
		 M-236.1,569.3c-0.1,0-0.2,0-0.3,0c0,0.2-0.2,0.2-0.2,0.5h0.5V569.3z M-236.3,553.8c0.2,0.4,0.6-0.3,0.8,0.2c0.1,0.6-0.8,1,0.3,1
		c0.2-1.1,0-1.5-0.6-1.9c0,0.2-0.2,0.2-0.5,0.2V553.8z M-236.1,556.1c0.3,0.2,0.2,1,1,0.8C-235,556.4-236.3,555.8-236.1,556.1z
		 M-235.3,567.6c0.2,0.6-0.6,0.2-0.8,0.6c0.5-0.2,0.4,0.2,0.8,0.2C-235.5,567.9-234.5,567.6-235.3,567.6z M-235.9,567.5
		c0.1,0,0.2,0,0.2,0.2h0.3C-235.2,567.2-236,567.2-235.9,567.5z M-235.3,557.3c-0.4-0.1-0.5,0.2-0.6,0.5
		C-235.5,557.8-235.2,557.7-235.3,557.3z M-235,559.9c-0.1-0.2-1,0.6-1,0.5c0.1,0.5,0.3,0.8,0.8,0.9
		C-235.6,560.6-235,559.9-235,559.9z M-235.9,563.2c0.2,1.5,0.1,2.3,1.5,2.6c0.6-0.4,1.1-1,1.7-1c-1.1-0.2-3,0.7-2.7-1
		c0.1,0.2,0.9,0.4,1,0c-0.1-0.3-0.7,0-0.8-0.3c-0.1-0.6,0.9-0.9,0.2-1.1C-235.5,562.5-235.4,563.2-235.9,563.2z M-235.6,559.2
		c0.6-0.2,0.8,0,1.6-0.2c0.1-0.5-0.2-0.6-0.5-0.8C-234.3,559.4-235.6,558.2-235.6,559.2z M-235.3,551.7c0,0.2,0.2,0.4,0.3,0.5
		C-235,551.9-235,551.8-235.3,551.7z M-234.6,554.8c-0.5,0.4-0.9,1.2-0.2,1.5C-234.8,555.8-234.2,555.1-234.6,554.8z M-234.6,570.2
		c0-0.4,0.2-0.5,0.3-0.8c-0.3,0-0.2-0.4-0.6-0.3C-234.7,569.4-234.9,570.1-234.6,570.2z M-234.8,553.5c0.3,0,0.8,0.2,0.6-0.3
		C-234.9,553.2-234.8,553.1-234.8,553.5z M-234.2,555.6c0.3,1.1,0,1.1-0.5,1.5c0.5,0.1,0.5-0.3,1-0.2c0-0.4,0.1-0.6,0.2-0.8
		C-234,556.2-233.8,555.7-234.2,555.6z M-232.5,563c-1.1-0.2-0.9-1.5-2.2-1.5c0.1,0.7,0.9,0.7,0.8,1.6
		C-233.1,563-232.8,563.5-232.5,563z M-234.2,573.4h-0.5c0,0.2,0,0.3,0,0.5C-234.2,573.9-234.3,573.5-234.2,573.4z M-233.8,568.6
		c-0.3-0.1-0.6,0-0.6,0.3C-234.1,569-233.8,568.8-233.8,568.6z M-234.3,560.4c0.4,0,0.3,0.1,0.3-0.3
		C-234.4,560-234.3,560-234.3,560.4z M-234,559.9c0-0.4,0.1-0.3-0.3-0.3v0.3H-234z M-233.7,555.6c1-0.3,0.8-1.1,1.7-1.3
		c-0.1-0.4-0.2-0.7-0.5-1c0,0.4-0.1,0.6-0.3,0.6c-0.2-0.2-0.2-0.5-0.7-0.5C-233.5,554.4-233.7,554.3-233.7,555.6z M-232.9,560.4
		c0-0.1,0.1-0.2,0.3-0.2c0.1-0.6-0.4-0.6-1.1-0.6C-233.7,560.1-233.4,560.4-232.9,560.4z M-233.5,550.6c0.9,0.2,0.8,1.3,1.9,1.2
		c-0.2-0.7-0.6-1.3-1.1-1.7c0.2-0.2,0.3-0.4,0.6-0.5c-0.2-0.2,0-0.9-0.5-0.8C-233,549.4-233.7,549.6-233.5,550.6z M-232.3,570.5
		c-0.5,0.2-0.8,0.3-1.1,0.6C-232.8,571.2-232.3,571.1-232.3,570.5z M-232.3,571.5c-0.5-0.1-0.9,0.7-0.5,0.9
		C-232.8,571.9-232.1,572.2-232.3,571.5z M-231.8,552.5c-0.3-0.1-0.5-0.3-0.6-0.5c-0.2,0-0.6,0.6-0.2,0.8c0-0.2,0.2-0.3,0.5-0.3
		C-232.1,552.7-231.3,552.7-231.8,552.5z M-232,556.5c-0.4,0-0.3-0.1-0.3,0.3h0.3V556.5z M-232,561.4c-0.2,0-0.2,0-0.3,0v0.3
		c0.1,0,0.2,0,0.3,0V561.4z M-231.5,553.5c0.4,0,0.3,0.1,0.3-0.3C-231.6,553.2-231.5,553.1-231.5,553.5z M-231.2,552
		c0.3,0.1-0.1,1,0.6,0.8c0.1-0.5-0.3-0.5-0.2-1C-230.8,551.9-231.2,551.8-231.2,552z M-230.8,555.6c-0.1,0-0.2,0-0.3,0v0.3
		c0.1,0,0.2,0,0.3,0V555.6z M-230.5,550.2c0.6,0.1,1-1,0.3-1.1C-230.3,549.5-230.9,549.8-230.5,550.2z M-227.7,546.4
		c-0.6,0-0.2-1.1-0.9-1.1c-0.1,0.6,0.2,0.8,0.2,1.4C-228.1,546.7-227.8,546.6-227.7,546.4z M-227,547.1c0,0.2-0.6,0.6-0.2,0.8
		C-227.1,547.6-226.4,547.2-227,547.1z M-226.2,544.6v0.6c0.1,0,0.2,0,0.3,0C-225.9,544.5-225.8,544.6-226.2,544.6z M-225.3,546
		c0.1,0.2-0.6,0.4-0.2,0.5C-225.4,546.3-224.7,546.1-225.3,546z M-220.3,546.1c0.1,0,0.2,0,0.2,0.2h0.3
		C-219.6,545.9-220.4,545.8-220.3,546.1z M-219.8,560.4c-0.4,0-0.3-0.1-0.3,0.3C-219.8,560.7-219.8,560.8-219.8,560.4z
		 M-219.2,548.5c0.4,0,0.8,0,1-0.2c0.1-0.4,0-0.7-0.5-0.6C-218.6,548.2-219.1,548.1-219.2,548.5z M-219,559.1c0.6-0.2,0.6-0.7,0-1
		c-0.4,0.4,0.2,0.3,0.2,0.8C-219,558.9-219.3,559-219,559.1z M-218.4,564.2h-0.6c-0.1,0.9,0.7,0.8,1.1,1.1
		C-217.4,564.9-218.3,564.7-218.4,564.2z M-218.1,550.9c-0.3-0.2-0.5-0.4-0.8-0.6C-218.9,550.8-218.3,551.3-218.1,550.9z
		 M-218.7,553.8c0.4,0,0.3,0.1,0.3-0.3C-218.8,553.5-218.7,553.4-218.7,553.8z M-217.9,557c-0.4,0-0.3-0.3-0.6,0
		C-218.6,557.6-217.7,557.6-217.9,557z M-218.4,552.3c0.4,0,0.3,0.1,0.3-0.3C-218.5,552-218.4,551.9-218.4,552.3z M-218.1,544.9
		c0.5-0.1,1-0.2,1.2-0.5C-217.5,544.3-217.9,544.5-218.1,544.9z M-217.6,553.5c-0.1,0.2-0.2,0.4-0.3,0.6
		C-217.5,554.3-217.3,553.4-217.6,553.5z M-217.9,554.9c0.3,0.5,0.6,1,1.4,1C-216.4,555.1-217.2,554.5-217.9,554.9z M-217.7,547.7
		c0.6,0,0.5-1.3,1.2-0.6v-0.6C-217.1,546.7-217.9,547.3-217.7,547.7z M-216.4,548.4c-0.2,0.6-1,0.6-1,1.5h0.8c0.1-0.6,0.5-1.1,1-1.3
		C-216,548.6-216.2,548.5-216.4,548.4z M-216.2,552.2h-0.6C-217,552.8-216.2,552.7-216.2,552.2z M-215.7,554.1
		c-0.3-0.6,0.3-1.3-0.3-1.5C-215.8,553.4-216.6,554.1-215.7,554.1z M-215.9,545.2c0.7,0,1.5,0.1,1.5-0.8c-0.7,0-1,0.7-1.5,0V545.2z
		 M-214.1,547.6c0.2,0,0.2,0,0.3,0v-0.3c-0.1,0-0.2,0-0.3,0V547.6z"/>
	<path class="st0" d="M-185.3,563.2c-1.6,3.5-3.4,7.4-6.1,9.8c-4.4,3.8-13.8,5.8-12.8-12.5c0.2-2.9,0.6-7.3,1.1-11
		c0.6-3.5,2.3-12.2,2.8-14.3c1-4,1-8,6.4-7.4c2.1,0.3,4.3,1.2,3.9,2.8c-0.3,1.3-0.6,2.5-1.1,4.4c-0.6,1.9-0.5,3.6-1.9,5.3
		c-0.2,2.3-0.6,5.8-2.3,10.9c-0.7,2.7-1.1,7-1.6,10c-0.2,1.9-0.6,3.8-0.6,5.6c-0.1,0.8,0.2,3.4,0.6,4.9c3.8,2.8,6.3-1.7,8.3-5
		c0.7-1.2,1.2-2.6,1.9-3.9c0.6-1.2,1.1-3.3,2.5-3.2C-183.4,560.7-184.7,562-185.3,563.2z M-200,552.4c0.7-0.1,0.2-1.2,0.8-1.6
		c-0.8,0.2-1.2,0.4-1.5,1.1c0.5,0.3,0.2-0.7,0.7-0.5C-199.6,551.6-199.9,552.1-200,552.4z M-198.5,549.9c-0.1-0.1-0.1-0.2-0.1-0.2
		c0.2-0.3-0.8-1.2-1.3-1.3c-0.2,0.8-0.2,0.1-0.7,0c0.2,0.6,0.6,1,0.1,1.6l0.6,0.2c0.1-0.2-0.1-0.3,0-0.6c0.3,0,0.2,0.3,0.6,0.3
		c0-0.1,0-0.1,0-0.1C-198.6,550.7-198.1,549.9-198.5,549.9z M-199.9,544.9c0.1,0.4,0.2,0.9,0.2,1.3c0.2-0.2,0.8,0.2,1-0.2
		c-0.3-0.2-0.4,0.1-0.7-0.1c0-0.3,0-0.4,0.1-1C-199.7,544.7-199.8,544.9-199.9,544.9z M-196.9,541.1c-0.2-0.1-0.3-0.3-0.5-0.3
		c-0.2,0.3-0.8,0.5-0.3,1C-197.3,541.7-197.1,541.3-196.9,541.1z M-197.7,536.7c0.8,0.1,0.6,0.6,0.3,1.1c0.3,0,0.2,0.5,0.6,0.3
		c-0.2-0.7,0.2-0.9,0.2-1.6C-197.1,536.6-197.5,536-197.7,536.7z M-196.4,539.6c-0.2-0.5-0.5-1-1.1-1c-0.2,0.5,0.2,0.5,0.2,1
		c-0.2,0-0.2,0.2,0,0.2c0-0.2,0.2-0.2,0.3-0.3C-196.8,539.4-196.7,539.6-196.4,539.6z M-196.9,541.9c-0.5-0.1-0.5,0.3-0.5,0.6
		C-196.9,542.6-196.9,542.3-196.9,541.9z M-194.9,533.7c0.3,0.5,1.1,0.4,1.3-0.2C-194,533.6-194.8,533.3-194.9,533.7z"/>
	<path class="st0" d="M-166.4,560c-0.8,3.2-2,5.9-3.8,8.1c-0.9,2.8-3.2,5-5.6,6.6c-0.9,0.6-1,0.9-2.2,1.1c-1.1,0.3-1.4,0.2-2.6,0
		c-2.5-0.4-5.1-2.9-5.6-6.2c-0.1-0.4,0.3-0.9,0.3-1c0-0.2-0.5-0.7-0.5-1c-0.2-1.2,0.2-3.2,0.2-4.6c0-1.2,0.2-2.3,0-3.3
		c0.4-0.2,0.2-1.1,0.6-1.1c-0.5-0.7-0.3-2.7,0.3-3.2c-0.2-0.4-0.5-1.6,0.2-2.2c0.5-0.4,0.1-0.2,0-0.8c-0.1-0.9,0.7-1.9,0.5-3
		c0.6-1.1,0.5-3.2,1.1-4.5c1.9-1.6,5.3-0.8,7.1,0.3c0.1,1.1-0.6,2.8-1.1,3.7c-0.3,2.8-1.1,3.9-1.2,6.8c-0.2,0.2-0.5,0.3-0.6,0.6
		c0.2,0.7,0.2,1.3,0,2.1c-0.5,1.9-0.5,5.1-1,7.4c0.4,0.8,0.6,2.8,0,3.2c0.5,1.1,1.9,2.7,1.3,3.8c2.8,0.2,4.4-1.1,5.7-2.7
		c1.4-1.6,3.1-4.9,4.1-7c0.6-1.3,0.6-2.8,1.6-3.6C-166.8,559.5-166.8,560-166.4,560z M-182.7,552.2c-0.4,0.3-0.7-0.2-1,0.2
		c0.2,0,0.2,0.2,0.2,0.3C-183,552.7-182.6,552.7-182.7,552.2z M-183.3,555.3c0.2,0,0.2,0,0.2,0.2h0.3
		C-182.5,555.1-183.3,555-183.3,555.3z M-181.6,555.7c-0.2-0.1-0.3-0.3-0.5-0.3c-0.2,0.3-0.8,0.5-0.3,1
		C-182.1,556.2-181.9,555.9-181.6,555.7z M-182.5,551.2c0.8,0.1,0.6,0.6,0.3,1.1c0.3,0,0.2,0.5,0.6,0.3c-0.2-0.7,0.2-0.9,0.2-1.6
		C-181.9,551.1-182.3,550.6-182.5,551.2z M-181.2,554.1c-0.2-0.5-0.5-1-1.1-1c-0.2,0.5,0.2,0.5,0.2,1c-0.2,0-0.2,0.2,0,0.2
		c0-0.2,0.2-0.2,0.3-0.3C-181.6,554-181.5,554.2-181.2,554.1z M-182.1,537.4c-0.4-3.1,3.6-5,5.9-3.1c0,0,0.1,0.5,0.3,0.8
		c0.8,1.1,1.1,2.3,0.2,4.2c-1.3,0.7-2.3,1.3-3.6,1.1C-180.6,540-182,538.7-182.1,537.4z M-180.8,549.4c-0.5,0.1-0.8-0.3-1.1,0
		c0.2,0.6,1,0.3,0.6,1.4C-180.8,550.7-180.8,550-180.8,549.4z M-180.7,536.4h-0.6C-181.5,537.1-180.6,537.1-180.7,536.4z
		 M-180.8,551.4c-0.2,0-0.2,0-0.3,0v0.3c0.1,0,0.2,0,0.3,0V551.4z M-180.5,548.4c0-0.2,0.2-0.2,0.2-0.5h-0.3c0,0.2-0.2,0.2-0.2,0.5
		H-180.5z M-180,552.5c0-0.2-0.2-0.4-0.3-0.5C-180.6,552.3-180.6,552.7-180,552.5z M-179.5,537.4c0,0.4,0.2,0.5,0.5,0.6v-0.6H-179.5
		z"/>
	<path class="st0" d="M-138.4,540.5c0,0.4-0.6,0.8-0.9,1.5c-0.2,0.4,0,0.7-0.2,1c-0.6,1.2-1.9,2.1-2.3,3c-0.5,0.1-0.3,0.1-0.8,0
		c-0.5,1.4-1.7,1.9-3.2,2.3c-0.8,0.5-0.7,1.9-1.6,2.3c-0.6,2.4-1.9,4.6-3,6.7c-0.6,1.3-1.1,2.6-1.8,4c-0.2,0.3-0.6,0.6-0.8,1
		c-0.1,0.1,0.2,0.3,0.2,0.5c-0.2,0.5-1.4,1.5-1.3,2.5c0.6,0.7,2,0.6,2.4,1.6c3.4,0.2,6.8,3.3,10.4,2.3c1.6-0.5,2.2-2.1,3.8-2.9
		c-0.2-0.7,0.2-1,0.6-1.2c0.3-1.1,0.6-2.3,1.3-3.2c0.8-0.2,0.8,0.5,1.3,0.6c-0.8,1.1-0.8,3-1.9,3.8c-0.1,1.2-1.1,2.2-1.6,3.1
		c-0.4,0.6-0.3,1.1-1.2,1.2c-0.6,1.4-1.7,2.3-3.2,2.8c-0.6,0.8-1.2,0.5-1.7,1.3c-1.7,0.2-2.9,1.1-4.5,1c-0.2,0-0.3-0.3-0.6-0.3
		c-0.5,0-0.3,0-1-0.3c-0.5-0.2-0.9-0.1-1.5-0.2c-1.5-1.3-4.3-1.5-5.3-3.4h-1.3c-0.5,0.1-0.2,0.9-0.5,1.3c0,0-0.7,0.3-1.1,0.6
		c-0.8,0.9-2,2-3.9,1.8c-1.2-0.1-2.4-1.1-2.7-2.8c-0.4-3.2,1.6-5.1,2.8-7.3h0.6c0.9-2.3,4.1-0.6,6.2-0.5c0.7-0.3,0.4-1.6,1.3-1.8
		c0.7-3.1,1.8-5.3,3.2-7.8c0.4-0.9,0.7-1.9,1.3-3c0.3-0.6,1-0.9,0.8-1.6c-0.6-0.3-1.1,0.2-1.6,0.5c-4.7,1.1-9.9,1.5-13.2-1
		c-0.9,0.6,0,1.9,0,3.2c0.1,0.5-0.2,1-0.3,1.5c0,1.8,0,3.2-0.3,4.8c-0.2,1.3-0.4,2.7-1.1,3.6c-0.4-0.2-0.8-0.4-1.1-0.6
		c1.2-3.6,1.9-9.2,1.1-13.5c-0.1-0.5,0.2-0.6,0.3-1c-1.6-1.1-1.1-4.9-0.5-6.4c1.9,1.1,4.7,1.6,6.9,2.4c1.8,0.1,3.7-0.1,5.4,0
		c0.6,0.1,1.4,0.1,1.9,0.5c0.8-0.9,2.4,0.1,3.6-0.8c0.6,0.4,1.6,0,2.1-0.3c0.4,0.1,0.6,0.2,1,0.3c1.2-1.9,3.2-4.8,6.6-4.4
		C-138.9,539.6-138.4,540-138.4,540.5z M-161.3,570.1c-0.2,0.2-0.2,1.1,0.3,1.2C-161,570.9-160.6,570-161.3,570.1z M-158.8,546.1
		c0.1-0.2,0.6-0.9,0.2-1.1c-0.2,0.8-0.6,0.6-1.1,0.2C-160.2,545.8-159.2,545.9-158.8,546.1z M-158.6,570.2c-0.2-0.1-0.7,0.2-0.7,0.4
		C-158.9,570.6-158.7,570.5-158.6,570.2z M-159.1,569.3c0.4,0,0.1,0.6,0.6,0.5C-158.3,569.3-159,568.9-159.1,569.3z M-157.8,567.5
		c-0.1,0.3,0.1,0.5,0.5,0.5C-157.2,567.6-157.6,567.6-157.8,567.5z M-156,569.1c-0.4,0-0.8,0-0.8,0.3
		C-156.4,569.5-156.2,569.3-156,569.1z M-156.5,549.4c-0.1,0.5,0.6,0.6,0.6,0.2C-156.1,549.5-156.2,549.4-156.5,549.4z M-155.7,568
		c-0.2,0-0.2-0.2-0.5-0.2c-0.1,0.2-0.2,0.3-0.2,0.6C-155.9,568.5-155.6,568.4-155.7,568z M-155.8,545c-0.1,0.5,0.2,0.6,0.5,0.8
		C-155.1,545.5-155.4,545-155.8,545z M-152.5,571.4c-0.2-0.1-0.3-0.3-0.5-0.3c-0.1,0.2-0.2,0.3-0.2,0.6
		C-152.8,571.8-152.6,571.7-152.5,571.4z M-151.2,571.8c-0.1,0.4,0.3,0.3,0.5,0.5C-150.7,571.8-150.9,571.7-151.2,571.8z
		 M-150.3,546.9c-0.2,0.3-0.1,1.5,0.3,1.6C-149.7,547.8-149.4,547.3-150.3,546.9z M-148.7,568.8c-0.1,0.2-0.6,0.9-0.2,1
		C-149,569.3-148.2,569.1-148.7,568.8z M-146.8,547.6c-0.5,0-0.8,0.1-1,0.3c0.5,0.2,1.5-0.2,1.9-0.6c-0.8,0.6-0.8-1.1-1.5-0.5
		C-147.4,547.3-146.5,546.8-146.8,547.6z M-145.8,570.8c0.2-0.2,0.2-0.4-0.2-0.6c0,0.2-0.2,0.2-0.2,0.6H-145.8z M-145.3,543.9
		c-0.2-0.4-1,0.2-0.5,0.3C-145.8,544-145.3,544.2-145.3,543.9z M-143,542.2c0-0.5-0.6-0.6-0.7-0.2
		C-143.5,542.1-143.4,542.2-143,542.2z M-141.5,542.3c-0.4-0.2-0.7,0.6-0.3,0.6C-141.8,542.6-141.4,542.8-141.5,542.3z"/>
	<path class="st0" d="M-105.2,561.3c-0.5,1.1-1.2,1-0.9,2c-0.9-0.6,0.2,0.4-0.6,0.2c0.6,0.4,0.3,0.4,0,0.9c-0.3-0.1,0-0.2,0-0.4
		c-0.5,1-1.5,2.5-1.9,2.9c-1.7,1-3.1,4.3-6.1,5.1c0.1,0.7-0.5,0.7-1.6,1.3c-0.4,0.2-0.2,0.2-0.9,0.5c-0.6,0.2-0.1,0.2-0.7,0.2
		c-0.6,0.1-1.4,0.8-1.8,0.9c-0.5,0.1-2-0.5-1.6,0.2c-0.2,0.2-1.1,0-1.9,0.2c0.7-0.9,0.1-0.2-0.4-0.9c-0.3,0-0.3,0.6,0,0.6
		c0,0.4-1-0.1-0.6-0.4c0.1,0,0.1,0,0.1-0.1c0,0.1-0.1,0.1-0.1,0.1c-0.8,0.5-3.5,0.4-3.1-0.5c-2.1,0.8-6.1-3.5-5.7-6
		c-0.5-0.8-1.1-2.8-0.6-3.9c0,0.1,0.4,0.2,0.4,0.2c0-0.2-0.3-0.4-0.4-0.6c-0.3-1.4,0.4-3.6,0.6-4.6c0.4-1.7,0.5-3.2,1.1-4.8
		c1.1-2.7,3.4-6.3,4.8-7.8c0.8-0.7,2.2-1.4,3-2c2.4-1.9,8.1-2.7,10.4,0.4c0.3,0.3,0.6,0.6,0.8,1c0,0,0.2,0.2,0.2,0.3
		c0.1,0.2,0.9,1.9,1,2.7c0.1,0.7,0,2.3,0,2.3c0,0.2-0.4,2-0.6,2c-0.6,1.6-1.7,3.2-3.2,4.4c-2.7,2.4-6.1,4.2-10,5.6
		c-0.5,3.2,0.1,4.9,0.7,6.4c0.3,0.9,1.6,1,2,1.9c1.4-0.1,2.2-0.2,3.9-0.2c2.8-1.5,6.5-2.1,8-4.8c0.7,0.2,0.7-0.4,1.1-0.5
		c0.1-1.9,2.9-2.4,2.5-4.1c0.6,0,1-1.2,1.1-2.3c0.2,0.2,0.8-1,0.9-1.2C-104.3,559.3-106,561.4-105.2,561.3z M-130.5,561.8
		c-0.3,0.5-1-0.3-1.1,0.2c0.3,0,0.2,0.4,0.5,0.5c-0.1-0.4,0.2-0.6,0.2,0h0.4C-130.4,562.2-130.1,562-130.5,561.8z M-127.5,567.7
		c-0.8,0.1-1.2,0-1.4,0.2C-128.5,568-127.8,568.4-127.5,567.7z M-128.7,565.9c0.1,0.1,0.9,0.6,0.9,0c-0.4-0.1,0.1-0.2,0.2-0.4
		c-0.3,0-0.5-0.2-0.7-0.2c0,0.2,0.1,0.6-0.2,0.6C-128.4,565.8-128.7,565.6-128.7,565.9z M-128.4,562.7c0.4,0,1.7-0.4,0.9-0.9
		C-127.8,562.2-128.4,562.1-128.4,562.7z M-127.8,569.5c-0.3,0.2-0.6-0.9-0.6-0.2C-128.2,569.3-128,570.3-127.8,569.5z M-128,553.6
		c0.6,0.3,0.6-1.1,0-0.7V553.6z M-126.1,570.7c0-0.7-0.8-0.6-1.1-1c-0.1,0.3-0.3,0.5-0.2,1C-126.7,570.5-126.5,571.1-126.1,570.7z
		 M-125.3,561.1c1.4-0.2,1.4-0.6,2.3-1.4c0.3-0.2,0.9-0.4,1.1-0.6c1.1-1,1.8-1.9,2.3-2.8c0.6-1,1.9-2,2.3-3c0,0.1,0.3-0.4,0.4-0.6
		c0.7-2-0.4-2,1.2-3.6c-1.1,0.6-0.6-2-1.4-2.8c-0.6-0.3-1.1,0.5-1.1,0c-0.1,0.1-0.9,0.6-1.9,0.9c-0.2,1.1-1.3,1.5-1.9,2.5
		c0.1-0.1-3,4.9-3.2,9.4C-125,558.6-125.2,559.9-125.3,561.1z M-115.8,556.7c-0.2,0-0.6,0.6-0.5,0.8c0.2-0.2,0.4-0.3,0.5-0.5V556.7z
		 M-115.6,552.4c-0.8,0.6,1,1.2,0.2,1.8c0.8-0.1,0.9,0.8,1.9,1c-0.2-0.1-1.2-1.1-0.2-1.1c-0.2-0.7-0.7,0.1-1.1,0
		c0.5-0.5-0.6-0.6-0.2-1.6c-0.2,0-0.2,0.2-0.2,0.4C-115.6,552.8-115.6,552.6-115.6,552.4z M-115,555.4c-0.2,0.2-0.6,1.1,0.2,0.9
		c0.1-0.4-0.3-0.6,0-0.7C-114.6,556.4-114.4,555.4-115,555.4z M-115.1,550.6c0,0.3,0.9-0.2,1.5,0c0.2,0.6-0.4,0.2-0.4,0.2
		c0,0.6,0.6,1.2,0.9,1.6c0.2-0.2,0.2-0.6,0.3-0.8c-0.3-0.1-0.6-0.3-0.6-0.8c0.2-0.2,0.4-0.2,0.6-0.2c0.1-0.2-0.3-1-0.3-1.3
		c-0.2,0.6-0.4,1-1.1,0.6c0.3-0.3,0.6-1.1-0.3-1C-114.4,549.8-115.4,549-115.1,550.6z"/>
</g>
</svg>
