<?xml version="1.0" encoding="utf-8"?>
<!-- Generator: Adobe Illustrator 19.0.0, SVG Export Plug-In . SVG Version: 6.00 Build 0)  -->
<svg version="1.1" id="Layer_1" xmlns="http://www.w3.org/2000/svg" xmlns:xlink="http://www.w3.org/1999/xlink" x="0px" y="0px"
	 width="124.2px" height="106.1px" viewBox="0 0 124.2 106.1" style="enable-background:new 0 0 124.2 106.1;" xml:space="preserve"
	>
<style type="text/css">
	.st0{fill-rule:evenodd;clip-rule:evenodd;fill:#FFFFFF;}
</style>
<path class="st0" d="M4,0C3.9-0.1,4.2,0.2,4,0"/>
<path class="st0" d="M74.2,67.8c0.4,0.2,1.9,2.5,0.3,0.7c-0.4-0.5-1.9-1.8-2.1-2.2c0.1,0.1,0.1-0.5,0-0.6c0.1,0.1-2.1-3-2-3
	c0.3,0,1.9,2.2,1.5,1.5c-1-1.7-4.9-5.2-6.2-7.4c-1.1-1.7,0.5,0,0.6,0.1c-0.3-0.8-2.1-2.4-1.9-3c-0.1,0.2,0.8,0.8,0.7,0.6
	c-0.6-1.1-1.6-2.2-2.5-3.5c-5.8-8.6-11.8-17.7-18.8-25.8c-3.4-4.1-7.2-7.9-11.2-11.3c-1-0.8-2-1.7-3.1-2.5c-1.1-0.8-2.1-1.5-3.2-2.3
	c-1.1-0.7-2.2-1.4-3.3-2l-1.6-1c-0.6-0.3-1.1-0.6-1.7-0.9c-0.6-0.3-1.2-0.6-1.8-1c-0.6-0.3-1.2-0.7-1.8-0.9c-1.2-0.5-2.5-1-3.6-1.3
	c-0.3-0.1-0.6-0.2-0.9-0.2c-0.3-0.1-0.7-0.1-1-0.2C9.9,1.4,9.1,1.2,8.3,0.9c-1-0.3-1.7-0.7-2.5-0.8C5,0,4.1,0,2.9,0.1
	C2.4,0.2,3.1,0.4,1.9,0.3c-0.2,0-0.8-0.1-0.7,0.1c0.1,0.2,2,0.6,4.1,1.1C7.4,2,9.8,2.8,11.1,3.1c7.6,2.6,15.4,6.9,22.3,12.9
	c6.9,6,13,13.4,18.2,21c3.2,4.6,6.9,10.7,10.4,15.4c1.1,1.5,1.7,2.4,3.1,4.2c0.3,0.3,1.5,1.6,1.9,2.4c0.1,0.3-0.1,0.4,0.1,0.8
	c0.3,0.5,1,0.9,1.3,1.3c0.6,0.9,0.9,1.9,1.5,2.8c1.1,1.5,2.5,2.7,3.3,4c0.2,0.3-0.3,0.2-0.3,0.3c0.3,0.4,0.9,0.7,1.2,1.1
	c1.3,1.7,2.3,3.7,3.5,5.1c0.5,0.5,1.2,0.9,1.6,1.4c0.4,0.5,0.5,1,0.9,1.5c0.6,0.6,1.8,1.3,2.3,2.1c0.3,0.4-0.5,0,0.1,0.6
	c0.3,0.4,1,0.6,1.3,1c1,1,1.8,2.3,2.7,3.4c0.4,0.4,1.1,0.5,1.4,0.9c0.3,0.3,0.4,0.8,0.7,1.1c0.8,0.8,1.6,1.6,2.5,2.3
	c0.9,0.7,1.8,1.4,2.8,2.1c0.5,0.4,0.9,0.7,1.4,1.1c0.5,0.3,1,0.7,1.4,1c0.9,0.7,1.8,1.4,2.7,2.2c0.8,0.7,1.9,1.5,3.1,2.3
	c1.2,0.8,2.4,1.6,3.7,2.2c0.1-0.2,0.4,0,0,0c0.2,0.8,0.6,0.1,0.7,0.1c0.6,0.1,1.8,1.2,2.8,1.8c1,0.5,1.8,0.8,3,1.4
	c1.3,0.6,3.1,1.5,5,1.9c1.9,0.5,3.6,1,4.7,1.1c-2.2-0.3-3.8-0.6-5-0.8c-1.2-0.2-1.9-0.3-2.3-0.4c-0.7-0.2,0,0.1,1.3,0.3
	c1.3,0.2,3.2,0.6,4.7,0.7c1.6,0.2,2.8,0.1,2.9-0.1c0.1-0.2-0.3-0.4-1-0.6c-0.7-0.2-1.5-0.4-2.5-0.7c-1.9-0.5-3.9-1-4.3-1.3
	c0.2,0.2,1-0.2,0.4-0.5c-0.3-0.1-3.5-1.4-3.5-1.2c0-0.1,2.3,1.1,2.3,1.1c0,0-2.3-0.9-2.2-0.9c0.2,0.1-2.6-1-2.3-1.1
	c-0.2,0.2,2,0.7,1.6,0.4c-0.6-0.4-1.1-0.5-1.7-0.7c-0.5-0.2-1-0.3-1.3-0.6c-1.3,0.2-2.6-1.6-3.2-1.5c1.1-0.2,1.6,1.2,3.2,1.5
	c-0.9-0.6-4-2.6-4.6-2.3c1.2,0.4,0,0.7,0,0c-1.1-0.8-3-1.4-3.6-2.3c-1-0.4-1.2-0.8-1.1-0.8c0.2,0,0.7,0.2,1.1,0.8
	c0.2,0.4,3.5,1.6,3.5,1.8c-0.3-0.8-2.3-1.2-3-1.7c-1.4-0.9-2.7-2-4.2-3.2c-1.5-1.1-3-2.5-4.6-3.8c-3.1-2.7-6.1-5.7-8.7-8.4
	c0.5,0.9,2.2,2.4,2.1,2.2c2.1,2.5-3.5-2.6-3.4-3.2c0-0.1,0.8,0.3,0.8,0.2c-0.5-0.8-1.8-1.6-1.9-1.7c-0.6-0.4,1.4,1.4,1,1.3
	c-0.4,0-1.7-1.8-1.7-2c0,0,0.6,0.1,0.6,0.1c-1.3-1.8-3.3-3.4-4.2-4.8c-0.1,1.3-1.3-1.5,0,0c-0.1-0.7-1.4-1.6-1.9-2.4l-0.1,0.1
	c1,0.8-0.2,0.6,0,0c-0.1-0.1-0.1-0.3,0.1-0.1C75.9,69,74.4,67.9,74.2,67.8 M61.6,50.3C61.6,50.2,61.6,50.5,61.6,50.3 M62,50.9
	c0.1,0,0.7,0.3,0.7,0.6C62.7,52.1,61.8,51,62,50.9 M62.9,52c0-0.2,0.6,0.3,0.6,0.4C63.5,52.6,62.9,52.2,62.9,52 M67.8,60.1
	c0-0.2,0.6,0.3,0.6,0.4C68.4,60.7,67.8,60.3,67.8,60.1 M76.5,71.1C76.5,71,76.5,71.3,76.5,71.1 M72.8,67.1c0-0.4,2.6,2.7,1.2,1.4
	c0,0-0.3-0.3-0.6-0.6C73.1,67.6,72.8,67.2,72.8,67.1 M78.8,73.8c0.3-0.7,2.4,3.3,0.5,0.8C79.4,74.8,78.8,73.7,78.8,73.8 M80.9,76.4
	C80.9,76.3,80.9,76.6,80.9,76.4 M80.1,76.5C80.1,76.3,80.2,76.7,80.1,76.5 M80.8,77.1c0-0.2,0.6,0.2,0.6,0.4
	C81.5,77.7,80.8,77.3,80.8,77.1 M81.8,78.2c0-0.4,2.4,2.7,1.2,1.5C82.7,79.4,81.8,78.5,81.8,78.2 M87.4,83.6c0-0.2,0.6,0.2,0.7,0.3
	C88.1,84,87.4,83.7,87.4,83.6 M83.8,80.5c0-0.2,0.6,0.2,0.6,0.3C84.5,81,83.9,80.6,83.8,80.5 M88.2,84.5c-0.1-0.4,2.9,2.4,0.7,0.6
	C88.8,85,88.2,84.6,88.2,84.5 M91,87.1c0-0.2,0.5,0.2,0.9,0.6c0.4,0.3,0.5,0.5-0.3-0.1C91.4,87.5,91,87.2,91,87.1 M95.6,91.2
	c0-0.2,2.8,1.5,2.9,2c0,0.1-0.7-0.4-1.5-0.9c-0.4-0.3-0.7-0.5-1-0.7C95.8,91.3,95.6,91.2,95.6,91.2 M98.6,93.4
	c-0.1-0.3,2.7,1.6,0.8,0.5C99.3,93.9,98.6,93.5,98.6,93.4 M110.5,100.7c-0.1-0.1,0.5,0,0.5,0C111,100.8,110.5,100.7,110.5,100.7
	 M107.1,99.5c-0.1-0.1,0.8,0,0.9,0.2C108.1,99.9,107.2,99.7,107.1,99.5 M108.4,100.1c-0.1-0.1,0.6,0,0.7,0.1
	C109.2,100.4,108.5,100.2,108.4,100.1 M100.2,95.9c-0.1-0.1,0.5,0,0.5,0.1C100.7,96.1,100.2,96,100.2,95.9 M112.6,102.2
	C112.6,102.1,112.7,102.4,112.6,102.2 M114.6,103c-0.1-0.2,0.8,0.1,1.5,0.4c0.7,0.2,1.2,0.5,0.3,0.3
	C116.4,103.7,114.7,103.2,114.6,103 M117.3,103.9c-0.1-0.1,0.5-0.1,0.5,0C117.8,104,117.3,104,117.3,103.9 M118.4,104.3
	c0.3,0.5,2.6,0.2,2.9,0.7C121.4,105,118.6,104.6,118.4,104.3 M121.7,105.3c0.2,0.3,1.8,0,2.1,0.3c0,0-0.4,0.1-0.9,0.1
	C122.4,105.7,121.9,105.6,121.7,105.3 M104,98.3C104,98.2,104.1,98.5,104,98.3"/>
<path class="st0" d="M0,0.3C-0.1,0.2,0.2,0.5,0,0.3"/>
</svg>
