<?xml version="1.0" encoding="utf-8"?>
<!-- Generator: Adobe Illustrator 19.0.0, SVG Export Plug-In . SVG Version: 6.00 Build 0)  -->
<svg version="1.1" id="Layer_1" xmlns="http://www.w3.org/2000/svg" xmlns:xlink="http://www.w3.org/1999/xlink" x="0px" y="0px"
	 width="273.4px" height="113.2px" viewBox="0 0 273.4 113.2" style="enable-background:new 0 0 273.4 113.2;" xml:space="preserve"
	>
<style type="text/css">
	.st0{fill-rule:evenodd;clip-rule:evenodd;fill:#FFFFFF;}
</style>
<path class="st0" d="M186.5,24.1c0.4,0.2,1.7,1,2.3,1.6c0.6,0.6,0.7,0.7-1.3-0.6c-1.1-0.7-4.3-2.5-5.1-3c0.2,0.1-0.3-0.6-0.6-0.8
	c-0.3-0.2-5.6-3.6-5.8-3.7c0.2,0,1.5,0.6,2.5,1.2c1,0.6,1.8,1.1,1.2,0.6c-1.6-1.2-4.8-2.6-8-4.1c-1.7-0.7-3.3-1.4-4.9-2
	c-1.5-0.7-3-1.2-4.1-1.7c-3.6-1.7,0.7-0.2,0.9-0.1c-0.7-0.4-2.2-0.9-3.5-1.5c-1.4-0.5-2.6-0.9-2.9-1.3c0.2,0.3,2.1,0.5,1.8,0.4
	c-1.1-0.5-2.4-1-3.7-1.4c-1.3-0.5-2.7-0.8-4.1-1.2c-19.3-6.3-40.9-7.7-61.8-5.2c-20.9,2.5-41,9.1-58.6,17.9
	c-2.4,1.2-4.8,2.4-7.1,3.6c-2.3,1.3-4.5,2.6-6.4,3.9c-1.8,1.3-4.1,2.9-7,4.7c-1.7,1.1-2.9,1.9-4.2,2.8c-0.6,0.5-1.3,1-1.9,1.6
	C3.7,36.4,3,37.1,2.2,38c-0.6,0.7,0.6-0.1-1.2,1.3c-0.3,0.2-1.2,1.1-0.9,1c0.2,0,1-0.6,2.2-1.5C3.5,38,5,36.8,6.8,35.6
	c1.8-1.2,3.6-2.6,5.3-3.7c1.7-1.1,3.3-2.1,4.4-2.9c1.6-1.1,3.4-2.1,5.1-3.1c1.8-1,3.5-2.1,5.3-3c1.8-1,3.7-2,5.5-2.9
	c1.9-0.9,3.8-1.8,5.8-2.8c7.8-3.6,16.1-6.8,24.7-9.4c17.3-5.1,36-7.5,54-6.4c2.7,0.2,5.7,0.4,8.6,0.8c3,0.3,6,0.9,9.1,1.4
	c1.5,0.3,3,0.7,4.6,1c0.8,0.2,1.5,0.3,2.3,0.5c0.8,0.2,1.5,0.4,2.2,0.6c1.5,0.4,3,0.8,4.4,1.1c1.4,0.4,2.8,0.8,4.2,1.3
	c1.8,0.5,3.1,1,4.5,1.5c1.4,0.5,2.9,1,4.9,1.8c0.4,0.1,1.4,0.5,2.4,0.9c0.5,0.2,1.1,0.4,1.6,0.6c0.5,0.2,1,0.5,1.4,0.7
	c0.5,0.3,0.3,0.5,1.1,0.9c1,0.5,2.4,0.8,3.4,1.3c1.7,1,3.4,2.3,5.1,3.3c3,1.9,6.2,3.3,8.6,5.2c0.5,0.4-0.2,0.3-0.2,0.4
	c0.8,0.6,1.9,1,2.7,1.6c1.6,1.2,3.2,2.6,4.7,4c1.5,1.4,2.9,2.8,4.3,3.9c1.1,0.8,2.3,1.6,3.2,2.5c0.8,0.8,1.3,1.7,2.2,2.4
	c1.2,1.1,3.2,2.6,4.4,3.9c0.7,0.8-0.7-0.2,0.4,1c0.7,0.7,1.6,1.4,2.3,2.1c1.9,2,3.4,4.4,5.2,6.5c0.6,0.8,1.6,1.5,2.2,2.3
	c0.5,0.7,0.7,1.4,1.2,2.1c5.2,6.8,11.3,14,16.2,21.2c2.3,3.4,6.2,8.5,9.7,12.4c0.1-0.2,0.5,0.4,0,0c0.2,1.2,1,0.8,1.1,0.9
	c0.9,0.8,2.6,3.3,4.3,5c1.5,1.6,2.7,2.7,4.6,4.6c2,1.9,5.1,4.4,8.2,6.5c3.1,2.1,6.2,3.8,8.1,4.6c-3.9-1.8-6.7-3.4-8.7-4.6
	c-1.9-1.2-3.1-1.9-3.7-2.3c-0.6-0.4-0.6-0.3-0.1,0c0.4,0.3,1.3,0.9,2.3,1.6c2.1,1.4,5.4,3.2,8.1,4.5c1.4,0.6,2.6,1.1,3.5,1.5
	c0.9,0.3,1.5,0.5,1.6,0.4c0.3-0.4-2.9-1.9-6.1-3.8c-1.6-0.9-3.3-2-4.6-2.9c-1.3-0.9-2.3-1.7-2.7-2.1c0.4,0.4,1.6,0.5,0.6-0.3
	c-0.3-0.2-1.7-1.4-3.1-2.4c-1.4-1.1-2.6-2.1-2.6-2c0-0.1,0.9,0.8,1.9,1.6c0.5,0.4,0.9,0.9,1.3,1.2c0.4,0.3,0.6,0.5,0.6,0.5
	c-0.1-0.1-3.8-3.1-3.5-2.9c0.3,0.3-4-3.5-3.6-3.6c-0.4,0,3.1,2.7,2.4,2c-0.9-1-1.8-1.7-2.6-2.4c-0.8-0.7-1.5-1.3-2.1-2
	c-2-0.9-3.9-4.6-4.7-5c1.6,0.8,2.3,3.2,4.7,5c-0.4-0.4-0.9-1.1-1.6-1.8c-0.6-0.8-1.4-1.6-2.1-2.5c-1.4-1.7-2.7-3.1-3.2-3.1
	c1.7,1.7,0,0.9,0,0c-1.6-2.1-4.3-4.7-5.2-6.5c-2.9-3.2-1.1-2.3,0,0c0.2,0.8,5,5.5,5.1,5.8c-0.5-1.4-3.3-3.8-4.4-5.3
	c-3.8-5-8.3-11.3-13.1-17.7c-4.8-6.4-10-12.9-15-18.3c1.1,1.6,4.2,4.8,3.9,4.5c1.9,2.5,0.5,1-1.5-1.2c-2-2.2-4.6-5-4.8-5.5
	c0-0.1,1.3,0.8,1.2,0.6c-1.2-1.4-3.4-3.1-3.7-3.4c-1.2-0.9,2.8,2.6,2.2,2.4c-0.6-0.2-3.4-3.4-3.5-3.7c0,0,1,0.4,0.9,0.3
	c-1.4-1.6-3.2-3.1-4.8-4.6c-1.7-1.4-3.3-2.6-4.5-3.7c0.9,1.9-2.9-2.4,0,0c-0.6-1.1-3.2-2.6-4.7-3.8l-0.1,0.2c2.1,1.2,0.2,0.9,0,0
	c-0.2-0.1-0.4-0.5,0.1-0.2c-0.3-0.5-1.2-1.2-2.1-1.8C187.6,24.6,186.7,24.2,186.5,24.1 M149,6.1C148.8,6,149.3,6.3,149,6.1
	 M150.3,6.5c0-0.1,1.4,0,1.8,0.3C152.9,7.4,150.2,6.7,150.3,6.5 M153,7.2c-0.2-0.2,1.1,0,1.3,0.2C154.5,7.6,153.2,7.4,153,7.2
	 M169.8,14.8c-0.2-0.2,1.1,0.2,1.3,0.4C171.3,15.4,170,15,169.8,14.8 M192.7,29C192.6,28.8,192.9,29.3,192.7,29 M184,23.2
	c-0.4-0.6,6.2,3.8,3.1,2c0,0-0.7-0.4-1.4-0.9C184.9,23.9,184.1,23.4,184,23.2 M198,33.4c0-1.1,5.6,5.6,1.3,1.3
	c0.1,0.1-0.2-0.2-0.5-0.7C198.4,33.7,198,33.3,198,33.4 M202.7,37.8C202.6,37.6,202.9,38.1,202.7,37.8 M201.7,37.7
	C201.6,37.5,201.9,38,201.7,37.7 M203.1,38.9c-0.1-0.2,1,0.5,1.1,0.8C204.3,39.9,203.2,39.1,203.1,38.9 M205.1,40.8
	c-0.2-0.6,4.9,5,2.5,2.7C207,42.9,205.2,41.3,205.1,40.8 M215.5,51.7c-0.1-0.3,0.9,0.6,1,0.9C216.6,52.9,215.6,52,215.5,51.7
	 M209.2,45.1c-0.1-0.2,1,0.6,1.1,0.8C210.3,46.2,209.3,45.4,209.2,45.1 M216.8,53.6c-0.2-0.7,4.8,5.6,1.2,1.4
	C217.9,54.8,216.9,53.8,216.8,53.6 M221.4,59.4c-0.2-0.7,3.5,4.2,0.9,1.1C222.2,60.3,221.5,59.5,221.4,59.4 M228.6,69
	c0-0.4,4.1,4.7,4.3,5.4c0,0.2-1-1.2-2.1-2.6C229.7,70.5,228.6,69.1,228.6,69 M233,75c-0.2-0.6,3.9,4.7,1.1,1.4
	C234,76.2,233.1,75.1,233,75 M250.5,95.8c-0.1-0.2,0.7,0.3,0.8,0.5C251.3,96.5,250.5,96,250.5,95.8 M245.4,91.2
	c-0.1-0.3,1.2,0.9,1.4,1.2C246.9,92.7,245.6,91.5,245.4,91.2 M247.3,93.2c-0.1-0.2,1,0.6,1.1,0.8C248.5,94.3,247.4,93.5,247.3,93.2
	 M235.4,79.8c-0.1-0.2,0.7,0.4,0.7,0.6C236.2,80.6,235.5,80,235.4,79.8 M253.8,99.8C253.7,99.6,254,100.1,253.8,99.8 M257,102.5
	c-0.2-0.3,1.3,0.8,2.4,1.7c1.1,0.9,2,1.6,0.5,0.6c0,0-0.6-0.5-1.3-1C257.8,103.2,257.1,102.7,257,102.5 M261.3,105.8
	c-0.1-0.2,0.7,0.2,0.8,0.4C262.3,106.4,261.4,106,261.3,105.8 M263.2,107.2c0.3,0.4,1.4,1,2.5,1.5c1.1,0.5,2.3,1,2.6,1.5
	c0,0-0.3-0.1-0.7-0.3c-0.4-0.2-1-0.5-1.7-0.9C264.7,108.3,263.4,107.5,263.2,107.2 M269,110.8c0.4,0.4,3.2,1.3,3.7,1.8
	c0,0-0.7-0.2-1.6-0.5C270.3,111.7,269.3,111.3,269,110.8 M240.9,86.7C240.8,86.5,241,87,240.9,86.7"/>
</svg>
