<?xml version="1.0" encoding="utf-8"?>
<!-- Generator: Adobe Illustrator 19.0.0, SVG Export Plug-In . SVG Version: 6.00 Build 0)  -->
<svg version="1.1" id="Layer_1" xmlns="http://www.w3.org/2000/svg" xmlns:xlink="http://www.w3.org/1999/xlink" x="0px" y="0px"
	 width="75.6px" height="49.9px" viewBox="0 0 75.6 49.9" style="enable-background:new 0 0 75.6 49.9;" xml:space="preserve">
<style type="text/css">
	.st0{fill-rule:evenodd;clip-rule:evenodd;fill:#FFFFFF;}
</style>
<path class="st0" d="M52.1,26.9c0-0.3,1.3-1.2,0.4-0.2c-0.2,0.3-0.8,1.2-1,1.4c0.1,0-0.3-0.1-0.4-0.1c0.1,0-1.6,1.2-1.6,1.1
	c-0.1-0.2,1.1-1.2,0.7-1c-1,0.5-2.5,3.2-3.8,4c-1,0.6-0.1-0.4-0.1-0.5c-0.5,0.2-1.3,1.3-1.7,1c0.2,0.1,0.4-0.5,0.3-0.5
	c-0.7,0.3-1.2,0.9-1.9,1.4C38,36.8,32.6,39.7,27,41.9c-5.6,2.2-11.3,3.9-16.8,4.9c-1.5,0.3-5.1,1.4-6.3,1.9c-0.6,0.2-4,1-3.9,1.1
	c0.2,0.3,4.2-0.4,5.7-0.7c2.2-0.4,4.6-0.9,7-1.5c2.4-0.6,4.8-1.4,7.3-2.1c4.9-1.7,10-3.6,14.8-5.9c0.7-0.3,1.5-0.7,2.3-1
	c0.8-0.4,1.6-0.8,2.4-1.2c0.8-0.4,1.6-0.9,2.4-1.3c0.8-0.5,1.5-1,2.1-1.6c0.8-0.7,1.4-1,2.3-1.8c0.2-0.2,0.8-1,1.3-1.2
	c0.2-0.1,0.3,0.2,0.5,0c0.3-0.2,0.4-0.7,0.6-0.9c0.5-0.3,1.2-0.4,1.6-0.8c0.9-0.6,1.3-1.7,2-2.1c0.2-0.1,0.2,0.3,0.3,0.3
	c0.2-0.2,0.3-0.6,0.5-0.8c0.9-0.8,2.2-1.2,2.9-2c0.3-0.3,0.4-0.8,0.6-1.1c0.2-0.2,0.7-0.2,0.9-0.4c0.3-0.4,0.5-1.2,1-1.5
	c0.2-0.2,0.1,0.4,0.5,0.1c0.2-0.2,0.2-0.6,0.4-0.9c0.5-0.6,1.3-1,1.9-1.5c0.2-0.2,0.2-0.7,0.4-0.9c0.2-0.1,0.5-0.1,0.7-0.3
	c0.9-0.8,1.6-1.9,2.4-3c0.8-1.1,1.5-2.1,2.5-2.9c0.9-0.8,2.1-2.1,2.9-3.4c-0.2-0.1,0-0.2,0,0c0.6,0.2,0.1-0.4,0.1-0.4
	c0.1-0.4,0.9-0.8,1.3-1.3c0.4-0.5,0.6-0.9,1.1-1.5c1-1.2,2.4-3.7,2.8-4.9c-3.4,9.9,0.7-0.5,0-1.1c-0.7-0.6-2.1,3.5-2.7,3.7
	c0.2-0.1-0.1-0.7-0.4-0.5c-0.1,0.1-1.1,1.8-1,1.9c-0.1,0,0.9-1.1,0.9-1.1c0,0-0.7,1.2-0.7,1.1c0.1-0.1-0.8,1.3-0.9,1.1
	c0.2,0.2,0.5-1.1,0.3-0.9c-0.6,0.5-0.5,1.3-1,1.6c0.3,1-1.2,1.2-1.1,1.7C68.9,7.8,70,8,70.1,7c-0.4,0.5-2,1.9-1.6,2.4
	c0.2-0.7,0.6,0.2,0,0c-0.5,0.5-0.8,1.7-1.4,1.9c-0.5,1.2-0.8,0.2,0,0c0.4,0,0.9-2,1.1-2c-0.6,0-0.7,1.3-1.1,1.7
	c-1.2,1.3-2.7,3-4.1,4.7c-1.5,1.7-3.1,3.4-4.5,5c0.6-0.2,1.3-1.3,1.2-1.2c1.4-1.2-1.1,2.3-1.6,2.1c0,0,0-0.6,0-0.6
	c-0.5,0.3-0.7,1.1-0.8,1.3c-0.2,0.4,0.7-0.9,0.7-0.6c0.1,0.3-0.9,1-1.1,1c0,0-0.1-0.5-0.1-0.5c-1.1,0.7-1.7,2.1-2.4,2.6
	c1,0.3-0.8,0.8,0,0c-0.5-0.1-0.8,0.8-1.3,1.1l0.1,0.1c0.3-0.7,0.5,0.3,0,0c0,0.1-0.2,0-0.1-0.1C52.5,25.7,52.1,26.7,52.1,26.9
	 M42.6,34.4C42.5,34.4,42.8,34.4,42.6,34.4 M42.9,34.1c0-0.1,0.1-0.6,0.3-0.5C43.6,33.8,43,34.3,42.9,34.1 M43.5,33.6
	c-0.1,0,0.1-0.5,0.2-0.4C43.8,33.2,43.6,33.6,43.5,33.6 M48.2,30.9c-0.1,0,0-0.5,0.2-0.4S48.3,30.9,48.2,30.9 M53.9,25.5
	C53.8,25.5,54,25.6,53.9,25.5 M51.9,27.9c-0.3-0.1,1.3-1.7,0.7-0.8c0,0-0.1,0.2-0.3,0.4S52,27.9,51.9,27.9 M55.3,24.2
	c-0.6-0.4,1.8-1.4,0.5-0.3C55.9,23.8,55.2,24.1,55.3,24.2 M56.6,22.9C56.5,22.9,56.8,22.9,56.6,22.9 M56.9,23.5
	C56.8,23.5,57,23.5,56.9,23.5 M57.2,23.1c-0.1,0,0-0.5,0.1-0.4C57.4,22.6,57.3,23.1,57.2,23.1 M57.7,22.5c-0.3-0.1,1.4-1.5,0.8-0.7
	C58.4,22,58,22.5,57.7,22.5 M60.4,19c-0.1,0,0-0.5,0.1-0.4C60.6,18.6,60.5,19,60.4,19 M58.9,21.3c-0.1,0,0-0.5,0.1-0.4
	C59.2,20.8,59.1,21.3,58.9,21.3 M60.9,18.6c-0.3,0,1.2-1.8,0.3-0.4C61.2,18.3,61,18.6,60.9,18.6 M62.4,17.1c-0.3,0,0.9-1.3,0.2-0.3
	C62.6,16.8,62.4,17.1,62.4,17.1 M64.6,14.5c-0.2-0.1,0.8-1.7,1.1-1.6c0.1,0-0.2,0.4-0.5,0.8C64.9,14.1,64.6,14.5,64.6,14.5 M66,12.9
	c-0.3,0,0.9-1.5,0.3-0.4C66.3,12.5,66.1,12.9,66,12.9 M70.7,6.8c-0.1,0-0.1-0.3,0-0.3C70.8,6.4,70.8,6.8,70.7,6.8 M70,8.7
	c-0.1,0,0-0.6,0.1-0.6C70.2,8.1,70.1,8.7,70,8.7 M70.4,8c-0.1,0-0.1-0.5,0.1-0.4C70.6,7.6,70.5,8,70.4,8 M67.7,12.4
	c-0.1,0-0.1-0.3,0-0.3C67.8,12.1,67.8,12.4,67.7,12.4 M72,5.9C71.9,5.9,72.1,5.9,72,5.9 M72.6,4.9c-0.3,0,1-1.9,0.6-0.9
	c0,0-0.1,0.2-0.2,0.4C72.8,4.7,72.7,4.9,72.6,4.9 M73.4,3.5c-0.1,0-0.1-0.3,0-0.3C73.5,3.2,73.5,3.5,73.4,3.5 M73.8,3
	c0.4,0,0.3-1.6,0.7-1.6C74.5,1.4,74.1,3,73.8,3 M74.8,1.3c0.2,0,0.1-1.1,0.5-1.1C75.3,0.2,75.3,1.3,74.8,1.3 M69.3,10.4
	C69.2,10.4,69.4,10.5,69.3,10.4"/>
</svg>
