<?xml version="1.0" encoding="utf-8"?>
<!-- Generator: Adobe Illustrator 19.0.0, SVG Export Plug-In . SVG Version: 6.00 Build 0)  -->
<svg version="1.1" id="Layer_1" xmlns="http://www.w3.org/2000/svg" xmlns:xlink="http://www.w3.org/1999/xlink" x="0px" y="0px"
	 width="129px" height="37px" viewBox="-535 297 129 37" style="enable-background:new -535 297 129 37;" xml:space="preserve">
<style type="text/css">
	.st0{fill:#FFD83B;}
</style>
<path class="st0" d="M-506.4,307.3c-0.3,1.3-0.5,2.7-0.8,3.9c0,0.3,0,0.7-0.1,0.9c0,0.1,0,0.3-0.1,0.4c0,0,0,0,0,0.1
	c-0.1,0.4-0.1,0.8-0.2,1.1c-0.1,0.8-0.2,1.5-0.3,2.3v0.5c0,0,0,0-0.1,0c0,0.1,0,1.2-0.1,1.2v0.4c-0.1,1-0.3,2.2-0.3,2.3h0.1
	c-0.1,1.2,0.2,2.4-0.3,3.2l0,0c0.4,2.1,0,4.9,0.6,7.3c-1.4,0.5-3.1-1.5-3.4-2.7c-0.1-0.4,0-0.7,0-1.1c0-0.2-0.2-0.3-0.2-0.5
	c0-0.9-0.1-2.6-0.2-4c0.2,0,0.5,0,0.5-0.2c0-0.1-0.1-0.2-0.1-0.3c-1.2,0.6-3.4,0.1-5.2,0.1c-0.8,0.3-0.6,2.2-1.5,2
	c0,0.2,0.2,0.3,0.1,0.6c-0.4,0.4-0.4,1.1-1,1.2c0,0.7-0.8,1.5-1.3,2c-0.1,1-1.2,1.5-1.7,2.2c-0.1,0.1,0,0.3-0.1,0.4
	c-0.1,0.1-0.4,0.2-0.5,0.3c-0.1,0.1-0.2,0.4-0.3,0.5c-0.1,0.1-0.3,0-0.4,0.1c-0.2,0.1-0.6,0.4-0.9,0.6c-0.6,0.5-0.8,0.7-1.7,1.1
	c-0.5,0.2-1.5,0.7-2.5,0.5c-0.1,0-0.3-0.2-0.4-0.2c-0.1,0-0.2,0.2-0.3,0.2c-0.9-0.1-1.3-0.4-2.1-0.9c-0.3-0.2-0.8-0.3-1-0.5
	c-0.5-0.3-0.6-1-1.3-1.1c-0.7-1.2-1.3-2.2-1.3-3.6c0-0.5,0.4-1.8,0.8-2.3c0.1-0.2,0.6-0.5,0.8-0.8c0.2-0.5,0.8-1.3,1.4-1.7
	c0.3-0.2,0.9-0.3,1.2-0.6c0.2-0.1,0.3-0.4,0.5-0.5c0.7-0.4,1.5-0.4,2.4-0.6c1.1-0.3,2.1-0.5,3.2-0.7c0.9-0.1,1.7-0.6,2.3-0.1
	c0.7-0.5,1.6-0.3,2.6-0.3c0.6-0.4,1-1.8,1.1-2.2c0.5-0.8,0.8-2,1.4-2.7c0.3-1,0.6-2.1,1.2-2.8c0.1-0.9,0.3-1.6,1-2
	c-0.2-0.7,0.1-1.7,0.9-1.8c0-0.2-0.1-0.4-0.2-0.4c0.7-1.6,1.2-3.4,2-4.7c0-0.3,0-0.9,0.5-1.1c0-0.3-0.2-0.2-0.1-0.5
	c0.3-0.7,0.8-1.7,1.1-2.6c0.2-1,0.5-2.1,1.9-2.2c0.5,0,3,0.4,2.9,1c0.6-0.3,1.1,0.3,1.5,0.4l0,0
	C-504.3,298.4-505.4,302.2-506.4,307.3z M-533.6,327.8c0-0.5-0.6-0.2-0.5,0.1C-533.9,328-533.9,327.8-533.6,327.8z M-533.3,329.3
	c0-0.2-0.1-0.3-0.3-0.2v0.2H-533.3z M-532.8,328c0,0.1-0.1,0.1-0.2,0.3C-532.7,328.4-532.5,328-532.8,328z M-531.6,329.4
	c0.1,0.4-0.2,0.3-0.3,0.5c0.3,0,0.5,0,0.7-0.1C-531.2,329.5-531.3,329.3-531.6,329.4z M-531.3,331.3h-0.3c0,0.1-0.1,0.1-0.1,0.2
	C-531.5,331.5-531.3,331.6-531.3,331.3z M-530.9,330c0-0.1-0.1-0.3-0.2-0.3C-531.1,329.8-530.9,330.3-530.9,330z M-520.8,322.2
	c-4,0.3-8,0.7-10,3.8c-0.1,0.4,0.2,1.2-0.2,1.3c0.2,0.6,0.7,1,1,1.5c1.5,0.7,2.8,0.2,4.1-0.2c0.5-0.6,1.2-0.9,1.8-1.4
	c0.4-0.4,0.7-1,1.3-1.2C-522.3,324.7-520.8,323.7-520.8,322.2z M-530.5,330.7C-530.4,330.7-530.3,330.7-530.5,330.7l0.3,0.1
	C-530,330.5-530.5,330.5-530.5,330.7z M-529.6,331.1c-0.1,0-0.2,0-0.3,0c0,0.3,0,0.5,0.3,0.4V331.1z M-529.9,332.1v0.3
	C-529.6,332.6-529.6,331.9-529.9,332.1z M-529,332.1c-0.1,0-0.2-0.1-0.3-0.1c0,0.1-0.2,0.2-0.1,0.4
	C-529.1,332.4-528.9,332.3-529,332.1z M-528.7,331.9c0-0.2-0.1-0.4-0.3-0.5C-529.1,331.8-528.9,331.9-528.7,331.9z M-526.5,332.4
	c-0.1,0.1-0.1,0.5,0.1,0.6C-526.3,332.7-526.2,332.5-526.5,332.4z M-526.2,331.5C-526.1,331.5-526,331.6-526.2,331.5l0.3,0.1
	C-525.7,331.4-526.2,331.3-526.2,331.5z M-519.4,324c-0.2,0-0.1-0.4-0.4-0.3c0,0.2-0.2,0.3-0.2,0.6
	C-519.8,324.3-519.4,324.2-519.4,324z M-518.3,322.1c0.1,0.4-0.4,0.2-0.4,0.5C-518.3,322.8-517.9,322-518.3,322.1z M-518.1,321.3
	c0,0.1-0.2,0.2,0,0.3C-518,321.5-517.9,321.4-518.1,321.3z M-510.7,309.1c0-0.2,0-0.4,0.1-0.6l0.1-0.3c0-0.3,0-0.8,0.2-1.7
	c0,0,0,0,0.1,0c0-0.2-0.3-0.2-0.4-0.1c0,0,0,0.1,0,0.2l-0.2,0.3c-0.1,0.4-0.3,1.1-0.6,1.8c0,0.4-0.2,0.7-0.3,1.1
	c-0.1,0.3-0.2,0.7-0.4,1c0,0,0,0,0,0.1c0,0.1-0.1,0.2-0.2,0.4c-1.1,3-2.4,6.6-3.4,8.4c0,0.1,0,0.3,0,0.5c1.4-0.3,2.4,0.2,3.7-0.3
	C-512.4,318.8-511.4,312.6-510.7,309.1z M-512.4,306.2c0.2,0,0.2,0.4,0.5,0.3C-511.9,306.2-512.3,305.9-512.4,306.2z M-512.1,305.2
	c0.5-0.2,0.8,0.5,1.1,0.2c-0.3-0.4,0.5-1.1,0.9-0.8v-0.1c-0.3-0.2-0.2-0.8-0.4-0.9c0,0.3-0.5,0.1-0.5,0.4c0.1,0.1,0.4,0,0.3,0.3
	C-511.1,304.7-511.7,304.8-512.1,305.2z M-511.9,304c0.2,0,0.4,0,0.3-0.2h-0.2C-511.8,303.9-511.9,303.9-511.9,304z M-511.6,303
	c0.2,0.3,0.8-0.5,0.4-0.7C-511.3,302.5-511.3,302.9-511.6,303z M-510.6,314.5c-0.1,0-0.2-0.2-0.3-0.2
	C-511.4,314.5-510.7,314.9-510.6,314.5z M-510.7,302.9c0.3,0,0.3-0.3,0.4-0.5C-510.6,302.4-510.5,302.8-510.7,302.9z M-510.2,325.6
	c-0.1-0.1-0.4-0.1-0.4,0.1C-510.5,325.8-510.2,325.8-510.2,325.6z M-510.5,305.3c0.1,0,0.2-0.1,0.3-0.3
	C-510.4,305-510.6,305.1-510.5,305.3z M-509.9,309.7v-0.3c-0.2,0-0.3,0-0.4,0.1C-510.4,309.8-510,309.7-509.9,309.7z M-510.2,316
	c-0.1,0.1-0.1,0.4,0.1,0.4C-509.9,316.3-509.9,316-510.2,316z M-510.3,314.4c0,0.1,0,0.1,0,0.2h0.2c0-0.1,0-0.1,0-0.2H-510.3z
	 M-509,313.6c-0.1-0.1-0.4-0.1-0.3-0.5c-0.2,0-0.4,0-0.5,0.1v0.3c0.6-0.1,0.4,0.1,0.4,0.6C-509,314.3-509.3,313.7-509,313.6z
	 M-509.4,326.7c0,0,0,0.2,0.1,0.2C-509.2,326.9-509.3,326.3-509.4,326.7z M-509,298.5c-0.1,0-0.1-0.1-0.3-0.1
	C-509.5,298.7-508.9,298.7-509,298.5z M-508,312.7c-0.1-0.1-0.5-0.1-0.8-0.1c0,0.3,0,0.5-0.1,0.7L-508,312.7z M-508.9,315
	c0,0.2,0,0.7,0,0.9c0-0.1,0.1-0.1,0.2-0.1C-508.8,315.4-508.3,315-508.9,315z M-507.2,310.7c-0.1,0-0.2,0-0.6,0.1
	c-0.1-0.1-0.1-0.3-0.1-0.6c-0.3,0-0.6,0-0.7,0.1c0.1,0.2,0.4,0.2,0.6,0.4l-0.3,0.5c0.9,1.1,0.2-0.4,0.7-0.3c0.2,0,0.3,0.1,0.4,0.1
	C-507.3,311-507.3,310.9-507.2,310.7z M-507.6,303.2c0.4,0.1,0.6-0.4,0.3-0.6C-507.3,302.9-507.6,302.8-507.6,303.2z M-506.3,305.9
	c0,0.1,0,0.2,0,0.3l0.1-0.6c0,0-0.1,0-0.2,0c-0.1-0.3-0.1-0.7-0.2-1c-0.4,0.1-0.5,0.5-0.8,0.7c0.1,0.2,0.3-0.4,0.8-0.1
	c0,0.4-0.3,0.5,0,0.8C-506.5,306.1-506.5,305.9-506.3,305.9z M-506.8,308.4c-0.3,0-0.5,0-0.6,0.2c0.1,0.2,0.3,0,0.5,0
	C-506.8,308.6-506.8,308.5-506.8,308.4z M-506.1,305.1l0.1-0.7c0,0.1-0.1,0.3-0.1,0.5C-506.1,304.9-506.1,305-506.1,305.1z
	 M-505.7,303.2c0,0,0,0.1,0,0.2c0-0.3,0.1-0.6,0.2-1C-505.6,302.7-505.6,302.9-505.7,303.2z"/>
<path class="st0" d="M-488.5,322c0,0-0.1,0.1-0.3,0.1c0,1.4-1.1,1.8-1.2,3h-0.3c-0.3,0.7-0.6,1.4-1.4,1.6v0.4
	c-0.9,0.5-1.4,1.9-2.5,1.9c-0.1,0.2-0.2,0.5-0.5,0.6c-0.3,0.1-0.3-0.1-0.5-0.2c-0.1,0-0.1,0.1-0.2,0.1c-0.3,0.1,0.3,0.2,0.2,0.5
	c-0.3-0.1-0.3,0.3-0.6,0.4c-0.5,0.3-1.4,0.4-2,0.6c-0.3,0.1-0.6,0-1.1,0.2v-0.5c-0.2,0.2-0.3,0.6-0.6,0.7c-0.9-0.1-2,0.1-2.8-0.4
	c0.3-0.2,0-0.4,0.4-0.5c0-0.1-0.1-0.2-0.3-0.2c-0.2,0,0,0.4-0.1,0.5c-0.3,0.2-0.6,0-0.7-0.4c-0.2,0-0.1,0.3-0.4,0.2
	c0.2-0.5-0.3-0.3-0.8-0.5c-0.1-0.6-0.9-0.7-0.9-1.4c-0.1-0.1-0.2-0.3-0.3-0.5h-0.1c-0.6-1-1.1-2.9-0.2-6.5c0.1-0.6,0.2-1.1,0.4-1.6
	c0,0,0-0.2,0.1-0.2c0.4-1.5,1-2.7,1.2-3.1l0.1,0.1c0.2-0.5,0.4-1.1,1.1-1c-0.1-0.4,0-0.3,0-0.8c0.4,0,0.5-0.6,1-0.3
	c0-0.3-0.3-0.2-0.2-0.6c1.1-0.8,2-1.9,3.9-1.9c0.1-0.1,0.4-0.1,0.5-0.3c0.6,0.1,1.3,0.2,2,0.3c0.6,0.4,1.3,0.5,1.8,1.1
	c0.2,0.3,0.1,0.8,0.6,0.9c0.1,1.3,0.5,1.9,0.2,3.3c-0.7,0.8-2.4,0.7-3.4,0.2c0.4-1.1,1.2-2.9,0.5-4c-1.9,0.2-2.4,1.6-3.3,2.8
	c-0.4,0.1-0.3-0.2-0.6-0.3c-0.2-0.3,0.1-0.2,0.1-0.4c-0.4-0.1-0.3,0.4-0.4,0.6c0,0.3,0.4,0.1,0.6,0.3c0.1,0.5-0.3,0.6-0.4,0.9
	c-0.2,0-0.1-0.2-0.3-0.2c-0.3,0.2,0.3,0.4,0.2,0.8c-0.4,0-0.5,0.2-0.6,0.5c0.1,0.3,0.1-0.2,0.4-0.1c0,0.5-0.5,0.6-0.5,1.1
	c-0.3,0.1-0.3-0.1-0.5-0.2c0,0.3,0.1,0.2,0.1,0.5c0.3,0.1,0.4-0.2,0.6,0c0,0.2-0.1,0.3-0.1,0.6c-0.6,0-0.8-0.3-1.1-0.7
	c-0.4,0.1,0.2,0.5-0.1,0.9c0,0.2,0.2,0.2,0.4,0.3c0.3,0,0.2-0.4,0.7-0.3c-0.2,1.5-0.6,2.9-0.6,4c-0.4-0.2-0.2-0.3-0.8-0.1
	c0-0.2,0-0.3,0.1-0.4c-0.3,0-0.1,0.4-0.5,0.3v-0.4c-0.1,0.2-0.6,0.1-0.5-0.2c-0.3,0-0.4,0.2-0.7,0.1c-0.1-0.6,0-1-0.4-1.4
	c-0.1,0-0.1,0.6,0,0.6c-0.2,0.3-0.5-0.2-0.7-0.3c0-0.5,0.4,0.1,0.4-0.2c-0.4-0.6-0.9,0.5-1.4,0.7v0.3c0.3-0.2,0.7-0.1,0.6-0.5
	c0.3,0.1,0.3,0.4,0.7,0.5c-0.6,0.2,0.2,0.7-0.3,1c0,0,0.1,0.1,0.2,0.2c0.1-0.4,0.3-0.6,0.2-1c0.5,0,0.4,0.4,0.7,0.6
	c0.4-0.1,0.3-0.1,0.7,0c0,0.3-0.2,0.2-0.2,0.4c0.3,0.2-0.2,0.7,0.3,0.8c0.3-0.1-0.3-0.6,0.3-0.6c-0.1,0.6,0,1.2-0.7,1.2
	c0,0.2,0,0.4-0.1,0.5c0,0.2,0.3,0.2,0.4,0.3c0.2-0.1-0.3-0.1-0.1-0.5c0.7-0.3,0.6-1.1,0.8-1.8c0.4,0.1,0.4,0,0.9,0
	c0.2,0.9,0.8,2.2,0.1,3c0,0.2,0.5,0,0.4,0.4c0.9-0.3,1.1,0.8,1.9,0.9c0.6-0.4,1.6,0.2,2.2-0.4c0.7,0.1,1.2-0.3,1.7-0.7
	c0.6,0,0.9-0.1,1-0.5c0.6,0,0.8-0.2,0.9-0.7c0.2,0,0.2-0.1,0.4,0c0.3-0.5,0.7-0.9,1.1-1.1c0-0.3,0.1-0.2,0.1-0.5
	c1.2-1,1.7-2.7,2.5-4.1C-488.7,321.2-488.4,321.4-488.5,322z M-505.6,322.6h0.1c0-0.1,0-0.1-0.1-0.1V322.6z M-504.9,322.1
	c0.1,0.4-0.3,0.3-0.3,0.8c0.1-0.2,0.5-0.2,0.6-0.5c0.3,0.2,0.8,0.4,1.1,0.2c0.2,0.2,0.1,0.7-0.1,0.9c0.3,0.3,0.5,0,0.7,0.4
	c0.2,0.1-0.1-0.4,0.2-0.4c-0.1-0.2-0.5-0.2-0.6-0.4c0.1-0.4-0.2-0.9,0.4-1.1c0.2,0.3-0.1,0.5,0,1c0.1,0.1,0.3,0.1,0.5,0.3
	c0.2-0.1-0.3-0.2-0.2-0.5c0.6-0.6-0.1-1.2,0.1-1.9c-0.2,0.2-0.2,0.7-0.7,0.6c0-0.3-0.1-0.4-0.3-0.5c0-0.3,0.3-0.2,0.3-0.5
	c0.1,0-0.2-0.9-0.4-1.2c-0.5,0,0,0.6-0.5,0.6c0.3-0.3-0.3-1,0.1-1.1c0-0.3-0.3-0.1-0.5-0.2c0,0.1,0,0.1,0,0.2c0.5,0.1,0,1,0.2,1.4
	c0,0.2-0.3,0.1-0.3,0.3c0.2,0.1,0.9,0,1-0.3c0.1,0.1,0.1,0.2,0.1,0.6c-0.4,0-0.6,0.1-1.1,0.2c0-0.3-0.5,0.6-0.5,0.9
	C-505.1,321.8-505.1,322.1-504.9,322.1z M-504.9,319.8c0.1,0,0.2,0.1,0.3,0.1c0-0.2,0-0.3-0.2-0.3
	C-504.9,319.7-504.9,319.8-504.9,319.8z M-504.9,321.9c0.3-0.3,0.3-0.4,0.3-0.8c0.3,0,0.7,0,0.8,0.2
	C-504.1,321.5-504.6,322.3-504.9,321.9z M-503.9,327.4c0-0.4-0.2-1.5,0.4-1.6c0-0.2,0-0.5-0.2-0.7c-0.2,0.1,0,0.4,0,0.7
	c-0.7,0.3-1,1.1-1,1.9C-504.3,327.6-504.1,327.5-503.9,327.4z M-504.2,317.8c0.2,0,0.3,0.1,0.4,0.2c0-0.2,0-0.4-0.2-0.5
	L-504.2,317.8z M-504,324c0,0.2-0.1,0-0.1-0.2C-504,323.5-503.9,323.8-504,324z M-503.5,321.9c0.5,0.1-0.3,0.7-0.5,0.5
	C-504.1,321.9-503.5,322.1-503.5,321.9z M-503.3,328.7c-0.3-0.2-0.2-0.7-0.6-0.8c0,0.4,0.2,0.7,0.2,1.1c0,0.2-0.5,0.6-0.1,0.8
	C-503.7,329.3-503.4,329.1-503.3,328.7z M-503.6,321h-0.3v-0.2C-503.7,320.9-503.5,320.9-503.6,321z M-503.6,317.5
	c0.3,0.2,0.3,0.7,0.8,0.6c-0.1-0.2-0.1-0.4,0.1-0.6c0.3-0.1,0.3,0.1,0.5,0.2c0-0.8,0.4-1,1.1-1.1v0.8c0.3,0,0.3,0.2,0.7,0.1
	c0.1-0.1,0.1-0.4,0.2-0.6c-0.2-0.2-0.8-0.1-0.7-0.7c-0.4,0.1-0.5,0-1,0c0,0.5-0.4,0.6-0.6,0.9c0-0.1,0-0.2-0.2-0.2
	c0-0.2,0.2-0.1,0.2-0.4c-0.3-0.1-0.4,0-0.6-0.4c0,0.5,0,1.1,0.2,1.3C-503.1,317.7-503.3,317.1-503.6,317.5z M-503.6,326.3
	c0.3,0,0.3-0.2,0.3-0.4C-503.6,325.8-503.4,326.3-503.6,326.3z M-503.5,321.6c0.2,0,0.2,0,0.3,0.1
	C-503.2,321.8-503.6,321.8-503.5,321.6z M-502.4,318.8c-0.1,0-0.2,0-0.3-0.1c0.1,0.4-0.6,0-0.5,0.4c0.1,0,0,0.4,0.4,0.3
	C-502.8,319.1-502.4,319.1-502.4,318.8z M-502.9,318.7v-0.2h-0.2v0.2H-502.9z M-502.9,324.6c0.2,0,0.3,0.1,0.3,0.4
	C-502.9,325.1-503,324.8-502.9,324.6z M-502.6,328.9c-0.1,0-0.1-0.2-0.3-0.2C-503,328.9-502.6,329.2-502.6,328.9z M-502.4,324
	c-0.1,0-0.4,0-0.4,0.1C-502.7,324.2-502.4,324.2-502.4,324z M-501.8,317.7c-0.1,0-0.3,0-0.3,0.1c0.4,0.3-0.5,0.2-0.5,0.5
	c0.2,0.1,0.3,0.2,0.6,0.2C-502.1,318-501.7,318.1-501.8,317.7z M-502.2,329.2c-0.1,0-0.3,0-0.3,0.2
	C-502.3,329.4-502.3,329.3-502.2,329.2z M-502.3,326.4c0,0.3,0,0.6,0.4,0.5C-501.8,326.5-502.1,326.5-502.3,326.4z M-501.7,328.4
	h-0.5c-0.1,0.4,0.2,0.2,0.3,0.4c0,0.2,0,0.3,0.2,0.4C-501.4,328.8-501.7,328.8-501.7,328.4z M-502.1,321.6c-0.1-0.2,0.3-0.3,0-0.4
	C-502.2,321.2-502.3,321.5-502.1,321.6z M-502.2,327.5c0.2,0.1,0.2,0.4,0.6,0.4C-501.7,327.6-502.1,327.3-502.2,327.5z
	 M-501.6,324.3c0,0-0.6-0.2-0.5,0.1C-501.9,324.2-501.8,324.5-501.6,324.3z M-502.1,321.8c0.2,0,0.2,0.3,0.5,0.3
	c0-0.3,0.3-0.2,0.2-0.5C-501.6,321.7-502,321.6-502.1,321.8z M-501.4,322.8c-0.1-0.3-0.5-0.6-0.7-0.1
	C-501.8,322.6-501.7,323.2-501.4,322.8z M-502,326.2c0.3,0,0.4-0.1,0.5-0.3c-0.2,0-0.2-0.1-0.4-0.1C-502,326-502.1,326-502,326.2z
	 M-502,315.6c0.3-0.1,0.5,0,0.6,0.2c0.2-0.2,0-0.2,0-0.5C-501.7,315.4-502,315.3-502,315.6z M-501.5,326.8c0.1,0.2-0.5,0.2-0.2,0.3
	C-501.6,327.1-501.2,326.9-501.5,326.8z M-500.8,317.9c-0.4,0.5-0.4-0.4-0.5-0.2c0,0.1-0.1,0.1-0.2,0.2c0,0.2,0.1,0.3,0.2,0.5
	C-501,318.4-500.6,318-500.8,317.9z M-500.9,330.2c0-0.3-0.5-0.7-0.6-0.6C-501.2,329.8-501.3,330.3-500.9,330.2z M-501.2,318.7
	c-0.4-0.1-0.3,0.4,0,0.4V318.7z M-501.2,329h0.2c0-0.1,0.1-0.1,0.1-0.3h-0.3V329z M-501.2,315h0.3c0-0.1-0.1-0.2-0.3-0.2V315z
	 M-500.8,328C-500.7,328-500.8,328-500.8,328l-0.3,0.1c0-0.2,0.1-0.2,0.1-0.3C-500.9,327.8-500.9,328-500.8,328z M-500.1,329.5
	c-0.3,0-0.3-0.2-0.6-0.2C-500.9,329.7-500.2,329.7-500.1,329.5z M-500.8,316.1c0.3,0,0.3-0.1,0.3-0.4
	C-500.8,315.6-500.6,316-500.8,316.1z M-500.4,314.6c0.1-0.1,0.1-0.3-0.1-0.4C-500.6,314.4-500.6,314.6-500.4,314.6z M-500.1,315.7
	c-0.1,0-0.1-0.1-0.3-0.1v0.3h0.2C-500.1,315.8-500.1,315.8-500.1,315.7z M-499.3,329.6c-0.5,0.1-0.4-0.3-0.7-0.4
	c0,0.3,0.1,0.4,0.1,0.8C-499.7,329.9-499.3,329.9-499.3,329.6z M-499.9,314.6c0.1,0,0.2,0,0.3-0.2
	C-499.8,314.5-499.8,314.5-499.9,314.6z M-499.4,315c0.2,0,0.3-0.1,0.3-0.4C-499.3,314.6-499.4,314.8-499.4,315z M-498.2,329.7h-0.3
	v0.3h0.2C-498.3,329.9-498.2,329.8-498.2,329.7z M-498.3,313.9C-498.3,314.3-497.8,313.3-498.3,313.9
	C-498.3,313.8-498.3,313.8-498.3,313.9z M-497.9,330.8c0-0.1,0-0.2-0.2-0.2c0,0.1,0,0.3,0.1,0.3C-498,330.8-498,330.8-497.9,330.8z
	 M-496.5,329c-0.4-0.1-0.4,0.5,0,0.4C-496.5,329.1-496.3,329.2-496.5,329z M-496.8,312.8h0.2v-0.2h-0.2V312.8z M-494.4,316.3
	c0.3,0,0.2-0.4,0.3-0.6h-0.3C-494.3,315.9-494.2,316.1-494.4,316.3z"/>
<path class="st0" d="M-477.4,323.1v0.7c-1.4,2.7-3.5,7.3-7.4,7.5c-1.2,0-2.1-0.5-2.9-1.2c-0.5-1.1-1.2-2.3-1.3-3.7
	c0-0.2,0.2-0.3,0.2-0.5l0.2-2.1c-0.4-1.2,0.3-4.5,0.3-4.8c0-0.3,0.1-0.4,0.3-0.5c-0.2-1,0.3-5.1,0.4-5.9c0.2-1.5,0.7-3.4,0.9-4
	c-0.2,0.1-0.4,0.3-0.6,0.5c-1.6-0.2-1.8,0.1-3.4-0.1c0-0.7-0.3-1.8,0.2-2.5c0.3-0.2,0.5-0.2,0.9-0.2c1,0,2.7,0.3,3.4-0.4
	c-0.2-0.3,0.1-0.5-0.1-0.8c0.5-0.6,0.3-1.9,0.9-2.5c0.1,0,0.3,0,0.4-0.1c0.1-0.1,1-0.8,1.3-0.3l0.3-0.3c0.9,0.4,2.1,0.5,3,1.1
	c0,0.5-0.1,1-0.6,1.1c0.4,0.7-0.3,1.2-0.2,2c1.2,0.4,3-0.3,4.1,0.1c0.3,0.9,0.2,1.8,0.1,2.7c-1.5,0.7-3.2,0.5-4.9,0.1
	c-0.3,0.1-0.4,0.5-0.4,0.7c-0.1,0.6,0.1,1.7-0.5,1.9c0.3,0.5,0,1.2-0.2,1.7c-0.1,0.6,0,1.3-0.5,1.6c0.3,1-1.4,10.5-1.2,13.4
	c0.6,0.6,1,1.6,1.9,1.5c0.3,0,1.7-1.4,2.1-1.8c0.4-0.5,0.6-1.3,1.1-1.4c0.2-0.9,0.6-1.5,1.1-2.1c0.3-1.1,0.5-2.2,1.3-2.8
	C-476.6,321.7-476.9,323-477.4,323.1z M-488.7,306.8c0.1,0,0.1,0.2,0.1,0.4C-488.1,307.3-488.5,306.5-488.7,306.8z M-488.3,325.9
	c0,0.1-0.1,0.1-0.1,0.3h0.2C-488.1,326.1-488.1,326-488.3,325.9z M-487.6,324.5c0,0.2-0.4,0.1-0.3,0.4c0.1,0,0.2,0,0.3,0.1
	C-487.6,324.9-487.4,324.5-487.6,324.5z M-487.8,326v0.3C-487.5,326.5-487.5,325.9-487.8,326z M-487.5,318.8c0,0,0.1,0,0.2,0
	c0-0.1,0.1-0.1,0.1-0.3h-0.3V318.8z M-487.5,323.9c0.1,0,0.2,0.1,0.2,0.4c0.1,0,0.3,0,0.4-0.1C-487.1,324.1-487.3,323.5-487.5,323.9
	z M-486.9,326.8c-0.2-0.1-0.3-0.2-0.6-0.3c0,0.1,0.1,0.2,0.1,0.4C-487.1,326.8-486.6,326.9-486.9,326.8z M-487.1,306.5
	c0,0.2-0.3,0.1-0.3,0.3C-487.3,306.8-486.9,306.6-487.1,306.5z M-487,319.2c0,0-0.1,0-0.2,0v0.2c0,0,0.1,0,0.2,0V319.2z M-486.4,308
	c-0.2,0,0-0.4-0.3-0.4c0,0.3-0.5,0-0.4,0.4C-486.8,307.9-486.5,308.2-486.4,308z M-487,320.7c0.2,0,0.5-0.4,0.3-0.5
	C-486.8,320.4-487.1,320.4-487,320.7z M-487,319.2c0.3,0.1,0.4-0.1,0.7-0.1C-486.3,318.6-487,318.9-487,319.2z M-486.5,322.3
	c-0.2,0-0.5,0-0.5,0.2C-486.9,322.7-486.5,322.6-486.5,322.3z M-487,323.3c0,0,0,0.1,0,0.2h0.2c0-0.1,0-0.1,0-0.2H-487z
	 M-486.8,326.5c0.1,0,0-0.6-0.1-0.2C-486.9,326.4-486.8,326.5-486.8,326.5z M-486.6,313.9c0.1-0.1,0.1-0.4-0.2-0.4
	C-486.8,313.7-486.7,313.9-486.6,313.9z M-486.1,327.7c-0.1,0-0.1-0.1-0.1-0.3c-0.4,0.1-0.3-0.2-0.6-0.3
	C-486.7,327.4-486.1,327.7-486.1,327.7z M-486.6,324.6c0-0.1,0.3,0,0.3-0.2C-486.5,324.3-486.8,324.5-486.6,324.6z M-486.4,322.2
	c0-0.1,0-0.3-0.2-0.3v0.2C-486.5,322.1-486.4,322.2-486.4,322.2z M-485.3,316.6c-0.4,0.3-0.6,0-1.1,0.1c0,0.3,0.3,0.2,0.2,0.6
	c0.6,0,0-0.5,0.4-0.5c0,0.1,0.1,0.1,0.1,0.2C-485.4,317.1-485.5,316.7-485.3,316.6z M-486.3,326.2v0.2c0.1,0,0.2,0,0.3,0
	C-485.9,326.2-486.1,326.1-486.3,326.2z M-486.2,310.7c0.1,0,0.1,0,0.2,0.1c0-0.2,0-0.3-0.2-0.3V310.7z M-486.1,307.1
	c0,0.2,0.1,0.5,0.4,0.5c0-0.2-0.1-0.3-0.1-0.6c0.1,0,0.2,0,0.2-0.2C-485.9,306.8-485.7,307.2-486.1,307.1z M-486.1,314.8v0.5
	C-485.6,315.3-485.8,314.8-486.1,314.8z M-485.7,305.5c0.1-0.4,0.8-0.8,0.5-1.2C-485.4,304.6-486.1,304.9-485.7,305.5z
	 M-485.5,308.6c0-0.1,0-0.1,0-0.2h-0.2c0,0,0,0.1,0,0.2H-485.5z M-485.2,315.4c-0.2-0.1,0.1-0.4-0.1-0.6c-0.4-0.1-0.4,0.6-0.1,0.6
	C-485.4,315.1-484.9,315.6-485.2,315.4z M-485.1,309.8c-0.2,0-0.2-0.1-0.4-0.1v0.4C-485.2,310.2-485.1,310.1-485.1,309.8z
	 M-484.1,312.3c0-0.3,0-0.6-0.2-0.7c-0.2,0.5-0.8,0.1-1.2,0.3c0.2,0.3,0.2,0.2,0.1,0.7c0.4,0,0.2-0.6,0.7-0.6
	C-484.5,312.1-484.5,312.4-484.1,312.3z M-485.2,310.3c-0.1,0.1-0.2,0.6,0,0.6c0-0.1,0.1-0.2,0.3-0.2c0.1,0.1,0,0.5,0.2,0.7
	c0-0.3,0.4-0.2,0.4-0.6C-484.4,310.4-484.8,310.3-485.2,310.3z M-484.5,315.9c-0.3,0.1-0.6,0.2-0.7,0.6
	C-484.8,316.6-484.7,316.2-484.5,315.9z M-484.7,309.6c0-0.1,0.1-0.2,0.1-0.4h-0.3C-484.9,309.5-484.9,309.6-484.7,309.6z
	 M-484.7,304.1h0.2c0.1-0.1,0.1-0.2-0.1-0.3C-484.6,303.9-484.8,303.9-484.7,304.1z M-484.4,309.1c0.1,0,0.2,0,0.3,0
	c0-0.2-0.1-0.2-0.3-0.2V309.1z M-484.1,309.6c0,0.2-0.3,0.2-0.2,0.5C-483.9,310.2-483.8,309.7-484.1,309.6z M-483.8,312.9
	c-0.1,0-0.3,0-0.3,0.2C-484,313.1-483.9,313.1-483.8,312.9z M-483.8,313c0.2,0,0.4,0,0.4-0.2C-483.6,312.8-483.7,312.9-483.8,313z
	 M-483.4,309.7c0-0.2,0.4-0.7-0.1-0.7C-483.6,309.2-483.6,309.7-483.4,309.7z M-483.3,303.6c0.1,0,0.2,0,0.3,0v-0.3
	c-0.1,0-0.2,0-0.3,0V303.6z M-483.3,310.2c0,0.1,0,0.4,0.1,0.4C-483.2,310.4-482.9,310.2-483.3,310.2z M-483.2,304.7
	c0,0.3,0.3,0.2,0.2,0.6c0.3-0.1,0.4,0,0.8,0c0.3-0.2-0.1-1-0.3-0.9c0.1,0.2,0,0.3,0.2,0.6c-0.1,0-0.1,0-0.2,0.1
	C-482.5,304.7-482.9,304.8-483.2,304.7z M-482.2,303.1c0.1,0,0.5,0.3,0.7,0C-481.7,303.1-482.1,302.7-482.2,303.1z M-481.5,308.9
	C-481.5,308.9-481.4,308.9-481.5,308.9l0.3,0.1C-481.1,308.7-481.6,308.7-481.5,308.9z M-481.2,307.5c0-0.2,0.6-0.3,0.3-0.6
	C-481,307-481.6,307.1-481.2,307.5z M-480.5,307c0.3,0.1,0.2-0.2,0.3-0.3h-0.3V307z M-480.3,308.3c0.3,0,0.2-0.2,0.3-0.4
	C-480.3,307.8-480.1,308.2-480.3,308.3z M-479,308.4c0,0,0.1,0,0.2,0v-0.2c-0.1,0-0.1,0-0.2,0V308.4z"/>
<path class="st0" d="M-467.6,322.1c-0.5,1.9-1.2,3.5-2.2,4.8c-0.5,1.6-1.9,3-3.3,3.9c-0.5,0.4-0.6,0.5-1.3,0.7
	c-0.6,0.2-0.8,0.1-1.5,0c-1.5-0.2-3-1.7-3.3-3.7c0-0.2,0.2-0.5,0.2-0.6c0-0.1-0.3-0.4-0.3-0.6c-0.1-0.7,0.1-1.9,0.1-2.7
	c0-0.7,0.1-1.4,0-2c0.2-0.1,0.1-0.6,0.4-0.7c-0.3-0.4-0.2-1.6,0.2-1.9c-0.1-0.2-0.3-1,0.1-1.3c0.3-0.2,0-0.1,0-0.5
	c0-0.5,0.4-1.1,0.3-1.8c0.4-0.6,0.3-1.9,0.7-2.7c1.1-1,3.2-0.5,4.2,0.2c0,0.7-0.3,1.6-0.7,2.2c-0.2,1.6-0.7,2.3-0.7,4
	c-0.1,0.1-0.3,0.2-0.4,0.4c0.1,0.4,0.1,0.8,0,1.2c-0.3,1.1-0.3,3-0.6,4.4c0.2,0.5,0.3,1.7,0,1.9c0.3,0.6,1.1,1.6,0.8,2.2
	c1.7,0.1,2.6-0.6,3.4-1.6c0.8-1,1.8-2.9,2.4-4.2c0.4-0.8,0.4-1.7,1-2.2C-467.9,321.9-467.8,322.1-467.6,322.1z M-477.2,317.5
	c-0.2,0.2-0.4-0.1-0.6,0.1c0.1,0,0.1,0.1,0.1,0.2C-477.4,317.8-477.2,317.8-477.2,317.5z M-477.6,319.4
	C-477.5,319.4-477.5,319.4-477.6,319.4l0.3,0.1C-477.2,319.2-477.6,319.2-477.6,319.4z M-476.6,319.6c-0.1,0-0.2-0.2-0.3-0.2
	c-0.1,0.2-0.5,0.3-0.2,0.6C-476.9,319.9-476.8,319.7-476.6,319.6z M-477.1,316.9c0.5,0,0.3,0.4,0.2,0.7c0.2,0,0.1,0.3,0.4,0.2
	c-0.1-0.4,0.1-0.5,0.1-1C-476.8,316.9-477,316.6-477.1,316.9z M-476.3,318.7c-0.1-0.3-0.3-0.6-0.7-0.6c-0.1,0.3,0.1,0.3,0.1,0.6
	c-0.1,0-0.1,0.1,0,0.1c0-0.1,0.1-0.1,0.2-0.2C-476.6,318.6-476.5,318.7-476.3,318.7z M-476.9,308.8c-0.2-1.8,2.2-3,3.5-1.8
	c0,0,0,0.3,0.2,0.5c0.5,0.6,0.7,1.4,0.1,2.5c-0.8,0.4-1.4,0.8-2.2,0.6C-476,310.3-476.8,309.5-476.9,308.8z M-476.1,315.8
	c-0.3,0-0.5-0.2-0.7,0c0.1,0.3,0.6,0.2,0.4,0.8C-476.1,316.6-476.1,316.2-476.1,315.8z M-476.1,308.2h-0.4
	C-476.5,308.6-476,308.6-476.1,308.2z M-476.1,317c-0.1,0-0.1,0-0.2,0v0.2c0,0,0.1,0,0.2,0V317z M-476,315.3c0-0.1,0.1-0.1,0.1-0.3
	h-0.2c0,0.1-0.1,0.1-0.1,0.3H-476z M-475.7,317.7c0-0.1-0.1-0.2-0.2-0.3C-476,317.6-476,317.8-475.7,317.7z M-475.4,308.8
	c0,0.2,0.1,0.3,0.3,0.4v-0.4H-475.4z"/>
<path class="st0" d="M-453,318.8c-0.6,0.1-1.3,0-1.9,0.1c-0.4,0.9-0.7,2.6-1.3,3.8c0,0-1.6,2.7-2.4,3.8c-0.1,0.2-0.4,0.3-0.5,0.5
	c-1.2,1.6-4.2,4.9-7.4,4.1c-2.5-1.5-3.5-4.7-3.2-9.3c0.1-2.2,0.5-4.6,0.8-6.5c0.1-0.8,0.2-1.9,0.4-2.8c1-1.1,3.4-0.5,4.3,0.4
	c0.1,1-0.7,1.5-0.3,2.4c-0.6,0.5,0,1.3-0.4,2.2c-0.2-0.1,0,1.8-0.2,2.7c-0.1,0-0.3,0.7-0.3,1.2c-0.1,1.2-0.3,2.5-0.5,3.9
	c-0.1,0.9-0.3,1.8-0.1,2.6c0.2,1.3,1,2.9,2.4,1.9c1.7-1.1,3.7-4.2,4.6-6.7c0.5-1.6,0.9-3,1.2-4.9c-0.8-0.9-1.9-1.5-2.4-2.7
	s0-2.6,0.7-3.1c1.5-1.1,3.9,0.8,4.9,1.1c1.4,1.4,0.5,3.4,0.3,4.6c1.4,0.2,2.6-0.5,3.5-1.4c0.4-0.4,0.6-1.3,1.5-1.1
	C-449.4,316.9-451.7,318.5-453,318.8z M-467.1,316.1c-0.3,0-0.2-0.3-0.5-0.2v0.2c0,0.1,0,0.2,0.1,0.1
	C-467.5,315.8-467.1,316.6-467.1,316.1z M-457.2,315.6c-0.6-0.3-0.1-1.7-0.3-2.4c-2.3-1.1-2.9,1.9-1.7,3.1l0.4,0.4
	c0.1,0.3,0.2,0.6,0.6,0.7C-457.2,317-457.8,316.2-457.2,315.6z M-456.7,315.3c0.2,0.7,0,0.1-0.3,0.4c0.1,0,0.3,0.1,0.4,0.3
	c-0.1,0-0.4,0-0.4,0.1c0.2,0.4,0.5,0.3,0.6,0.4C-456.2,316.3-456.4,315.3-456.7,315.3z"/>
<path class="st0" d="M-436.7,331c-0.4,0.1-0.9,0.1-1.2,0.4c-1.4,0-2.3-0.6-3.1-1.1c0-0.6-0.8-0.8-0.6-1.3c-0.4-0.2-0.7-0.9-0.5-1.4
	c-0.4-0.6-0.3-1.7-0.3-2.6c-0.4,0.3-0.5,1.1-1,1.4c0.3,0.8-2.4,4.5-5.7,5.1c-0.8-0.4-1.7-0.4-2.2-1c-1-1-1-2.5-1.3-3.7
	c0-0.3,0.1-0.3,0.4-0.3c-1.1-1,0-3-0.3-4.3c0.4-0.8,0.3-1.5,0.5-2.6c0.4-0.1,0.1-0.6,0.3-0.9c0.2-0.7,0.9-1.2,1-2.1
	c0.3-0.1,0.4-0.4,0.8-0.4c0.1,0.2,0.2,0.3,0.2,0.7c0.2,0,0.1-0.4,0.3-0.4c-0.1-0.2-0.4-0.3-0.6-0.6c0-0.6,0.7-0.5,0.7-1.1
	c0.3-0.1,0.5-0.2,0.7-0.3c-0.1,0.5,0.6,0.5,0.3,1c0,0.2,0.2-0.5,0.5-0.1c-0.5,0.4-0.5,0.7-0.3,1.5c0.3,0,0.3-0.2,0.6-0.1
	c0-0.3-0.4-0.2-0.4-0.6c0.2-0.7,0.1-0.6,0.9-0.6c0.1-0.3-0.3-0.1-0.5-0.2c0.6-0.5,1.1,0.4,1.8,0.4c-0.2,0.8-0.6,1.4-1.1,1.9
	c-0.2-0.2,0.1-0.5,0-0.9c-0.8,0.2-0.1,1,0,1.4c-0.2,0.1-0.1,0-0.4,0c-0.1,0.3,0.3,0,0.2,0.4c-0.2,0,0,0.5-0.4,0.4
	c0,0.2,0.1,0.2,0.1,0.4c0,0.2-0.2,0.1-0.2,0.2c-0.1,0.4,0,1-0.1,1.4c0,0.1-0.3,0.2-0.3,0.3c0,0.3,0.2,0.8-0.2,1.1
	c-0.1,2-0.3,3.7-0.2,6c0.5,0.2,0.5,0.8,1,0.9c1.6,0.4,2.7-2.1,3.3-3.1c0.1,0,0.2-0.1,0.4-0.2c0-0.3,0-0.7,0.4-0.7
	c0-0.3-0.1-0.3,0-0.6c0.8-1,1-2.4,1.7-3.4c-0.3-0.4,0.1-0.9,0-1.5c0.2-0.2,0.6-0.3,0.6-0.8c0.1-0.2-0.4,0.1-0.4-0.2
	c-0.3-0.2,0.3-0.2,0.3-0.4l-0.2-0.5c0-0.2,0.2-0.2,0.2-0.4c0-0.3-0.1-0.6,0-0.9c0-0.1,0.3-0.3,0.3-0.4c0,0-0.2-0.3-0.2-0.4
	c0-0.4,0.4-0.6,0.3-1c-0.5-0.5-1.4-0.9-1.9-0.7c-0.2,0-0.2-0.3-0.4-0.4c-0.2,0.4-0.9,0.3-1.1,0.8c-0.2,0-0.2-0.1-0.4-0.1
	c-0.2,0.5-0.7,0.7-0.9,1.2c-0.8,0-1.1-0.5-1-1.1c-0.5,0-0.6,0.5-1.1,0.5c0.3-0.7-0.1-1.6,0.6-2c0.3-0.1,0.1,0.3,0.4,0.3
	c0.1-0.5,0.4-0.7,1-0.8c0.2,0.3,0.1,0.9,0.3,1.2c0.5-0.3-0.1-0.8,0.1-1.2c0.7-0.4,1.1,0,2.1-0.1c0.3,0.5,1.6,0.3,1.4,1
	c0.3,0,0.8,0.2,1,0.5c0.3-0.1,0-0.2,0.1-0.6c0.4-0.1,0.7-0.4,0.8-0.8c0.4,0.2,0.5-0.2,0.7-0.3c1.1-0.2,1.7,0.6,2.9,0.8
	c0.1,0.4,0,1-0.3,1.3c-0.4,2.2-1.2,3.8-1.3,6.2c-0.1,0-0.1,0.2-0.3,0.2c0,1.9-0.5,3.2-0.4,5.1c0.1,1.7,0.4,4.2,2.4,3.5
	c0.7-0.2,2-2,2.6-2.9c0.5-0.9,1-2.2,1.4-3.3c0.3,0,0.2-0.1,0.5-0.1C-430.8,324.6-434.8,330.4-436.7,331z M-451.7,324.9
	c0-0.4,0.5,0,0.7-0.1c0-0.6-0.3-0.5,0-0.9c-0.5,0.2-0.5,0-0.4-0.5h-0.3C-451.8,323.7-452,324.6-451.7,324.9z M-451.3,325.2
	c-0.3,0-0.2,0.1-0.5,0.1C-451.9,325.8-451.4,325.4-451.3,325.2z M-450.9,325.8c0.1,0.8,1,0.3,1.6,0.6c0-0.2,0.3-0.3,0-0.4
	c-0.3,0.4-0.7-0.4-1.2,0c0-0.2-0.2-0.1-0.2-0.4c-0.5,0.1-0.7,0-0.9,0.4C-451.3,326.3-451.1,325.9-450.9,325.8z M-451.1,319.1
	c-0.1,0-0.1-0.1-0.3-0.1C-451.5,319.3-451,319.3-451.1,319.1z M-450.9,327.7c0,0-0.1,0-0.2,0c0,0.1-0.1,0.1-0.1,0.3h0.3
	C-450.9,328-450.9,327.7-450.9,327.7z M-451,318.5c0.1,0.2,0.4-0.2,0.5,0.1c0,0.3-0.5,0.6,0.2,0.6c0.1-0.6,0-0.9-0.4-1.1
	c0,0.1-0.1,0.1-0.3,0.1C-451,318.2-451,318.5-451,318.5z M-450.9,319.9c0.2,0.1,0.1,0.6,0.6,0.5C-450.2,320-451,319.7-450.9,319.9z
	 M-450.4,326.7c0.1,0.4-0.4,0.1-0.5,0.4c0.3-0.1,0.2,0.1,0.5,0.1C-450.5,326.9-449.9,326.7-450.4,326.7z M-450.8,326.6
	C-450.7,326.6-450.7,326.6-450.8,326.6l0.3,0.1C-450.3,326.5-450.8,326.5-450.8,326.6z M-450.4,320.5c-0.2,0-0.3,0.1-0.4,0.3
	C-450.5,320.8-450.3,320.8-450.4,320.5z M-450.2,322.1c0-0.1-0.6,0.3-0.6,0.3c0,0.3,0.2,0.5,0.5,0.5
	C-450.6,322.5-450.2,322.1-450.2,322.1z M-450.8,324.1c0.1,0.9,0,1.3,0.9,1.5c0.3-0.2,0.6-0.6,1-0.6c-0.6-0.1-1.8,0.4-1.6-0.6
	c0,0.1,0.5,0.2,0.6,0c0-0.2-0.4,0-0.5-0.2c0-0.3,0.5-0.5,0.1-0.7C-450.5,323.7-450.4,324.1-450.8,324.1z M-450.6,321.7
	c0.4-0.1,0.5,0,1-0.1c0-0.3-0.1-0.4-0.3-0.5C-449.8,321.8-450.6,321-450.6,321.7z M-450.4,317.2c0,0.1,0.1,0.2,0.2,0.3
	C-450.2,317.3-450.2,317.3-450.4,317.2z M-450,319c-0.3,0.2-0.5,0.7-0.1,0.9C-450.1,319.7-449.8,319.2-450,319z M-450,328.3
	c0-0.2,0.1-0.3,0.2-0.5c-0.2,0-0.1-0.2-0.4-0.2C-450,327.8-450.1,328.2-450,328.3z M-450.1,318.3c0.2,0,0.5,0.1,0.4-0.2
	C-450.1,318.1-450.1,318-450.1,318.3z M-449.7,319.5c0.2,0.6,0,0.6-0.3,0.9c0.3,0,0.3-0.2,0.6-0.1c0-0.2,0-0.4,0.1-0.5
	C-449.6,319.9-449.5,319.6-449.7,319.5z M-448.7,324c-0.7-0.1-0.5-0.9-1.3-0.9c0,0.4,0.5,0.4,0.5,1
	C-449.1,324-448.9,324.3-448.7,324z M-449.7,330.1h-0.3c0,0.1,0,0.2,0,0.3C-449.7,330.5-449.8,330.2-449.7,330.1z M-449.5,327.3
	c-0.2,0-0.3,0-0.4,0.2C-449.7,327.6-449.5,327.5-449.5,327.3z M-449.8,322.3c0.2,0,0.2,0,0.2-0.2
	C-449.9,322.1-449.8,322.1-449.8,322.3z M-449.6,322.1c0-0.2,0-0.2-0.2-0.2v0.2H-449.6z M-449.4,319.5c0.6-0.2,0.5-0.6,1-0.8
	c0-0.2-0.1-0.4-0.3-0.6c0,0.2,0,0.4-0.2,0.4c-0.1-0.1-0.1-0.3-0.4-0.3C-449.3,318.8-449.4,318.8-449.4,319.5z M-449,322.3
	c0,0,0-0.1,0.2-0.1c0-0.4-0.2-0.4-0.6-0.4C-449.4,322.2-449.3,322.3-449,322.3z M-449.3,316.6c0.5,0.1,0.5,0.8,1.1,0.7
	c-0.1-0.4-0.3-0.8-0.7-1c0.1-0.1,0.2-0.2,0.4-0.3c-0.1-0.1,0-0.5-0.3-0.5C-449,315.9-449.4,316-449.3,316.6z M-448.6,328.5
	c-0.3,0.1-0.5,0.2-0.6,0.4C-448.9,328.8-448.6,328.8-448.6,328.5z M-448.6,329c-0.3,0-0.5,0.4-0.3,0.5
	C-448.9,329.3-448.5,329.5-448.6,329z M-448.3,317.7c-0.2,0-0.3-0.2-0.4-0.3c-0.1,0-0.4,0.4-0.1,0.5c0-0.1,0.1-0.2,0.3-0.2
	C-448.5,317.8-448,317.8-448.3,317.7z M-448.4,320c-0.2,0-0.2,0-0.2,0.2h0.2V320z M-448.4,323c-0.1,0-0.1,0-0.2,0v0.1
	c0,0,0.1,0,0.2,0V323z M-448.1,318.3c0.2,0,0.2,0,0.2-0.2C-448.2,318.1-448.1,318-448.1,318.3z M-447.9,317.4c0.2,0,0,0.6,0.4,0.5
	c0-0.3-0.2-0.3-0.1-0.6C-447.8,317.3-447.9,317.3-447.9,317.4z M-447.8,319.5c0,0-0.1,0-0.2,0v0.2c0,0,0.1,0,0.2,0V319.5z
	 M-447.6,316.3c0.3,0,0.6-0.6,0.2-0.7C-447.4,315.9-447.8,316.1-447.6,316.3z M-445.8,314.1c-0.4,0-0.1-0.6-0.5-0.6
	c0,0.4,0.1,0.5,0.1,0.8C-446,314.3-445.9,314.2-445.8,314.1z M-445.4,314.5c0,0.1-0.4,0.4-0.1,0.5
	C-445.5,314.8-445,314.6-445.4,314.5z M-444.9,313v0.4c0,0,0.1,0,0.2,0C-444.7,313-444.7,313-444.9,313z M-444.4,313.8
	c0,0.1-0.4,0.2-0.1,0.3C-444.5,314-444,313.9-444.4,313.8z M-441.4,313.9C-441.4,313.9-441.3,313.9-441.4,313.9l0.3,0.1
	C-441,313.8-441.5,313.7-441.4,313.9z M-441.2,322.3c-0.2,0-0.2,0-0.2,0.2C-441.1,322.5-441.2,322.6-441.2,322.3z M-440.8,315.4
	c0.2,0,0.5,0,0.6-0.1c0-0.2,0-0.4-0.3-0.4C-440.4,315.2-440.7,315.1-440.8,315.4z M-440.7,321.6c0.4-0.1,0.3-0.4,0-0.6
	C-440.9,321.2-440.5,321.2-440.7,321.6C-440.7,321.5-440.8,321.5-440.7,321.6z M-440.3,324.7h-0.4c0,0.5,0.4,0.5,0.7,0.7
	C-439.7,325.1-440.2,325-440.3,324.7z M-440.1,316.7c-0.2-0.1-0.3-0.2-0.5-0.3C-440.6,316.7-440.2,317-440.1,316.7z M-440.5,318.5
	c0.2,0,0.2,0,0.2-0.2C-440.5,318.3-440.5,318.2-440.5,318.5z M-440,320.3c-0.2,0-0.2-0.2-0.4,0C-440.4,320.7-439.9,320.7-440,320.3z
	 M-440.3,317.6c0.2,0,0.2,0,0.2-0.2C-440.3,317.4-440.3,317.4-440.3,317.6z M-440.1,313.2c0.3,0,0.6-0.1,0.7-0.3
	C-439.8,312.9-440,313-440.1,313.2z M-439.8,318.3c0,0.1-0.1,0.2-0.2,0.4C-439.8,318.8-439.7,318.2-439.8,318.3z M-440,319.1
	c0.2,0.3,0.4,0.6,0.8,0.6C-439.1,319.2-439.6,318.9-440,319.1z M-439.9,314.9c0.4,0,0.3-0.8,0.7-0.4v-0.4
	C-439.5,314.3-440,314.6-439.9,314.9z M-439.1,315.3c-0.1,0.4-0.6,0.4-0.6,0.9h0.5c0-0.4,0.3-0.6,0.6-0.8
	C-438.9,315.4-439,315.4-439.1,315.3z M-439,317.5h-0.4C-439.5,317.9-439,317.8-439,317.5z M-438.7,318.7c-0.2-0.4,0.2-0.8-0.2-0.9
	C-438.8,318.2-439.2,318.7-438.7,318.7z M-438.8,313.4c0.4,0,0.9,0,0.9-0.5c-0.4,0-0.6,0.4-0.9,0V313.4z M-437.8,314.8
	c0.1,0,0.1,0,0.2,0v-0.2c0,0-0.1,0-0.2,0V314.8z"/>
<path class="st0" d="M-421.2,323.1v0.7c-1.4,2.7-3.5,7.3-7.4,7.5c-1.2,0-2.1-0.5-2.9-1.2c-0.5-1.1-1.2-2.3-1.3-3.7
	c0-0.2,0.2-0.3,0.2-0.5l0.2-2.1c-0.4-1.2,0.3-4.5,0.3-4.8c0-0.3,0.1-0.4,0.3-0.5c-0.2-1,0.3-5.1,0.4-5.9c0.2-1.5,0.7-3.4,0.9-4
	c-0.2,0.1-0.4,0.3-0.6,0.5c-1.6-0.2-1.8,0.1-3.4-0.1c0-0.7-0.3-1.8,0.2-2.5c0.3-0.2,0.5-0.2,0.9-0.2c1,0,2.7,0.3,3.4-0.4
	c-0.2-0.3,0.1-0.5-0.1-0.8c0.5-0.6,0.3-1.9,0.9-2.5c0.1,0,0.3,0,0.4-0.1c0.1-0.1,1-0.8,1.3-0.3l0.3-0.3c0.9,0.4,2.1,0.5,3,1.1
	c0,0.5-0.1,1-0.6,1.1c0.3,0.8-0.4,1.3-0.3,2.2c1.2,0.4,3-0.3,4.1,0.1c0.3,0.9,0.2,1.8,0.1,2.7c-1.5,0.7-3.2,0.5-4.9,0.1
	c-0.3,0.1-0.4,0.5-0.4,0.7c-0.1,0.6,0.1,1.7-0.5,1.9c0.3,0.5,0,1.2-0.2,1.7c-0.1,0.6,0,1.3-0.5,1.6c0.3,1-1.4,10.5-1.2,13.4
	c0.6,0.6,1,1.6,1.9,1.5c0.3,0,1.7-1.4,2.1-1.8c0.4-0.5,0.6-1.3,1.1-1.4c0.2-0.9,0.6-1.5,1.1-2.1c0.3-1.1,0.5-2.2,1.3-2.8
	C-420.4,321.7-420.6,323-421.2,323.1z M-432.5,306.8c0.1,0,0.1,0.2,0.1,0.4C-431.8,307.3-432.3,306.5-432.5,306.8z M-432.1,325.9
	c0,0.1-0.1,0.1-0.1,0.3h0.2C-431.9,326.1-431.9,326-432.1,325.9z M-431.4,324.5c0,0.2-0.4,0.1-0.3,0.4c0.1,0,0.2,0,0.3,0.1
	C-431.4,324.9-431.2,324.5-431.4,324.5z M-431.6,326v0.3C-431.3,326.5-431.3,325.9-431.6,326z M-431.3,318.8c0,0,0.1,0,0.2,0
	c0-0.1,0.1-0.1,0.1-0.3h-0.3C-431.3,318.5-431.3,318.8-431.3,318.8z M-431.3,323.9c0.1,0,0.2,0.1,0.2,0.4c0.1,0,0.3,0,0.4-0.1
	C-430.9,324.1-431.1,323.5-431.3,323.9z M-430.6,326.8c-0.2-0.1-0.3-0.2-0.6-0.3c0,0.1,0.1,0.2,0.1,0.4
	C-430.9,326.8-430.4,326.9-430.6,326.8z M-430.9,306.5c0,0.2-0.3,0.1-0.3,0.3C-431.1,306.8-430.6,306.6-430.9,306.5z M-430.8,319.2
	c0,0-0.1,0-0.2,0v0.2c0,0,0.1,0,0.2,0V319.2z M-430.1,308c-0.2,0,0-0.4-0.3-0.4c0,0.3-0.5,0-0.4,0.4
	C-430.5,307.9-430.3,308.2-430.1,308z M-430.8,320.7c0.2,0,0.5-0.4,0.3-0.5C-430.6,320.4-430.9,320.4-430.8,320.7z M-430.7,319.2
	c0.3,0.1,0.4-0.1,0.7-0.1C-430,318.6-430.7,318.9-430.7,319.2z M-430.3,322.3c-0.2,0-0.5,0-0.5,0.2
	C-430.6,322.7-430.3,322.6-430.3,322.3z M-430.7,323.3c0,0,0,0.1,0,0.2h0.2c0-0.1,0-0.1,0-0.2H-430.7z M-430.5,326.5
	c0.1,0,0-0.6-0.1-0.2C-430.6,326.4-430.6,326.5-430.5,326.5z M-430.4,313.9c0.1-0.1,0.1-0.4-0.2-0.4
	C-430.6,313.7-430.5,313.9-430.4,313.9z M-429.8,327.7c-0.1,0-0.1-0.1-0.1-0.3c-0.4,0.1-0.3-0.2-0.6-0.3
	C-430.5,327.4-429.8,327.7-429.8,327.7z M-430.4,324.6c0-0.1,0.3,0,0.3-0.2C-430.3,324.3-430.6,324.5-430.4,324.6z M-430.1,322.2
	c0-0.1,0-0.3-0.2-0.3v0.2C-430.3,322.1-430.1,322.2-430.1,322.2z M-429,316.6c-0.4,0.3-0.6,0-1.1,0.1c0,0.3,0.3,0.2,0.2,0.6
	c0.6,0,0-0.5,0.4-0.5c0,0.1,0.1,0.1,0.1,0.2C-429.1,317.1-429.2,316.7-429,316.6z M-430,326.2v0.2c0.1,0,0.2,0,0.3,0
	C-429.6,326.2-429.8,326.1-430,326.2z M-429.9,310.7c0.1,0,0.1,0,0.2,0.1c0-0.2,0-0.3-0.2-0.3V310.7z M-429.8,307.1
	c0,0.2,0.1,0.5,0.4,0.5c0-0.2-0.1-0.3-0.1-0.6c0.1,0,0.2,0,0.2-0.2C-429.6,306.8-429.4,307.2-429.8,307.1z M-429.8,314.8v0.5
	C-429.3,315.3-429.5,314.8-429.8,314.8z M-429.4,305.5c0.1-0.4,0.8-0.8,0.5-1.2C-429.1,304.6-429.8,304.9-429.4,305.5z
	 M-429.2,308.6c0-0.1,0-0.1,0-0.2h-0.2c0,0,0,0.1,0,0.2H-429.2z M-428.9,315.4c-0.2-0.1,0.1-0.4-0.1-0.6c-0.4-0.1-0.4,0.6-0.1,0.6
	C-429.1,315.1-428.6,315.6-428.9,315.4z M-428.8,309.8c-0.2,0-0.2-0.1-0.4-0.1v0.4C-428.9,310.2-428.8,310.1-428.8,309.8z
	 M-427.8,312.3c0-0.3,0-0.6-0.2-0.7c-0.2,0.5-0.8,0.1-1.2,0.3c0.2,0.3,0.2,0.2,0.1,0.7c0.4,0,0.2-0.6,0.7-0.6
	C-428.2,312.1-428.2,312.4-427.8,312.3z M-428.9,310.3c-0.1,0.1-0.2,0.6,0,0.6c0-0.1,0.1-0.2,0.3-0.2c0.1,0.1,0,0.5,0.2,0.7
	c0-0.3,0.4-0.2,0.4-0.6C-428.1,310.4-428.4,310.3-428.9,310.3z M-428.2,315.9c-0.3,0.1-0.6,0.2-0.7,0.6
	C-428.4,316.6-428.3,316.2-428.2,315.9z M-428.4,309.6c0-0.1,0.1-0.2,0.1-0.4h-0.3C-428.6,309.5-428.6,309.6-428.4,309.6z
	 M-428.4,304.1h0.2c0.1-0.1,0.1-0.2-0.1-0.3C-428.3,303.9-428.4,303.9-428.4,304.1z M-428.1,309.1c0.1,0,0.2,0,0.3,0
	c0-0.2-0.1-0.2-0.3-0.2V309.1z M-427.8,309.6c0,0.2-0.3,0.2-0.2,0.5C-427.6,310.2-427.5,309.7-427.8,309.6z M-427.5,312.9
	c-0.1,0-0.3,0-0.3,0.2C-427.7,313.1-427.6,313.1-427.5,312.9z M-427.4,313c0.2,0,0.4,0,0.4-0.2C-427.2,312.8-427.4,312.9-427.4,313z
	 M-427.1,309.7c0-0.2,0.4-0.7-0.1-0.7C-427.3,309.2-427.2,309.7-427.1,309.7z M-427,303.6c0.1,0,0.2,0,0.3,0v-0.3
	c-0.1,0-0.2,0-0.3,0V303.6z M-427,310.2c0,0.1,0,0.4,0.1,0.4C-426.9,310.4-426.6,310.2-427,310.2z M-426.9,304.7
	c0,0.3,0.3,0.2,0.2,0.6c0.3-0.1,0.4,0,0.8,0c0.3-0.2-0.1-1-0.3-0.9c0.1,0.2,0,0.3,0.2,0.6c-0.1,0-0.1,0-0.2,0.1
	C-426.2,304.7-426.6,304.8-426.9,304.7z M-425.9,303.1c0.1,0,0.5,0.3,0.7,0C-425.4,303.1-425.8,302.7-425.9,303.1z M-425.2,308.9
	C-425.1,308.9-425.1,308.9-425.2,308.9l0.3,0.1C-424.8,308.7-425.2,308.7-425.2,308.9z M-424.9,307.5c0-0.2,0.6-0.3,0.3-0.6
	C-424.7,307-425.3,307.1-424.9,307.5z M-424.1,307c0.3,0.1,0.2-0.2,0.3-0.3h-0.3V307z M-423.9,308.3c0.3,0,0.2-0.2,0.3-0.4
	C-423.9,307.8-423.8,308.2-423.9,308.3z M-422.7,308.4c0,0,0.1,0,0.2,0v-0.2c-0.1,0-0.1,0-0.2,0V308.4z"/>
<path class="st0" d="M-406.2,322.9c-0.3,0.6-0.7,0.6-0.5,1.2c-0.5-0.3,0.1,0.2-0.4,0.1c0.3,0.2,0.2,0.2,0,0.5c-0.2,0,0-0.1,0-0.2
	c-0.3,0.6-0.9,1.5-1.1,1.7c-1,0.6-1.8,2.5-3.6,3c0,0.4-0.3,0.4-1,0.8c-0.2,0.1-0.1,0.1-0.5,0.3c-0.3,0.1,0,0.1-0.4,0.1
	c-0.3,0-0.8,0.5-1.1,0.5s-1.2-0.3-1,0.1c-0.1,0.1-0.7,0-1.1,0.1c0.4-0.5,0-0.1-0.2-0.5c-0.2,0-0.2,0.4,0,0.4c0,0.2-0.6,0-0.3-0.2
	l0,0l0,0c-0.5,0.3-2.1,0.2-1.8-0.3c-1.2,0.5-3.6-2.1-3.4-3.5c-0.3-0.5-0.6-1.6-0.4-2.3l0.2,0.1c0-0.1-0.2-0.2-0.2-0.4
	c-0.2-0.8,0.2-2.1,0.4-2.7c0.2-1,0.3-1.9,0.7-2.8c0.7-1.6,2-3.7,2.8-4.6c0.5-0.4,1.3-0.8,1.8-1.2c1.4-1.1,4.8-1.6,6.1,0.2
	c0.2,0.2,0.3,0.4,0.5,0.6c0,0,0.1,0.1,0.1,0.2s0.5,1.1,0.6,1.6c0,0.4,0,1.3,0,1.4c0,0.1-0.2,1.2-0.3,1.2c-0.4,1-1,1.9-1.9,2.6
	c-1.6,1.4-3.6,2.5-5.9,3.3c-0.3,1.9,0,2.9,0.4,3.8c0.2,0.5,1,0.6,1.2,1.1c0.8,0,1.3-0.1,2.3-0.1c1.7-0.9,3.8-1.2,4.7-2.8
	c0.4,0.1,0.4-0.2,0.7-0.3c0-1.1,1.7-1.4,1.5-2.4c0.3,0,0.6-0.7,0.7-1.3c0.1,0.1,0.5-0.6,0.5-0.7C-405.6,321.7-406.6,323-406.2,322.9
	z M-421.2,323.2c-0.2,0.3-0.6-0.2-0.7,0.1c0.2,0,0.1,0.2,0.3,0.3c0-0.2,0.1-0.3,0.1,0h0.2C-421.2,323.4-421,323.3-421.2,323.2z
	 M-419.5,326.8c-0.5,0-0.7,0-0.8,0.1C-420,327-419.6,327.2-419.5,326.8z M-420.1,325.7c0,0,0.5,0.3,0.5,0c-0.2,0,0-0.1,0.1-0.2
	c-0.2,0-0.3-0.1-0.4-0.1c0,0.1,0,0.4-0.1,0.4C-420,325.6-420.1,325.5-420.1,325.7z M-420,323.8c0.2,0,1-0.2,0.5-0.5
	C-419.6,323.4-420,323.4-420,323.8z M-419.6,327.8c-0.2,0.1-0.3-0.5-0.4-0.1C-419.9,327.7-419.7,328.3-419.6,327.8z M-419.7,318.3
	c0.4,0.2,0.4-0.6,0-0.4V318.3z M-418.6,328.6c0-0.4-0.5-0.3-0.7-0.6c0,0.2-0.2,0.3-0.1,0.6C-419,328.4-418.9,328.8-418.6,328.6z
	 M-418.1,322.8c0.8-0.1,0.8-0.4,1.3-0.8c0.2-0.1,0.5-0.2,0.7-0.4c0.7-0.6,1.1-1.1,1.4-1.6c0.3-0.6,1.1-1.2,1.3-1.8
	c0,0,0.2-0.2,0.2-0.4c0.4-1.2-0.2-1.2,0.7-2.2c-0.6,0.3-0.3-1.2-0.8-1.6c-0.3-0.2-0.7,0.3-0.7,0c0,0-0.5,0.4-1.1,0.5
	c-0.1,0.7-0.8,0.9-1.1,1.5c0,0-1.8,2.9-1.9,5.5C-418,321.3-418.1,322.1-418.1,322.8z M-412.4,320.2c-0.1,0-0.4,0.3-0.3,0.5
	c0.1-0.1,0.2-0.2,0.3-0.3V320.2z M-412.3,317.7c-0.5,0.3,0.6,0.7,0.1,1.1c0.5,0,0.5,0.5,1.1,0.6c-0.1,0-0.7-0.7-0.1-0.7
	c-0.1-0.4-0.4,0-0.7,0c0.3-0.3-0.4-0.3-0.1-1c-0.1,0-0.1,0.1-0.1,0.2C-412.3,317.9-412.3,317.7-412.3,317.7z M-411.9,319.4
	c-0.1,0.1-0.3,0.6,0.1,0.5c0-0.2-0.2-0.3,0-0.4C-411.7,320-411.6,319.4-411.9,319.4z M-412,316.6c0,0.2,0.5-0.1,0.9,0
	c0.1,0.3-0.2,0.1-0.2,0.1c0,0.3,0.3,0.7,0.5,1c0.1-0.1,0.1-0.3,0.2-0.5c-0.2,0-0.4-0.2-0.3-0.5c0.1-0.1,0.2-0.1,0.4-0.1
	c0-0.1-0.2-0.6-0.2-0.8c-0.1,0.3-0.2,0.6-0.7,0.3c0.2-0.2,0.3-0.7-0.2-0.6C-411.6,316.1-412.2,315.6-412,316.6z"/>
</svg>
