<?xml version="1.0" encoding="utf-8"?>
<!-- Generator: Adobe Illustrator 19.0.0, SVG Export Plug-In . SVG Version: 6.00 Build 0)  -->
<svg version="1.1" id="Layer_1" xmlns="http://www.w3.org/2000/svg" xmlns:xlink="http://www.w3.org/1999/xlink" x="0px" y="0px"
	 width="61.8px" height="22.1px" viewBox="0 0 61.8 22.1" style="enable-background:new 0 0 61.8 22.1;" xml:space="preserve">
<style type="text/css">
	.st0{fill:#76C15F;}
</style>
<g>
	<path class="st0" d="M9.6,4.7C9.2,4.8,8.9,4.7,8.5,4.5C8.3,3.8,8.4,2.9,8.3,2C6.1,2,4.3,1.9,2.7,1.6c0.1,2.6,0,4.1,0.2,7
		c1.1,0.1,2-0.3,2.9,0C6.3,8.3,6,7.4,6.3,7.2C6.3,7.1,6.8,7.4,7,7.7C7.2,8,7.1,8.5,7,8.9c0-0.1,0,1.2,0,1.2
		c-0.3,0.5-0.9,0.3-0.9-0.3c-1.1-0.1-2.1,0-3.1,0.2c0.3,2.9,0,11-0.2,11.5c-0.4,0.2-0.6,0.2-1,0.1c-0.4-0.6-0.3-1.4-0.3-2.3
		c0-1,0.1-13.1-0.1-17.6C0.4,2-0.3,1.4,0.1,0.7c0.8,0,1.4-0.2,2.1-0.2c1.8,0,3.7,0.3,5.6,0.3c0.4,0,0.7-0.1,1,0.1
		c0.7,0.3,0.9,0.6,0.9,1.4C9.7,2.6,10,4.5,9.6,4.7z M2.8,21.6L2.8,21.6L2.8,21.6z"/>
	<path class="st0" d="M24.9,20.6L24.9,20.6c0,0-0.1,0.1-0.1,0.1c-0.1,0.4-0.5,0.6-1.2,0.8c-0.6,0.1-1-0.1-1.5-0.5
		c0,0,0.5-2.6,0.1-0.4c-0.2-0.3-0.5-0.4-0.8-0.7c-2.2-2.2-2.6-5.9-3.5-9.9c-0.1,0.1-2.2,0.1-2.5,0.1l0-0.6c-0.6,1.7-0.2,3.4-0.2,5.1
		c0,1.5,0,3.1,0.2,4.5c0.1,0.4,0,1.2,0.2,1.6c0,0,0.2,0.2,0.4,0.3c0,0.2,0.3,0.7-0.5,0.9c-0.8,0.4-2.3,0-2.4-0.7
		c0-0.6,0.4-0.6,1.1-0.8c-0.4-2.1-0.2-4.4-0.3-6.8c-0.2-4.3-0.1-8,0.2-11.1l-0.2-0.1c0,0-0.9,0-0.9,0c-0.4-0.1-0.7-0.7-0.6-1.1
		c1.7-1,4.6-0.9,7-0.7c2.4,0.2,3.8,1.7,3.8,3.8c0,1.4-0.6,2.8-1.4,3.7c-0.5,0.5-0.8,0.8-1.1,0.8v0c-0.1,0.1-1.7,0.4-1.6,0.6
		c0.2,0.4,0.5,0.8,0.5,1.5c0.3,1.8,0.6,4,1.3,5.7c0.2,0.6,0.6,1,1.1,1.6c0.4,0.5,0.8,0.8,1.4,1c0.6,0.2,1.2,0.2,1.5,0.7
		C24.9,20.4,24.9,20.6,24.9,20.6z M19.8,7.9c1.1-0.7,1.4-1.1,1.7-2c0.4-1.3,0.3-2.3-0.1-3c-1.5-0.6-4.3-1-6-0.5
		C15.3,5,15,6.4,15.1,9.1c2.8-0.1,1.7,0.2,3.4-0.4C18.9,8.5,19.5,8.1,19.8,7.9z"/>
	<path class="st0" d="M34.6,21.2c-0.3,0.2-0.8,0.1-1.8,0.2c-0.6,0.1-2.7-0.2-3.4,0c-0.3,0.1-0.5,0.2-0.6,0.3
		c-0.9,0.3-1.9,0.2-2.5-0.4c0.1-0.5,0.4-0.4,1.2-0.7c0-4.8-0.2-9.4-0.4-14.4c-0.1-1.4-0.4-2.7-0.1-4.1c-0.4-0.3-1.2-0.6-1-1.3
		C26,0.4,28.6,0.9,29,0.9c0.5,0.1,5.9-0.1,5.8,0.5c0,1,0.1,2.3-0.3,2.8c-0.2,0-0.3,0.1-0.4,0.1c-0.4-0.2-0.5-0.6-0.4-2
		c-1.9-0.2-3.7,0-5.8-0.1c-0.4,2.5,0.4,5.3,0.2,7.8c1.2,0.4,2.9,0.1,3.8,0.1c0.2-0.5,0-0.9,0.2-1.1c0.1,0,0.1,0,0.2,0
		c0.4,0,0.7,0.6,0.7,1.4c0,1-0.2,1.5-0.7,1.6c-0.1-0.2-0.2-0.4-0.4-0.7c-1.3,0.1-2.6,0.2-3.6,0.1c-0.1,2.8,0.4,6.1,0.1,8.9
		c1,0.1,3.9-0.1,5.3,0c0.1-0.6,0.2-1.1,0.4-1.5c0.2-0.1,0.2,0,0.7,0.5C34.7,19.9,34.8,20.8,34.6,21.2z M34.1,4.3
		C34.2,4.3,34.2,4.3,34.1,4.3C34.1,4.3,34.1,4.3,34.1,4.3z"/>
	<path class="st0" d="M48.7,21c0,0.8-1.4,0.7-2.1,0.5c-0.5-0.1-0.7-0.4-0.7-0.8c0.2-0.2,0.5-0.2,0.8-0.5c-0.1-0.3-0.1-0.5-0.2-0.8
		c0-0.1,0-0.1-0.1-0.2c-0.2-0.5-0.4-1-0.4-1.5c0-0.3-0.3-1.4-0.4-1.6c-0.3-0.8-0.7-1.2-3.4-1.6c-0.5,0-0.9,0-1.4-0.1
		c-0.1,0-0.1,0-0.1,0L40,14.2c-0.2,0.1-0.4,0.5-0.6,1.7c0,0,0,0.1,0,0.1c-0.1,0.4-0.3,0.7-0.3,1.1c-0.1,0.7-0.1,1.3-0.3,1.9
		c0,0,0,0.1,0,0.1L38.6,20c0,0,0.8,0.5,0.8,0.4c0.1,0.2,0.2-0.1,0.1,0.7c-0.1,0.2-0.3,0.3-0.9,0.4c-0.8,0.1-1.2,0.1-1.4,0.1
		c-0.5-0.1-0.6-0.3-0.6-0.7c0.2-0.3,0.4-0.4,1.1-0.5c0-0.3,0.1-0.6,0.1-1c0,0,0-0.1,0-0.1c0.2-1.1,1-6.2,1.7-7.4
		c0.3-0.5,0.1-1,0.3-1.4c0-0.1,0-0.1,0.1-0.2c0.1-0.4,0.3-0.8,0.4-1.1c0.2-0.5-0.1-0.9,0.1-1.3c0.1-0.2,0.5-0.3,0.5-0.8
		c0-1.1,0.1-1.9,0.3-2.5c0-0.1,0-0.1,0-0.2c0.1-0.4,0.2-0.7,0.3-1c0.3-1,0.5-2.6,1.1-2.9l0.3-0.1c0.1,0,0.2,0.1,0.4,0.2
		c0,0-0.2-0.2,0.1,0.1c0.1,0.1,0.2,0.3,0.3,0.4c0.5,2.1,1.2,4.2,1.3,6.3c0.1,0.8,0.4,1.6,0.6,2.4c0,0.1,0,0.1,0.1,0.2
		c0.1,0.2,0.2,0.4,0.3,0.7c0.3,0.4-0.3,1.1,0.3,1.7c0.1,0.2,0.3,0.3,0.3,0.5c-0.1,0.8,0.1,1.5,0.3,2.3c0,0.1,0,0.1,0,0.1
		c0,0.1,0,0.1,0,0.2c0.2,0.7,0.3,1.5,0.6,2.3c0.1,0.6,0.3,1.9,0.7,2.5C47.5,19.7,48.7,20.6,48.7,21z M45,12.5c0,0,0-0.1,0-0.2
		c-0.1-0.5-0.1-1.1-0.3-1.7c-0.1-0.2-0.1-0.4-0.2-0.7c-0.3-1-0.6-2-0.8-3.1l-0.2-0.9c0-0.1,0-0.1,0-0.2c-0.1-0.3-0.1-0.6-0.2-0.8
		V4.8c0,0,0-0.1-0.1-0.1c0-0.1,0-0.1,0-0.1C43.2,4,43.1,3.9,43,3.7l-0.4,0.1c-0.1,0.1-0.1,0.3-0.1,0.5c0,0.1,0,0.1,0,0.1
		c0,0.1,0,0.1,0,0.1l-0.1,0.1c-0.5,0.8-0.5,1.6-0.6,2.4c0-0.3,0-0.1-0.1,0.1C41.4,7.8,41.2,8.5,41,9c-0.2,0.4-0.3,1.6-0.4,1.7
		c-0.1,0.4,0.1,0.8-0.1,1c-0.2,0.3-0.3,0.5-0.4,0.9v0.1c0,0,0,0.1,0,0.1C40.1,13,40,13,40.1,13.2c0.3,0,0.3,0,0.3,0.1l0.9,0.2
		c1,0.1,2,0.1,3,0.3h0.1c0.2,0.1,0.4,0.1,0.7,0.1C45.2,13.7,45.2,13.3,45,12.5z"/>
	<path class="st0" d="M61.8,1L61.8,1c0,0.1-0.2,0.3-0.2,0.4c0,0-1.2,0.8-1.2,0.8c-0.4,0.3-0.6,0.6-1.1,1.2c-3.4,3.9-5,5.5-4.8,5.7
		l-0.2,0.3c1.7,2,2.1,4.3,3,6.8c0.4,1.3,1.3,3.3,1.8,3.5c0.1,0.2,0.4,0.3,0.6,0.4c0.5,0.3,0.3,1.1-0.3,1.3c-0.5,0.2-1,0.3-1.5,0.2
		c-0.5-0.1-0.7-0.2-0.9-0.5l0,0c-0.1-0.1-0.3-0.7-0.2-0.8c0.1-0.2,0.2-0.2,0.7-0.2c-0.4-0.9-0.7-2-1.1-3l-0.2-0.3
		c-0.8-2.1-1.2-4.7-2.5-6.5c-0.4-0.1-1.9,1.7-2,2.3c-0.1,0.5-0.1,1.2-0.1,1.8c-0.1,1-0.3,2.1-0.3,3.1c0,0.8-0.1,2.2-0.2,3
		c0,0.1,0.1,0.3,0.1,0.5c-0.1,0.1-0.1,0.3-0.2,0.6c-0.8,0.4-1.7,0.3-1.8-0.7c0.1-0.2,0.3-0.3,0.5-0.4c0.3-0.2,0.3-2.2,0.3-2.4
		c0-0.6,0.1-1.1,0.1-1.7c0.1-1.1,0.2-2.2,0.3-3.2c0.2-2.1,0.4-4.3,0.5-6.4c0.1-1.2,0.2-2.4,0.2-3.6c0-1-0.2-1.4-1-1.8
		c-0.5-0.3-0.6-0.8-0.1-1c0.4-0.2,1-0.2,1.4-0.1c0.3,0.1,0.4,0.1,0.6,0.3h0c0,0,0.5,0.5,0.5,0.6c0.1,3,0,6-0.4,8.8l0.3,0
		c0.1-0.6,1.2-1.5,1.5-1.9c0.5-0.7,1-1.4,1.5-2C54.8,7,59.2,1.5,59,1.3l0.5-0.2c-0.9-1.2,1.1-1.2,2.1-1.1C61.5,0.1,61.8,0.9,61.8,1z
		 M51.4,21L51.4,21C51.5,21.1,51.5,21.1,51.4,21z"/>
</g>
</svg>
