<?xml version="1.0" encoding="utf-8"?>
<!-- Generator: Adobe Illustrator 19.0.0, SVG Export Plug-In . SVG Version: 6.00 Build 0)  -->
<svg version="1.1" id="Layer_1" xmlns="http://www.w3.org/2000/svg" xmlns:xlink="http://www.w3.org/1999/xlink" x="0px" y="0px"
	 width="67.8px" height="21.9px" viewBox="0 0 67.8 21.9" style="enable-background:new 0 0 67.8 21.9;" xml:space="preserve">
<style type="text/css">
	.st0{fill:#76C15F;}
</style>
<path class="st0" d="M9.9,1.5C9.9,1.9,9.4,1.9,9.2,2.3c0,0.5,0,1.1,0,1.7c-0.1,2.1-0.5,4.2-0.6,6.4c-0.1,3.2,0,6.4-0.3,9.5
	c0,0.3,0.5,0.3,0.5,0.3c0,0.3,0.2,0.4,0.3,0.5c-0.3,0.8-1.4,1-2.1,0.5c-0.1-0.8,0.2-1.6,0.3-2.5c0.1-2.4-0.1-4.8,0.1-7.5
	C5.7,11,4.5,11,2.8,11.1c0.1,3-0.3,6-0.5,8.6c0,0.3,0,0.5,0.1,0.8c-0.5,0.5-1,0.8-1.6,0.7c-0.2,0-0.4-0.3-0.8-0.5c0,0,0-0.1-0.1-0.1
	c0.4-0.5,0.6-0.6,1.2-0.7c0.3-4.8,0.4-10,0.6-15c0-1.1,0-2,0.2-2.9C1.7,1.7,1,1.7,0.8,1.3c0-0.1-0.1-0.3-0.1-0.4
	c0.1-0.3,0.2-0.3,1-0.4c1.1-0.1,1.4,0,1.6,0.6C3.5,2,3.2,2.8,3.2,3.7c0,2-0.1,4-0.2,6c1.4-0.1,2.9,0.2,4.2,0
	c0.4-2.3,0.5-4.8,0.6-7.6C7.7,1.7,7.4,1.5,7.3,1.2c0.1-0.5,0.8-0.5,1-0.7C8.3,0.6,8.2,0.6,8.2,0.6c0,0,0.2,0,0.8,0.2
	C9.5,0.8,9.6,0.9,9.9,1.5z"/>
<path class="st0" d="M19.6,20.9c-0.3,0.2-0.8,0.1-1.8,0.2c-0.6,0.1-2.7-0.2-3.4,0c-0.3,0.1-0.5,0.2-0.6,0.3
	c-0.9,0.3-1.9,0.2-2.5-0.4c0.1-0.5,0.4-0.4,1.2-0.7c0-4.8-0.2-9.4-0.4-14.4C12,4.6,11.7,3.3,12,1.9c-0.4-0.3-1.2-0.6-1-1.3
	C11,0.2,13.6,0.6,14,0.7c0.5,0.1,5.9-0.1,5.8,0.5c0,1,0.1,2.3-0.3,2.8c-0.2,0-0.3,0.1-0.4,0.1c-0.4-0.2-0.5-0.6-0.4-2
	c-1.9-0.2-3.7,0-5.8-0.1c-0.4,2.5,0.4,5.3,0.2,7.8c1.2,0.4,2.9,0.1,3.8,0.1c0.2-0.5,0-0.9,0.2-1.1c0.1,0,0.1,0,0.2,0
	c0.4,0,0.7,0.6,0.7,1.4c0,1-0.2,1.5-0.7,1.6c-0.1-0.2-0.2-0.4-0.4-0.7c-1.3,0.1-2.6,0.2-3.6,0.1c-0.1,2.8,0.4,6.1,0.1,8.9
	c1,0.1,3.9-0.1,5.3,0c0.1-0.6,0.2-1.1,0.4-1.5c0.2-0.1,0.2,0,0.7,0.5C19.7,19.7,19.8,20.6,19.6,20.9z M19.1,4C19.2,4,19.2,4,19.1,4
	C19.1,4.1,19.1,4.1,19.1,4z"/>
<path class="st0" d="M33.7,20.7c0,0.8-1.4,0.7-2.1,0.5c-0.5-0.1-0.7-0.4-0.7-0.8c0.2-0.2,0.5-0.2,0.8-0.5c-0.1-0.3-0.1-0.5-0.2-0.8
	c0-0.1,0-0.1-0.1-0.2c-0.2-0.5-0.4-1-0.4-1.5c0-0.3-0.3-1.4-0.4-1.6c-0.3-0.8-0.7-1.2-3.4-1.6c-0.5,0-0.9,0-1.4-0.1
	c-0.1,0-0.1,0-0.1,0L25,14c-0.2,0.1-0.4,0.5-0.6,1.7c0,0,0,0.1,0,0.1c-0.1,0.4-0.3,0.7-0.3,1.1c-0.1,0.7-0.1,1.3-0.3,1.9
	c0,0,0,0.1,0,0.1l-0.1,0.9c0,0,0.8,0.5,0.8,0.4c0.1,0.2,0.2-0.1,0.1,0.7c-0.1,0.2-0.3,0.3-0.9,0.4c-0.8,0.1-1.2,0.1-1.4,0.1
	c-0.5-0.1-0.6-0.3-0.6-0.7c0.2-0.3,0.4-0.4,1.1-0.5c0-0.3,0.1-0.6,0.1-1c0,0,0-0.1,0-0.1c0.2-1.1,1-6.2,1.7-7.4
	c0.3-0.5,0.1-1,0.3-1.4c0-0.1,0-0.1,0.1-0.2c0.1-0.4,0.3-0.8,0.4-1.1c0.2-0.5-0.1-0.9,0.1-1.3c0.1-0.2,0.5-0.3,0.5-0.8
	c0-1.1,0.1-1.9,0.3-2.5c0-0.1,0-0.1,0-0.2c0.1-0.4,0.2-0.7,0.3-1c0.3-1,0.5-2.6,1.1-2.9l0.3-0.1c0.1,0,0.2,0.1,0.4,0.2
	c0,0-0.2-0.2,0.1,0.1c0.1,0.1,0.2,0.3,0.3,0.4c0.5,2.1,1.2,4.2,1.3,6.3c0.1,0.8,0.4,1.6,0.6,2.4c0,0.1,0,0.1,0.1,0.2
	c0.1,0.2,0.2,0.4,0.3,0.7c0.3,0.4-0.3,1.1,0.3,1.7c0.1,0.2,0.3,0.3,0.3,0.5c-0.1,0.8,0.1,1.5,0.3,2.3c0,0.1,0,0.1,0,0.1
	c0,0.1,0,0.1,0,0.2c0.2,0.7,0.3,1.5,0.6,2.3c0.1,0.6,0.3,1.9,0.7,2.5C32.5,19.4,33.7,20.4,33.7,20.7z M30,12.3c0,0,0-0.1,0-0.2
	c-0.1-0.5-0.1-1.1-0.3-1.7c-0.1-0.2-0.1-0.4-0.2-0.7c-0.3-1-0.6-2-0.8-3.1l-0.2-0.9c0-0.1,0-0.1,0-0.2c-0.1-0.3-0.1-0.6-0.2-0.8V4.5
	c0,0,0-0.1-0.1-0.1c0-0.1,0-0.1,0-0.1c-0.1-0.5-0.2-0.6-0.3-0.8l-0.4,0.1c-0.1,0.1-0.1,0.3-0.1,0.5c0,0.1,0,0.1,0,0.1
	c0,0.1,0,0.1,0,0.1l-0.1,0.1c-0.5,0.8-0.5,1.6-0.6,2.4c0-0.3,0-0.1-0.1,0.1c-0.3,0.7-0.5,1.3-0.7,1.9c-0.2,0.4-0.3,1.6-0.4,1.7
	c-0.1,0.4,0.1,0.8-0.1,1c-0.2,0.3-0.3,0.5-0.4,0.9v0.1c0,0,0,0.1,0,0.1c-0.1,0.1-0.1,0.1-0.1,0.3c0.3,0,0.3,0,0.3,0.1l0.9,0.2
	c1,0.1,2,0.1,3,0.3h0.1c0.2,0.1,0.4,0.1,0.7,0.1C30.2,13.5,30.2,13,30,12.3z"/>
<path class="st0" d="M43.5,20.6c-0.2,0-0.3-0.1-0.5-0.3c0.1-0.3-1.9,0.1-2.1,0.2c-0.7,0.1-1.4,0.1-2.1,0.2s-1.4,0.3-2,0.4
	c-0.8,0.1-1.2,0.3-1.6,0.2c-0.4-0.1-0.6-0.6-0.6-1c0.3-0.2,0.5-0.3,1-0.4c0.3-4.9,0-9.9,0.2-14.8c0-0.9,0.5-2.4-0.4-3.2
	c-0.2-0.1-0.4-0.2-0.4-0.4c0.1-1.2,1.4-0.8,2.1-1c0.8-0.2,0.7-0.3,1,0.5c-0.3,0.3-0.6,0.7-0.7,1.1c-0.1,0.5-0.1,1-0.1,1.4
	c0,1.5-0.3,3-0.2,4.5c0,1.7-0.6,9.2-0.2,11.3c0.1,0.3,4.3-0.2,6-0.5c0.2-0.4,0.3-0.6,0.3-0.8h0.2c0.3,0,0.5,0.3,0.6,0.6
	C44.2,19.5,43.9,20.6,43.5,20.6z M38,1.2L38,1.2c0.2-0.2,0.4-0.3,0.5-0.1L38,1.2z"/>
<path class="st0" d="M56.6,2.9c0,0-0.1-0.1-0.3-0.2h0c-0.4-0.2-0.9-0.4-1.4-0.3l-2.4,0.2c-0.8,0.1-0.5,1.4-0.2,10.6
	c0.1,2.1-0.4,4.2-0.1,6.3c0.1,0.5,0.1,0.5,1,0.4c0.3-0.1,0.5,0,0.7,0.3c0.1,0.1,0.1,0.3,0.1,0.5l-0.1,0.3c-0.3,0.8-1.5,0.6-2.3,0.7
	c-0.6,0.1-0.9,0.3-1.2,0.2c-0.4-0.1-0.8-0.6-0.7-1c0-0.1,0.1-0.1,0.1-0.2c0.1,0,0.2,0,0.4-0.2c0.4-0.2,0.5-0.3,0.7-0.3
	c-0.1-2.3,0-4.5,0-6.8c0-2.6-0.1-5.3-0.1-7.9c0-1,0-2,0.1-3c-1.4-0.4-2.8,0-4-0.4c-0.2,0.4-0.2,0.8-0.3,0.9
	c-0.3,0.2-0.6,0.2-0.8,0.1c-0.3-0.3-0.3-0.8-0.3-1.3c-0.1-0.8-0.1-1.4,0.1-1.6c0.3-0.5,0.6-0.3,1.3,0.5c3-0.1,5.7,0.3,8.5,0
	c0.3-0.3,0.4-0.5,0.5-0.6h0.2c0.5,0,0.8,0.4,1,1.1C57.1,1.9,56.8,3,56.6,2.9z"/>
<path class="st0" d="M67.8,1.5c-0.1,0.4-0.5,0.4-0.8,0.8c0,0.5,0,1.1,0,1.7c-0.1,2.1-0.5,4.2-0.6,6.4c-0.1,3.2,0,6.4-0.3,9.5
	c0,0.3,0.5,0.3,0.5,0.3c0,0.3,0.2,0.4,0.3,0.5c-0.3,0.8-1.4,1-2.1,0.5c-0.1-0.8,0.2-1.6,0.3-2.5c0.1-2.4-0.1-4.8,0.1-7.5
	c-1.5-0.1-2.7-0.1-4.4,0.1c0.1,3-0.3,6-0.5,8.6c0,0.3,0,0.5,0.1,0.8c-0.5,0.5-1,0.8-1.6,0.7c-0.2,0-0.4-0.3-0.8-0.5
	c0,0,0-0.1-0.1-0.1c0.4-0.5,0.6-0.6,1.2-0.7c0.3-4.8,0.4-10,0.6-15c0-1.1,0-2,0.2-2.9c-0.3-0.3-1-0.3-1.2-0.7c0-0.1-0.1-0.3-0.1-0.4
	c0.1-0.3,0.2-0.3,1-0.4c1.1-0.1,1.4,0,1.6,0.6c0.2,0.8-0.1,1.7-0.1,2.5c0,2-0.1,4-0.2,6c1.4-0.1,2.9,0.2,4.2,0
	c0.4-2.3,0.5-4.8,0.6-7.6c-0.1-0.4-0.4-0.6-0.5-0.9c0.1-0.5,0.8-0.5,1-0.7c-0.1,0.1-0.1,0.1-0.2,0.1c0,0,0.2,0,0.8,0.2
	C67.4,0.8,67.5,0.9,67.8,1.5z"/>
</svg>
