<?xml version="1.0" encoding="utf-8"?>
<!-- Generator: Adobe Illustrator 19.0.0, SVG Export Plug-In . SVG Version: 6.00 Build 0)  -->
<svg version="1.1" id="Layer_1" xmlns="http://www.w3.org/2000/svg" xmlns:xlink="http://www.w3.org/1999/xlink" x="0px" y="0px"
	 width="53.3px" height="21.7px" viewBox="0 0 53.3 21.7" style="enable-background:new 0 0 53.3 21.7;" xml:space="preserve">
<style type="text/css">
	.st0{fill:#76C15F;}
</style>
<g id="XMLID_14_">
	<path class="st0" d="M2.5,21c-0.4,0.1-0.8,0.2-1.1,0.2c-0.9-0.1-1.2-1.3-0.1-1.2C1.6,13.9,0.8,7.6,1.2,1.5c-0.8-0.1-1.4-1-1-1.3
		C0.3,0,0.9,0.1,1.3,0.1c0.6,0,2-0.4,2,0.5v0c0.1,0.5-0.5,0.5-0.8,1C2.1,2.6,2.4,3.8,2.4,4.8c0,1.3-0.1,2.6-0.1,3.9
		c0.1,1.8,0.2,3.7,0.2,5.5c0.1,1.6-0.1,3.4,0.1,5l0,0c0,0,0,0.1,0.1,0.1c0.2,0.1,0.4,0.3,0.5,0.5C3.7,20.3,3.4,20.8,2.5,21z"/>
	<path class="st0" d="M15.9,0.9c-0.2,0.1-0.3,0.3-0.4,0.5c-0.1,0.2-0.1,0.4-0.2,0.9c-0.1,0.6-0.1,1.1-0.1,1.7
		c-0.1,1.4-0.8,10.1-0.8,13c0,0.6-0.3,2.3,1,2.2c-0.1,0-0.1,0.8,0,0.7c-0.1,0.3-0.3,0.5-0.9,0.7c-1.4,0.6-1.9,0.7-2.2,0
		c-0.1-0.2-0.1-0.4-0.1-0.5c0-0.1,0.3-0.1,0.5-0.4c-0.8-2.1-1.6-4.4-2.3-6.8c-0.7-2.4-1.4-4.8-2.1-7.3c-0.6,0.3-0.5,1-0.7,1.7
		c-0.2,1.3-0.6,9.5-0.3,12.1c0.1,0.6,0.6,0.8,0.2,1.3c-0.2,0.2-0.7,0.4-1.5,0.5h0c-1.2,0.1-1,0.2-1.2,0c-0.2-0.2-0.2-0.8-0.1-1
		C5,20,5.3,19.9,5.7,19.8c0.4-2,0.1-4,0.2-5.9c0.2-1.6,0.3-3.3,0.3-5.3c0-1.6,0.3-3.2,0.2-4.7V3c0-0.3,0.1-0.6,0-0.8
		C6.2,1.6,4.9,1.5,5.2,0.7c0.1-0.3,1.7-0.2,2.1-0.2c0.6,0,1.1,0,1,0.7C8.2,1.7,7.9,1.7,8.2,2.5c0.2,0.5,1.9,5.4,2.5,7.3l0.8,2.5
		c0.1,0.5,1,2.3,0.8,2.6l0.5,0.1c0.2-0.5,0.2-1,0.2-1.5c0.1-1.7,0.5-6.4,0.6-7.2c0.1-0.9,0.1-1.9,0.2-2.8c0.1-0.7,0.2-1.4,0-2.2
		c-0.1-0.3-0.3-0.5-0.1-0.7C14.3,0.1,15.7,0.1,15.9,0.9z"/>
	<path class="st0" d="M28.7,0.9c-0.2,0.1-0.3,0.3-0.4,0.5c-0.1,0.2-0.1,0.4-0.2,0.9C28,2.9,28,3.4,27.9,4c-0.1,1.4-0.8,10.1-0.8,13
		c0,0.6-0.3,2.3,1,2.2c-0.1,0-0.1,0.8,0,0.7c-0.1,0.3-0.3,0.5-0.9,0.7c-1.4,0.6-1.9,0.7-2.2,0c-0.1-0.2-0.1-0.4-0.1-0.5
		c0-0.1,0.3-0.1,0.5-0.4c-0.8-2.1-1.6-4.4-2.3-6.8c-0.7-2.4-1.4-4.8-2.1-7.3c-0.6,0.3-0.5,1-0.7,1.7c-0.2,1.3-0.6,9.5-0.3,12.1
		c0.1,0.6,0.6,0.8,0.2,1.3c-0.2,0.2-0.7,0.4-1.5,0.5h0c-1.2,0.1-1,0.2-1.2,0c-0.2-0.2-0.2-0.8-0.1-1c0.4-0.3,0.7-0.4,1.1-0.4
		c0.4-2,0.1-4,0.2-5.9c0.2-1.6,0.3-3.3,0.3-5.3c0-1.6,0.3-3.2,0.2-4.7V3c0-0.3,0.1-0.6,0-0.8C19,1.6,17.7,1.5,18,0.7
		c0.1-0.3,1.7-0.2,2.1-0.2c0.6,0,1.1,0,1,0.7C21,1.7,20.7,1.7,21,2.5c0.2,0.5,1.9,5.4,2.5,7.3l0.8,2.5c0.1,0.5,1,2.3,0.8,2.6
		l0.5,0.1c0.2-0.5,0.2-1,0.2-1.5c0.1-1.7,0.5-6.4,0.6-7.2c0.1-0.9,0.1-1.9,0.2-2.8c0.1-0.7,0.2-1.4,0-2.2c-0.1-0.3-0.3-0.5-0.1-0.7
		C27.1,0.1,28.4,0.1,28.7,0.9z"/>
	<path class="st0" d="M38.7,20.8C38.4,21,37.9,20.9,37,21c-0.6,0.1-2.7-0.2-3.4,0c-0.3,0.1-0.5,0.2-0.6,0.3
		c-0.9,0.3-1.9,0.2-2.5-0.4c0.1-0.5,0.4-0.4,1.2-0.7c0-4.8-0.2-9.4-0.4-14.4c-0.1-1.4-0.4-2.7-0.1-4.1c-0.4-0.3-1.2-0.6-1-1.3
		c0.1-0.4,2.7,0.1,3.1,0.1C33.7,0.6,39,0.4,39,1c0,1,0.1,2.3-0.3,2.8c-0.2,0-0.3,0.1-0.4,0.1c-0.4-0.2-0.5-0.6-0.4-2
		c-1.9-0.2-3.7,0-5.8-0.1c-0.4,2.5,0.4,5.3,0.2,7.8c1.2,0.4,2.9,0.1,3.8,0.1c0.2-0.5,0-0.9,0.2-1.1c0.1,0,0.1,0,0.2,0
		c0.4,0,0.7,0.6,0.7,1.4c0,1-0.2,1.5-0.7,1.6c-0.1-0.2-0.2-0.4-0.4-0.7c-1.3,0.1-2.6,0.2-3.6,0.1c-0.1,2.8,0.4,6.1,0.1,8.9
		c1,0.1,3.9-0.1,5.3,0c0.1-0.6,0.2-1.1,0.4-1.5c0.2-0.1,0.2,0,0.7,0.5C38.9,19.5,39,20.4,38.7,20.8z M38.3,3.9
		C38.3,3.9,38.3,3.9,38.3,3.9C38.3,3.9,38.3,3.9,38.3,3.9z"/>
	<path class="st0" d="M53.2,20.2L53.2,20.2c0,0-0.1,0.1-0.1,0.1c-0.1,0.4-0.5,0.6-1.2,0.8c-0.6,0.1-1-0.1-1.5-0.5
		c0,0,0.5-2.6,0.1-0.4c-0.2-0.3-0.5-0.4-0.8-0.7c-2.2-2.2-2.6-5.9-3.5-9.9c-0.1,0.1-2.2,0.1-2.5,0.1l0-0.6c-0.6,1.7-0.2,3.4-0.2,5.1
		c0,1.5,0,3.1,0.2,4.5c0.1,0.4,0,1.2,0.2,1.6c0,0,0.2,0.2,0.4,0.3c0,0.2,0.3,0.7-0.5,0.9c-0.8,0.4-2.3,0-2.4-0.7
		c0-0.6,0.4-0.6,1.1-0.8c-0.4-2.1-0.2-4.4-0.3-6.8C42,9,42,5.4,42.4,2.3l-0.2-0.1c0,0-0.9,0-0.9,0c-0.4-0.1-0.7-0.7-0.6-1.1
		c1.7-1,4.6-0.9,7-0.7c2.4,0.2,3.8,1.7,3.8,3.8C51.4,5.6,50.9,7,50,8c-0.5,0.5-0.8,0.8-1.1,0.8v0c-0.1,0.1-1.7,0.4-1.6,0.6
		c0.2,0.4,0.5,0.8,0.5,1.5c0.3,1.8,0.6,4,1.3,5.7c0.2,0.6,0.6,1,1.1,1.6c0.4,0.5,0.8,0.8,1.4,1c0.6,0.2,1.2,0.2,1.5,0.7
		C53.3,20,53.3,20.2,53.2,20.2z M48.1,7.5c1.1-0.7,1.4-1.1,1.7-2c0.4-1.3,0.3-2.3-0.1-3c-1.5-0.6-4.3-1-6-0.5
		c-0.1,2.7-0.4,4.1-0.3,6.8c2.8-0.1,1.7,0.2,3.4-0.4C47.3,8.1,47.8,7.7,48.1,7.5z"/>
</g>
</svg>
