<?xml version="1.0" encoding="utf-8"?>
<!-- Generator: Adobe Illustrator 19.0.0, SVG Export Plug-In . SVG Version: 6.00 Build 0)  -->
<svg version="1.1" id="Layer_1" xmlns="http://www.w3.org/2000/svg" xmlns:xlink="http://www.w3.org/1999/xlink" x="0px" y="0px"
	 width="204.6px" height="37.4px" viewBox="0 0 204.6 37.4" style="enable-background:new 0 0 204.6 37.4;" xml:space="preserve">
<style type="text/css">
	.st0{clip-path:url(#SVGID_2_);}
	.st1{fill:#FFFFFF;}
</style>
<g>
	<defs>
		<rect id="SVGID_1_" y="0" width="204.6" height="37.4"/>
	</defs>
	<clipPath id="SVGID_2_">
		<use xlink:href="#SVGID_1_"  style="overflow:visible;"/>
	</clipPath>
	<g class="st0">
		<path class="st1" d="M1.1,16h1.7V6.6H1.1V3h7.8c1.4,0,2.1,0,3.1,0.3c1.9,0.6,3.2,2,3.2,4.1c0,1.4-0.6,2.8-1.9,3.5v0
			c2.1,0.6,2.6,2.3,2.6,3.7c0,2.7-1.9,4.3-4,4.7c-0.9,0.2-1.6,0.2-2.5,0.2H1.1V16z M9.2,9.2c0.8,0,1.1-0.5,1.1-1.2
			c0-0.7-0.3-1.2-1.2-1.2H7.8v2.3H9.2z M9.6,15.7c0.9,0,1.3-0.6,1.3-1.4c0-0.7-0.3-1.3-1.3-1.3H7.8v2.7H9.6z"/>
		<path class="st1" d="M31.6,12.6L31.6,12.6c0.2,0.1,0.3,0.2,0.5,0.3c0.3,0.2,0.5,0.4,0.7,0.9l0.8,1.7c0.2,0.3,0.5,0.5,1,0.5h0.6
			v3.5h-3.3c-1.3,0-1.9-0.4-2.3-1.2l-1.9-3.8c-0.2-0.4-0.4-0.6-1.2-0.6h-0.3V16h1.5v3.5h-8.2V16h1.7V6.6h-1.7V3H27
			c1.3,0,2.5,0,3.5,0.3C32.6,3.9,34,5.7,34,8.1C34,10,33.1,11.6,31.6,12.6z M27.3,10.3c0.4,0,0.8-0.1,1-0.3c0.5-0.3,0.7-0.8,0.7-1.5
			c0-1-0.5-1.7-2.1-1.7h-0.9v3.5H27.3z"/>
		<path class="st1" d="M38.6,16h1.7V6.6h-1.7V3h13.1v5.4h-4.1V6.9h-2.3v2.4h4.4v3.9h-4.4v2.6h2.5v-1.5h4.1v5.3H38.6V16z"/>
		<path class="st1" d="M55,3h8v3.5h-1.9l1,5.7c0.1,0.5,0.1,0.9,0.2,1.3c0,0.2,0,0.4,0,0.6h0.1l0.1-0.6l0.2-1.3L64.9,3h3.8l2.1,9.3
			c0.1,0.5,0.2,0.9,0.2,1.3l0.1,0.6h0.1l0-0.6c0-0.4,0.1-0.9,0.2-1.3l1.1-5.7h-1.9V3h8v3.5h-1.3l-3.1,13h-5.4l-1.6-7
			c-0.1-0.5-0.2-0.9-0.2-1.4l-0.1-0.7h-0.1l-0.1,0.7c-0.1,0.4-0.1,0.9-0.2,1.4l-1.6,7h-5.4l-3.1-13H55V3z"/>
		<path class="st1" d="M81.7,16h1.7V6.6h-1.7V3h8.5v3.5h-1.7V16h1.7v3.5h-8.5V16z"/>
		<path class="st1" d="M94.1,16h1.7V6.6h-1.7V3h6.8l3.8,7.3c0.2,0.4,0.4,0.9,0.5,1.3l0.2,0.6h0.1l-0.1-0.7c-0.1-0.4-0.1-0.9-0.1-1.3
			V6.6h-1.9V3h8.6v3.5h-1.7v13h-5l-3.9-7.3c-0.2-0.4-0.4-0.9-0.5-1.2l-0.2-0.7h-0.1l0.1,0.7c0.1,0.4,0.1,0.9,0.1,1.4V16h1.9v3.5
			h-8.6V16z"/>
		<path class="st1" d="M116.8,2.6h4.1l-2.3,6.5h-3.2L116.8,2.6z"/>
		<path class="st1" d="M131.2,16h1.7V6.6h-1.7V3h7.8c1.4,0,2.1,0,3.1,0.3c1.9,0.6,3.2,2,3.2,4.1c0,1.4-0.6,2.8-1.9,3.5v0
			c2.1,0.6,2.6,2.3,2.6,3.7c0,2.7-1.9,4.3-4,4.7c-0.9,0.2-1.6,0.2-2.5,0.2h-8.3V16z M139.3,9.2c0.8,0,1.1-0.5,1.1-1.2
			c0-0.7-0.3-1.2-1.2-1.2h-1.3v2.3H139.3z M139.7,15.7c0.9,0,1.3-0.6,1.3-1.4c0-0.7-0.3-1.3-1.3-1.3h-1.8v2.7H139.7z"/>
		<path class="st1" d="M161.7,12.6L161.7,12.6c0.2,0.1,0.3,0.2,0.5,0.3c0.3,0.2,0.5,0.4,0.7,0.9l0.8,1.7c0.2,0.3,0.5,0.5,1,0.5h0.6
			v3.5H162c-1.3,0-1.9-0.4-2.3-1.2l-1.9-3.8c-0.2-0.4-0.4-0.6-1.2-0.6h-0.3V16h1.5v3.5h-8.2V16h1.7V6.6h-1.7V3h7.6
			c1.3,0,2.5,0,3.5,0.3c2.1,0.6,3.5,2.4,3.5,4.8C164.1,10,163.2,11.6,161.7,12.6z M157.5,10.3c0.4,0,0.8-0.1,1-0.3
			c0.5-0.3,0.7-0.8,0.7-1.5c0-1-0.5-1.7-2.1-1.7h-0.9v3.5H157.5z"/>
		<path class="st1" d="M177,2.7c5.2,0,8.8,3.7,8.8,8.4c0,4.9-3.6,8.7-8.8,8.7s-8.8-3.8-8.8-8.7C168.2,6.5,171.9,2.7,177,2.7z
			 M177,15.6c2,0,3.7-1.9,3.7-4.4c0-2.4-1.7-4.2-3.7-4.2s-3.7,1.8-3.7,4.2C173.4,13.7,175,15.6,177,15.6z"/>
		<path class="st1" d="M193.3,13.5v1c0,0.7,0.9,1.1,2,1.1c1.1,0,1.7-0.4,1.7-0.9c0-1-1.8-1.3-3.4-1.9c-2.3-0.9-4.3-1.9-4.3-4.9
			c0-4,3.2-5,6.3-5c2.9,0,5.9,1.1,5.9,3.4v2.6h-4.4V7.8c0-0.5-0.6-0.8-1.5-0.8c-0.7,0-1.3,0.2-1.3,0.7c0,0.9,1.2,1.2,2.6,1.7
			c2.6,0.9,5.1,1.9,5.1,5c0,4-3.5,5.4-6.7,5.4c-3.3,0-6.4-1.5-6.4-4.3v-2.1H193.3z"/>
	</g>
	<g class="st0">
		<path class="st1" d="M14.4,30.4c0.4-0.4,1.1-0.4,1.5,0c0.4,0.4,0.4,1.2,0,1.6c-0.4,0.4-1.1,0.4-1.5,0C14,31.5,14,30.8,14.4,30.4z"
			/>
	</g>
	<g class="st0">
		<path class="st1" d="M22.1,34.5v-7.3h3.1c1.5,0,2.4,0.7,2.4,2c0,0.6-0.2,1.1-0.7,1.5c0.6,0.4,0.9,1,0.9,1.7c0,0.6-0.2,1.1-0.7,1.5
			c-0.4,0.4-1,0.6-1.7,0.6H22.1z M23.6,28.7v1.5H25c0.8,0,1.2-0.2,1.2-0.7c0-0.5-0.3-0.7-1.2-0.7H23.6z M23.6,33.1H25
			c0.8,0,1.3-0.2,1.3-0.8c0-0.5-0.4-0.8-1.2-0.8h-1.5V33.1z"/>
		<path class="st1" d="M32.5,34.5v-7.3h5.1v1.4H34v1.4h3.5v1.4H34v1.6h3.7v1.4H32.5z"/>
		<path class="st1" d="M45,32.5l1.6-5.3h1.5l-2.4,7.3h-1.5l-2.4-7.3h1.5L45,32.5z"/>
		<path class="st1" d="M52.5,34.5v-7.3h5.1v1.4h-3.7v1.4h3.5v1.4h-3.5v1.6h3.7v1.4H52.5z"/>
		<path class="st1" d="M66.5,34.5l-1.4-2.3H64v2.3h-1.5v-7.3h2.9c0.8,0,1.4,0.2,1.9,0.6c0.5,0.4,0.8,1,0.8,1.7c0,1-0.5,1.9-1.4,2.3
			l1.5,2.6H66.5z M64,28.7v2.1h1.1c1,0,1.5-0.4,1.5-1.1c0-0.7-0.5-1-1.5-1H64z"/>
		<path class="st1" d="M76.3,27.3l2.7,7.3h-1.5L77,33.1h-2.7l-0.5,1.4h-1.5l2.7-7.3H76.3z M75.6,29.4l-0.9,2.4h1.7L75.6,29.4z"/>
		<path class="st1" d="M86.8,31.9v-1.4h2.8v2.9c-0.7,0.7-1.7,1.2-2.9,1.2c-1,0-1.9-0.4-2.6-1c-0.7-0.7-1-1.6-1-2.7
			c0-1.1,0.3-2,1-2.7c0.7-0.7,1.6-1,2.6-1c1.1,0,2.1,0.5,2.8,1.4l-1,1.1c-0.4-0.6-1.1-1-1.8-1c-0.5,0-1,0.2-1.4,0.6
			c-0.4,0.4-0.6,1-0.6,1.7c0,0.7,0.2,1.3,0.6,1.7c0.4,0.4,0.9,0.6,1.5,0.6c0.6,0,1-0.1,1.4-0.4v-0.9H86.8z"/>
		<path class="st1" d="M94.5,34.5v-7.3h5.1v1.4H96v1.4h3.5v1.4H96v1.6h3.7v1.4H94.5z"/>
		<path class="st1" d="M117.1,33.3c-0.7,0.9-1.7,1.4-2.8,1.4c-1.1,0-1.9-0.3-2.7-1c-0.7-0.7-1-1.6-1-2.7c0-1.1,0.3-2,1-2.7
			c0.7-0.7,1.6-1,2.6-1c1.1,0,2.1,0.5,2.8,1.4l-1,1.1c-0.4-0.6-1.1-1-1.8-1c-0.5,0-1,0.2-1.4,0.6c-0.4,0.4-0.6,1-0.6,1.7
			c0,0.7,0.2,1.3,0.6,1.7c0.4,0.4,0.9,0.6,1.5,0.6c0.8,0,1.4-0.3,1.9-1L117.1,33.3z"/>
		<path class="st1" d="M122.4,28.2c0.7-0.7,1.5-1.1,2.5-1.1c1,0,1.9,0.4,2.6,1.1c0.7,0.7,1,1.6,1,2.7c0,1.1-0.3,2-1,2.7
			c-0.7,0.7-1.5,1.1-2.6,1.1c-1,0-1.9-0.4-2.5-1.1c-0.7-0.7-1-1.6-1-2.7C121.4,29.8,121.7,28.9,122.4,28.2z M123.5,32.5
			c0.4,0.4,0.9,0.7,1.5,0.7c0.6,0,1.1-0.2,1.5-0.7c0.4-0.4,0.6-1,0.6-1.6c0-0.6-0.2-1.2-0.6-1.6s-0.9-0.7-1.5-0.7
			c-0.6,0-1.1,0.2-1.5,0.7c-0.4,0.4-0.6,1-0.6,1.6C122.9,31.5,123.1,32.1,123.5,32.5z"/>
		<path class="st1" d="M136,33.1l-1.3-2.6v4.1h-1.5v-7.3h1.5l2,4.1l2-4.1h1.5v7.3h-1.5v-4.1l-1.3,2.6H136z"/>
		<path class="st1" d="M146.6,32.2v2.3h-1.5v-7.3h2.8c0.8,0,1.5,0.2,2,0.7c0.5,0.4,0.7,1,0.7,1.8c0,0.8-0.2,1.4-0.8,1.8
			c-0.5,0.5-1.2,0.7-2,0.7H146.6z M146.6,28.7v2.1h1.1c1,0,1.5-0.4,1.5-1.1c0-0.7-0.5-1-1.5-1H146.6z"/>
		<path class="st1" d="M158.7,27.3l2.7,7.3h-1.5l-0.6-1.4h-2.7l-0.5,1.4h-1.5l2.7-7.3H158.7z M158,29.4l-0.9,2.4h1.7L158,29.4z"/>
		<path class="st1" d="M170.1,34.5l-2.8-4.9v4.9h-1.5v-7.3h1.8l2.8,4.9v-4.9h1.5v7.3H170.1z"/>
		<path class="st1" d="M177.8,27.3l1.4,3.1l1.4-3.1h1.6l-2.3,4.7v2.5h-1.5V32l-2.3-4.7H177.8z"/>
	</g>
	<g class="st0">
		<path class="st1" d="M186.9,30.4c0.4-0.4,1.1-0.4,1.5,0c0.4,0.4,0.4,1.2,0,1.6c-0.4,0.4-1.1,0.4-1.5,0
			C186.5,31.5,186.5,30.8,186.9,30.4z"/>
	</g>
</g>
</svg>
