<?xml version="1.0" encoding="utf-8"?>
<!-- Generator: Adobe Illustrator 19.0.0, SVG Export Plug-In . SVG Version: 6.00 Build 0)  -->
<svg version="1.1" id="Layer_1" xmlns="http://www.w3.org/2000/svg" xmlns:xlink="http://www.w3.org/1999/xlink" x="0px" y="0px"
	 width="72.8px" height="33.8px" viewBox="0 0 72.8 33.8" style="enable-background:new 0 0 72.8 33.8;" xml:space="preserve">
<style type="text/css">
	.st0{fill:#FFD83B;}
</style>
<g id="XMLID_14_">
	<g>
		<path class="st0" d="M39.1,14.2c0,0-0.5,3.6-5.2,4.1h-0.1c-0.4,0-0.8,0-1.2-0.1c-0.2,0.3-0.3,0.6-0.5,0.8
			c-0.2,0.4-0.4,0.8-0.6,1.1c-0.1,0.2-0.4,0.3-0.6,0.5c-0.2,0.3-0.4,0.7-0.7,1c-1.5,1.4-3.2,2.3-4.9,2.3c-3.7,0-5.9-4.3-4.8-9.6
			c0.2-1.1,0.6-2.2,1.1-3.2c0.1-0.3,0.5-0.5,0.6-0.8c0.4-0.8,0.6-1.5,1.1-2.1C23.6,8,23.9,8,24,7.9c0.1-0.2,0.1-0.6,0.3-0.8
			c1.5-1.5,3.3-2.5,5.1-2.5c1.8,0,3.2,1,4.1,2.7c0.1,0.2,0.2,0.5,0.3,0.8c0.3,0.7,0.4,1.4,0.5,2.3v0.3c0,0.2,0,0.3,0,0.5v0.5
			c0,0.1-0.1,0.4-0.1,0.5c0,0.1,0.1,0.1,0,0.3c0,0.1,0,0.3,0,0.5c0,0.3-0.2,0.7-0.3,1c0,0.3,0,0.6,0,0.9c-0.2,0.7-0.4,1.3-0.7,1.9
			c0.2,0,0.4,0,0.6,0c3.6-0.4,4.3-2.4,4.3-2.4C38.2,14.2,38.8,14,39.1,14.2z M22.4,18.6c0-0.1,0.1-0.2,0.2-0.4
			C22.2,17.7,21.8,18.4,22.4,18.6z M22.7,19.3c-0.2,0.1-0.6,0.1-0.6,0.5C22.4,20,22.8,19.7,22.7,19.3z M23.6,19.3
			c-0.1-0.1-0.5-0.1-0.5,0.1c0.2,0,0.1,0.4,0.4,0.3C23.5,19.6,23.6,19.6,23.6,19.3z M31.3,17.6c-0.6-0.3-1.1-0.7-1.5-1.2
			c-0.1-0.1-0.3-0.1-0.3-0.2c-0.1-0.1-0.3-0.3-0.4-0.6c0,0,0-0.3-0.1-0.4c0-0.1-0.2-0.1-0.3-0.3l-0.1-0.3c-0.1-0.3-0.2-0.7-0.3-1.1
			c-0.6-2.3-0.2-4.9,0.7-6.2c-1.4,0.4-3,3.1-4,6.7c-0.3,1.2-1.2,7.2,1.4,7.2C28.1,21.2,30,19.8,31.3,17.6z M30.3,7.5
			c-0.6,0.8-1.5,3.4-0.9,5.7c0.1,0.3,0.1,0.8,0.2,1.1c0.1,0.2,0.3,0.3,0.4,0.5c0.1,0.3,0.3,0.5,0.6,0.8c0,0.1,0.1,0.3,0.2,0.4
			c0.2,0.1,0.4,0.2,0.6,0.3c0.1,0.1,0.2,0.2,0.4,0.2c0.3-0.7,0.6-1.5,0.8-2.3C33.2,11,32.2,8.2,30.3,7.5z"/>
		<path class="st0" d="M58.6,14.4c-0.4,1.2-1.1,2.6-1.7,3.9c-0.3,0.5-0.6,0.9-0.9,1.3c-0.5,0.8-0.8,1.6-1.6,2.1
			c-0.3,0.2-0.5,0.7-0.8,0.9c-0.3,0.2-1.3,0.7-1.9,0.9c-0.4,0.1-0.8,0.1-1.3,0.1L50,23.2c-0.1,0,0,0.3-0.2,0.3c-0.1,0-0.1,0-0.2,0.1
			c-0.8-0.3-1.3-0.5-1.7-1.2c-0.2-0.3-0.6-0.6-0.8-0.8c-0.3-0.4-0.3-1.1-0.5-1.6c0-0.2,0.1-0.3,0.3-0.3c0-0.2-0.4,0-0.5-0.2
			c0-0.4,0.1-0.5,0.2-0.7c-0.8,0.1-0.9,1.5-1.4,2.2c-0.2,0.3-0.6,0.3-0.6,0.7c-0.5,0.1-0.7,0.5-0.9,0.9c-0.3,0-0.3,0.1-0.6,0
			c0.2,0.2-0.3,0.4-0.4,0.7c-0.1,0-0.3,0-0.3-0.1c-0.8,0.8-2.5,0.7-3.5,0.1c-0.1-0.4-0.5-0.7-1-0.8l-0.1-0.2
			c-1.1-1.1-1.4-3.3-1.2-6.8c0.2-3,0.7-6.3,1.2-9.2C38,5.8,38.2,5.5,38.3,5c1.1-0.9,3-0.4,4.2,0.2c-0.1,1.3-0.3,2.7-0.6,4.2
			l-0.1,1.2c0,0,0,0.2,0,0.5L41.1,21c0.2,0.3,0.4,0.6,0.1,0.8c3.3,0.4,4.3-2.4,5.3-4.6c0,0,0.6-5.9,0.5-5.9c0.4-1.5,0.4-2.6,0.6-4.1
			c0-0.1,0-0.8,0-1.1c0-1,1.1-1.6,2.2-1.5c0.8,0,1.5,0.5,2.1,0.7c0.3,1.1,0,2.6-0.4,3.6c0,0.2,0,0.5,0.1,0.6c0,0.2-0.1,0.4-0.3,0.5
			c0.3,0.6-0.2,1.8-0.3,2.7c-0.1,0.6,0.1,1.1-0.3,1.5c-0.1,2.4-0.7,4.7,0.1,7.1c0.5,0.4,1.1,0.7,2,0.7c0.2-0.4,0.8-0.8,1.2-1.1
			c0.6-0.7,1-1.7,1.7-2.3c0.1-1,0.9-1.7,1.3-2.5c0.3-0.6,0.1-1.6,1-1.8C58.3,14,58.4,14.2,58.6,14.4z M36.8,17.3v0.3h0.3
			C37.1,17.4,37,17.4,36.8,17.3z M39.2,18.2c0-0.5,0.3-0.7,0.6-0.7c-0.1-0.3-0.3-0.7-0.6-1c0-0.3,0.2-0.1,0.5-0.1
			c-0.2-0.5,0.2-0.7,0-1c-0.5-0.1-0.1,0.7-0.5,0.7c-0.2-0.1-0.3-0.4-0.5-0.6c0.1-0.1,0.4-0.3,0.2-0.5c-0.3-0.1-0.2,0.1-0.5,0.1
			c0-0.2-0.2-0.2-0.2-0.5h0.5c0-0.3-0.2-0.4-0.5-0.4C38,14.7,38.1,15,38,15.6c0.3,0.1,0.1-0.2,0.5-0.2c-0.3,0.3,0,1.4-0.6,1.5
			c0,0.4,0.5,0.4,0.7,0.8c-0.4,0.2-0.5,1.1-1.2,0.6c0.1,0.3-0.1,0.5-0.2,0.7c0.5,0,0.2,0.6,0.5,0.7c0.1-0.4-0.1-0.2-0.1-0.6
			C37.9,18.4,38.6,18.1,39.2,18.2z M37.5,17.5c0.1,0,0.2,0.1,0.4,0.1C38,17.2,37.5,17.2,37.5,17.5z M37.8,7.9
			c0.2-0.1,0.6-0.3,0.9-0.1c0-0.3-0.3-0.2-0.2-0.6C38.1,7,38.1,7.5,38,7.7c0,0-0.1-0.1-0.1-0.2L37.8,7.9z M38.4,19.9
			c-0.2,0-0.4-0.2-0.5,0.1C38,20.1,38.4,20.1,38.4,19.9z M38,20.7c0.3,0,0,0.5,0.5,0.4C38.6,20.7,38,20.5,38,20.7z M38.1,6.7
			c0,0,0.1,0,0.2,0c0-0.1-0.1-0.2-0.2-0.2C38.1,6.5,38.1,6.6,38.1,6.7z M38.8,11.6c-0.2,0.2-0.6,0.3-0.7,0.7c0.1,0.5,0.6,0,0.9-0.1
			c0.2,0.3,0.2,0.6,0,0.9c0.3,0.1,0.3-0.2,0.5-0.3c0.4,0,0.2,0.5,0.5,0.6c0.7,0,0.4-0.6,0.3-1c-0.7,0.1-0.7-0.4-1.2-0.5
			c-0.2-0.7,0.4-1.2,0.3-2.1c0.2,0,0.6,0,0.7,0.1c0,0.2,0.1,0.6-0.1,0.6c0.1,0.2,0.7,0.3,0.4,0.7c0.7-0.1,0.2-0.5,0.4-0.8
			c0-0.1-0.2-0.1-0.4-0.1c0-0.2,0-0.4,0.2-0.5c-0.2,0-0.1-0.2-0.3-0.4c-0.1-0.2-1.9,0.3-1.1,1.2C38.8,11,38.6,11.1,38.8,11.6z
			 M38.5,19.8c0.5,0.1,0.8,0.3,1-0.3c-0.4-0.3-0.8-0.6-1.1-0.5C38.6,19.1,38.6,19.5,38.5,19.8z M38.5,16.7h0.3
			C38.8,17.3,38.2,17.3,38.5,16.7z M38.8,20.6c0-0.1,0.2-0.5-0.1-0.4C38.7,20.3,38.6,20.5,38.8,20.6z M39.2,22
			c-0.4-0.3,0.2-0.4,0.2-0.8c-0.3-0.1-0.7,0.3-0.8,0.7C39,21.8,39.2,22.2,39.2,22z M38.8,19.4h0.3v0.3
			C38.9,19.7,38.7,19.6,38.8,19.4z M38.8,7c0,0.3,0.5,0.3,0.7,0.1C39.3,6.9,39,7,38.8,7z M39.6,17.8c0.1,0.6-0.5,0.5-0.8,0.7
			c0.2,0.2,0.7,0.2,0.4,0.7c0.3,0,0.2,0.2,0.4,0.2c0.1-0.4-0.2-0.3-0.2-0.6c0.3-0.2,0.3,0.1,0.8,0.1C39.9,18.7,39.9,18.1,39.6,17.8z
			 M39,17.1c0-0.2,0.1,0,0.1,0.2C39,17.5,38.9,17.2,39,17.1z M39.9,14.3c-0.6-0.2-0.3,0.6-0.8,0.5c0,0.2,0,0.4,0.3,0.4
			C39.4,14.6,39.8,14.6,39.9,14.3z M39.2,6.6c0.3,0,0.5-0.2,0.8,0C40.1,5.8,39.1,6,39.2,6.6z M39.8,22.6c-0.1-0.2-0.5-0.5-0.7-0.1
			C39.2,22.8,39.7,22.9,39.8,22.6z M39.8,10.9c-0.2,0-0.3,0-0.4,0.2c0.3,0.1-0.1,0.3,0,0.6c0.1,0,0.4,0,0.4-0.1
			C39.7,11.4,40,11.2,39.8,10.9z M39.8,21.5c-0.1,0-0.1-0.1-0.3-0.1C39.4,21.7,39.9,21.7,39.8,21.5z M40.5,14.2
			c-0.1-0.3-0.3-0.5-0.6-0.6C39.6,13.9,40.3,14.3,40.5,14.2z M39.9,21.6c-0.1,0.4,0.4,0.1,0.6,0.2C40.6,21.5,40.1,21.5,39.9,21.6z
			 M40.8,15.6c-0.4-0.3,0-0.6-0.1-1c-0.4,0.4-0.4,0-0.8,0.1c0,0.3,0.6,0.1,0.3,0.6C40.3,15.5,40.6,15.6,40.8,15.6z M41,8.5
			c0-0.5-0.3-0.6-0.1-1.1C40.5,7.4,40.3,6.4,40,7c0.4,0.2,0,0.5,0,1c0.4,0.1,0.2-0.3,0.5-0.2c0.2,0.2,0,0.1,0,0.4
			C40.8,8.1,40.8,8.4,41,8.5z M40.2,15.8v-0.2H40v0.2H40.2z M46.9,17.8c0.3,0.1,0.2-0.2,0.4-0.3c0,0.1,0,0.1,0.2,0.1
			C47.5,17.1,46.8,17.3,46.9,17.8z M47.6,19.3c-0.4,0-0.3-0.5-0.7-0.4C46.9,19.2,47.4,19.8,47.6,19.3z M47.5,15.7
			c0.2,0,0.7-0.3,0.4-0.6C47.9,15.5,47.2,15.5,47.5,15.7z M47.5,12.3c0.3,0,0,0.7,0.5,0.5C48,12.5,47.6,12.1,47.5,12.3z M48.3,20
			c-0.3,0-0.4-0.3-0.7-0.1C47.5,20.3,48.3,20.3,48.3,20z M47.7,18.6c-0.1,0.3,0.4,0.4,0.4,0.1C47.9,18.7,47.9,18.6,47.7,18.6z
			 M47.9,21.4h-0.2v0.2h0.2V21.4z M48.2,21.6c0.3-0.1,0.1,0.3,0.4,0.3C48.6,21.7,48.1,21.2,48.2,21.6z M48.2,14.6h0.2v-0.2h-0.2
			V14.6z M48.4,18.1c0.2-0.2,0.6,0.2,0.8-0.1c-0.2,0-0.3-0.2-0.5-0.3C48.6,17.9,48.4,17.9,48.4,18.1z M48.7,20.9v0.3
			c0.3,0,0.3,0.2,0.7,0.1C49.4,20.7,48.9,20.9,48.7,20.9z M49.4,20.6c0-0.1,0-0.2-0.2-0.2C49.3,20.5,49.2,20.7,49.4,20.6
			C49.3,20.6,49.4,20.6,49.4,20.6z M49.6,6.8c0,0.1-0.1,0.2,0,0.3C49.7,6.9,49.8,6.9,49.6,6.8z M50.4,14.3h-0.2v0.2h0.2V14.3z"/>
		<path class="st0" d="M72.8,14.5c-0.2,0.5-0.4,1-0.6,1.4c-0.2,0.6-0.5,1.5-0.9,2.1c-0.9,1.3-1.6,2.9-3,4c-0.8,0.6-1.2,0.8-2.3,1.1
			c-2.8,0.8-5.1-2.8-4.7-6.4c0-0.2,0.1-0.6,0.1-0.9c0.1-0.6-0.3-1.6,0.3-1.7c-0.1-0.4-0.3-1.7,0.2-2c-0.3-0.5-0.2-1.2,0.3-1.4
			c-0.3-0.2-0.4-0.8,0.1-0.8c0-0.3-0.4-0.4-0.4-0.9c-0.2,0-0.4,0-0.6,0c0,0-0.3,0.9-0.3,0.9c0,0.1-0.1,0.2-0.2,0.3
			c-0.9,1.7-1.8,3.4-2.8,4.9c-0.3,0-0.6-0.1-0.7-0.4c0.1-0.4,0.3-0.5,0.6-0.7c0.1-0.6,0.4-1.1,1-1.3c0-0.8,0.6-1.1,1-1.5
			c0-1.1,0.8-1.3,0.8-2.2c-1.9-0.3-4.1-2.5-4.3-2.7c-0.8-1.9-0.1-4.6,1.5-5.7c0,0,0.3,0,0.5-0.1c0,0,0.1-0.2,0.2-0.3
			c0.8-0.3,2.4-0.1,3.1,0.5c0.6,0.5,0.6,1.3,1.1,2c-0.2,0.5,0.1,1,0.1,1.6c0,0.1,0.2,0.5,0.4,0.6c0.4,0.1,0.8,0,1.1-0.2
			c0.4,0.1,1,0,1.3,0.2c0,0,0.8,0.8,0.8,0.8c0.2,0.2,0.4,0.8,0.4,0.9c0.1,0.8-0.1,1.6-0.2,2.4c0,0.4-0.6,5.3-0.7,6.5
			c0,0.3-0.1,0.5-0.1,1c0,1-0.2,2.1-0.1,2.9c0.1,0.9,0.4,1.8,1.1,2.1c0.8-0.2,1.4-0.4,2-1c1.1-1.1,2-3,2.7-4.6
			c0.1-0.2,0.3-0.5,0.4-0.7c0.1-0.2,0-0.6,0.1-0.8l0.1-0.1C72.2,14.2,72.5,14.3,72.8,14.5z M57.1,6.3c0.2,0,0.3,0,0.4,0.1
			C57.7,6.1,57.1,6.1,57.1,6.3z M61.9,4.6c-0.2-1.1,0-2-0.5-2.6c-0.9-1.4-2.8-1.2-3.1,0.2c-0.1,0.4,0,1.2,0.1,1.4
			c0.3,0.1,0.5,0.3,0.9,0.4c0.2,0.1,0.1,0.5,0.4,0.5C60.4,4.2,61.1,4.5,61.9,4.6z M58.8,6.6l-0.4-0.3C58,6.6,58.7,7,58.8,6.6z
			 M60.5,7.8c0.1,0.1,0.4,0.1,0.6,0.1C61.3,7.5,60.6,7.6,60.5,7.8z M61.6,6.5c-0.2,0-0.4,0-0.5,0.2c0.3,0.1,0.1,0.7,0.5,0.8
			C61.4,7.1,61.6,6.8,61.6,6.5z M61.8,8.6l0,0.1C62.1,8.9,62.1,8.5,61.8,8.6z M62.6,9.6c0,0-0.2-0.1-0.3,0
			C62.2,9.8,62.7,9.8,62.6,9.6z M62.5,17c0,0.2,0.2,0.2,0.4,0.3C62.9,17,62.7,16.9,62.5,17z M63.4,8.7c-0.3,0-0.5,0-0.8-0.1
			C62.7,9,63.4,9.1,63.4,8.7z M63.1,16.3c0,0.2-0.1,0.2-0.1,0.4h0.3C63.3,16.5,63.2,16.3,63.1,16.3z M63.5,10.4
			c-0.1,0-0.3,0-0.3,0.2C63.4,10.7,63.5,10.6,63.5,10.4z M63.8,16.2c0,0.2-0.3,0.1-0.2,0.3C63.8,16.6,64,16.2,63.8,16.2z M64.1,8.8
			c0-0.2-0.1-0.3-0.3-0.3C63.7,8.7,63.8,8.8,64.1,8.8z M64.6,8.4c-0.2,0-0.3,0-0.4-0.1C64.1,8.6,64.6,8.6,64.6,8.4z"/>
	</g>
	<g id="XMLID_15_">
		<path id="XMLID_16_" class="st0" d="M23.3,10.6c0,0.6-0.3,1.1-0.6,1.7c-0.2,0.5-0.6,0.9-0.8,1.3c-0.1,0.2,0,0.4-0.1,0.6
			c-0.1,0.3-0.5,0.4-0.7,0.7c-0.1,0.3-0.2,0.6-0.4,0.9c-0.3,0.5-1.2,1.7-1.2,1.7c-0.8,0.6-1.4,1.3-2.3,2c-0.8,0.6-1.2,1.2-2.2,1.2
			c-0.3,0.2-0.5,0.5-0.9,0.6C14,22,13.9,22.6,13.5,23h0v0.1c0.1,0.3-0.1,0.6-0.3,0.9c-0.2,0.6-0.4,1.2-0.8,2l-0.6,1.2c0,0,0,0,0,0.1
			c0,0.1-0.1,0.3-0.2,0.4c-0.9,1.7-2.1,3.3-3.2,4.2l0,0c-1.4,1-3.2,2.2-5.4,1.7c-0.2-0.1-0.3-0.1-0.5-0.3c-0.3,0-0.3,0.2-0.6,0.1
			c-0.5-0.3-1.3-0.9-1.3-1.5c0-0.2,0-0.2,0.2-0.2c0-0.2-0.4,0-0.5-0.2c-0.5-2.4,0.2-3.3,0.8-5.1c0.1,0,0.2-0.1,0.4-0.1
			C1.7,25.1,3,25,3.7,24.1c1.9-1,4-1.6,6.1-2.4c0.2,0,0.3,0,0.5,0.1c0.4-0.4,0.2-0.9,0.3-1.4c0.1-0.5,0.4-0.9,0.5-1.3
			c0-0.4-0.3-0.9,0.2-1.1c-0.4-0.3,0-0.9,0-1.3c-0.7,0.6-1,1.6-1.6,2.2c-0.3,0.3-0.8,0.5-1.1,0.9c-0.3-0.3-0.4,0.3-0.6,0.1
			c-1.4,1.4-4,0.4-4.9-0.9c-0.2-0.3-0.7-1.5-0.8-2c0-0.3,0-0.7-0.1-1c0-0.2-0.2-0.4-0.2-0.5c0-0.7,0.2-1.3,0.2-2.1
			c0-0.3-0.1-0.5-0.1-0.8c0-0.6,0.4-1.3,0.4-2c0-0.6,0.1-0.8,0.2-1.6c0.1-0.6,0.2-1.7,0.1-1.9C3.1,6,3.2,4.9,3.2,3.7
			c0.1-0.1,0.3-1.4,0.4-1.8c0.2-0.1,0.5-0.2,0.6-0.5h0.1C5.1,1,7.1,1.4,7.9,2.1c0.5,0.5,0,2.3-0.4,4.1C7.3,6.7,7.1,7.3,7,7.8
			c-0.4,3.1-1.3,6.8-0.5,10.1c-0.1,0.1,0.3,0.4,0.6,0.7c2.8,0,3.2-2.3,4.6-3.6c-0.3-1,0.1-2.1,0.2-3c0-0.2,0.1-0.5,0.2-0.7
			c0-1,0.3-2.7,0.5-4.3c0.2-1.4,0.7-4.3,0.7-4.4c0.1-0.1,0.1-0.2,0.1-0.2C14,1.6,14.7,1.2,16,1.5c0.2,0,0.2,0.2,0.3,0.3
			C17,1.5,17.2,2,17.7,1.9c-0.3,1.4-0.4,2.9-1.2,3.7c0.1,0.1,0.2,0.2,0.3,0.4c0.1,0.3-0.2,0.3-0.3,0.6c-0.1,2.1-0.9,4.1-0.9,6.2
			c0,0,0,0.2-0.1,0.6c-0.6,0.7,0.3,2.3-0.5,3c0,0.4,0.1,0.7,0,1.1c-0.2,0.6-0.2,1.6-0.5,2.4c0.1,0.3,0.3-0.2,0.5,0.1
			c0.8-0.5,1.6-1.2,2.3-2c0.3-0.2,0.4-0.3,0.8-0.5c2-2,3.4-4.4,4.5-7.3C23,10.4,23.1,10.4,23.3,10.6z M1.7,29.9
			c0-0.3-0.1-0.4-0.2-0.6c-0.1,0-0.4,0-0.4,0.1c0.3,0,0,0.6,0.3,0.7C1.5,30,1.5,29.9,1.7,29.9z M1.6,29.1h0.2v-0.2H1.6V29.1z
			 M2.5,30.8c-0.2,0-0.4,0-0.5,0.1c0-0.2-0.1-0.7-0.2-0.5c0,0.2,0,0.4-0.2,0.3c0.1,0.2,0.1,0.5,0.4,0.7C2.1,31,2.5,31.2,2.5,30.8z
			 M1.7,28.2c0.4,0,0.6-0.1,0.6-0.4C2.1,27.6,1.7,27.8,1.7,28.2z M2,29.7c0.3,0,0.3-0.2,0.3-0.5C2,29.2,1.8,29.5,2,29.7z M2.3,29.1
			v-0.4C1.9,28.7,1.9,29.2,2.3,29.1z M2.1,27.5c0.1,0,0.1,0,0.2,0.1c0-0.2,0-0.3-0.2-0.3V27.5z M3.2,28.7c-0.2,0-0.3-0.2-0.6-0.1
			C2.5,29,3.2,29,3.2,28.7z M2.9,26.7c0.2,0,0.2,0.1,0.4,0.1C3.7,26.4,2.9,26.1,2.9,26.7z M3.2,27.7H3v0.2h0.2V27.7z M3.4,13.9
			c0-0.3-0.1-0.4-0.3-0.5C3.1,13.6,3.2,13.8,3.4,13.9z M3.7,11.5c-0.2,0-0.4,0-0.5-0.1C2.9,11.9,3.7,12.2,3.7,11.5z M3.8,14.1
			c-0.7,0.1-0.2,0.7-0.5,1C3.8,14.9,3.5,14.5,3.8,14.1z M10.6,22.6c-0.3,0-0.1-0.4-0.5-0.3c-1.2,0.6-2.2,1.4-3.3,2.1
			c-0.4,0.8-1.2,1.2-1.6,2.1c-0.2,0-0.6,1.3-1.1,1.4c-0.1,0.9-0.2,1.8-0.5,2.5c0.3,0.3,0,1-0.2,1.2c0.7-0.1,0.6,0.5,0.8,0.9
			c0.3-0.3,0.6,0.3,1,0.3c2.2-0.4,2.8-2.4,3.7-4.2c0-0.2,0.8-2.6,0.8-2.6c0.1-0.7,0.4-1.2,0.5-1.7C10.3,23.7,10,22.9,10.6,22.6z
			 M4,26.1c0-0.2-0.1-0.3-0.4-0.3C3.5,26.2,3.7,26.2,4,26.1z M3.8,3C4,3,4.2,2.9,4.4,2.8C4,2.7,4.6,2.6,4.5,2.2C4.3,2.2,4.4,2,4.2,2
			C4.4,2.8,3.6,2.4,3.8,3z M5.7,7.3c0-0.4,0.1-0.7,0.3-1H5.3C5,5.9,5.1,5.6,4.8,5.1C5.2,5,5.3,4.6,5.4,4.4C5.3,4.5,5.3,4.7,5,4.7
			c0-0.1,0-0.4-0.1-0.4c-0.2,0,0,0.4-0.1,0.6c-0.3,0-0.3-0.2-0.5,0C4.3,5.2,4.6,5.1,4.6,5.5c-0.3,0.3-0.4,0.7-0.7,1
			C4.2,7.1,4.6,6.4,4.6,6C5,6.2,5.4,6.4,5.4,7C4.9,7.1,5,6.6,4.6,6.6C4.7,7.2,4.9,7.6,5.7,7.3z M4.3,14.3c0,0.1-0.1,0.2-0.2,0.4
			C4.3,14.7,4.5,14.3,4.3,14.3z M4.6,15c0,0.2-0.2,0.2-0.5,0.2c-0.1,0.3,0.3,0.2,0.5,0.4C4.6,15.4,4.9,15.2,4.6,15z M4.8,10.2
			l-0.3,0C4.7,10.2,4.8,10.2,4.8,10.2z M4.9,13c0.2-0.1,0.3-0.9,0-0.9C5,12.4,4.7,13,4.9,13z M5.1,9.2c-0.4-0.1-0.4,0.4,0,0.4V9.2z
			 M4.8,14.5c0.2,0,0.1,0.4,0.5,0.3C5.5,14.4,4.9,14.3,4.8,14.5z M4.9,1.8c0,0.2,0.4,0.1,0.5,0.3c0,0.3,0,0.7,0.6,0.5
			c0-0.1,0-0.2,0.1-0.3c0-0.4-0.5-0.2-0.5-0.7c0.2,0-0.1-0.2-0.1-0.1C5.5,1.9,5.2,2,4.9,1.8z M5,25.6h0.2c0-0.1,0.1-0.1,0.1-0.3H5.1
			C5.1,25.5,5,25.5,5,25.6z M5.1,8v0.3C5.4,8.4,5.4,7.8,5.1,8z M6.6,8.1c-0.1-0.2,0-0.7-0.3-0.7c0.4,0.5-0.7,0.4-0.4,0.8
			C5.9,8,6.4,8.1,6.6,8.1z M6.5,6.2h0.3C6.8,6,6.7,6,6.5,6V6.2z M7.2,3.2c0-0.3-0.1-0.3-0.3-0.4C6.8,3.1,7,3.1,7.2,3.2z M11.5,20.5
			c0-0.1,0-0.2-0.2-0.2C11.3,20.4,11.3,20.6,11.5,20.5C11.4,20.5,11.4,20.5,11.5,20.5z M11.8,18.6c-0.1,0-0.1-0.1-0.2-0.1
			c0.1,0.2-0.4,0.3-0.1,0.4c0-0.1,0.1-0.1,0.3-0.1V18.6z M12.6,10.2c0,0.3-0.3,0.2-0.2,0.6C12.7,10.9,12.7,9.9,12.6,10.2z
			 M13.9,11.2c-0.5,0-0.7,0-1.1-0.1c0.1,0.3,0.4,0.4,0.7,0.5C13.6,11.4,13.9,11.4,13.9,11.2z M13.7,9.8c0.2,0,0.3,0,0.4-0.2
			C14,9.5,13.7,9.5,13.7,9.8z M13.8,12c0.1,0.1,0.2,0.1,0.5,0.1c0-0.2,0-0.4,0.1-0.4c0.3,0,0.5,0.6,0.9,0.3
			c-0.3-0.4-0.7-0.4-1.2-0.5C13.9,11.7,13.8,11.8,13.8,12z M14.1,19.9h-0.2v0.2h0.2V19.9z M15.4,10.2c0-0.2-0.1-0.4-0.1-0.7
			c-0.5,0.3-1.1,0.2-1.3,1c0.4,0,0.4-0.5,0.9-0.5c0.3,0.2-0.1,0.2-0.1,0.5C15,10.4,15.2,10.3,15.4,10.2z M14.3,17.9
			c0,0.2-0.4,0-0.3,0.4C14.3,18.5,14.6,18.1,14.3,17.9z M14.1,8.5c0,0.2,0.2,0.8,0.4,0.4C14.2,9,14.4,8.4,14.1,8.5z M14.2,4.7
			c0,0.5,0,0.9,0.3,1.1c0-0.2,0.3,0,0.4,0c-0.1-0.3,0.1-0.4-0.1-0.6c0.1,0.2-0.4,0.2-0.4,0c-0.1-0.3,0.5-0.4,0.2-0.6
			C14.4,4.9,14.4,4.7,14.2,4.7z M14.5,3.5c0,0.3,0.4,0,0.7,0.2C15.2,3.4,14.6,3.5,14.5,3.5z M14.9,4.9C15.3,5,15.3,4.5,15,4.5
			C15,4.6,14.9,4.7,14.9,4.9z M14.9,3.2h0.3C15.3,3,15.1,3,14.9,3V3.2z M15.2,5.5c0.3,0,0.7,0,0.8-0.1c-0.2-0.3,0.1-0.7-0.2-0.8
			C16,5.3,15.1,4.9,15.2,5.5z M15.8,9.3c-0.2,0-0.2-0.2-0.5-0.1C15.2,9.6,15.8,9.5,15.8,9.3z M15.5,9.1c0-0.1,0.1-0.1,0.1-0.3h-0.2
			c0,0.1-0.1,0.1-0.1,0.3H15.5z M15.4,4c0.1,0.1-0.1,0.6,0.1,0.6C15.7,4.4,15.6,4.1,15.4,4z M15.7,6.1c0.2,0,0.5,0.4,0.6,0.3
			C16.3,6.2,15.9,5.9,15.7,6.1z M16.5,3.9c-0.1,0-0.1-0.1-0.3-0.1C16,4,16.5,4.1,16.5,3.9z M16.2,3.3c0.1,0,0.2-0.1,0.3-0.2
			C16.3,3.1,16.3,3.2,16.2,3.3z"/>
	</g>
</g>
</svg>
